<?xml version="1.0"?><svg id="Capa_1" style="enable-background:new 0 0 100 100;" version="1.1" viewBox="0 0 100 100" xml:space="preserve" xmlns="http://www.w3.org/2000/svg" xmlns:xlink="http://www.w3.org/1999/xlink"><path d="M50,87.04c-18.47,0-33.5-15.03-33.5-33.5s15.03-33.5,33.5-33.5c0.55,0,1,0.45,1,1s-0.45,1-1,1  c-17.37,0-31.5,14.13-31.5,31.5s14.13,31.5,31.5,31.5s31.5-14.13,31.5-31.5c0-0.55,0.45-1,1-1s1,0.45,1,1  C83.5,72.01,68.47,87.04,50,87.04z"/><path d="M42.92,29.11c-0.26,0-0.51-0.1-0.71-0.29c-0.39-0.39-0.39-1.02,0-1.41l6.36-6.36l-6.36-6.36c-0.39-0.39-0.39-1.02,0-1.41  s1.02-0.39,1.41,0l7.07,7.07c0.19,0.19,0.29,0.44,0.29,0.71s-0.11,0.52-0.29,0.71l-7.07,7.07C43.44,29.01,43.18,29.11,42.92,29.11z"/></svg>