<?xml version="1.0" encoding="UTF-8"?>
<svg id="_圖層_2" data-name="圖層 2" xmlns="http://www.w3.org/2000/svg" viewBox="0 0 67 74.05">
  <g id="Capa_1" data-name="Capa 1">
    <g>
      <path d="M33.5,74.05C15.03,74.05,0,59.02,0,40.55S15.03,7.05,33.5,7.05c.55,0,1,.45,1,1s-.45,1-1,1C16.13,9.05,2,23.18,2,40.55s14.13,31.5,31.5,31.5,31.5-14.13,31.5-31.5c0-.55,.45-1,1-1s1,.45,1,1c0,18.47-15.03,33.5-33.5,33.5Z" fill="#fff"/>
      <path d="M26.42,16.12c-.26,0-.51-.1-.71-.29-.39-.39-.39-1.02,0-1.41l6.36-6.36L25.71,1.7c-.39-.39-.39-1.02,0-1.41s1.02-.39,1.41,0l7.07,7.07c.19,.19,.29,.44,.29,.71s-.11,.52-.29,.71l-7.07,7.07c-.18,.17-.44,.27-.7,.27Z" fill="#fff"/>
    </g>
  </g>
</svg>