<?xml version="1.0" encoding="UTF-8"?>
<svg id="_圖層_2" data-name="圖層 2" xmlns="http://www.w3.org/2000/svg" viewBox="0 0 251.79 270.8">
  <g id="_圖層_1-2" data-name="圖層 1">
    <g>
      <g>
        <path d="M45.3,220.57c1.22,3.67,.83,6.44-.18,7.78-.72,.86-2.34,1.04-2.95,.04-.43-.9-.04-1.87,.79-2.52,.94-.94,1.94-3.31,1.73-5.29h.61Zm-3.09-4.57s.83-.18,1.15-.4c1.73-1.37,3.81-3.96,5.58-6.59-1.26,.47-2.77,.97-4.32,1.48-.25,.36-.54,.61-.83,.72l-1.58-3.82s.72-.14,1.01-.36c1.91-1.98,4.28-7.13,5.07-9.86l4.21,2.12c-.18,.32-.58,.58-1.29,.5-1.47,2.34-4.21,5.62-6.58,7.78,1.44,0,3.31,0,5.29-.04,.83-1.4,1.55-2.7,1.98-3.74l3.85,2.59c-.18,.29-.68,.5-1.37,.36-1.98,2.74-5.83,6.62-9.28,9.25,1.91-.07,4.5-.29,7.16-.47-.4-1.3-.97-2.59-1.47-3.53l.43-.18c6.69,3.64,3.92,8.68,1.58,6.48-.04-.58-.11-1.22-.29-1.84-2.05,.72-4.89,1.73-7.98,2.59-.29,.4-.61,.65-.94,.76l-1.37-3.82Zm6.15,3.96c5.22,4.64,1.8,9.47-.25,6.8,.4-2.16,.14-4.82-.25-6.7l.5-.11Zm3.49-.65c6.58,3.31,3.74,8.42,1.4,6.19,.04-1.98-.9-4.43-1.83-5.98l.43-.22Zm14.78-14.07v6.41h3.24l1.87-2.38s2.12,1.66,3.45,2.84c-.11,.4-.47,.58-.97,.58h-17.7l-.29-1.04h7.08v-6.41h-7.59l-.29-1.04h7.88v-6.95l4.6,.43c-.04,.5-.36,.86-1.29,1.01v5.51h3.67l1.91-2.45s2.19,1.69,3.49,2.92c-.07,.4-.43,.58-.94,.58h-8.13Zm4.57,9.75l3.2,2.48c-.25,.32-.61,.54-1.37,.65v11.45c0,.14-1.15,.76-2.77,.76h-.58v-2.66h-8.78v2.05c0,.25-1.01,.86-2.62,.86h-.58v-15.15l3.6,1.44h8.24l1.65-1.87Zm-1.51,11.63v-8.71h-8.78v8.71h8.78Z" fill="#231815"/>
        <path d="M91.22,209.84c7.48,2.92,4.75,7.99,2.19,5.83-.25-1.58-1.26-3.53-2.19-5v18.86c0,.36-1.37,1.01-2.52,1.01h-.68v-15.01c-1.22,2.52-2.77,4.79-4.68,6.8l-.5-.47c2.45-4.14,3.81-9.54,4.57-14.9h-3.96l-.29-1.04h4.86v-8.71l4.5,.47c-.07,.54-.36,.86-1.29,1.01v7.23h.68l1.69-2.38s1.91,1.66,3.02,2.84c-.07,.4-.43,.58-.93,.58h-4.46v2.88Zm23.63,10.37s1.58,1.58,2.48,2.66c-.07,.4-.4,.58-.9,.58h-2.81v3.38c0,2.16-.47,3.38-4.14,3.71-.07-.86-.22-1.58-.68-2.02-.43-.43-1.15-.79-2.62-.97v-.54s2.98,.22,3.63,.22c.54,0,.68-.22,.68-.72v-3.06h-11.04v6.05c0,.32-1.26,1.04-2.55,1.04h-.5v-7.09h-2.84l-.29-1.04h3.13v-10.98l3.24,1.4h3.78v-2.63h-8.85l-.29-1.01h5.32v-3.13h-3.02l-.29-1.04h3.31v-2.92h-4.28l-.29-1.04h4.57v-3.67l4.14,.4c-.07,.47-.36,.79-1.15,.9v2.38h4.14v-3.67l4.17,.4c-.07,.47-.4,.79-1.15,.94v2.34h1.73l1.69-2.09s1.91,1.48,3.06,2.56c-.11,.4-.47,.58-.94,.58h-5.54v2.92h1.33l1.55-1.94s1.8,1.4,2.84,2.41c-.07,.4-.4,.58-.9,.58h-4.82v3.13h2.3l1.69-2.12s1.87,1.48,3.02,2.56c-.11,.4-.47,.58-.93,.58h-9.42v2.63h3.78l1.44-1.73,3.45,2.59c-.22,.25-.75,.54-1.44,.68v7.67l1.22-1.84Zm-15.39-6.34v3.56h3.96v-3.56h-3.96Zm0,8.53h3.96v-3.92h-3.96v3.92Zm3.13-17.39h4.14v-2.92h-4.14v2.92Zm0,4.18h4.14v-3.13h-4.14v3.13Zm3.81,4.68v3.56h4.1v-3.56h-4.1Zm4.1,8.53v-3.92h-4.1v3.92h4.1Z" fill="#231815"/>
        <path d="M153.98,223.7s2.62,1.94,4.17,3.35c-.11,.4-.47,.58-1.01,.58h-32.15l-.32-1.04h14.75v-22.86h-12.05l-.29-1.04h22.37l2.27-2.92s2.55,1.98,4.17,3.38c-.11,.4-.5,.58-1.04,.58h-11.72v22.86h8.56l2.3-2.88Z" fill="#231815"/>
        <path d="M166.31,205.7c8.74,.68,6.44,6.95,3.2,5-.5-1.69-2.16-3.64-3.49-4.75l.29-.25Zm11.22-3.38c-1.58,4.82-4.5,13.71-5.04,15.69-.32,1.22-.61,2.48-.58,3.46,.04,1.76,1.33,3.2,1.22,6.34-.07,1.69-1.04,2.77-2.55,2.77-.79,0-1.44-.58-1.65-1.84,.61-3.71,.43-6.88-.43-7.42-.5-.36-1.08-.5-1.83-.58v-.72h1.62c.5,0,.65-.04,1.01-.79q.75-1.37,7.62-17.06l.61,.14Zm-8.34-4.75c9.21,1.01,6.8,7.52,3.42,5.47-.58-1.84-2.27-3.92-3.74-5.18l.32-.29Zm26.97,13.07s2.37,1.84,3.81,3.17c-.07,.4-.47,.58-.97,.58h-13.49l4.17,2.02c-.18,.32-.61,.61-1.37,.54-2.05,2.66-5.93,6.26-9.31,8.68,3.52-.18,8.96-.54,14.75-1.01-1.12-2.02-2.45-4.03-3.63-5.62l.43-.25c11.69,5.69,8.96,13.93,5.18,10.94-.29-1.33-.83-2.77-1.55-4.21-3.74,.97-9.13,2.27-15.61,3.56-.29,.4-.61,.65-.94,.79l-1.69-4.28s.83-.18,1.15-.43c2.66-2.02,6.22-7.49,7.59-10.73h-9.24l-.25-1.04h9.93v-7.6h-7.19l-.29-1.04h7.48v-7.52l4.75,.43c-.07,.5-.4,.86-1.33,1.01v6.08h3.81l2.09-2.66s2.27,1.84,3.67,3.13c-.11,.4-.47,.58-.97,.58h-8.6v7.6h5.5l2.12-2.7Z" fill="#231815"/>
      </g>
      <g>
        <g>
          <path d="M5.21,262.32c2.96,1.18,4,2.38,4,4.4,0,2.54-2.14,4.08-5.05,4.08-1.64,0-3.2-.54-4.15-1.16l.1-3H1.12l.48,2.64c.76,.44,1.44,.62,2.46,.62,2.18,0,3.63-.98,3.63-2.84,0-1.44-.84-2.16-2.92-3l-.82-.32c-2.24-.9-3.66-2.16-3.66-4.26,0-2.5,2.08-3.92,4.71-3.92,1.48,0,2.56,.44,3.51,1.14l-.1,2.8h-1.06l-.48-2.54c-.6-.36-1.18-.5-1.92-.5-1.82,0-3.16,.88-3.16,2.6,0,1.46,.94,2.32,2.54,2.94l.86,.32Z" fill="#fff"/>
          <path d="M26.33,269.76v.72h-5.77v-.72l2.2-.22-1.32-3.98h-5.13l-1.3,3.94,2.1,.26v.72h-4.79v-.72l1.8-.24,4.61-13.76h1.12l4.69,13.8,1.8,.2Zm-5.17-5.02l-2.3-6.92-2.28,6.92h4.57Z" fill="#fff"/>
          <path d="M33.4,256.77c-.06,1.88-.06,3.84-.06,5.88h3.63l.26-2.16h.84v5.24h-.84l-.28-2.28h-3.62c0,2.2,0,4.16,.06,6.08l2.14,.22v.72h-5.99v-.72l2.08-.22c.06-1.9,.06-3.84,.06-5.8v-1.1c0-1.94,0-3.9-.06-5.82l-2.08-.22v-.7h10.69l.16,3.76h-1l-.52-2.88h-5.47Z" fill="#fff"/>
          <path d="M55.34,266.7l-.14,3.78h-11.08v-.72l2.08-.22c.06-1.9,.06-3.84,.06-5.8v-1.1c0-1.94,0-3.9-.06-5.82l-2.08-.22v-.7h10.69l.14,3.76h-.98l-.54-2.88h-5.45c-.06,1.88-.06,3.84-.06,5.88h3.5l.3-2.16h.82v5.06h-.82l-.28-2.1h-3.52c0,2.22,0,4.18,.06,6.12h5.85l.52-2.88h1Z" fill="#fff"/>
          <path d="M78.11,266.56l-.06,3.16c-1.36,.78-2.8,1.08-4.33,1.08-4.35,0-7.31-3.14-7.31-7.62s3.1-7.62,7.31-7.62c1.3,0,2.72,.24,4.13,1.08l.08,3.14h-1.1l-.48-2.7c-.82-.44-1.62-.62-2.42-.62-3.18,0-5.57,2.44-5.57,6.72s2.26,6.72,5.43,6.72c.92,0,1.86-.18,2.76-.62l.48-2.72h1.08Z" fill="#fff"/>
          <path d="M95.32,263.18c0,4.74-3.14,7.62-6.53,7.62s-6.59-2.74-6.59-7.62,3.18-7.62,6.59-7.62,6.53,2.74,6.53,7.62Zm-6.53,6.74c3.12,0,4.59-3.28,4.59-6.74s-1.48-6.72-4.59-6.72-4.63,3.28-4.63,6.72,1.48,6.74,4.63,6.74Z" fill="#fff"/>
          <path d="M113.54,256.59l-1.86,.26-.02,13.78h-.66l-8.89-12.34,.02,11.2,2.32,.26v.72h-5.13v-.72l1.88-.24,.02-12.48-.18-.26-1.64-.2v-.68h3.12l8.27,11.58-.02-10.6-2.34-.28v-.7h5.11v.7Z" fill="#fff"/>
          <path d="M122.59,262.32c2.96,1.18,3.99,2.38,3.99,4.4,0,2.54-2.14,4.08-5.05,4.08-1.64,0-3.2-.54-4.16-1.16l.1-3h1.02l.48,2.64c.76,.44,1.44,.62,2.46,.62,2.18,0,3.64-.98,3.64-2.84,0-1.44-.84-2.16-2.92-3l-.82-.32c-2.24-.9-3.66-2.16-3.66-4.26,0-2.5,2.08-3.92,4.71-3.92,1.48,0,2.56,.44,3.52,1.14l-.1,2.8h-1.06l-.48-2.54c-.6-.36-1.18-.5-1.92-.5-1.82,0-3.16,.88-3.16,2.6,0,1.46,.94,2.32,2.54,2.94l.86,.32Z" fill="#fff"/>
          <path d="M136.93,256.77c-.06,1.9-.06,3.86-.06,5.86v1.1c0,1.92,0,3.88,.06,5.8l2.3,.22v.72h-6.37v-.72l2.32-.22c.04-1.9,.04-3.84,.04-5.8v-1.1c0-1.96,0-3.94-.04-5.86h-3.65l-.56,2.92h-1l.16-3.8h11.82l.2,3.8h-1l-.56-2.92h-3.66Z" fill="#fff"/>
          <path d="M158.33,269.76v.72c-.36,.1-.88,.2-1.54,.2-1.3,0-1.82-.36-2.06-1.26l-1-3.6c-.46-1.74-1.16-2.12-3-2.12h-1.34c0,2.06,0,3.96,.06,5.84l2.08,.22v.72h-5.93v-.72l2.08-.22c.06-1.9,.06-3.84,.06-5.8v-1.1c0-1.94,0-3.9-.06-5.82l-2.08-.22v-.7h5.95c3.26,0,5.15,1.38,5.15,3.82,0,1.76-1.26,3.28-3.66,3.72,1.24,.28,1.9,1.02,2.4,2.6l1.08,3.54,1.8,.18Zm-6.95-6.86c2.34,0,3.6-1.36,3.6-3.2s-1.08-2.98-3.46-2.98h-2.06c-.06,1.92-.06,3.86-.06,6.18h1.98Z" fill="#fff"/>
          <path d="M175.71,256.59l-1.9,.24-.04,7.84c0,4.32-2.04,6.12-5.07,6.12s-5.19-1.74-5.19-5.82v-2.32c0-1.96,0-3.92-.04-5.86l-1.86-.2v-.7h5.87v.7l-2.26,.24c-.02,1.9-.02,3.84-.02,5.82v1.84c0,3.76,1.46,5.02,3.75,5.02,2.66,0,3.93-1.48,3.93-5.4l-.02-7.24-2.36-.28v-.7h5.19v.7Z" fill="#fff"/>
          <path d="M191.31,266.56l-.06,3.16c-1.36,.78-2.8,1.08-4.33,1.08-4.35,0-7.31-3.14-7.31-7.62s3.1-7.62,7.31-7.62c1.3,0,2.72,.24,4.13,1.08l.08,3.14h-1.1l-.48-2.7c-.82-.44-1.62-.62-2.42-.62-3.18,0-5.57,2.44-5.57,6.72s2.26,6.72,5.43,6.72c.92,0,1.86-.18,2.76-.62l.48-2.72h1.08Z" fill="#fff"/>
          <path d="M201.7,256.77c-.06,1.9-.06,3.86-.06,5.86v1.1c0,1.92,0,3.88,.06,5.8l2.3,.22v.72h-6.37v-.72l2.32-.22c.04-1.9,.04-3.84,.04-5.8v-1.1c0-1.96,0-3.94-.04-5.86h-3.65l-.56,2.92h-1l.16-3.8h11.82l.2,3.8h-1l-.56-2.92h-3.66Z" fill="#fff"/>
          <path d="M214.23,256.81c-.06,1.9-.06,3.84-.06,5.82v1.1c0,1.92,0,3.88,.06,5.8l2.08,.22v.72h-5.93v-.72l2.08-.22c.06-1.9,.06-3.84,.06-5.8v-1.1c0-1.94,0-3.9-.06-5.82l-2.08-.22v-.7h5.93v.7l-2.08,.22Z" fill="#fff"/>
          <path d="M233.57,263.18c0,4.74-3.14,7.62-6.53,7.62s-6.59-2.74-6.59-7.62,3.18-7.62,6.59-7.62,6.53,2.74,6.53,7.62Zm-6.53,6.74c3.12,0,4.59-3.28,4.59-6.74s-1.48-6.72-4.59-6.72-4.63,3.28-4.63,6.72,1.48,6.74,4.63,6.74Z" fill="#fff"/>
          <path d="M251.79,256.59l-1.86,.26-.02,13.78h-.66l-8.89-12.34,.02,11.2,2.32,.26v.72h-5.13v-.72l1.88-.24,.02-12.48-.18-.26-1.64-.2v-.68h3.12l8.27,11.58-.02-10.6-2.34-.28v-.7h5.11v.7Z" fill="#fff"/>
        </g>
        <g>
          <path d="M5.21,262.32c2.96,1.18,4,2.38,4,4.4,0,2.54-2.14,4.08-5.05,4.08-1.64,0-3.2-.54-4.15-1.16l.1-3H1.12l.48,2.64c.76,.44,1.44,.62,2.46,.62,2.18,0,3.63-.98,3.63-2.84,0-1.44-.84-2.16-2.92-3l-.82-.32c-2.24-.9-3.66-2.16-3.66-4.26,0-2.5,2.08-3.92,4.71-3.92,1.48,0,2.56,.44,3.51,1.14l-.1,2.8h-1.06l-.48-2.54c-.6-.36-1.18-.5-1.92-.5-1.82,0-3.16,.88-3.16,2.6,0,1.46,.94,2.32,2.54,2.94l.86,.32Z" fill="#231815"/>
          <path d="M26.33,269.76v.72h-5.77v-.72l2.2-.22-1.32-3.98h-5.13l-1.3,3.94,2.1,.26v.72h-4.79v-.72l1.8-.24,4.61-13.76h1.12l4.69,13.8,1.8,.2Zm-5.17-5.02l-2.3-6.92-2.28,6.92h4.57Z" fill="#231815"/>
          <path d="M33.4,256.77c-.06,1.88-.06,3.84-.06,5.88h3.63l.26-2.16h.84v5.24h-.84l-.28-2.28h-3.62c0,2.2,0,4.16,.06,6.08l2.14,.22v.72h-5.99v-.72l2.08-.22c.06-1.9,.06-3.84,.06-5.8v-1.1c0-1.94,0-3.9-.06-5.82l-2.08-.22v-.7h10.69l.16,3.76h-1l-.52-2.88h-5.47Z" fill="#231815"/>
          <path d="M55.34,266.7l-.14,3.78h-11.08v-.72l2.08-.22c.06-1.9,.06-3.84,.06-5.8v-1.1c0-1.94,0-3.9-.06-5.82l-2.08-.22v-.7h10.69l.14,3.76h-.98l-.54-2.88h-5.45c-.06,1.88-.06,3.84-.06,5.88h3.5l.3-2.16h.82v5.06h-.82l-.28-2.1h-3.52c0,2.22,0,4.18,.06,6.12h5.85l.52-2.88h1Z" fill="#231815"/>
          <path d="M78.11,266.56l-.06,3.16c-1.36,.78-2.8,1.08-4.33,1.08-4.35,0-7.31-3.14-7.31-7.62s3.1-7.62,7.31-7.62c1.3,0,2.72,.24,4.13,1.08l.08,3.14h-1.1l-.48-2.7c-.82-.44-1.62-.62-2.42-.62-3.18,0-5.57,2.44-5.57,6.72s2.26,6.72,5.43,6.72c.92,0,1.86-.18,2.76-.62l.48-2.72h1.08Z" fill="#231815"/>
          <path d="M95.32,263.18c0,4.74-3.14,7.62-6.53,7.62s-6.59-2.74-6.59-7.62,3.18-7.62,6.59-7.62,6.53,2.74,6.53,7.62Zm-6.53,6.74c3.12,0,4.59-3.28,4.59-6.74s-1.48-6.72-4.59-6.72-4.63,3.28-4.63,6.72,1.48,6.74,4.63,6.74Z" fill="#231815"/>
          <path d="M113.54,256.59l-1.86,.26-.02,13.78h-.66l-8.89-12.34,.02,11.2,2.32,.26v.72h-5.13v-.72l1.88-.24,.02-12.48-.18-.26-1.64-.2v-.68h3.12l8.27,11.58-.02-10.6-2.34-.28v-.7h5.11v.7Z" fill="#231815"/>
          <path d="M122.59,262.32c2.96,1.18,3.99,2.38,3.99,4.4,0,2.54-2.14,4.08-5.05,4.08-1.64,0-3.2-.54-4.16-1.16l.1-3h1.02l.48,2.64c.76,.44,1.44,.62,2.46,.62,2.18,0,3.64-.98,3.64-2.84,0-1.44-.84-2.16-2.92-3l-.82-.32c-2.24-.9-3.66-2.16-3.66-4.26,0-2.5,2.08-3.92,4.71-3.92,1.48,0,2.56,.44,3.52,1.14l-.1,2.8h-1.06l-.48-2.54c-.6-.36-1.18-.5-1.92-.5-1.82,0-3.16,.88-3.16,2.6,0,1.46,.94,2.32,2.54,2.94l.86,.32Z" fill="#231815"/>
          <path d="M136.93,256.77c-.06,1.9-.06,3.86-.06,5.86v1.1c0,1.92,0,3.88,.06,5.8l2.3,.22v.72h-6.37v-.72l2.32-.22c.04-1.9,.04-3.84,.04-5.8v-1.1c0-1.96,0-3.94-.04-5.86h-3.65l-.56,2.92h-1l.16-3.8h11.82l.2,3.8h-1l-.56-2.92h-3.66Z" fill="#231815"/>
          <path d="M158.33,269.76v.72c-.36,.1-.88,.2-1.54,.2-1.3,0-1.82-.36-2.06-1.26l-1-3.6c-.46-1.74-1.16-2.12-3-2.12h-1.34c0,2.06,0,3.96,.06,5.84l2.08,.22v.72h-5.93v-.72l2.08-.22c.06-1.9,.06-3.84,.06-5.8v-1.1c0-1.94,0-3.9-.06-5.82l-2.08-.22v-.7h5.95c3.26,0,5.15,1.38,5.15,3.82,0,1.76-1.26,3.28-3.66,3.72,1.24,.28,1.9,1.02,2.4,2.6l1.08,3.54,1.8,.18Zm-6.95-6.86c2.34,0,3.6-1.36,3.6-3.2s-1.08-2.98-3.46-2.98h-2.06c-.06,1.92-.06,3.86-.06,6.18h1.98Z" fill="#231815"/>
          <path d="M175.71,256.59l-1.9,.24-.04,7.84c0,4.32-2.04,6.12-5.07,6.12s-5.19-1.74-5.19-5.82v-2.32c0-1.96,0-3.92-.04-5.86l-1.86-.2v-.7h5.87v.7l-2.26,.24c-.02,1.9-.02,3.84-.02,5.82v1.84c0,3.76,1.46,5.02,3.75,5.02,2.66,0,3.93-1.48,3.93-5.4l-.02-7.24-2.36-.28v-.7h5.19v.7Z" fill="#231815"/>
          <path d="M191.31,266.56l-.06,3.16c-1.36,.78-2.8,1.08-4.33,1.08-4.35,0-7.31-3.14-7.31-7.62s3.1-7.62,7.31-7.62c1.3,0,2.72,.24,4.13,1.08l.08,3.14h-1.1l-.48-2.7c-.82-.44-1.62-.62-2.42-.62-3.18,0-5.57,2.44-5.57,6.72s2.26,6.72,5.43,6.72c.92,0,1.86-.18,2.76-.62l.48-2.72h1.08Z" fill="#231815"/>
          <path d="M201.7,256.77c-.06,1.9-.06,3.86-.06,5.86v1.1c0,1.92,0,3.88,.06,5.8l2.3,.22v.72h-6.37v-.72l2.32-.22c.04-1.9,.04-3.84,.04-5.8v-1.1c0-1.96,0-3.94-.04-5.86h-3.65l-.56,2.92h-1l.16-3.8h11.82l.2,3.8h-1l-.56-2.92h-3.66Z" fill="#231815"/>
          <path d="M214.23,256.81c-.06,1.9-.06,3.84-.06,5.82v1.1c0,1.92,0,3.88,.06,5.8l2.08,.22v.72h-5.93v-.72l2.08-.22c.06-1.9,.06-3.84,.06-5.8v-1.1c0-1.94,0-3.9-.06-5.82l-2.08-.22v-.7h5.93v.7l-2.08,.22Z" fill="#231815"/>
          <path d="M233.57,263.18c0,4.74-3.14,7.62-6.53,7.62s-6.59-2.74-6.59-7.62,3.18-7.62,6.59-7.62,6.53,2.74,6.53,7.62Zm-6.53,6.74c3.12,0,4.59-3.28,4.59-6.74s-1.48-6.72-4.59-6.72-4.63,3.28-4.63,6.72,1.48,6.74,4.63,6.74Z" fill="#231815"/>
          <path d="M251.79,256.59l-1.86,.26-.02,13.78h-.66l-8.89-12.34,.02,11.2,2.32,.26v.72h-5.13v-.72l1.88-.24,.02-12.48-.18-.26-1.64-.2v-.68h3.12l8.27,11.58-.02-10.6-2.34-.28v-.7h5.11v.7Z" fill="#231815"/>
        </g>
      </g>
      <g>
        <g>
          <g>
            <polygon points="53.91 36.25 116.54 69.83 178.33 36.25 116.12 2.37 53.91 36.25" fill="none" stroke="#595757" stroke-miterlimit="10" stroke-width="3"/>
            <polyline points="147.17 19.29 85.52 53.04 85.52 120.15" fill="none" stroke="#595757" stroke-miterlimit="10" stroke-width="3"/>
            <polyline points="85.23 19.46 147.43 53.04 147.55 120.15" fill="none" stroke="#595757" stroke-miterlimit="10" stroke-width="3"/>
          </g>
          <polyline points="53.91 36.25 53.91 103.5 116.54 137.29 116.54 69.72 178.33 36.25 178.33 103.39 116.54 137.29" fill="none" stroke="#595757" stroke-miterlimit="10" stroke-width="3"/>
          <polyline points="53.91 69.83 116.35 103.01 178.33 69.83" fill="none" stroke="#595757" stroke-miterlimit="10" stroke-width="3"/>
        </g>
        <circle cx="116.35" cy="103.01" r="2.69" fill="#fff"/>
        <circle cx="85.23" cy="86.42" r="2.69" fill="#fff"/>
        <circle cx="85.52" cy="53.34" r="2.69" fill="#fff"/>
        <circle cx="85.23" cy="19.29" r="2.69" fill="#fff"/>
        <circle cx="116.35" cy="136.22" r="2.69" fill="#fff"/>
        <circle cx="147.55" cy="120.15" r="2.69" fill="#fff"/>
        <circle cx="147.55" cy="86.42" r="2.69" fill="#fff"/>
        <circle cx="147.55" cy="53.34" r="2.69" fill="#fff"/>
        <circle cx="178.33" cy="36.1" r="2.69" fill="#fff"/>
        <circle cx="178.33" cy="69.83" r="2.69" fill="#fff"/>
        <circle cx="178.33" cy="103.01" r="2.69" fill="#fff"/>
        <circle cx="85.23" cy="120.15" r="2.69" fill="#fff"/>
        <circle cx="53.91" cy="103.01" r="2.69" fill="#fff"/>
        <circle cx="53.91" cy="69.72" r="2.69" fill="#fff"/>
        <circle cx="53.91" cy="36.42" r="2.69" fill="#fff"/>
        <circle cx="116.35" cy="69.8" r="2.69" fill="#fff"/>
        <circle cx="116.35" cy="36.25" r="2.69" fill="#fff"/>
        <circle cx="147.17" cy="19.46" r="2.69" fill="#fff"/>
        <circle cx="116.35" cy="2.69" r="2.69" fill="#fff"/>
      </g>
      <text/>
    </g>
  </g>
</svg>