<?xml version="1.0" encoding="UTF-8"?>
<svg id="_圖層_2" data-name="圖層 2" xmlns="http://www.w3.org/2000/svg" viewBox="0 0 169.84 264.63">
  <g id="_圖層_1-2" data-name="圖層 1">
    <g>
      <g>
        <path d="M15.29,194.82c-.29,.32-.76,.43-1.62,.47-1.19,2.23-3.42,6.23-5.18,8.46,3.99,2.63,5.54,5.94,5.58,8.82,0,3.53-1.37,5.33-5.25,5.47,0-.94-.18-2.16-.47-2.56-.29-.36-.97-.61-1.83-.76v-.5h2.62c.4,0,.61-.07,.86-.22,.58-.36,.86-1.04,.86-2.27,0-2.59-.86-5.33-3.27-7.88,.75-2.3,1.91-6.59,2.55-9.47H5.9v28.9c0,.25-1.01,1.12-2.63,1.12h-.58v-32.54l3.67,1.48h3.6l1.87-1.84,3.45,3.31Zm16.11,.47s2.27,1.8,3.56,3.13c-.11,.4-.43,.58-.94,.58h-11.58c-.07,1.87-.18,3.67-.36,5.4h6.15l1.87-1.91,3.34,2.88c-.25,.32-.72,.5-1.47,.65-.4,9.75-1.26,15.08-3.09,16.74-1.12,1.04-2.59,1.51-4.5,1.51,0-1.04-.14-1.91-.68-2.38-.58-.54-1.98-1.01-3.45-1.3l.04-.54c1.51,.14,3.99,.32,4.82,.32,.61,0,.93-.11,1.29-.4,1.15-1.04,1.8-6.3,2.19-14.54h-6.65c-1.04,8.21-3.85,14.69-12.23,18.97l-.29-.4c7.8-6.41,9.21-14.76,9.28-25.02h-5.83l-.29-1.04H29.42l1.98-2.66Zm-11.65-4.25c8.99,2.38,5.39,8.96,2.23,6.12-.07-1.98-1.29-4.39-2.59-5.87l.36-.25Z" fill="#231815"/>
        <path d="M56.79,202.41c-.25,.32-.61,.47-1.4,.5-1.69,6.98-5.25,13.97-12.88,18.14l-.36-.43c5.39-4.43,8.42-11.38,9.67-18.18h-8.56l-.32-1.04h8.67l1.91-1.91,3.27,2.92Zm18.41-2.41c-.22,.36-.58,.5-1.37,.36-2.16,1.94-5.54,4.57-8.88,6.59,3.06,5.18,7.19,8.35,11.37,10.55l-.14,.36c-1.47,.25-2.55,1.4-3.09,3.02-5.9-4.64-10.11-10.73-12.12-22.57v21.6c0,2.59-.58,4.1-5.04,4.5-.14-1.12-.4-1.94-1.01-2.52-.65-.54-1.55-.97-3.56-1.26v-.54s4.35,.32,5.25,.32c.65,0,.86-.22,.86-.76v-28.62l4.78,.5c-.11,.5-.36,.83-1.29,.97v3.24c.76,4.14,1.98,7.56,3.56,10.44,2.45-2.81,5.07-6.48,6.44-8.85l4.24,2.66Z" fill="#231815"/>
        <path d="M113.25,217.53s2.62,1.94,4.17,3.35c-.11,.4-.47,.58-1.01,.58h-32.15l-.32-1.04h14.75v-22.86h-12.05l-.29-1.04h22.37l2.27-2.92s2.55,1.98,4.17,3.38c-.11,.4-.5,.58-1.04,.58h-11.72v22.86h8.56l2.3-2.88Z" fill="#231815"/>
        <path d="M125.58,199.53c8.74,.68,6.44,6.95,3.2,5-.5-1.69-2.16-3.64-3.49-4.75l.29-.25Zm11.22-3.38c-1.58,4.82-4.5,13.71-5.04,15.69-.32,1.22-.61,2.48-.58,3.46,.04,1.76,1.33,3.2,1.22,6.34-.07,1.69-1.04,2.77-2.55,2.77-.79,0-1.44-.58-1.65-1.84,.61-3.71,.43-6.88-.43-7.42-.5-.36-1.08-.5-1.83-.58v-.72h1.62c.5,0,.65-.04,1.01-.79q.75-1.37,7.62-17.06l.61,.14Zm-8.34-4.75c9.21,1.01,6.8,7.52,3.42,5.47-.58-1.84-2.27-3.92-3.74-5.18l.32-.29Zm26.97,13.07s2.37,1.84,3.81,3.17c-.07,.4-.47,.58-.97,.58h-13.49l4.17,2.02c-.18,.32-.61,.61-1.37,.54-2.05,2.66-5.93,6.26-9.31,8.68,3.52-.18,8.96-.54,14.75-1.01-1.12-2.02-2.45-4.03-3.63-5.62l.43-.25c11.69,5.69,8.96,13.93,5.18,10.94-.29-1.33-.83-2.77-1.55-4.21-3.74,.97-9.13,2.27-15.61,3.56-.29,.4-.61,.65-.94,.79l-1.69-4.28s.83-.18,1.15-.43c2.66-2.02,6.22-7.49,7.59-10.73h-9.24l-.25-1.04h9.93v-7.6h-7.19l-.29-1.04h7.48v-7.52l4.75,.43c-.07,.5-.4,.86-1.33,1.01v6.08h3.81l2.09-2.66s2.27,1.84,3.67,3.13c-.11,.4-.47,.58-.97,.58h-8.6v7.6h5.5l2.12-2.7Z" fill="#231815"/>
      </g>
      <g>
        <g>
          <path d="M20.37,250.43l-1.92,.26-3.68,13.78h-.78l-3.82-11.82-3.66,11.82h-.76l-3.89-13.84-1.88-.2v-.7H5.67v.7l-2.06,.24,2.88,10.84,3.48-10.84-2.2-.24v-.7h5.65v.7l-2.22,.26,3.42,10.9,2.88-10.88-2.08-.28v-.7h4.95v.7Z" fill="#fff"/>
          <path d="M36.8,263.59v.72h-5.77v-.72l2.2-.22-1.32-3.98h-5.13l-1.3,3.94,2.1,.26v.72h-4.79v-.72l1.8-.24,4.61-13.76h1.12l4.69,13.8,1.8,.2Zm-5.17-5.02l-2.3-6.92-2.28,6.92h4.57Z" fill="#fff"/>
          <path d="M46.39,250.61c-.06,1.9-.06,3.86-.06,5.86v1.1c0,1.92,0,3.88,.06,5.8l2.3,.22v.72h-6.37v-.72l2.32-.22c.04-1.9,.04-3.84,.04-5.8v-1.1c0-1.96,0-3.94-.04-5.86h-3.65l-.56,2.92h-1l.16-3.8h11.82l.2,3.8h-1l-.56-2.92h-3.66Z" fill="#fff"/>
          <path d="M66.29,260.53l-.14,3.78h-11.09v-.72l2.08-.22c.06-1.9,.06-3.84,.06-5.8v-1.1c0-1.94,0-3.9-.06-5.82l-2.08-.22v-.7h10.69l.14,3.76h-.98l-.54-2.88h-5.45c-.06,1.88-.06,3.84-.06,5.88h3.5l.3-2.16h.82v5.06h-.82l-.28-2.1h-3.52c0,2.22,0,4.18,.06,6.12h5.85l.52-2.88h1Z" fill="#fff"/>
          <path d="M82.87,263.59v.72c-.36,.1-.88,.2-1.54,.2-1.3,0-1.82-.36-2.06-1.26l-1-3.6c-.46-1.74-1.16-2.12-3-2.12h-1.34c0,2.06,0,3.96,.06,5.84l2.08,.22v.72h-5.93v-.72l2.08-.22c.06-1.9,.06-3.84,.06-5.8v-1.1c0-1.94,0-3.9-.06-5.82l-2.08-.22v-.7h5.95c3.26,0,5.15,1.38,5.15,3.82,0,1.76-1.26,3.28-3.66,3.72,1.24,.28,1.9,1.02,2.4,2.6l1.08,3.54,1.8,.18Zm-6.95-6.86c2.34,0,3.6-1.36,3.6-3.2s-1.08-2.98-3.46-2.98h-2.06c-.06,1.92-.06,3.86-.06,6.18h1.98Z" fill="#fff"/>
          <path d="M97.22,258.41c0,1.66,0,3.28,.06,4.96l2.14,.22v.72h-5.99v-.72l2.08-.22c.06-1.9,.06-3.84,.06-5.8v-1.1c0-1.94,0-3.9-.06-5.82l-2.08-.22v-.7h5.75c3.54,0,5.29,1.7,5.29,4.28s-1.7,4.4-5.99,4.4h-1.26Zm.06-7.86c-.06,1.92-.06,3.9-.06,5.92v1.14h1.44c2.94,0,4.05-1.48,4.05-3.6s-1.16-3.46-3.85-3.46h-1.58Z" fill="#fff"/>
          <path d="M120.87,263.59v.72c-.36,.1-.88,.2-1.54,.2-1.3,0-1.82-.36-2.06-1.26l-1-3.6c-.46-1.74-1.16-2.12-3-2.12h-1.34c0,2.06,0,3.96,.06,5.84l2.08,.22v.72h-5.93v-.72l2.08-.22c.06-1.9,.06-3.84,.06-5.8v-1.1c0-1.94,0-3.9-.06-5.82l-2.08-.22v-.7h5.95c3.26,0,5.15,1.38,5.15,3.82,0,1.76-1.26,3.28-3.66,3.72,1.24,.28,1.9,1.02,2.4,2.6l1.08,3.54,1.8,.18Zm-6.95-6.86c2.34,0,3.59-1.36,3.59-3.2s-1.08-2.98-3.46-2.98h-2.06c-.06,1.92-.06,3.86-.06,6.18h1.98Z" fill="#fff"/>
          <path d="M137.45,257.01c0,4.74-3.14,7.62-6.53,7.62s-6.59-2.74-6.59-7.62,3.18-7.62,6.59-7.62,6.53,2.74,6.53,7.62Zm-6.53,6.74c3.12,0,4.59-3.28,4.59-6.74s-1.48-6.72-4.59-6.72-4.63,3.28-4.63,6.72,1.48,6.74,4.63,6.74Z" fill="#fff"/>
          <path d="M154.81,257.01c0,4.74-3.14,7.62-6.53,7.62s-6.59-2.74-6.59-7.62,3.18-7.62,6.59-7.62,6.53,2.74,6.53,7.62Zm-6.53,6.74c3.12,0,4.59-3.28,4.59-6.74s-1.48-6.72-4.59-6.72-4.63,3.28-4.63,6.72,1.48,6.74,4.63,6.74Z" fill="#fff"/>
          <path d="M162.85,250.61c-.06,1.88-.06,3.84-.06,5.88h3.64l.26-2.16h.84v5.24h-.84l-.28-2.28h-3.62c0,2.2,0,4.16,.06,6.08l2.14,.22v.72h-5.99v-.72l2.08-.22c.06-1.9,.06-3.84,.06-5.8v-1.1c0-1.94,0-3.9-.06-5.82l-2.08-.22v-.7h10.69l.16,3.76h-1l-.52-2.88h-5.47Z" fill="#fff"/>
        </g>
        <g>
          <path d="M20.37,250.43l-1.92,.26-3.68,13.78h-.78l-3.82-11.82-3.66,11.82h-.76l-3.89-13.84-1.88-.2v-.7H5.67v.7l-2.06,.24,2.88,10.84,3.48-10.84-2.2-.24v-.7h5.65v.7l-2.22,.26,3.42,10.9,2.88-10.88-2.08-.28v-.7h4.95v.7Z" fill="#231815"/>
          <path d="M36.8,263.59v.72h-5.77v-.72l2.2-.22-1.32-3.98h-5.13l-1.3,3.94,2.1,.26v.72h-4.79v-.72l1.8-.24,4.61-13.76h1.12l4.69,13.8,1.8,.2Zm-5.17-5.02l-2.3-6.92-2.28,6.92h4.57Z" fill="#231815"/>
          <path d="M46.39,250.61c-.06,1.9-.06,3.86-.06,5.86v1.1c0,1.92,0,3.88,.06,5.8l2.3,.22v.72h-6.37v-.72l2.32-.22c.04-1.9,.04-3.84,.04-5.8v-1.1c0-1.96,0-3.94-.04-5.86h-3.65l-.56,2.92h-1l.16-3.8h11.82l.2,3.8h-1l-.56-2.92h-3.66Z" fill="#231815"/>
          <path d="M66.29,260.53l-.14,3.78h-11.09v-.72l2.08-.22c.06-1.9,.06-3.84,.06-5.8v-1.1c0-1.94,0-3.9-.06-5.82l-2.08-.22v-.7h10.69l.14,3.76h-.98l-.54-2.88h-5.45c-.06,1.88-.06,3.84-.06,5.88h3.5l.3-2.16h.82v5.06h-.82l-.28-2.1h-3.52c0,2.22,0,4.18,.06,6.12h5.85l.52-2.88h1Z" fill="#231815"/>
          <path d="M82.87,263.59v.72c-.36,.1-.88,.2-1.54,.2-1.3,0-1.82-.36-2.06-1.26l-1-3.6c-.46-1.74-1.16-2.12-3-2.12h-1.34c0,2.06,0,3.96,.06,5.84l2.08,.22v.72h-5.93v-.72l2.08-.22c.06-1.9,.06-3.84,.06-5.8v-1.1c0-1.94,0-3.9-.06-5.82l-2.08-.22v-.7h5.95c3.26,0,5.15,1.38,5.15,3.82,0,1.76-1.26,3.28-3.66,3.72,1.24,.28,1.9,1.02,2.4,2.6l1.08,3.54,1.8,.18Zm-6.95-6.86c2.34,0,3.6-1.36,3.6-3.2s-1.08-2.98-3.46-2.98h-2.06c-.06,1.92-.06,3.86-.06,6.18h1.98Z" fill="#231815"/>
          <path d="M97.22,258.41c0,1.66,0,3.28,.06,4.96l2.14,.22v.72h-5.99v-.72l2.08-.22c.06-1.9,.06-3.84,.06-5.8v-1.1c0-1.94,0-3.9-.06-5.82l-2.08-.22v-.7h5.75c3.54,0,5.29,1.7,5.29,4.28s-1.7,4.4-5.99,4.4h-1.26Zm.06-7.86c-.06,1.92-.06,3.9-.06,5.92v1.14h1.44c2.94,0,4.05-1.48,4.05-3.6s-1.16-3.46-3.85-3.46h-1.58Z" fill="#231815"/>
          <path d="M120.87,263.59v.72c-.36,.1-.88,.2-1.54,.2-1.3,0-1.82-.36-2.06-1.26l-1-3.6c-.46-1.74-1.16-2.12-3-2.12h-1.34c0,2.06,0,3.96,.06,5.84l2.08,.22v.72h-5.93v-.72l2.08-.22c.06-1.9,.06-3.84,.06-5.8v-1.1c0-1.94,0-3.9-.06-5.82l-2.08-.22v-.7h5.95c3.26,0,5.15,1.38,5.15,3.82,0,1.76-1.26,3.28-3.66,3.72,1.24,.28,1.9,1.02,2.4,2.6l1.08,3.54,1.8,.18Zm-6.95-6.86c2.34,0,3.59-1.36,3.59-3.2s-1.08-2.98-3.46-2.98h-2.06c-.06,1.92-.06,3.86-.06,6.18h1.98Z" fill="#231815"/>
          <path d="M137.45,257.01c0,4.74-3.14,7.62-6.53,7.62s-6.59-2.74-6.59-7.62,3.18-7.62,6.59-7.62,6.53,2.74,6.53,7.62Zm-6.53,6.74c3.12,0,4.59-3.28,4.59-6.74s-1.48-6.72-4.59-6.72-4.63,3.28-4.63,6.72,1.48,6.74,4.63,6.74Z" fill="#231815"/>
          <path d="M154.81,257.01c0,4.74-3.14,7.62-6.53,7.62s-6.59-2.74-6.59-7.62,3.18-7.62,6.59-7.62,6.53,2.74,6.53,7.62Zm-6.53,6.74c3.12,0,4.59-3.28,4.59-6.74s-1.48-6.72-4.59-6.72-4.63,3.28-4.63,6.72,1.48,6.74,4.63,6.74Z" fill="#231815"/>
          <path d="M162.85,250.61c-.06,1.88-.06,3.84-.06,5.88h3.64l.26-2.16h.84v5.24h-.84l-.28-2.28h-3.62c0,2.2,0,4.16,.06,6.08l2.14,.22v.72h-5.99v-.72l2.08-.22c.06-1.9,.06-3.84,.06-5.8v-1.1c0-1.94,0-3.9-.06-5.82l-2.08-.22v-.7h10.69l.16,3.76h-1l-.52-2.88h-5.47Z" fill="#231815"/>
        </g>
      </g>
      <g>
        <path d="M116.43,114.74c-8.51,9.03-20.64,14.68-34.11,14.68-25.74,0-46.6-20.63-46.6-46.08,0-11.45,3.38-22.64,8.33-32.87" fill="none" stroke="#595757" stroke-miterlimit="10" stroke-width="3"/>
        <path d="M58.74,27.12c11.74-15.23,23.59-25.09,23.59-25.09,0,0,46.6,46.2,46.6,81.32,0,3.57-.41,7.05-1.19,10.38" fill="none" stroke="#595757" stroke-miterlimit="10" stroke-width="3"/>
        <line x1="20.85" y1="10.95" x2="148.33" y2="127.52" fill="none" stroke="#595757" stroke-miterlimit="10" stroke-width="3"/>
      </g>
    </g>
  </g>
</svg>