<?xml version="1.0" encoding="UTF-8"?>
<svg id="_圖層_2" data-name="圖層 2" xmlns="http://www.w3.org/2000/svg" viewBox="0 0 1598.27 156.31">
  <g id="_圖層_1-2" data-name="圖層 1">
    <g>
      <path d="M16.66,20.54c-6.1,5.87-10.8,14.67-14.08,26.4,0,.47-.43,.67-1.29,.59-.86-.08-1.29-.27-1.29-.59,.62-6.1,1.33-13.96,2.11-23.59C2.89,13.73,3.29,6.49,3.29,1.64c0-.78,.43-1.17,1.29-1.17s1.29,.39,1.29,1.17c0,3.44,4.38,5.16,13.14,5.16,13.45,.47,29.18,.7,47.17,.7,9.23,0,19.01-.15,29.34-.47l15.96-.23c5.94,0,10.29-.39,13.03-1.17,2.74-.78,4.5-2.35,5.28-4.69,.15-.62,.62-.94,1.41-.94s1.17,.32,1.17,.94c-.47,4.85-.94,12.2-1.41,22.06-.47,9.86-.7,17.84-.7,23.94,0,.32-.43,.47-1.29,.47s-1.37-.15-1.53-.47c-1.57-12.05-5.24-20.92-11.03-26.64-5.79-5.71-13.61-8.57-23.47-8.57-4.38,0-7.63,.39-9.74,1.17-2.11,.79-3.56,2.15-4.34,4.11-.78,1.96-1.17,5.05-1.17,9.27v108.19c0,4.69,.51,8.18,1.53,10.44,1.02,2.27,2.93,3.8,5.75,4.58,2.82,.78,7.28,1.17,13.38,1.17,.47,0,.7,.47,.7,1.41s-.23,1.41-.7,1.41c-5.48,0-9.78-.08-12.91-.23l-19.25-.23-18.31,.23c-3.29,.16-7.83,.23-13.61,.23-.32,0-.47-.47-.47-1.41s.15-1.41,.47-1.41c6.1,0,10.6-.39,13.49-1.17,2.89-.78,4.85-2.31,5.87-4.58,1.02-2.27,1.53-5.75,1.53-10.44V25.82c0-4.07-.39-7.08-1.17-9.04-.78-1.95-2.19-3.29-4.22-3.99-2.04-.7-5.24-1.06-9.62-1.06-9.55,0-17.37,2.93-23.47,8.8Z" fill="#fff"/>
      <path d="M178.13,15.49c-.94-2.19-2.74-3.71-5.4-4.58-2.66-.86-6.73-1.29-12.2-1.29-.32,0-.47-.47-.47-1.41s.15-1.41,.47-1.41l12.44,.23c7.19,.32,12.83,.47,16.9,.47,5.48,0,11.97-.15,19.48-.47l12.2-.23c.31,0,.47,.47,.47,1.41s-.16,1.41-.47,1.41c-5.63,0-9.82,.47-12.56,1.41-2.74,.94-4.62,2.54-5.63,4.81-1.02,2.27-1.53,5.75-1.53,10.44v108.19c0,4.69,.47,8.18,1.41,10.44,.94,2.27,2.78,3.8,5.52,4.58,2.74,.78,7,1.17,12.79,1.17,.31,0,.47,.47,.47,1.41s-.16,1.41-.47,1.41c-5.32,0-9.47-.08-12.44-.23l-19.25-.23-17.13,.23c-2.97,.16-7.12,.23-12.44,.23-.32,0-.47-.47-.47-1.41s.15-1.41,.47-1.41c5.63,0,9.78-.39,12.44-1.17,2.66-.78,4.46-2.31,5.4-4.58,.94-2.27,1.41-5.75,1.41-10.44V25.82c0-4.69-.47-8.13-1.41-10.33Zm11.73,58.67h102.8v6.1h-102.8v-6.1ZM281.17,15.84c-.94-2.27-2.82-3.87-5.63-4.81-2.82-.94-7.12-1.41-12.91-1.41-.47,0-.7-.47-.7-1.41s.23-1.41,.7-1.41l11.27,.23c7.51,.32,14.16,.47,19.95,.47,4.22,0,9.93-.15,17.13-.47l12.91-.23c.47,0,.7,.47,.7,1.41s-.23,1.41-.7,1.41c-5.63,0-9.78,.43-12.44,1.29-2.66,.86-4.46,2.39-5.4,4.58-.94,2.19-1.41,5.63-1.41,10.33v108.66c0,4.69,.47,8.18,1.41,10.44,.94,2.27,2.74,3.8,5.4,4.58,2.66,.78,6.81,1.17,12.44,1.17,.47,0,.7,.47,.7,1.41s-.23,1.41-.7,1.41c-5.32,0-9.62-.08-12.91-.23l-17.13-.23-19.95,.23c-2.82,.16-6.57,.23-11.27,.23-.47,0-.7-.47-.7-1.41s.23-1.41,.7-1.41c5.94,0,10.29-.39,13.03-1.17,2.74-.78,4.58-2.31,5.52-4.58,.94-2.27,1.41-5.75,1.41-10.44V26.29c0-4.69-.47-8.17-1.41-10.44Z" fill="#fff"/>
      <path d="M352.51,152.08c0-.94,.23-1.41,.7-1.41,5.32,0,9.19-.39,11.62-1.17,2.42-.78,4.07-2.31,4.93-4.58,.86-2.27,1.29-5.75,1.29-10.44V25.82c0-4.69-.43-8.13-1.29-10.33-.86-2.19-2.54-3.71-5.05-4.58-2.5-.86-6.34-1.29-11.5-1.29-.47,0-.7-.47-.7-1.41s.23-1.41,.7-1.41h97.63c1.56,0,2.35,.7,2.35,2.11l.47,30.51c0,.32-.43,.51-1.29,.59-.86,.08-1.37-.12-1.53-.59-3.76-17.68-14.55-26.52-32.39-26.52h-9.62c-5.79,0-9.82,1.02-12.09,3.05-2.27,2.04-3.4,5.48-3.4,10.33v107.26c0,5.16,.98,8.76,2.93,10.8,1.95,2.04,5.43,3.05,10.44,3.05h11.5c20.96,0,34.27-10.09,39.9-30.28,0-.31,.39-.47,1.17-.47,1.09,0,1.64,.23,1.64,.7-1.57,11.89-2.35,22.77-2.35,32.62,0,1.25-.23,2.15-.7,2.7-.47,.55-1.41,.82-2.82,.82h-101.86c-.47,0-.7-.47-.7-1.41Zm63.13-71.82h-32.86v-6.1h33.09c17.21,0,25.82-5.79,25.82-17.37,0-.47,.43-.7,1.29-.7s1.29,.23,1.29,.7l-.23,20.42,.23,11.03c.31,5.01,.47,9.08,.47,12.2,0,.31-.47,.47-1.41,.47s-1.41-.15-1.41-.47c0-13.46-8.76-20.18-26.29-20.18Z" fill="#fff"/>
      <path d="M580.16,12.2l6.34,.47-2.58,112.42c-.16,8.3,1.44,14.63,4.81,19.01,3.36,4.38,8.41,6.57,15.14,6.57,.47,0,.7,.47,.7,1.41s-.23,1.41-.7,1.41c-4.22,0-7.51-.08-9.86-.23l-12.91-.23-13.85,.23c-2.35,.16-5.63,.23-9.86,.23-.47,0-.7-.47-.7-1.41s.23-1.41,.7-1.41c6.41,0,11.38-2.19,14.9-6.57,3.52-4.38,5.36-10.72,5.52-19.01l2.35-112.89Zm164.29,139.88c0,.94-.16,1.41-.47,1.41-5.16,0-9.31-.08-12.44-.23l-16.9-.23-16.43,.23c-2.82,.16-6.81,.23-11.97,.23-.32,0-.47-.47-.47-1.41s.15-1.41,.47-1.41c5.16,0,9-.43,11.5-1.29,2.5-.86,4.14-2.38,4.93-4.58,.78-2.19,1.02-5.63,.7-10.33l-4.93-107.26,10.33-16.19-60.08,140.82c-.32,.63-.94,.94-1.88,.94-.78,0-1.49-.31-2.11-.94l-63.6-125.56c-2.82-5.79-6.03-10.01-9.62-12.67-3.6-2.66-7.75-3.99-12.44-3.99-.47,0-.7-.47-.7-1.41s.23-1.41,.7-1.41l10.09,.23c2.03,.16,4.69,.23,7.98,.23l10.8-.23c1.41-.15,3.05-.23,4.93-.23,2.03,0,3.67,.74,4.93,2.23,1.25,1.49,3.21,4.81,5.87,9.97l52.81,103.5-10.09,17.84,55.62-127.67c.94-2.19,1.95-3.71,3.05-4.58,1.09-.86,2.42-1.29,3.99-1.29,1.09,0,2.5,.08,4.22,.23,1.72,.16,3.83,.23,6.34,.23l12.67-.23c2.03-.15,5.01-.23,8.92-.23,.47,0,.7,.47,.7,1.41s-.23,1.41-.7,1.41c-7.36,0-12.71,1.37-16.08,4.11-3.37,2.74-4.89,7.24-4.58,13.5l5.16,107.26c.31,4.85,.94,8.37,1.88,10.56,.94,2.19,2.58,3.68,4.93,4.46,2.35,.78,6.18,1.17,11.5,1.17,.31,0,.47,.47,.47,1.41Z" fill="#fff"/>
      <path d="M770.5,152.08c0-.94,.23-1.41,.7-1.41,5.32,0,9.19-.39,11.62-1.17,2.42-.78,4.07-2.31,4.93-4.58,.86-2.27,1.29-5.75,1.29-10.44V25.82c0-4.69-.43-8.13-1.29-10.33-.86-2.19-2.54-3.71-5.05-4.58-2.5-.86-6.34-1.29-11.5-1.29-.47,0-.7-.47-.7-1.41s.23-1.41,.7-1.41h97.63c1.56,0,2.35,.7,2.35,2.11l.47,30.51c0,.32-.43,.51-1.29,.59-.86,.08-1.37-.12-1.53-.59-3.75-17.68-14.55-26.52-32.39-26.52h-9.62c-5.79,0-9.82,1.02-12.09,3.05-2.27,2.04-3.4,5.48-3.4,10.33v107.26c0,5.16,.98,8.76,2.93,10.8,1.96,2.04,5.43,3.05,10.44,3.05h11.5c20.96,0,34.27-10.09,39.9-30.28,0-.31,.39-.47,1.17-.47,1.09,0,1.64,.23,1.64,.7-1.57,11.89-2.35,22.77-2.35,32.62,0,1.25-.23,2.15-.7,2.7-.47,.55-1.41,.82-2.82,.82h-101.86c-.47,0-.7-.47-.7-1.41Zm63.13-71.82h-32.86v-6.1h33.09c17.21,0,25.82-5.79,25.82-17.37,0-.47,.43-.7,1.29-.7s1.29,.23,1.29,.7l-.23,20.42,.23,11.03c.31,5.01,.47,9.08,.47,12.2,0,.31-.47,.47-1.41,.47s-1.41-.15-1.41-.47c0-13.46-8.76-20.18-26.29-20.18Z" fill="#fff"/>
      <path d="M927.28,20.54c-6.1,5.87-10.8,14.67-14.08,26.4,0,.47-.43,.67-1.29,.59-.86-.08-1.29-.27-1.29-.59,.62-6.1,1.33-13.96,2.11-23.59,.78-9.62,1.17-16.86,1.17-21.71,0-.78,.43-1.17,1.29-1.17s1.29,.39,1.29,1.17c0,3.44,4.38,5.16,13.14,5.16,13.46,.47,29.18,.7,47.17,.7,9.23,0,19.01-.15,29.34-.47l15.96-.23c5.94,0,10.29-.39,13.03-1.17,2.74-.78,4.5-2.35,5.28-4.69,.15-.62,.62-.94,1.41-.94s1.17,.32,1.17,.94c-.47,4.85-.94,12.2-1.41,22.06-.47,9.86-.7,17.84-.7,23.94,0,.32-.43,.47-1.29,.47s-1.37-.15-1.53-.47c-1.57-12.05-5.24-20.92-11.03-26.64-5.79-5.71-13.61-8.57-23.47-8.57-4.38,0-7.63,.39-9.74,1.17-2.11,.79-3.56,2.15-4.34,4.11-.78,1.96-1.17,5.05-1.17,9.27v108.19c0,4.69,.51,8.18,1.53,10.44,1.02,2.27,2.93,3.8,5.75,4.58,2.82,.78,7.28,1.17,13.38,1.17,.47,0,.7,.47,.7,1.41s-.23,1.41-.7,1.41c-5.48,0-9.78-.08-12.91-.23l-19.25-.23-18.31,.23c-3.29,.16-7.83,.23-13.61,.23-.32,0-.47-.47-.47-1.41s.15-1.41,.47-1.41c6.1,0,10.6-.39,13.5-1.17,2.89-.78,4.85-2.31,5.87-4.58,1.02-2.27,1.53-5.75,1.53-10.44V25.82c0-4.07-.39-7.08-1.17-9.04-.78-1.95-2.19-3.29-4.22-3.99-2.04-.7-5.24-1.06-9.62-1.06-9.55,0-17.37,2.93-23.47,8.8Z" fill="#fff"/>
      <path d="M1088.75,15.49c-.94-2.19-2.74-3.71-5.4-4.58-2.66-.86-6.73-1.29-12.2-1.29-.32,0-.47-.47-.47-1.41s.15-1.41,.47-1.41l12.44,.23c7.2,.32,12.83,.47,16.9,.47,5.47,0,11.97-.15,19.48-.47l12.2-.23c.31,0,.47,.47,.47,1.41s-.16,1.41-.47,1.41c-5.63,0-9.82,.47-12.56,1.41-2.74,.94-4.62,2.54-5.63,4.81-1.02,2.27-1.53,5.75-1.53,10.44v108.19c0,4.69,.47,8.18,1.41,10.44,.94,2.27,2.78,3.8,5.51,4.58,2.74,.78,7,1.17,12.79,1.17,.31,0,.47,.47,.47,1.41s-.16,1.41-.47,1.41c-5.32,0-9.47-.08-12.44-.23l-19.25-.23-17.13,.23c-2.97,.16-7.12,.23-12.44,.23-.32,0-.47-.47-.47-1.41s.15-1.41,.47-1.41c5.63,0,9.78-.39,12.44-1.17,2.66-.78,4.46-2.31,5.4-4.58,.94-2.27,1.41-5.75,1.41-10.44V25.82c0-4.69-.47-8.13-1.41-10.33Zm11.74,58.67h102.8v6.1h-102.8v-6.1Zm91.3-58.32c-.94-2.27-2.82-3.87-5.63-4.81-2.82-.94-7.12-1.41-12.91-1.41-.47,0-.7-.47-.7-1.41s.23-1.41,.7-1.41l11.27,.23c7.51,.32,14.16,.47,19.95,.47,4.22,0,9.93-.15,17.13-.47l12.91-.23c.47,0,.7,.47,.7,1.41s-.23,1.41-.7,1.41c-5.63,0-9.78,.43-12.44,1.29-2.66,.86-4.46,2.39-5.4,4.58-.94,2.19-1.41,5.63-1.41,10.33v108.66c0,4.69,.47,8.18,1.41,10.44,.94,2.27,2.74,3.8,5.4,4.58,2.66,.78,6.81,1.17,12.44,1.17,.47,0,.7,.47,.7,1.41s-.23,1.41-.7,1.41c-5.32,0-9.62-.08-12.91-.23l-17.13-.23-19.95,.23c-2.82,.16-6.57,.23-11.27,.23-.47,0-.7-.47-.7-1.41s.23-1.41,.7-1.41c5.94,0,10.29-.39,13.03-1.17,2.74-.78,4.58-2.31,5.52-4.58,.94-2.27,1.41-5.75,1.41-10.44V26.29c0-4.69-.47-8.17-1.41-10.44Z" fill="#fff"/>
      <path d="M1301.03,146.1c-11.35-6.81-20.11-16.04-26.29-27.69-6.18-11.65-9.27-24.37-9.27-38.14,0-16.11,4.07-29.92,12.2-41.42,8.13-11.5,18.58-20.14,31.33-25.93,12.75-5.79,25.78-8.68,39.08-8.68,14.86,0,27.93,3.48,39.19,10.44,11.26,6.96,19.91,16.16,25.93,27.58,6.02,11.42,9.04,23.55,9.04,36.38,0,14.24-3.76,27.31-11.27,39.19-7.51,11.89-17.57,21.28-30.16,28.16-12.6,6.89-26.25,10.33-40.96,10.33s-27.5-3.4-38.84-10.21Zm72.05-3.05c7.43-5.08,13.3-12.56,17.6-22.41,4.3-9.86,6.45-21.59,6.45-35.2,0-14.55-2.39-27.5-7.16-38.84-4.77-11.34-11.58-20.22-20.42-26.64-8.84-6.41-19.21-9.62-31.1-9.62-15.34,0-27.15,5.44-35.44,16.31-8.29,10.88-12.44,25.93-12.44,45.18,0,15.02,2.42,28.52,7.28,40.49,4.85,11.97,11.65,21.36,20.42,28.16,8.76,6.81,18.62,10.21,29.57,10.21,9.39,0,17.8-2.54,25.23-7.63Z" fill="#fff"/>
      <path d="M1502.98,153.73c-2.35-.16-5.32-.31-8.92-.47-3.6-.15-7.59-.23-11.97-.23l-16.66,.23c-2.97,.16-7.12,.23-12.44,.23-.32,0-.47-.47-.47-1.41s.15-1.41,.47-1.41c5.32,0,9.19-.39,11.62-1.17,2.42-.78,4.11-2.31,5.05-4.58,.94-2.27,1.41-5.75,1.41-10.44V25.82c0-4.69-.43-8.13-1.29-10.33-.86-2.19-2.54-3.71-5.05-4.58-2.5-.86-6.34-1.29-11.5-1.29-.32,0-.47-.47-.47-1.41s.15-1.41,.47-1.41l12.44,.23c6.88,.32,12.36,.47,16.43,.47,6.1,0,12.44-.23,19.01-.7,7.82-.31,13.06-.47,15.72-.47,15.96,0,30.12,3.13,42.48,9.39,12.36,6.26,21.94,14.79,28.75,25.58,6.81,10.8,10.21,22.92,10.21,36.38,0,15.18-3.52,28.6-10.56,40.25-7.04,11.66-16.51,20.65-28.4,26.99-11.89,6.34-24.96,9.51-39.19,9.51-4.85,0-10.56-.23-17.13-.7Zm43.54-11.73c8.37-5.16,14.9-12.79,19.6-22.88,4.69-10.09,7.04-22.18,7.04-36.26s-2.23-25.62-6.69-36.5c-4.46-10.87-10.76-19.48-18.89-25.82-8.14-6.34-17.6-9.51-28.4-9.51-6.73,0-11.85,.39-15.37,1.17-3.52,.79-6.14,2.23-7.86,4.34-1.72,2.11-2.58,5.36-2.58,9.74v105.61c0,6.42,1.68,10.99,5.05,13.73,3.36,2.74,9.82,4.11,19.36,4.11,10.8,0,20.38-2.58,28.75-7.74Z" fill="#fff"/>
    </g>
  </g>
</svg>