<?xml version="1.0" encoding="UTF-8"?>
<svg id="_圖層_2" data-name="圖層 2" xmlns="http://www.w3.org/2000/svg" viewBox="0 0 124.4 327.58">
  <g id="_圖層_1-2" data-name="圖層 1">
    <g>
      <g>
        <path d="M21.58,58.46c-.42,.54-.96,.78-2.28,.9-.84,6.36-2.4,12.42-5.57,17.76,6.47,4.14,15.46,5.04,28.11,5.04,3.3,0,10.61,0,14.44-.06v.78c-2.34,.42-3.42,2.4-3.6,4.68h-11.33c-13.79,0-23.08-1.5-29.61-7.56-2.7,3.6-6.35,6.72-11.27,9.18l-.48-.84c4.14-3.06,7.13-6.78,9.23-11.04-2.76-3.54-4.97-8.34-6.71-14.52l.78-.42c1.86,5.34,4.26,9.24,7.13,12.12,1.98-4.86,3-10.26,3.54-15.84h-4.91l-1.98,1.86-4.97-3.42c.54-.42,1.38-.84,2.16-1.14,2.28-4.02,5.39-10.56,7.07-14.82H1.02l-.54-1.74H11.27l2.7-2.76,5.33,4.86c-.48,.54-1.5,.84-2.76,.96-1.68,3.84-4.79,10.26-7.01,14.46h3.96l2.88-2.94,5.21,4.5Zm30.81-14.64s3.06,2.88,4.79,4.8c-.18,.66-.78,.96-1.62,.96h-6.59v8.46c-.06,.42-2.7,1.5-4.44,1.5h-.84v-2.04h-6.83v6.18h6.83l2.94-3.96s3.54,2.76,5.63,4.74c-.18,.66-.78,.96-1.62,.96h-13.79v6.3h8.81l3.3-4.26s3.9,2.88,6.23,5.04c-.18,.66-.84,.96-1.68,.96h-16.66v5.94c0,.54-2.28,1.62-4.32,1.62h-1.14v-7.56h-13.25l-.48-1.74h13.73v-6.3h-10.31l-.48-1.74h10.79v-6.18h-9.59l-.54-1.74h10.13v-6.18h-14.21l-.48-1.74h14.68v-6.06h-9.95l-.54-1.74h10.49v-6.54l7.67,.78c-.18,.84-.6,1.44-2.22,1.68v4.08h6.23l2.64-2.88,5.69,4.38c-.42,.42-1.32,.96-2.46,1.2v5.1h.78l2.64-4.02Zm-15.52,4.02h6.83v-6.06h-6.83v6.06Zm6.83,1.74h-6.83v6.18h6.83v-6.18Z" fill="#fff"/>
        <path d="M13.19,109.52c-3.6,4.08-7.91,7.02-12.29,8.94l-.66-.72c4.08-3.42,8.21-9.18,10.67-15.78l7.43,3.06c-.3,.66-1.08,1.14-2.46,.96-.42,.6-.84,1.2-1.26,1.8h7.85l2.82-3.6s3.06,2.52,4.91,4.38c-.18,.66-.72,.96-1.56,.96H13.19ZM.96,156.2c6.05-3.18,12.23-8.7,15.16-12.96l6.71,4.08c-.36,.54-.96,.78-2.28,.48-4.26,3.66-11.63,7.32-19.06,9.18l-.54-.78Zm14.74-35.22v9.96c2.88-.42,5.93-.84,9.05-1.32l.12,.84c-4.2,1.68-10.25,3.9-18.64,6.66-.3,.78-.9,1.26-1.5,1.38l-2.7-5.88c1.86-.18,4.79-.48,8.45-.96v-10.68H3.66l-.48-1.74h13.61l2.28-2.88c-.36-.06-.72-.18-1.08-.36-.42-1.8-2.22-3.96-3.78-5.04l.54-.48c8.69-.18,8.27,5.1,5.51,5.88,1.08,.84,3,2.4,4.38,3.66-.18,.66-.78,.96-1.62,.96h-7.31Zm33.38,14.94s3.96,3.12,6.35,5.4c-.18,.66-.78,.96-1.68,.96H31.29v14.28c0,.48-2.58,1.56-4.92,1.56h-1.08v-15.84H2.94l-.48-1.74H25.29v-4.92l8.21,.78c-.12,.78-.6,1.38-2.22,1.62v2.52h14.26l3.54-4.62Zm4.91-5.46c1.2,.54,1.44,1.08,1.44,1.92,0,1.74-1.68,2.76-6.11,2.76h-2.34c-3.3,0-3.78-1.08-3.78-3.84v-10.68h-7.49v2.22c0,1.14-.12,2.46-.6,3.72,6.47,2.7,5.75,7.56,2.1,6.84-.96-1.02-2.46-2.16-4.14-3.3-2.1,2.4-5.81,4.62-12.35,6.18l-.48-.78c5.39-2.28,8.03-4.86,9.29-7.5-1.74-.96-3.54-1.74-5.09-2.28l.48-.78c2.04,0,3.96,.18,5.57,.42,.18-.84,.24-1.68,.24-2.52v-2.22h-4.61l-.54-1.74h17.08l2.46-2.52,4.5,3.96c-.3,.36-.9,.66-1.98,.84v8.94c0,.6,.12,.78,.78,.78h2.46c.3-.06,.54-.06,.72-.42,.36-.54,.96-2.52,1.5-4.5l.72,.06,.18,4.44Zm-3.3-26.58s3.36,2.7,5.51,4.68c-.18,.66-.78,.96-1.62,.96h-18.4c-2.64,3.24-5.75,5.76-8.93,7.5l-.72-.6c2.76-3.36,5.51-8.82,7.13-14.4l7.37,2.94c-.3,.66-1.08,1.14-2.34,.96-.36,.66-.78,1.26-1.2,1.86h10.13l3.06-3.9Zm-15.82,40.68c22,1.56,21.28,14.1,14.62,12.12-3.06-3.96-9.95-9-15.04-11.52l.42-.6Zm3.3-33.9c10.85,.24,6.71,7.98,2.58,5.16-.3-1.68-1.74-3.72-3.06-4.74l.48-.42Z" fill="#fff"/>
        <path d="M49.45,215.78s4.38,3.24,6.95,5.58c-.18,.66-.78,.96-1.68,.96H1.14l-.54-1.74H25.17v-38.1H5.09l-.48-1.74H41.9l3.78-4.86s4.26,3.3,6.95,5.64c-.18,.66-.84,.96-1.74,.96H31.35v38.1h14.26l3.84-4.8Z" fill="#fff"/>
        <path d="M1.08,254.78c14.56,1.14,10.73,11.58,5.33,8.34-.84-2.82-3.6-6.06-5.81-7.92l.48-.42Zm18.7-5.64c-2.64,8.04-7.49,22.86-8.39,26.16-.54,2.04-1.02,4.14-.96,5.76,.06,2.94,2.22,5.34,2.04,10.56-.12,2.82-1.74,4.62-4.26,4.62-1.32,0-2.4-.96-2.76-3.06,1.02-6.18,.72-11.46-.72-12.36-.84-.6-1.8-.84-3.06-.96v-1.2h2.7c.84,0,1.08-.06,1.68-1.32q1.26-2.28,12.71-28.44l1.02,.24Zm-13.91-7.92c15.34,1.68,11.33,12.54,5.69,9.12-.96-3.06-3.78-6.54-6.23-8.64l.54-.48Zm44.95,21.78s3.96,3.06,6.35,5.28c-.12,.66-.78,.96-1.62,.96h-22.48l6.95,3.36c-.3,.54-1.02,1.02-2.28,.9-3.42,4.44-9.89,10.44-15.52,14.46,5.87-.3,14.92-.9,24.57-1.68-1.86-3.36-4.08-6.72-6.05-9.36l.72-.42c19.48,9.48,14.92,23.22,8.63,18.24-.48-2.22-1.38-4.62-2.58-7.02-6.23,1.62-15.22,3.78-26.01,5.94-.48,.66-1.02,1.08-1.56,1.32l-2.82-7.14s1.38-.3,1.92-.72c4.44-3.36,10.37-12.48,12.65-17.88h-15.4l-.42-1.74h16.54v-12.66h-11.99l-.48-1.74h12.47v-12.54l7.91,.72c-.12,.84-.66,1.44-2.22,1.68v10.14h6.35l3.48-4.44s3.78,3.06,6.11,5.22c-.18,.66-.78,.96-1.62,.96h-14.32v12.66h9.17l3.54-4.5Z" fill="#fff"/>
      </g>
      <g>
        <path d="M109.7,63.01v-1.7l14.7,1.7-10.14,5.59,10.14,5.59-14.7,1.7v-1.7l9.46-1.04-8.16-4.55,8.16-4.56-9.46-1.04Z" fill="#fff"/>
        <path d="M123.7,81.99h-14v-1.7h14v1.7Zm-12.4-.76v7.05h-1.6v-7.05h1.6Zm6.8,0v6.65h-1.6v-6.65h1.6Zm5.6,0v7.05h-1.6v-7.05h1.6Z" fill="#fff"/>
        <path d="M123.7,91.88v8.89h-1.6v-3.6h-12.4v-1.7h12.4v-3.6h1.6Z" fill="#fff"/>
        <path d="M119.55,104.3c.87,.35,1.63,.85,2.28,1.49,.65,.64,1.15,1.39,1.52,2.26,.37,.87,.55,1.8,.55,2.82s-.18,1.97-.55,2.83c-.37,.86-.87,1.61-1.52,2.25-.65,.64-1.41,1.13-2.28,1.49-.87,.35-1.82,.53-2.85,.53s-1.96-.18-2.84-.53c-.88-.35-1.64-.85-2.29-1.49-.65-.64-1.15-1.39-1.52-2.25-.37-.86-.55-1.8-.55-2.83s.18-1.95,.55-2.82c.37-.87,.87-1.62,1.52-2.26,.65-.64,1.41-1.14,2.29-1.49,.88-.35,1.83-.53,2.84-.53s1.98,.18,2.85,.53Zm-5.67,1.96c-.83,.46-1.48,1.09-1.96,1.89s-.72,1.71-.72,2.72,.24,1.93,.72,2.73c.48,.79,1.13,1.42,1.96,1.88,.83,.46,1.77,.69,2.82,.69s1.99-.23,2.82-.69,1.48-1.09,1.96-1.88c.48-.79,.72-1.7,.72-2.73s-.24-1.92-.72-2.72-1.13-1.43-1.96-1.89c-.83-.46-1.77-.69-2.82-.69s-1.99,.23-2.82,.69Z" fill="#fff"/>
        <path d="M123.7,124.04h-14v-1.7h14v1.7Zm0,9.39h-14v-1.7h14v1.7Zm-5.6-10.15v9.59h-1.6v-9.59h1.6Z" fill="#fff"/>
        <path d="M123.7,140.33h-14v-1.7h14v1.7Zm-14-.76h1.7v3.26c0,.79,.12,1.5,.37,2.16s.6,1.21,1.06,1.68c.46,.47,1.02,.83,1.67,1.08,.65,.25,1.39,.38,2.2,.38s1.55-.13,2.2-.38c.65-.25,1.21-.61,1.67-1.08,.46-.47,.81-1.03,1.06-1.68,.25-.65,.37-1.37,.37-2.16v-3.26h1.7v3.26c0,1.36-.29,2.56-.88,3.62-.59,1.05-1.4,1.88-2.45,2.48-1.05,.6-2.27,.9-3.67,.9s-2.62-.3-3.67-.9c-1.05-.6-1.86-1.43-2.45-2.48-.59-1.05-.88-2.26-.88-3.62v-3.26Z" fill="#fff"/>
        <path d="M119.55,161.93c.87,.35,1.63,.85,2.28,1.49,.65,.64,1.15,1.39,1.52,2.26,.37,.87,.55,1.8,.55,2.82s-.18,1.97-.55,2.83c-.37,.86-.87,1.61-1.52,2.25-.65,.64-1.41,1.13-2.28,1.49-.87,.35-1.82,.53-2.85,.53s-1.96-.18-2.84-.53c-.88-.35-1.64-.85-2.29-1.49-.65-.64-1.15-1.39-1.52-2.25-.37-.86-.55-1.8-.55-2.83s.18-1.95,.55-2.82c.37-.87,.87-1.62,1.52-2.26,.65-.64,1.41-1.14,2.29-1.49,.88-.35,1.83-.53,2.84-.53s1.98,.18,2.85,.53Zm-5.67,1.96c-.83,.46-1.48,1.09-1.96,1.89s-.72,1.71-.72,2.72,.24,1.93,.72,2.73c.48,.79,1.13,1.42,1.96,1.88,.83,.46,1.77,.69,2.82,.69s1.99-.23,2.82-.69,1.48-1.09,1.96-1.88c.48-.79,.72-1.7,.72-2.73s-.24-1.92-.72-2.72-1.13-1.43-1.96-1.89c-.83-.46-1.77-.69-2.82-.69s-1.99,.23-2.82,.69Z" fill="#fff"/>
        <path d="M123.7,181.68h-14v-1.7h14v1.7Zm-5.6-.76v6.05h-1.6v-6.05h1.6Zm5.6,0v6.25h-1.6v-6.25h1.6Z" fill="#fff"/>
        <path d="M123.7,201.66h-14v-1.7h14v1.7Zm0,9.39h-14v-1.7h14v1.7Zm-5.6-10.15v9.59h-1.6v-9.59h1.6Z" fill="#fff"/>
        <path d="M119.55,215.98c.87,.35,1.63,.85,2.28,1.49,.65,.64,1.15,1.39,1.52,2.26,.37,.87,.55,1.8,.55,2.82s-.18,1.97-.55,2.83c-.37,.86-.87,1.61-1.52,2.25-.65,.64-1.41,1.13-2.28,1.49-.87,.35-1.82,.53-2.85,.53s-1.96-.18-2.84-.53c-.88-.35-1.64-.85-2.29-1.49-.65-.64-1.15-1.39-1.52-2.25-.37-.86-.55-1.8-.55-2.83s.18-1.95,.55-2.82c.37-.87,.87-1.62,1.52-2.26,.65-.64,1.41-1.14,2.29-1.49,.88-.35,1.83-.53,2.84-.53s1.98,.18,2.85,.53Zm-5.67,1.96c-.83,.46-1.48,1.09-1.96,1.89s-.72,1.71-.72,2.72,.24,1.93,.72,2.73c.48,.79,1.13,1.42,1.96,1.88,.83,.46,1.77,.69,2.82,.69s1.99-.23,2.82-.69,1.48-1.09,1.96-1.88c.48-.79,.72-1.7,.72-2.73s-.24-1.92-.72-2.72-1.13-1.43-1.96-1.89c-.83-.46-1.77-.69-2.82-.69s-1.99,.23-2.82,.69Z" fill="#fff"/>
        <path d="M123.7,235.63h-9.4c-.96,0-1.73,.26-2.32,.78-.59,.52-.88,1.28-.88,2.28s.29,1.76,.88,2.28c.59,.52,1.36,.78,2.32,.78h9.4v1.7h-9.4c-.69,0-1.33-.11-1.92-.33-.59-.22-1.09-.54-1.52-.96-.43-.42-.76-.92-1-1.51-.24-.59-.36-1.24-.36-1.96s.12-1.37,.36-1.96c.24-.59,.57-1.09,1-1.51,.43-.42,.93-.74,1.52-.96,.59-.22,1.23-.33,1.92-.33h9.4v1.7Z" fill="#fff"/>
        <path d="M112.46,250.06c-.43,.35-.76,.75-1,1.19-.24,.44-.36,.94-.36,1.5,0,.75,.21,1.35,.62,1.8,.41,.45,.94,.68,1.58,.68s1.13-.15,1.5-.44c.37-.29,.68-.68,.91-1.15,.23-.47,.44-.98,.63-1.51,.12-.35,.28-.73,.47-1.16,.19-.43,.44-.83,.74-1.22,.3-.39,.67-.7,1.11-.95,.44-.25,.98-.37,1.62-.37,.69,0,1.31,.17,1.86,.52,.55,.35,.98,.83,1.29,1.44,.31,.61,.47,1.31,.47,2.1s-.14,1.42-.43,1.99c-.29,.57-.65,1.05-1.1,1.45s-.92,.71-1.41,.94l-.84-1.46c.35-.17,.69-.39,1.02-.66,.33-.27,.61-.59,.82-.97,.21-.38,.32-.84,.32-1.39,0-.76-.18-1.31-.55-1.66-.37-.35-.78-.52-1.23-.52-.39,0-.74,.1-1.07,.3-.33,.2-.63,.54-.92,1.01-.29,.47-.57,1.12-.85,1.93-.13,.37-.31,.77-.52,1.18s-.48,.8-.81,1.15c-.33,.35-.72,.64-1.18,.87-.46,.23-1.01,.34-1.65,.34s-1.17-.12-1.66-.35c-.49-.23-.91-.55-1.26-.96s-.61-.87-.8-1.38c-.19-.51-.28-1.05-.28-1.61,0-.76,.16-1.46,.49-2.11,.33-.65,.76-1.21,1.3-1.7s1.12-.88,1.73-1.19l.92,1.36c-.56,.32-1.05,.66-1.48,1.01Z" fill="#fff"/>
        <path d="M123.7,263.18h-14v-1.7h14v1.7Zm-12.4-.76v7.05h-1.6v-7.05h1.6Zm6.8,0v6.65h-1.6v-6.65h1.6Zm5.6,0v7.05h-1.6v-7.05h1.6Z" fill="#fff"/>
      </g>
      <polyline points="117.11 46.44 117.11 .5 28.42 .5 28.42 17.11" fill="none" stroke="#fff" stroke-miterlimit="10"/>
      <polyline points="28.42 309.76 28.42 326.63 117.11 327.08 117.11 283.73" fill="none" stroke="#fff" stroke-miterlimit="10"/>
    </g>
  </g>
</svg>