<?xml version="1.0" encoding="UTF-8"?>
<svg id="_圖層_2" data-name="圖層 2" xmlns="http://www.w3.org/2000/svg" viewBox="0 0 265.55 251.59">
  <g id="_圖層_1-2" data-name="圖層 1">
    <g>
      <g>
        <path d="M127.51,58.96L55.83,30.29,127.51,1.62l71.68,28.67-71.68,28.67Z" fill="none" stroke="#595757" stroke-miterlimit="10" stroke-width="3"/>
        <path d="M199.19,50.25l-71.68,28.67L55.83,50.25" fill="none" stroke="#595757" stroke-miterlimit="10" stroke-width="3"/>
        <path d="M199.19,70.22l-71.68,28.67-71.68-28.67" fill="none" stroke="#595757" stroke-miterlimit="10" stroke-width="3"/>
        <path d="M199.19,90.19l-71.68,28.67-71.68-28.67" fill="none" stroke="#595757" stroke-miterlimit="10" stroke-width="3"/>
      </g>
      <g>
        <path d="M61.12,178.36l3.34,2.59c-.29,.32-.68,.58-1.51,.68v20.16c0,.22-1.19,.94-2.77,.94h-.54v-1.76h-5.75v1.55s0,.07-.04,.07l3.78,1.87c-.18,.36-.5,.58-1.33,.47-1.58,2.2-4.28,4.82-7.41,6.37l-.36-.43c2.01-2.05,3.74-5.26,4.6-7.77-.47,.18-1.11,.36-1.94,.36h-.54v-24.58l3.67,1.44h5.14l1.65-1.94Zm-7.23,2.99v5.44h5.75v-5.44h-5.75Zm5.75,6.48h-5.75v5.54h5.75v-5.54Zm0,12.13v-5.54h-5.75v5.54h5.75Zm-1.76,2.77c8.74,2.88,5.57,9.39,2.41,6.8-.18-2.27-1.51-4.86-2.81-6.59l.4-.22Zm16.22-15.08v7.85h2.95l1.62-1.84,3.2,2.45c-.22,.32-.61,.54-1.33,.65v13.32c0,.18-1.11,.79-2.77,.79h-.58v-2.66h-8.81v2.09c0,.22-1.01,.83-2.66,.83h-.5v-17.03l3.6,1.4h1.91v-17.24l4.71,.43c-.07,.5-.4,.86-1.33,1.01v6.91h3.06l1.94-2.74s2.19,1.87,3.45,3.2c-.07,.4-.43,.58-.97,.58h-7.48Zm-5.72,8.89v10.62h8.81v-10.62h-8.81Z" fill="#231815"/>
        <path d="M94.96,188.8c2.19,6.44,.9,10.94-.65,13.17-1.01,1.58-2.77,1.98-3.74,1.04-.75-.79-.5-1.98,.29-2.88,1.83-1.8,3.6-6.41,3.52-11.3l.58-.04Zm8.92-3.92c-.04,.47-.4,.86-1.26,.97v19.22c0,.94,.4,1.22,2.19,1.22h4.68c1.91,0,3.42-.04,4.1-.07,.58-.07,.86-.22,1.08-.65,.43-.76,1.04-2.99,1.73-5.83h.43l.11,6.08c1.15,.43,1.47,.83,1.47,1.51,0,1.69-1.73,2.38-9.17,2.38h-4.86c-3.96,0-5.18-.72-5.18-3.67v-21.63l4.67,.47Zm5.61,3.42c-.68-3.24-3.2-7.13-5.36-9.75l.4-.25c11.4,4.75,8.7,12.81,4.96,10.01Zm10.79,14.07c-.4-3.38-1.55-8.85-4.57-12.6l.36-.29c11.58,7.56,7.19,16.56,4.21,12.89Z" fill="#231815"/>
        <path d="M160.81,204.49s2.62,1.94,4.17,3.35c-.11,.4-.47,.58-1.01,.58h-32.15l-.32-1.04h14.75v-22.86h-12.05l-.29-1.04h22.37l2.27-2.92s2.55,1.98,4.17,3.38c-.11,.4-.5,.58-1.04,.58h-11.72v22.86h8.56l2.3-2.88Z" fill="#231815"/>
        <path d="M173.14,186.5c8.74,.68,6.44,6.95,3.2,5-.5-1.69-2.16-3.64-3.49-4.75l.29-.25Zm11.22-3.38c-1.58,4.82-4.5,13.71-5.04,15.69-.32,1.22-.61,2.48-.58,3.46,.04,1.76,1.33,3.2,1.22,6.34-.07,1.69-1.04,2.77-2.55,2.77-.79,0-1.44-.58-1.65-1.84,.61-3.71,.43-6.88-.43-7.42-.5-.36-1.08-.5-1.83-.58v-.72h1.62c.5,0,.65-.04,1.01-.79q.75-1.37,7.62-17.06l.61,.14Zm-8.34-4.75c9.21,1.01,6.8,7.52,3.42,5.47-.58-1.84-2.27-3.92-3.74-5.18l.32-.29Zm26.97,13.07s2.37,1.84,3.81,3.17c-.07,.4-.47,.58-.97,.58h-13.49l4.17,2.02c-.18,.32-.61,.61-1.37,.54-2.05,2.66-5.93,6.26-9.31,8.68,3.52-.18,8.96-.54,14.75-1.01-1.12-2.02-2.45-4.03-3.63-5.62l.43-.25c11.69,5.69,8.96,13.93,5.18,10.94-.29-1.33-.83-2.77-1.55-4.21-3.74,.97-9.13,2.27-15.61,3.56-.29,.4-.61,.65-.94,.79l-1.69-4.28s.83-.18,1.15-.43c2.66-2.02,6.22-7.49,7.59-10.73h-9.24l-.25-1.04h9.93v-7.6h-7.19l-.29-1.04h7.48v-7.52l4.75,.43c-.07,.5-.4,.86-1.33,1.01v6.08h3.81l2.09-2.66s2.27,1.84,3.67,3.13c-.11,.4-.47,.58-.97,.58h-8.6v7.6h5.5l2.12-2.7Z" fill="#231815"/>
      </g>
      <g>
        <g>
          <path d="M6.01,236.69c3.04,0,4.69,1.42,4.69,3.52,0,1.56-1,2.94-3.42,3.46,2.92,.38,4.15,1.82,4.15,3.64,0,2.02-1.62,3.96-5.57,3.96H0v-.72l2.08-.22c.06-1.92,.06-3.86,.06-5.82v-1.1c0-1.92,0-3.88-.06-5.8l-2.08-.22v-.7H6.01Zm-2.16,.82c-.06,1.88-.06,3.8-.06,5.8h1.26c2.72,0,3.98-1,3.98-3.04s-1.12-2.76-3.56-2.76h-1.62Zm1.62,12.94c2.78,0,4.19-1.12,4.19-3.14s-1.36-3.2-4.47-3.2h-1.4c0,2.34,0,4.38,.06,6.34h1.62Z" fill="#fff"/>
          <path d="M29.46,237.39l-1.9,.24-.04,7.84c0,4.32-2.04,6.12-5.07,6.12s-5.19-1.74-5.19-5.82v-2.32c0-1.96,0-3.92-.04-5.86l-1.86-.2v-.7h5.87v.7l-2.26,.24c-.02,1.9-.02,3.84-.02,5.82v1.84c0,3.76,1.46,5.02,3.75,5.02,2.66,0,3.93-1.48,3.93-5.4l-.02-7.24-2.36-.28v-.7h5.19v.7Z" fill="#fff"/>
          <path d="M37.16,237.61c-.06,1.9-.06,3.84-.06,5.82v1.1c0,1.92,0,3.88,.06,5.8l2.08,.22v.72h-5.93v-.72l2.08-.22c.06-1.9,.06-3.84,.06-5.8v-1.1c0-1.94,0-3.9-.06-5.82l-2.08-.22v-.7h5.93v.7l-2.08,.22Z" fill="#fff"/>
          <path d="M54.14,247.29l-.18,3.98h-10.65v-.72l2.08-.22c.06-1.92,.06-3.86,.06-5.78v-1.12c0-1.98,0-3.92-.06-5.82l-2.08-.22v-.7h5.93v.7l-2.08,.22c-.06,1.92-.06,3.88-.06,5.92v1.4c0,1.62,0,3.54,.06,5.44h5.27l.64-3.08h1.06Z" fill="#fff"/>
          <path d="M64.31,236.69c4.23,0,7.03,2.58,7.03,7.3s-3.06,7.28-7.39,7.28h-5.85v-.72l2.08-.22c.06-1.9,.06-3.88,.06-6.14v-.72c0-1.98,0-3.94-.06-5.86l-2.08-.22v-.7h6.21Zm-.54,13.76c3.7,0,5.65-2.42,5.65-6.46s-1.96-6.48-5.43-6.48h-2.04c-.06,1.92-.06,3.92-.06,5.96v.72c0,2.26,0,4.28,.06,6.26h1.82Z" fill="#fff"/>
          <path d="M79.37,237.61c-.06,1.9-.06,3.84-.06,5.82v1.1c0,1.92,0,3.88,.06,5.8l2.08,.22v.72h-5.93v-.72l2.08-.22c.06-1.9,.06-3.84,.06-5.8v-1.1c0-1.94,0-3.9-.06-5.82l-2.08-.22v-.7h5.93v.7l-2.08,.22Z" fill="#fff"/>
          <path d="M99.57,237.39l-1.86,.26-.02,13.78h-.66l-8.89-12.34,.02,11.2,2.32,.26v.72h-5.13v-.72l1.88-.24,.02-12.48-.18-.26-1.64-.2v-.68h3.12l8.27,11.58-.02-10.6-2.34-.28v-.7h5.11v.7Z" fill="#fff"/>
          <path d="M116.95,245.05l-1.38,.14c-.04,1.32-.06,2.66-.06,4.12v.98c-1.52,.82-2.92,1.3-4.69,1.3-4.33,0-7.29-3.18-7.29-7.62s3.04-7.62,7.35-7.62c1.84,0,3.14,.38,4.35,1.12l.08,3.14h-1.12l-.44-2.64c-.84-.5-1.7-.72-2.7-.72-3.28,0-5.57,2.5-5.57,6.74s2.16,6.7,5.63,6.7c1,0,1.82-.2,2.72-.56v-.84c0-1.32-.02-2.7-.06-4.06l-2.34-.18v-.72h5.51v.72Z" fill="#fff"/>
          <path d="M132.6,243.11c2.96,1.18,3.99,2.38,3.99,4.4,0,2.54-2.14,4.08-5.05,4.08-1.64,0-3.2-.54-4.16-1.16l.1-3h1.02l.48,2.64c.76,.44,1.44,.62,2.46,.62,2.18,0,3.64-.98,3.64-2.84,0-1.44-.84-2.16-2.92-3l-.82-.32c-2.24-.9-3.66-2.16-3.66-4.26,0-2.5,2.08-3.92,4.71-3.92,1.48,0,2.56,.44,3.52,1.14l-.1,2.8h-1.06l-.48-2.54c-.6-.36-1.18-.5-1.92-.5-1.82,0-3.16,.88-3.16,2.6,0,1.46,.94,2.32,2.54,2.94l.86,.32Z" fill="#fff"/>
          <path d="M146.94,237.57c-.06,1.9-.06,3.86-.06,5.86v1.1c0,1.92,0,3.88,.06,5.8l2.3,.22v.72h-6.37v-.72l2.32-.22c.04-1.9,.04-3.84,.04-5.8v-1.1c0-1.96,0-3.94-.04-5.86h-3.65l-.56,2.92h-1l.16-3.8h11.82l.2,3.8h-1l-.56-2.92h-3.66Z" fill="#fff"/>
          <path d="M168.34,250.55v.72c-.36,.1-.88,.2-1.54,.2-1.3,0-1.82-.36-2.06-1.26l-1-3.6c-.46-1.74-1.16-2.12-3-2.12h-1.34c0,2.06,0,3.96,.06,5.84l2.08,.22v.72h-5.93v-.72l2.08-.22c.06-1.9,.06-3.84,.06-5.8v-1.1c0-1.94,0-3.9-.06-5.82l-2.08-.22v-.7h5.95c3.26,0,5.15,1.38,5.15,3.82,0,1.76-1.26,3.28-3.66,3.72,1.24,.28,1.9,1.02,2.4,2.6l1.08,3.54,1.8,.18Zm-6.95-6.86c2.34,0,3.59-1.36,3.59-3.2s-1.08-2.98-3.46-2.98h-2.06c-.06,1.92-.06,3.86-.06,6.18h1.98Z" fill="#fff"/>
          <path d="M185.72,237.39l-1.9,.24-.04,7.84c0,4.32-2.04,6.12-5.07,6.12s-5.19-1.74-5.19-5.82v-2.32c0-1.96,0-3.92-.04-5.86l-1.86-.2v-.7h5.87v.7l-2.26,.24c-.02,1.9-.02,3.84-.02,5.82v1.84c0,3.76,1.46,5.02,3.75,5.02,2.66,0,3.93-1.48,3.93-5.4l-.02-7.24-2.36-.28v-.7h5.19v.7Z" fill="#fff"/>
          <path d="M201.32,247.35l-.06,3.16c-1.36,.78-2.8,1.08-4.33,1.08-4.35,0-7.31-3.14-7.31-7.62s3.1-7.62,7.31-7.62c1.3,0,2.72,.24,4.13,1.08l.08,3.14h-1.1l-.48-2.7c-.82-.44-1.62-.62-2.42-.62-3.18,0-5.57,2.44-5.57,6.72s2.26,6.72,5.43,6.72c.92,0,1.86-.18,2.76-.62l.48-2.72h1.08Z" fill="#fff"/>
          <path d="M211.71,237.57c-.06,1.9-.06,3.86-.06,5.86v1.1c0,1.92,0,3.88,.06,5.8l2.3,.22v.72h-6.37v-.72l2.32-.22c.04-1.9,.04-3.84,.04-5.8v-1.1c0-1.96,0-3.94-.04-5.86h-3.66l-.56,2.92h-1l.16-3.8h11.83l.2,3.8h-1l-.56-2.92h-3.66Z" fill="#fff"/>
          <path d="M234.37,237.39l-1.9,.24-.04,7.84c0,4.32-2.04,6.12-5.07,6.12s-5.19-1.74-5.19-5.82v-2.32c0-1.96,0-3.92-.04-5.86l-1.86-.2v-.7h5.87v.7l-2.26,.24c-.02,1.9-.02,3.84-.02,5.82v1.84c0,3.76,1.46,5.02,3.75,5.02,2.66,0,3.93-1.48,3.93-5.4l-.02-7.24-2.36-.28v-.7h5.19v.7Z" fill="#fff"/>
          <path d="M250.93,250.55v.72c-.36,.1-.88,.2-1.54,.2-1.3,0-1.82-.36-2.06-1.26l-1-3.6c-.46-1.74-1.16-2.12-3-2.12h-1.34c0,2.06,0,3.96,.06,5.84l2.08,.22v.72h-5.93v-.72l2.08-.22c.06-1.9,.06-3.84,.06-5.8v-1.1c0-1.94,0-3.9-.06-5.82l-2.08-.22v-.7h5.95c3.26,0,5.15,1.38,5.15,3.82,0,1.76-1.26,3.28-3.66,3.72,1.24,.28,1.9,1.02,2.4,2.6l1.08,3.54,1.8,.18Zm-6.95-6.86c2.34,0,3.59-1.36,3.59-3.2s-1.08-2.98-3.46-2.98h-2.06c-.06,1.92-.06,3.86-.06,6.18h1.98Z" fill="#fff"/>
          <path d="M265.55,247.49l-.14,3.78h-11.09v-.72l2.08-.22c.06-1.9,.06-3.84,.06-5.8v-1.1c0-1.94,0-3.9-.06-5.82l-2.08-.22v-.7h10.69l.14,3.76h-.98l-.54-2.88h-5.45c-.06,1.88-.06,3.84-.06,5.88h3.5l.3-2.16h.82v5.06h-.82l-.28-2.1h-3.52c0,2.22,0,4.18,.06,6.12h5.85l.52-2.88h1Z" fill="#fff"/>
        </g>
        <g>
          <path d="M6.01,236.69c3.04,0,4.69,1.42,4.69,3.52,0,1.56-1,2.94-3.42,3.46,2.92,.38,4.15,1.82,4.15,3.64,0,2.02-1.62,3.96-5.57,3.96H0v-.72l2.08-.22c.06-1.92,.06-3.86,.06-5.82v-1.1c0-1.92,0-3.88-.06-5.8l-2.08-.22v-.7H6.01Zm-2.16,.82c-.06,1.88-.06,3.8-.06,5.8h1.26c2.72,0,3.98-1,3.98-3.04s-1.12-2.76-3.56-2.76h-1.62Zm1.62,12.94c2.78,0,4.19-1.12,4.19-3.14s-1.36-3.2-4.47-3.2h-1.4c0,2.34,0,4.38,.06,6.34h1.62Z" fill="#231815"/>
          <path d="M29.46,237.39l-1.9,.24-.04,7.84c0,4.32-2.04,6.12-5.07,6.12s-5.19-1.74-5.19-5.82v-2.32c0-1.96,0-3.92-.04-5.86l-1.86-.2v-.7h5.87v.7l-2.26,.24c-.02,1.9-.02,3.84-.02,5.82v1.84c0,3.76,1.46,5.02,3.75,5.02,2.66,0,3.93-1.48,3.93-5.4l-.02-7.24-2.36-.28v-.7h5.19v.7Z" fill="#231815"/>
          <path d="M37.16,237.61c-.06,1.9-.06,3.84-.06,5.82v1.1c0,1.92,0,3.88,.06,5.8l2.08,.22v.72h-5.93v-.72l2.08-.22c.06-1.9,.06-3.84,.06-5.8v-1.1c0-1.94,0-3.9-.06-5.82l-2.08-.22v-.7h5.93v.7l-2.08,.22Z" fill="#231815"/>
          <path d="M54.14,247.29l-.18,3.98h-10.65v-.72l2.08-.22c.06-1.92,.06-3.86,.06-5.78v-1.12c0-1.98,0-3.92-.06-5.82l-2.08-.22v-.7h5.93v.7l-2.08,.22c-.06,1.92-.06,3.88-.06,5.92v1.4c0,1.62,0,3.54,.06,5.44h5.27l.64-3.08h1.06Z" fill="#231815"/>
          <path d="M64.31,236.69c4.23,0,7.03,2.58,7.03,7.3s-3.06,7.28-7.39,7.28h-5.85v-.72l2.08-.22c.06-1.9,.06-3.88,.06-6.14v-.72c0-1.98,0-3.94-.06-5.86l-2.08-.22v-.7h6.21Zm-.54,13.76c3.7,0,5.65-2.42,5.65-6.46s-1.96-6.48-5.43-6.48h-2.04c-.06,1.92-.06,3.92-.06,5.96v.72c0,2.26,0,4.28,.06,6.26h1.82Z" fill="#231815"/>
          <path d="M79.37,237.61c-.06,1.9-.06,3.84-.06,5.82v1.1c0,1.92,0,3.88,.06,5.8l2.08,.22v.72h-5.93v-.72l2.08-.22c.06-1.9,.06-3.84,.06-5.8v-1.1c0-1.94,0-3.9-.06-5.82l-2.08-.22v-.7h5.93v.7l-2.08,.22Z" fill="#231815"/>
          <path d="M99.57,237.39l-1.86,.26-.02,13.78h-.66l-8.89-12.34,.02,11.2,2.32,.26v.72h-5.13v-.72l1.88-.24,.02-12.48-.18-.26-1.64-.2v-.68h3.12l8.27,11.58-.02-10.6-2.34-.28v-.7h5.11v.7Z" fill="#231815"/>
          <path d="M116.95,245.05l-1.38,.14c-.04,1.32-.06,2.66-.06,4.12v.98c-1.52,.82-2.92,1.3-4.69,1.3-4.33,0-7.29-3.18-7.29-7.62s3.04-7.62,7.35-7.62c1.84,0,3.14,.38,4.35,1.12l.08,3.14h-1.12l-.44-2.64c-.84-.5-1.7-.72-2.7-.72-3.28,0-5.57,2.5-5.57,6.74s2.16,6.7,5.63,6.7c1,0,1.82-.2,2.72-.56v-.84c0-1.32-.02-2.7-.06-4.06l-2.34-.18v-.72h5.51v.72Z" fill="#231815"/>
          <path d="M132.6,243.11c2.96,1.18,3.99,2.38,3.99,4.4,0,2.54-2.14,4.08-5.05,4.08-1.64,0-3.2-.54-4.16-1.16l.1-3h1.02l.48,2.64c.76,.44,1.44,.62,2.46,.62,2.18,0,3.64-.98,3.64-2.84,0-1.44-.84-2.16-2.92-3l-.82-.32c-2.24-.9-3.66-2.16-3.66-4.26,0-2.5,2.08-3.92,4.71-3.92,1.48,0,2.56,.44,3.52,1.14l-.1,2.8h-1.06l-.48-2.54c-.6-.36-1.18-.5-1.92-.5-1.82,0-3.16,.88-3.16,2.6,0,1.46,.94,2.32,2.54,2.94l.86,.32Z" fill="#231815"/>
          <path d="M146.94,237.57c-.06,1.9-.06,3.86-.06,5.86v1.1c0,1.92,0,3.88,.06,5.8l2.3,.22v.72h-6.37v-.72l2.32-.22c.04-1.9,.04-3.84,.04-5.8v-1.1c0-1.96,0-3.94-.04-5.86h-3.65l-.56,2.92h-1l.16-3.8h11.82l.2,3.8h-1l-.56-2.92h-3.66Z" fill="#231815"/>
          <path d="M168.34,250.55v.72c-.36,.1-.88,.2-1.54,.2-1.3,0-1.82-.36-2.06-1.26l-1-3.6c-.46-1.74-1.16-2.12-3-2.12h-1.34c0,2.06,0,3.96,.06,5.84l2.08,.22v.72h-5.93v-.72l2.08-.22c.06-1.9,.06-3.84,.06-5.8v-1.1c0-1.94,0-3.9-.06-5.82l-2.08-.22v-.7h5.95c3.26,0,5.15,1.38,5.15,3.82,0,1.76-1.26,3.28-3.66,3.72,1.24,.28,1.9,1.02,2.4,2.6l1.08,3.54,1.8,.18Zm-6.95-6.86c2.34,0,3.59-1.36,3.59-3.2s-1.08-2.98-3.46-2.98h-2.06c-.06,1.92-.06,3.86-.06,6.18h1.98Z" fill="#231815"/>
          <path d="M185.72,237.39l-1.9,.24-.04,7.84c0,4.32-2.04,6.12-5.07,6.12s-5.19-1.74-5.19-5.82v-2.32c0-1.96,0-3.92-.04-5.86l-1.86-.2v-.7h5.87v.7l-2.26,.24c-.02,1.9-.02,3.84-.02,5.82v1.84c0,3.76,1.46,5.02,3.75,5.02,2.66,0,3.93-1.48,3.93-5.4l-.02-7.24-2.36-.28v-.7h5.19v.7Z" fill="#231815"/>
          <path d="M201.32,247.35l-.06,3.16c-1.36,.78-2.8,1.08-4.33,1.08-4.35,0-7.31-3.14-7.31-7.62s3.1-7.62,7.31-7.62c1.3,0,2.72,.24,4.13,1.08l.08,3.14h-1.1l-.48-2.7c-.82-.44-1.62-.62-2.42-.62-3.18,0-5.57,2.44-5.57,6.72s2.26,6.72,5.43,6.72c.92,0,1.86-.18,2.76-.62l.48-2.72h1.08Z" fill="#231815"/>
          <path d="M211.71,237.57c-.06,1.9-.06,3.86-.06,5.86v1.1c0,1.92,0,3.88,.06,5.8l2.3,.22v.72h-6.37v-.72l2.32-.22c.04-1.9,.04-3.84,.04-5.8v-1.1c0-1.96,0-3.94-.04-5.86h-3.66l-.56,2.92h-1l.16-3.8h11.83l.2,3.8h-1l-.56-2.92h-3.66Z" fill="#231815"/>
          <path d="M234.37,237.39l-1.9,.24-.04,7.84c0,4.32-2.04,6.12-5.07,6.12s-5.19-1.74-5.19-5.82v-2.32c0-1.96,0-3.92-.04-5.86l-1.86-.2v-.7h5.87v.7l-2.26,.24c-.02,1.9-.02,3.84-.02,5.82v1.84c0,3.76,1.46,5.02,3.75,5.02,2.66,0,3.93-1.48,3.93-5.4l-.02-7.24-2.36-.28v-.7h5.19v.7Z" fill="#231815"/>
          <path d="M250.93,250.55v.72c-.36,.1-.88,.2-1.54,.2-1.3,0-1.82-.36-2.06-1.26l-1-3.6c-.46-1.74-1.16-2.12-3-2.12h-1.34c0,2.06,0,3.96,.06,5.84l2.08,.22v.72h-5.93v-.72l2.08-.22c.06-1.9,.06-3.84,.06-5.8v-1.1c0-1.94,0-3.9-.06-5.82l-2.08-.22v-.7h5.95c3.26,0,5.15,1.38,5.15,3.82,0,1.76-1.26,3.28-3.66,3.72,1.24,.28,1.9,1.02,2.4,2.6l1.08,3.54,1.8,.18Zm-6.95-6.86c2.34,0,3.59-1.36,3.59-3.2s-1.08-2.98-3.46-2.98h-2.06c-.06,1.92-.06,3.86-.06,6.18h1.98Z" fill="#231815"/>
          <path d="M265.55,247.49l-.14,3.78h-11.09v-.72l2.08-.22c.06-1.9,.06-3.84,.06-5.8v-1.1c0-1.94,0-3.9-.06-5.82l-2.08-.22v-.7h10.69l.14,3.76h-.98l-.54-2.88h-5.45c-.06,1.88-.06,3.84-.06,5.88h3.5l.3-2.16h.82v5.06h-.82l-.28-2.1h-3.52c0,2.22,0,4.18,.06,6.12h5.85l.52-2.88h1Z" fill="#231815"/>
        </g>
      </g>
    </g>
  </g>
</svg>