<?xml version="1.0" encoding="UTF-8"?>
<svg id="_圖層_2" data-name="圖層 2" xmlns="http://www.w3.org/2000/svg" viewBox="0 0 248.37 69.79">
  <g id="_圖層_1-2" data-name="圖層 1">
    <g>
      <path d="M2.43,48.82v-7.82c5.69,1.96,11.62,2.93,17.76,2.93,8.17,0,12.26-2.43,12.26-7.32,0-4.56-2.67-6.85-8.05-6.85h-8.29c-10.72,.02-16.11-5.03-16.11-15.12S7.11,0,21.33,0c6.12,0,12.02,.83,17.71,2.43v7.82c-5.69-1.96-11.6-2.93-17.71-2.93-8.53,0-12.8,2.46-12.8,7.32,0,4.56,2.53,6.83,7.56,6.83h8.29c11.38,0,17.08,5.05,17.08,15.14s-7.09,14.64-21.28,14.64c-6.12,.02-12.02-.8-17.74-2.43" fill="#e37328"/>
      <polygon points="45.06 .17 54.82 .17 69.53 40.22 84.13 .17 93.88 .17 73.03 51.28 64.64 51.28 45.06 .17" fill="#e37328"/>
      <path d="M199.58,25.63c0-17.08,8.12-25.63,24.4-25.63s24.4,8.55,24.4,25.63-8.12,25.58-24.4,25.58-24.33-8.53-24.4-25.58m24.4,18.3c10.25,0,15.38-6.16,15.38-18.49s-5.13-18.12-15.38-18.12-15.38,6.05-15.38,18.12,5.13,18.49,15.38,18.49" fill="#e37328"/>
      <path d="M115.16,.14c-5.27,0-10.68,.8-16.2,2.43v7.3c5.53-1.63,10.94-2.43,16.2-2.43,9.21,0,13.82,2.76,13.82,8.31v4.82c-3.8-.66-8.27-.97-13.37-.97-13.86,0-20.78,5.24-20.78,15.73s6.42,15.92,19.27,15.92c4.09,0,7.42-.38,10.56-1.37v-7.61c-2.98,1.13-6.47,1.7-10.56,1.7-6.83,0-10.25-2.93-10.25-8.76,0-5.53,3.92-8.29,11.76-8.29,5.34,0,9.8,.33,13.37,.97v23.38h9.02V16.51C138,5.6,130.4,.14,115.16,.14" fill="#e37328"/>
      <path d="M183.63,40.72c-3.54,1.77-7.65,3.05-12.35,3.05-10.32,0-15.47-6.5-15.47-18.68s5.43-17.64,16.3-17.67c7.68,.45,11.53,2.98,11.53,8.08v25.22h0ZM166.96,.47c-5.43,.68-9.75,2.46-12.99,5.29l-.38,.31c-4.44,4.16-6.68,10.49-6.68,19.13,0,17.36,8.1,26,24.3,26,4.42,0,8.55-.83,12.4-2.46v2.46c0,7.51-4.82,11.27-14.45,11.27-6.28,0-11.9-.83-16.89-2.46v7.35c4.89,1.63,10.49,2.43,16.79,2.43,15.73,0,23.57-6.19,23.57-18.61h0V16.23c0-10.3-6.71-15.52-20.12-16.13h0s-3.64,.14-5.55,.38" fill="#e37328"/>
    </g>
  </g>
</svg>