<?xml version="1.0" encoding="UTF-8"?>
<svg id="_圖層_2" data-name="圖層 2" xmlns="http://www.w3.org/2000/svg" viewBox="0 0 106.1 104.23">
  <defs>
    <style>
      .cls-1 {
        fill: #2d2d2d;
      }
    </style>
  </defs>
  <g id="_圖層_2-2" data-name="圖層 2">
    <g>
      <path class="cls-1" d="M9.83,48.07c1.17.11,1.3.33,1.1,1.13-.23.92-.93,3.26-1.46,4.85-.77-2.11-1.54-4.19-2.3-6.36h-.62c-.65,2.16-1.37,4.33-2.08,6.34-.49-1.64-.99-3.32-1.47-4.98-.19-.7-.16-.89.86-.99v-.46s-3.86,0-3.86,0v.46c.85.09,1.04.29,1.38,1.35.76,2.41,1.6,5.14,2.19,7.21h.67c.67-2.02,1.39-4.14,2.13-6.3.75,2.04,1.58,4.28,2.28,6.3h.66c.82-2.67,1.87-5.98,2.26-7.15.38-1.12.54-1.29,1.51-1.42v-.46s-3.26,0-3.26,0v.46Z"/>
      <path class="cls-1" d="M49.71.92c.25.34.28.61.28,1.03v3.32c0,1.21-.03,1.74-.08,2.21-.07.65-.41.86-1.21.92v.46s3.36,0,3.36,0v-.46c-1-.06-1.31-.34-1.35-.97-.04-.4-.07-.96-.07-2.16v-3.2s5.75,6.94,5.75,6.94h.68s0-5.45,0-5.45c0-1.22.04-1.72.07-2.22.04-.62.31-.78,1.16-.89V0s-3.37,0-3.37,0v.46c1.12.07,1.37.32,1.41.92.04.47.06.97.06,2.19v2.77S50.98,0,50.98,0h-2.45s0,.46,0,.46c.61.06.92.11,1.17.46Z"/>
      <path class="cls-1" d="M56.39,98.75c-1.18-.6-1.72-1.06-1.72-1.87,0-.75.47-1.38,1.35-1.38,1.27,0,1.65.96,1.91,1.84l.49-.11c-.11-.87-.19-1.52-.25-2.02-.3-.05-1.02-.25-1.9-.25-1.96,0-3.04,1.14-3.04,2.5s.89,2.04,2.31,2.81c1.17.63,1.68,1.08,1.68,1.96,0,.88-.54,1.46-1.42,1.46-1.37,0-2.07-1.38-2.35-2.26l-.49.12c.1.68.3,1.92.4,2.26.61.2,1.37.43,2.22.43,1.89,0,3.19-1.15,3.19-2.7,0-1.33-.85-2.01-2.38-2.78Z"/>
      <path class="cls-1" d="M105.63,52.34c-.21.44-.49.97-.8,1.33-.3.36-.48.47-1.27.47h-1.07c-.79-.01-.91-.23-.91-1.17v-2.47h1.39c.86,0,.97.15,1.17,1.15h.49s0-2.96,0-2.96h-.49c-.19.95-.3,1.16-1.16,1.16h-1.4v-2.91c0-.44.05-.47.53-.47h1.03c.74,0,.96.09,1.2.42.2.26.4.72.53,1.19l.49-.07c-.05-.8-.12-1.89-.13-2.17-.18.01-.68.03-2.06.03h-4.35s0,.46,0,.46c.96.09,1.12.16,1.12,1.34v5.27c0,1.14-.09,1.22-1.34,1.34v.45s6.93,0,6.93,0c.13-.39.51-1.9.58-2.27l-.47-.12Z"/>
      <g>
        <path class="cls-1" d="M50.48,48.5l-21.19,4.32,21.16,4.48,4.32,21.19,4.48-21.16,21.19-4.32-21.16-4.48-4.32-21.19-4.48,21.16ZM58.5,57.56l-3.71,17.52.08-21.18,3.63,3.66ZM50.23,56.55l-17.52-3.71c1.82,0,17.89.06,21.18.08l-3.66,3.63ZM77.03,53c-1.11,0-20.1-.07-21.18-.08l3.66-3.63,17.52,3.71ZM54.87,51.94l-3.63-3.66,3.71-17.52-.08,21.18Z"/>
        <path class="cls-1" d="M37.74,30.47c.08-.06.1-.18.04-.26l-.92-1.21c-.06-.08-.18-.1-.26-.04s-.1.18-.04.26l.92,1.21c.06.08.18.1.26.04Z"/>
        <path class="cls-1" d="M72,75.36c-.08.06-.1.18-.04.26l.92,1.21c.06.08.18.1.26.04s.1-.18.04-.26l-.92-1.21c-.06-.08-.18-.1-.26-.04Z"/>
        <path class="cls-1" d="M35.85,32.05c.08-.07.08-.19.01-.27l-1.03-1.13c-.07-.08-.19-.08-.27-.01-.08.07-.08.19-.01.27l1.03,1.13c.07.08.19.08.27.01Z"/>
        <path class="cls-1" d="M73.89,73.79c-.08.07-.08.19-.01.27l1.03,1.13c.07.08.19.08.27.01.08-.07.08-.19.01-.27l-1.03-1.13c-.07-.08-.19-.08-.27-.01Z"/>
        <path class="cls-1" d="M33.83,33.8c.08.07.19.07.27-.01.07-.08.07-.19-.01-.27l-1.12-1.03c-.08-.07-.19-.07-.27.01-.07.08-.07.19.01.27l1.12,1.03Z"/>
        <path class="cls-1" d="M75.9,72.04c-.08-.07-.19-.07-.27.01-.07.08-.07.19.01.27l1.12,1.03c.08.07.19.07.27-.01.07-.08.07-.19-.01-.27l-1.12-1.03Z"/>
        <path class="cls-1" d="M32.25,35.71c.08.06.2.05.26-.03.06-.08.05-.2-.03-.26l-1.21-.93c-.08-.06-.2-.05-.26.03-.06.08-.05.2.03.26l1.21.93Z"/>
        <path class="cls-1" d="M77.49,70.13c-.08-.06-.2-.05-.26.03-.06.08-.05.2.03.26l1.21.93c.08.06.2.05.26-.03.06-.08.05-.2-.03-.26l-1.21-.93Z"/>
        <path class="cls-1" d="M30.83,37.74c.09.06.2.03.26-.06.06-.09.03-.2-.06-.26l-1.28-.82c-.09-.06-.2-.03-.26.06-.06.09-.03.2.06.26l1.28.82Z"/>
        <path class="cls-1" d="M78.9,68.09c-.09-.06-.2-.03-.26.06-.06.09-.03.2.06.26l1.28.82c.09.06.2.03.26-.06.06-.09.03-.2-.06-.26l-1.28-.82Z"/>
        <path class="cls-1" d="M29.6,39.9c.09.05.21.01.25-.08.05-.09.01-.21-.08-.25l-1.35-.71c-.09-.05-.21-.01-.25.08-.05.09-.01.21.08.25l1.35.71Z"/>
        <path class="cls-1" d="M80.13,65.94c-.09-.05-.21-.01-.25.08-.05.09-.01.21.08.25l1.35.71c.09.05.21.01.25-.08.05-.09.01-.21-.08-.25l-1.35-.71Z"/>
        <path class="cls-1" d="M28.56,42.15c.1.04.21,0,.25-.1.04-.1,0-.21-.1-.25l-1.41-.59c-.1-.04-.21,0-.25.1-.04.1,0,.21.1.25l1.41.59Z"/>
        <path class="cls-1" d="M81.17,63.69c-.1-.04-.21,0-.25.1-.04.1,0,.21.1.25l1.41.59c.1.04.21,0,.25-.1.04-.1,0-.21-.1-.25l-1.41-.59Z"/>
        <path class="cls-1" d="M27.73,44.48c.1.03.2-.02.24-.12.03-.1-.02-.2-.12-.24l-1.45-.46c-.1-.03-.2.02-.24.12-.03.1.02.2.12.24l1.45.46Z"/>
        <path class="cls-1" d="M82.01,61.36c-.1-.03-.2.02-.24.12-.03.1.02.2.12.24l1.45.46c.1.03.2-.02.24-.12.03-.1-.02-.2-.12-.24l-1.45-.46Z"/>
        <path class="cls-1" d="M27.09,46.88c.1.02.2-.04.22-.14.02-.1-.04-.2-.14-.22l-1.49-.33c-.1-.02-.2.04-.22.14-.02.1.04.2.14.22l1.49.33Z"/>
        <path class="cls-1" d="M82.64,58.96c-.1-.02-.2.04-.22.14-.02.1.04.2.14.22l1.49.33c.1.02.2-.04.22-.14.02-.1-.04-.2-.14-.22l-1.49-.33Z"/>
        <path class="cls-1" d="M26.67,49.32c.1.01.2-.06.21-.16.01-.1-.06-.2-.16-.21l-1.51-.2c-.1-.01-.2.06-.21.16-.01.1.06.2.16.21l1.51.2Z"/>
        <path class="cls-1" d="M83.06,56.52c-.1-.01-.2.06-.21.16-.01.1.06.2.16.21l1.51.2c.1.01.2-.06.21-.16.01-.1-.06-.2-.16-.21l-1.51-.2Z"/>
        <path class="cls-1" d="M26.47,51.79c.1,0,.19-.08.2-.18,0-.1-.08-.19-.18-.2l-1.52-.07c-.1,0-.19.08-.2.18,0,.1.08.19.18.2l1.52.07Z"/>
        <path class="cls-1" d="M83.27,54.04c-.1,0-.19.08-.2.18,0,.1.08.19.18.2l1.52.07c.1,0,.19-.08.2-.18,0-.1-.08-.19-.18-.2l-1.52-.07Z"/>
        <path class="cls-1" d="M24.95,54.34l1.52-.06c.1,0,.18-.09.18-.2,0-.1-.09-.18-.2-.18l-1.52.06c-.1,0-.18.09-.18.2,0,.1.09.18.2.18Z"/>
        <path class="cls-1" d="M84.78,51.5l-1.52.06c-.1,0-.18.09-.18.2,0,.1.09.18.2.18l1.52-.06c.1,0,.18-.09.18-.2,0-.1-.09-.18-.2-.18Z"/>
        <path class="cls-1" d="M25.19,56.94l1.51-.2c.1-.01.18-.11.16-.21-.01-.1-.11-.18-.21-.16l-1.51.2c-.1.01-.18.11-.16.21.01.1.11.18.21.16Z"/>
        <path class="cls-1" d="M84.54,48.9l-1.51.2c-.1.01-.18.11-.16.21.01.1.11.18.21.16l1.51-.2c.1-.01.18-.11.16-.21-.01-.1-.11-.18-.21-.16Z"/>
        <path class="cls-1" d="M25.65,59.51l1.49-.33c.1-.02.17-.12.14-.22-.02-.1-.12-.17-.22-.14l-1.49.33c-.1.02-.17.12-.14.22.02.1.12.17.22.14Z"/>
        <path class="cls-1" d="M84.08,46.33l-1.49.33c-.1.02-.17.12-.14.22.02.1.12.17.22.14l1.49-.33c.1-.02.17-.12.14-.22-.02-.1-.12-.17-.22-.14Z"/>
        <path class="cls-1" d="M26.34,62.03l1.45-.45c.1-.03.15-.14.12-.24-.03-.1-.14-.15-.24-.12l-1.45.45c-.1.03-.15.14-.12.24.03.1.14.15.24.12Z"/>
        <path class="cls-1" d="M83.4,43.81l-1.45.45c-.1.03-.15.14-.12.24.03.1.14.15.24.12l1.45-.45c.1-.03.15-.14.12-.24-.03-.1-.14-.15-.24-.12Z"/>
        <path class="cls-1" d="M27.24,64.48l1.41-.58c.1-.04.14-.15.1-.24-.04-.1-.15-.14-.24-.1l-1.41.58c-.1.04-.14.15-.1.24.04.1.15.14.24.1Z"/>
        <path class="cls-1" d="M82.49,41.36l-1.41.58c-.1.04-.14.15-.1.24.04.1.15.14.24.1l1.41-.58c.1-.04.14-.15.1-.24-.04-.1-.15-.14-.24-.1Z"/>
        <path class="cls-1" d="M28.35,66.85l1.35-.7c.09-.05.13-.16.08-.25s-.16-.13-.25-.08l-1.35.7c-.09.05-.13.16-.08.25.05.09.16.13.25.08Z"/>
        <path class="cls-1" d="M81.38,38.99l-1.35.7c-.09.05-.13.16-.08.25.05.09.16.13.25.08l1.35-.7c.09-.05.13-.16.08-.25-.05-.09-.16-.13-.25-.08Z"/>
        <path class="cls-1" d="M29.67,69.1l1.29-.82c.09-.06.11-.17.06-.26-.06-.09-.17-.11-.26-.06l-1.29.82c-.09.06-.11.17-.06.26.06.09.17.11.26.06Z"/>
        <path class="cls-1" d="M80.07,36.74l-1.29.82c-.09.06-.11.17-.06.26.06.09.17.11.26.06l1.29-.82c.09-.06.11-.17.06-.26-.06-.09-.17-.11-.26-.06Z"/>
        <path class="cls-1" d="M32.39,70.31c.08-.06.1-.18.04-.26s-.18-.1-.26-.04l-1.21.92c-.08.06-.1.18-.04.26s.18.1.26.04l1.21-.92Z"/>
        <path class="cls-1" d="M77.35,35.53c-.08.06-.1.18-.04.26s.18.1.26.04l1.21-.92c.08-.06.1-.18.04-.26s-.18-.1-.26-.04l-1.21.92Z"/>
        <path class="cls-1" d="M34,71.94c-.07-.08-.19-.08-.27-.01l-1.13,1.03c-.08.07-.08.19-.01.27.07.08.19.08.27.01l1.13-1.03c.08-.07.08-.19.01-.27Z"/>
        <path class="cls-1" d="M76.87,32.61l-1.13,1.03c-.08.07-.08.19-.01.27.07.08.19.08.27.01l1.13-1.03c.08-.07.08-.19.01-.27-.07-.08-.19-.08-.27-.01Z"/>
        <path class="cls-1" d="M35.74,73.69c-.08-.07-.19-.07-.27.01l-1.03,1.12c-.07.08-.07.19.01.27.08.07.19.07.27-.01l1.03-1.12c.07-.08.07-.19-.01-.27Z"/>
        <path class="cls-1" d="M74,32.15c.08.07.19.07.27-.01l1.03-1.12c.07-.08.07-.19-.01-.27-.08-.07-.19-.07-.27.01l-1.03,1.12c-.07.08-.07.19.01.27Z"/>
        <path class="cls-1" d="M37.62,75.28c-.08-.06-.2-.05-.26.03l-.93,1.21c-.06.08-.05.2.03.26.08.06.2.05.26-.03l.93-1.21c.06-.08.05-.2-.03-.26Z"/>
        <path class="cls-1" d="M72.11,30.56c.08.06.2.05.26-.03l.93-1.21c.06-.08.05-.2-.03-.26-.08-.06-.2-.05-.26.03l-.93,1.21c-.06.08-.05.2.03.26Z"/>
        <path class="cls-1" d="M39.64,76.69c-.09-.06-.2-.03-.26.06l-.82,1.28c-.06.09-.03.2.06.26.09.06.2.03.26-.06l.82-1.28c.06-.09.03-.2-.06-.26Z"/>
        <path class="cls-1" d="M70.1,29.14c.09.06.2.03.26-.06l.82-1.28c.06-.09.03-.2-.06-.26-.09-.06-.2-.03-.26.06l-.82,1.28c-.06.09-.03.2.06.26Z"/>
        <path class="cls-1" d="M41.77,77.93c-.09-.05-.21-.01-.25.08l-.71,1.35c-.05.09-.01.21.08.25.09.05.21.01.25-.08l.71-1.35c.05-.09.01-.21-.08-.25Z"/>
        <path class="cls-1" d="M67.97,27.91c.09.05.21.01.25-.08l.71-1.35c.05-.09.01-.21-.08-.25-.09-.05-.21-.01-.25.08l-.71,1.35c-.05.09-.01.21.08.25Z"/>
        <path class="cls-1" d="M43.99,78.98c-.1-.04-.21,0-.25.1l-.59,1.41c-.04.1,0,.21.1.25.1.04.21,0,.25-.1l.59-1.41c.04-.1,0-.21-.1-.25Z"/>
        <path class="cls-1" d="M65.81,26.8c.1.04.21,0,.25-.1l.59-1.41c.04-.1,0-.21-.1-.25-.1-.04-.21,0-.25.1l-.59,1.41c-.04.1,0,.21.1.25Z"/>
        <path class="cls-1" d="M46.31,79.83c-.1-.03-.2.02-.24.12l-.46,1.45c-.03.1.02.2.12.24.1.03.2-.02.24-.12l.46-1.45c.03-.1-.02-.2-.12-.24Z"/>
        <path class="cls-1" d="M63.43,26.01c.1.03.2-.02.24-.12l.46-1.45c.03-.1-.02-.2-.12-.24-.1-.03-.2.02-.24.12l-.46,1.45c-.03.1.02.2.12.24Z"/>
        <path class="cls-1" d="M48.46,80.61l-.33,1.49c-.02.1.04.2.14.22.1.02.2-.04.22-.14l.33-1.49c.02-.1-.04-.2-.14-.22-.1-.02-.2.04-.22.14Z"/>
        <path class="cls-1" d="M61.27,25.23l.33-1.49c.02-.1-.04-.2-.14-.22-.1-.02-.2.04-.22.14l-.33,1.49c-.02.1.04.2.14.22.1.02.2-.04.22-.14Z"/>
        <path class="cls-1" d="M50.9,81.06l-.2,1.51c-.01.1.06.2.16.21.1.01.2-.06.21-.16l.2-1.51c.01-.1-.06-.2-.16-.21-.1-.01-.2.06-.21.16Z"/>
        <path class="cls-1" d="M58.84,24.77l.2-1.51c.01-.1-.06-.2-.16-.21-.1-.01-.2.06-.21.16l-.2,1.51c-.01.1.06.2.16.21.1.01.2-.06.21-.16Z"/>
        <path class="cls-1" d="M53.37,81.3l-.07,1.52c0,.1.08.19.18.2.1,0,.19-.08.2-.18l.07-1.52c0-.1-.08-.19-.18-.2-.1,0-.19.08-.2.18Z"/>
        <path class="cls-1" d="M56.37,24.54l.07-1.52c0-.1-.08-.19-.18-.2-.1,0-.19.08-.2.18l-.07,1.52c0,.1.08.19.18.2.1,0,.19-.08.2-.18Z"/>
        <path class="cls-1" d="M56.03,81.13c-.1,0-.18.09-.18.2l.06,1.52c0,.1.09.18.2.18.1,0,.18-.09.18-.2l-.06-1.52c0-.1-.09-.18-.2-.18Z"/>
        <path class="cls-1" d="M53.71,24.71c.1,0,.18-.09.18-.2l-.06-1.52c0-.1-.09-.18-.2-.18-.1,0-.18.09-.18.2l.06,1.52c0,.1.09.18.2.18Z"/>
        <path class="cls-1" d="M58.48,80.92c-.1.01-.18.11-.16.21l.2,1.51c.01.1.11.18.21.16.1-.01.18-.11.16-.21l-.2-1.51c-.01-.1-.11-.18-.21-.16Z"/>
        <path class="cls-1" d="M51.25,24.92c.1-.01.18-.11.16-.21l-.2-1.51c-.01-.1-.11-.18-.21-.16-.1.01-.18.11-.16.21l.2,1.51c.01.1.11.18.21.16Z"/>
        <path class="cls-1" d="M60.91,80.5c-.1.02-.17.12-.14.22l.33,1.49c.02.1.12.17.22.14.1-.02.17-.12.14-.22l-.33-1.49c-.02-.1-.12-.17-.22-.14Z"/>
        <path class="cls-1" d="M48.83,25.34c.1-.02.17-.12.14-.22l-.33-1.49c-.02-.1-.12-.17-.22-.14-.1.02-.17.12-.14.22l.33,1.49c.02.1.12.17.22.14Z"/>
        <path class="cls-1" d="M63.29,79.87c-.1.03-.15.14-.12.24l.45,1.45c.03.1.14.15.24.12.1-.03.15-.14.12-.24l-.45-1.45c-.03-.1-.14-.15-.24-.12Z"/>
        <path class="cls-1" d="M46.45,25.97c.1-.03.15-.14.12-.24l-.45-1.45c-.03-.1-.14-.15-.24-.12-.1.03-.15.14-.12.24l.45,1.45c.03.1.14.15.24.12Z"/>
        <path class="cls-1" d="M65.61,79.03c-.1.04-.14.15-.1.24l.58,1.41c.04.1.15.14.24.1.1-.04.14-.15.1-.24l-.58-1.41c-.04-.1-.15-.14-.24-.1Z"/>
        <path class="cls-1" d="M44.13,26.81c.1-.04.14-.15.1-.24l-.58-1.41c-.04-.1-.15-.14-.24-.1-.1.04-.14.15-.1.24l.58,1.41c.04.1.15.14.24.1Z"/>
        <path class="cls-1" d="M67.84,78c-.09.05-.13.16-.08.25l.7,1.35c.05.09.16.13.25.08.09-.05.13-.16.08-.25l-.7-1.35c-.05-.09-.16-.13-.25-.08Z"/>
        <path class="cls-1" d="M41.89,27.84c.09-.05.13-.16.08-.25l-.7-1.35c-.05-.09-.16-.13-.25-.08-.09.05-.13.16-.08.25l.7,1.35c.05.09.16.13.25.08Z"/>
        <path class="cls-1" d="M69.98,76.77c-.09.06-.11.17-.06.26l.82,1.29c.06.09.17.11.26.06.09-.06.11-.17.06-.26l-.82-1.29c-.06-.09-.17-.11-.26-.06Z"/>
        <path class="cls-1" d="M39.76,29.07c.09-.06.11-.17.06-.26l-.82-1.29c-.06-.09-.17-.11-.26-.06-.09.06-.11.17-.06.26l.82,1.29c.06.09.17.11.26.06Z"/>
        <path class="cls-1" d="M82.17,32.66l.25-.77-.81.04-.41.02s-.03-.04-.05-.06l.11-.4.22-.78-.81.08-.41.04s-.04-.04-.05-.06l.09-.4.19-.79-.81.11-.41.06s-.04-.04-.06-.06l.08-.4.15-.8-.8.15-.4.07s-.04-.04-.06-.06l.06-.4.12-.8-.79.18-.4.09s-.04-.04-.07-.06l.04-.4.08-.81-.78.22-.39.11s-.05-.04-.07-.06l.02-.4.05-.81-.77.25-.38.12s-.05-.04-.07-.05v-.4s.01-.81.01-.81l-.76.28-.38.14s-.05-.03-.08-.05v-.4s-.04-.81-.04-.81l-.75.32-.37.16s-.05-.03-.08-.05l-.03-.4-.06-.81-.73.35-.37.17s-.05-.03-.08-.04l-.05-.4-.1-.81-.72.38-.36.19s-.05-.03-.08-.04l-.07-.4-.13-.8-.7.41-.35.21s-.05-.02-.08-.03l-.08-.4-.17-.8-.68.44-.34.22s-.06-.02-.08-.03l-.1-.39-.2-.79-.66.47-.33.24s-.05-.02-.08-.03l-.12-.39-.24-.78-.64.5-.32.25s-.05-.02-.08-.02l-.14-.39-.27-.77-.62.53-.32.27s-.05-.01-.08-.02l-.15-.38-.3-.75-.6.55-.3.28s-.05,0-.08-.01l-.17-.38-.33-.74-.57.58-.29.3s-.05,0-.08-.01l-.19-.37-.37-.73-.55.6-.28.31s-.05,0-.08,0l-.2-.36-.4-.71-.52.63-.27.32s-.05,0-.08,0l-.22-.35-.43-.69-.49.65-.25.33s-.05,0-.08,0l-.23-.34-.46-.67-.46.67-.23.34s-.06,0-.08,0l-.25-.33-.49-.65-.43.69-.22.35s-.06,0-.09,0l-.26-.32-.52-.63-.4.71-.2.35s-.06,0-.09,0l-.27-.3-.54-.61-.37.72-.19.36s-.06,0-.09.01l-.28-.29-.57-.58-.34.74-.17.37s-.06.01-.09.02l-.3-.28-.59-.56-.31.75-.15.38s-.06.01-.08.02l-.31-.27-.62-.53-.27.77-.14.38s-.06.02-.09.03l-.32-.25-.64-.5-.24.78-.12.39s-.06.02-.09.03l-.33-.24-.66-.47-.21.79-.1.39s-.06.02-.09.03l-.34-.22-.68-.44-.17.79-.08.39s-.06.02-.08.04l-.35-.21-.7-.41-.14.8-.07.4s-.05.03-.08.04l-.36-.19-.72-.38-.1.81-.05.4s-.05.03-.08.04l-.37-.18-.73-.35-.07.81-.03.41s-.05.03-.07.04l-.38-.16-.75-.32-.03.81-.02.41s-.04.03-.07.04l-.39-.15-.76-.29v.81s0,.42,0,.42c-.02.02-.04.03-.06.05l-.39-.13-.77-.25.04.81.02.41s-.04.03-.06.05l-.4-.11-.78-.22.08.81.04.41s-.04.04-.06.05l-.4-.09-.79-.19.11.81.06.41s-.04.04-.06.06l-.4-.08-.8-.15.15.8.07.4s-.04.04-.06.06l-.4-.06-.8-.12.18.79.09.4s-.04.04-.06.07l-.4-.04-.81-.08.22.78.11.39s-.04.05-.06.07l-.4-.02-.81-.05.25.77.12.38s-.04.05-.05.07h-.4s-.81-.01-.81-.01l.28.76.14.38s-.03.05-.05.08h-.4s-.81.04-.81.04l.32.75.16.37s-.03.05-.05.08l-.4.03-.81.06.35.73.17.37s-.03.05-.04.08l-.4.05-.81.1.38.72.19.36s-.03.05-.04.08l-.4.07-.8.13.41.7.21.35s-.02.05-.03.08l-.4.08-.8.17.44.68.22.34s-.02.06-.03.08l-.39.1-.79.2.47.66.24.33s-.02.05-.03.08l-.39.12-.78.24.5.64.25.32s-.02.05-.02.08l-.39.14-.77.27.53.62.27.32s-.01.05-.02.08l-.38.15-.75.3.55.6.28.3s0,.05-.01.08l-.38.17-.74.33.58.57.3.29s0,.05-.01.08l-.37.19-.73.37.6.55.31.28s0,.05,0,.08l-.36.2-.71.4.63.52.32.27s0,.05,0,.08l-.35.22-.69.43.65.49.33.25s0,.05,0,.08l-.34.23-.67.46.67.46.34.23s0,.06,0,.08l-.33.25-.65.49.69.43.35.22s0,.06,0,.09l-.32.26-.63.52.71.4.35.2s0,.06,0,.09l-.3.27-.61.54.72.37.36.19s0,.06.01.09l-.29.28-.58.57.74.34.37.17s.01.06.02.09l-.28.3-.56.59.75.31.38.15s.01.06.02.08l-.27.31-.53.62.77.27.38.14s.02.06.03.09l-.25.32-.5.64.78.24.39.12s.02.06.03.09l-.24.33-.47.66.79.21.39.1s.02.06.03.09l-.22.34-.44.68.79.17.39.08s.02.06.04.08l-.21.35-.41.7.8.14.4.07s.03.05.04.08l-.19.36-.38.72.81.1.4.05s.03.05.04.08l-.18.37-.35.73.81.07.41.03s.03.05.04.07l-.16.38-.32.75.81.03.41.02s.03.04.04.07l-.15.39-.29.76h.81s.42,0,.42,0c.02.02.03.04.05.06l-.13.39-.25.77.81-.04.41-.02s.03.04.05.06l-.11.4-.22.78.81-.08.41-.04s.04.04.05.06l-.09.4-.19.79.81-.11.41-.06s.04.04.06.06l-.08.4-.15.8.8-.15.4-.07s.04.04.06.06l-.06.4-.12.8.79-.18.4-.09s.04.04.07.06l-.04.4-.08.81.78-.22.39-.11s.05.04.07.06l-.02.4-.05.81.77-.25.38-.12s.05.04.07.05v.4s-.01.81-.01.81l.76-.28.38-.14s.05.03.08.05v.4s.04.81.04.81l.75-.32.37-.16s.05.03.08.05l.03.4.06.81.73-.35.37-.17s.05.03.08.04l.05.4.1.81.72-.38.36-.19s.05.03.08.04l.07.4.13.8.7-.41.35-.21s.05.02.08.03l.08.4.17.8.68-.44.34-.22s.06.02.08.03l.1.39.2.79.66-.47.33-.24s.05.02.08.03l.12.39.24.78.64-.5.32-.25s.05.02.08.02l.14.39.27.77.62-.53.32-.27s.05.01.08.02l.15.38.3.75.6-.55.3-.28s.05,0,.08.01l.17.38.33.74.57-.58.29-.3s.05,0,.08.01l.19.37.37.73.55-.6.28-.31s.05,0,.08,0l.2.36.4.71.52-.63.27-.32s.05,0,.08,0l.22.35.43.69.49-.65.25-.33s.05,0,.08,0l.23.34.46.67.46-.67.23-.34s.06,0,.08,0l.25.33.49.65.43-.69.22-.35s.06,0,.09,0l.26.32.52.63.4-.71.2-.35s.06,0,.09,0l.27.3.54.61.37-.72.19-.36s.06,0,.09-.01l.28.29.57.58.34-.74.17-.37s.06-.01.09-.02l.3.28.59.56.31-.75.15-.38s.06-.01.08-.02l.31.27.62.53.27-.77.14-.38s.06-.02.09-.03l.32.25.64.5.24-.78.12-.39s.06-.02.09-.03l.33.24.66.47.21-.79.1-.39s.06-.02.09-.03l.34.22.68.44.17-.79.08-.39s.06-.02.08-.04l.35.21.7.41.14-.8.07-.4s.05-.03.08-.04l.36.19.72.38.1-.81.05-.4s.05-.03.08-.04l.37.18.73.35.07-.81.03-.41s.05-.03.07-.04l.38.16.75.32.03-.81.02-.41s.04-.03.07-.04l.39.15.76.29v-.81s0-.42,0-.42c.02-.02.04-.03.06-.05l.39.13.77.25-.04-.81-.02-.41s.04-.03.06-.05l.4.11.78.22-.08-.81-.04-.41s.04-.04.06-.05l.4.09.79.19-.11-.81-.06-.41s.04-.04.06-.06l.4.08.8.15-.15-.8-.07-.4s.04-.04.06-.06l.4.06.8.12-.18-.79-.09-.4s.04-.04.06-.07l.4.04.81.08-.22-.78-.11-.39s.04-.05.06-.07l.4.02.81.05-.25-.77-.12-.38s.04-.05.05-.07h.4s.81.01.81.01l-.28-.76-.14-.38s.03-.05.05-.08h.4s.81-.04.81-.04l-.32-.75-.16-.37s.03-.05.05-.08l.4-.03.81-.06-.35-.73-.17-.37s.03-.05.04-.08l.4-.05.81-.1-.38-.72-.19-.36s.03-.05.04-.08l.4-.07.8-.13-.41-.7-.21-.35s.02-.05.03-.08l.4-.08.8-.17-.44-.68-.22-.34s.02-.06.03-.08l.39-.1.79-.2-.47-.66-.24-.33s.02-.05.03-.08l.39-.12.78-.24-.5-.64-.25-.32s.02-.05.02-.08l.39-.14.77-.27-.53-.62-.27-.32s.01-.05.02-.08l.38-.15.75-.3-.55-.6-.28-.3s0-.05.01-.08l.38-.17.74-.33-.58-.57-.3-.29s0-.05.01-.08l.37-.19.73-.37-.6-.55-.31-.28s0-.05,0-.08l.36-.2.71-.4-.63-.52-.32-.27s0-.05,0-.08l.35-.22.69-.43-.65-.49-.33-.25s0-.05,0-.08l.34-.23.67-.46-.67-.46-.34-.23s0-.06,0-.08l.33-.25.65-.49-.69-.43-.35-.22s0-.06,0-.09l.32-.26.63-.52-.71-.4-.35-.2s0-.06,0-.09l.3-.27.61-.54-.72-.37-.36-.19s0-.06-.01-.09l.29-.28.58-.57-.74-.34-.37-.17s-.01-.06-.02-.09l.28-.3.56-.59-.75-.31-.38-.15s-.01-.06-.02-.08l.27-.31.53-.62-.77-.27-.38-.14s-.02-.06-.03-.09l.25-.32.5-.64-.78-.24-.39-.12s-.02-.06-.03-.09l.24-.33.47-.66-.79-.21-.39-.1s-.02-.06-.03-.09l.22-.34.44-.68-.79-.17-.39-.08s-.02-.06-.04-.08l.21-.35.41-.7-.8-.14-.4-.07s-.03-.05-.04-.08l.19-.36.38-.72-.81-.1-.4-.05s-.03-.05-.04-.08l.18-.37.35-.73-.81-.07-.41-.03s-.03-.05-.04-.07l.16-.38.32-.75-.81-.03-.41-.02s-.03-.04-.04-.07l.15-.39.29-.76h-.81s-.42,0-.42,0c-.02-.02-.03-.04-.05-.06l.13-.39ZM86.38,44.8c1.05,4.07,1.29,8.26.73,12.45-.56,4.19-1.9,8.16-3.99,11.82-2.16,3.78-5.02,7.05-8.52,9.71s-7.4,4.57-11.62,5.65c-4.07,1.05-8.26,1.29-12.45.73-4.19-.56-8.16-1.9-11.82-3.99-3.78-2.16-7.05-5.02-9.71-8.52-2.66-3.49-4.57-7.4-5.65-11.62-1.05-4.07-1.29-8.26-.73-12.45.56-4.19,1.9-8.16,3.99-11.82,2.16-3.78,5.02-7.05,8.52-9.71s7.4-4.57,11.62-5.65c4.07-1.05,8.26-1.29,12.45-.73,4.19.56,8.16,1.9,11.82,3.99,3.78,2.16,7.05,5.02,9.71,8.52,2.66,3.49,4.57,7.4,5.65,11.62Z"/>
      </g>
    </g>
  </g>
</svg>