<?xml version="1.0" encoding="UTF-8"?>
<svg id="_圖層_2" data-name="圖層 2" xmlns="http://www.w3.org/2000/svg" viewBox="0 0 158.67 244.97">
  <g id="_圖層_1-2" data-name="圖層 1">
    <g>
      <g>
        <path d="M12.44,186.48c-1.08,.72-2.45,1.62-4.1,2.63v11.48c0,2.48-.47,3.85-4.32,4.25-.07-1.04-.25-1.87-.68-2.38-.47-.58-1.19-.94-2.63-1.15v-.54s2.99,.22,3.63,.22c.58,0,.72-.18,.72-.65v-9.25c-.86,.5-1.76,1.01-2.73,1.55-.11,.47-.4,.83-.79,.97l-1.55-4.07c1.01-.25,2.84-.72,5.07-1.33v-7.42H.83l-.29-1.04H5.07v-8.39l4.6,.47c-.11,.5-.47,.86-1.33,1.01v6.91h.36l1.65-2.56s1.8,1.8,2.81,3.02c-.11,.4-.43,.58-.94,.58h-3.88v6.44c1.29-.36,2.66-.76,3.99-1.19l.11,.43Zm10.75,14c1.19,.14,2.48,.18,3.92,.18,1.65,0,5.47,0,7.37-.04v.47c-1.08,.22-1.58,1.37-1.58,2.77h-5.97c-5.97,0-9.39-1.37-11.51-6.62-1.4,3.6-3.6,6.05-6.55,7.6l-.47-.4c2.84-3.06,4.57-7.38,4.82-12.92l4.64,.83c-.11,.47-.5,.79-1.26,.86-.22,1.08-.5,2.12-.83,3.06,1.04,1.76,2.37,2.84,4.1,3.49v-9.83h-6.58l-.32-1.01h6.91v-3.82H11.18l-.29-1.04h8.99v-3.53h-6.33l-.32-1.04h6.65v-2.99H11.72l-.29-1.04h8.45v-3.96l4.57,.47c-.07,.5-.36,.86-1.26,1.01v2.48h4.86l2.01-2.59s2.23,1.76,3.56,3.06c-.11,.4-.47,.58-.97,.58h-9.46v2.99h3.7l1.55-1.58,3.24,2.41c-.18,.25-.68,.54-1.29,.65v3.1h.22l1.44-2.12s1.58,1.55,2.52,2.59c-.07,.4-.43,.58-.9,.58h-3.27v5.18c-.04,.25-1.58,.97-2.66,.97h-.47v-1.33h-4.06v4.36h3.27l1.87-2.45s2.19,1.73,3.49,2.92c-.11,.4-.47,.58-.97,.58h-7.66v5.15Zm0-16.41h4.06v-3.53h-4.06v3.53Zm0,4.86h4.06v-3.82h-4.06v3.82Z" fill="#231815"/>
        <path d="M53.8,189.18c-.29,.32-.65,.4-1.4,.43-.68,2.59-2.19,5.54-4.35,7.74,.18,.07,.36,.18,.58,.36,3.02,2.74,7.23,3.24,14.75,3.2,4.28,0,7.8,0,12.12-.22v.43c-1.44,.29-2.23,1.44-2.41,2.81h-10.79c-7.62,0-10.9-1.26-14.1-5.04-.5-.61-.9-.54-1.19,.04-.61,1.08-1.8,3.13-2.63,4.79,.11,.29,.04,.54-.22,.72l-2.52-3.35c1.62-1.04,4.1-3.1,5.18-3.67,1.22-2.27,2.16-5.36,2.52-7.99h-2.73l-1.15,1.01-2.62-2.09c.36-.22,.9-.5,1.44-.65,1.22-1.69,2.8-4.14,3.85-5.98h-5.5l-.32-1.04h5.97l1.47-1.55,2.98,2.74c-.29,.32-.93,.5-1.73,.54-.97,1.62-2.66,4.14-3.96,5.98h2.09l1.73-1.66,2.95,2.45Zm-9.64-17.53c8.49,1.91,5.75,7.88,2.73,5.69-.29-1.87-1.76-4.1-3.09-5.47l.36-.22Zm11.37,3.06c-.04,1.8-.83,3.06-1.83,3.56s-2.37,.29-2.73-.79c-.29-1.08,.4-1.84,1.29-2.27,1.11-.54,2.23-1.98,2.12-3.49l.58-.04c.25,.72,.43,1.37,.5,1.98h14.64l1.76-1.8,3.13,3.02c-.25,.29-.65,.36-1.37,.43-.65,.72-1.69,1.69-2.66,2.45,.65,.5,1.4,1.08,1.98,1.62-.11,.4-.47,.58-.97,.58h-7.8v2.66h3.45l1.58-1.73,3.34,2.59c-.25,.29-.79,.61-1.51,.76v7.99c-.04,.25-1.55,.94-2.55,.94h-.5v-1.15h-3.81v3.02h4.67l1.87-2.3s2.16,1.58,3.45,2.77c-.07,.4-.43,.58-.93,.58h-9.06v3.42c0,.36-1.37,1.04-2.55,1.04h-.58v-4.46h-8.34l-.29-1.04h8.63v-3.02h-3.85v.68c0,.29-1.33,.94-2.55,.94h-.47v-12.38l3.24,1.37h3.63v-2.66h-7.59l-.29-1.04h7.88v-3.46l4.42,.47c-.07,.5-.36,.86-1.29,1.01v1.98h3.6l1.8-2.16,.47,.32c.11-.72,.22-1.62,.32-2.38h-14.82Zm1.65,8.96v3.1h3.85v-3.1h-3.85Zm3.85,7.31v-3.17h-3.85v3.17h3.85Zm3.13-7.31v3.1h3.81v-3.1h-3.81Zm3.81,7.31v-3.17h-3.81v3.17h3.81Z" fill="#231815"/>
        <path d="M92.42,198.36c1.8-.4,3.71-.86,5.61-1.33l.11,.5c-2.95,1.44-7.19,3.42-13.02,5.87-.14,.43-.47,.79-.86,.86l-1.55-3.82c.54-.11,1.26-.22,2.12-.4v-12.81l3.67,.36c-.07,.4-.32,.68-.97,.76v11.12l1.87-.43v-15.37h-1.51v.68c0,.22-.97,.94-2.55,.94h-.5v-12.74l3.52,1.37h4.46l1.51-1.62,3.31,2.48c-.21,.25-.72,.54-1.44,.68v8.53c-.04,.22-1.55,.79-2.52,.79h-.5v-1.12h-.76v5.72h.9l1.65-2.45s1.94,1.73,3.02,2.92c-.11,.4-.43,.58-.94,.58h-4.64v7.92Zm-4.53-15.73h5.29v-7.67h-5.29v7.67Zm26.4-5.72c-.29,.36-.65,.47-1.51,.54-1.19,2.63-2.77,5.11-4.78,7.31,2.45,1.73,5.47,3.02,9.17,3.89l-.07,.36c-1.37,.43-2.16,1.37-2.41,3.02-1.08-.43-2.12-.86-3.06-1.37l2.55,1.94c-.25,.29-.58,.5-1.37,.61v10.69c0,.18-1.12,.79-2.77,.79h-.61v-2.48h-7.44v1.76c0,.25-1.01,.83-2.66,.83h-.54v-13.5c-1.22,.58-2.52,1.08-3.92,1.51l-.25-.5c4.06-1.91,7.48-4.57,10.11-7.7-1.04-1.44-1.91-3.02-2.66-4.72-1.58,1.98-3.38,3.6-5.36,4.82l-.43-.36c2.66-2.99,5.11-7.81,6.37-13.03l4.53,1.51c-.18,.43-.61,.76-1.4,.72-.32,.83-.72,1.58-1.12,2.34h4.53l1.91-1.87,3.2,2.88Zm-3.45,13.28c-1.83-1.08-3.31-2.3-4.6-3.71-1.87,1.66-4.03,3.17-6.54,4.39l2.73,1.08h6.91l1.51-1.76Zm-1.4,10.98v-8.17h-7.44v8.17h7.44Zm-5.36-24.22c-.43,.76-.9,1.48-1.4,2.16,.86,1.48,1.94,2.81,3.24,4,1.4-1.94,2.52-4,3.31-6.16h-5.14Z" fill="#231815"/>
        <path d="M127.85,194.69c1.19,3.6,.83,6.41-.14,7.74-.68,.86-2.3,1.04-2.88,.07-.47-.86-.07-1.87,.75-2.48,.9-.97,1.87-3.35,1.65-5.33h.61Zm6.87-21.24c-.14,.32-.54,.61-1.26,.54-1.4,2.34-3.96,5.62-6.22,7.77,1.37,.04,3.13,.04,4.89,0,.75-1.33,1.4-2.59,1.83-3.6l3.7,2.52c-.18,.29-.65,.54-1.37,.4-1.87,2.7-5.47,6.51-8.74,9.11,1.76-.11,4.1-.25,6.54-.43-.32-1.3-.79-2.56-1.26-3.49l.43-.18c6.26,3.85,3.38,8.67,1.22,6.44,0-.54-.07-1.15-.18-1.76-1.91,.68-4.5,1.58-7.23,2.38-.29,.4-.65,.65-.97,.76l-1.29-3.74s.79-.18,1.11-.4c1.62-1.37,3.6-3.92,5.25-6.52-1.15,.43-2.55,.94-3.96,1.37-.22,.36-.5,.61-.79,.76l-1.55-3.74s.68-.18,.97-.4c1.73-1.94,3.96-7.09,4.67-9.83l4.17,2.05Zm-4.21,20.7c4.78,4.61,1.65,9.21-.25,6.73,.36-2.12,.14-4.79-.25-6.62l.5-.11Zm2.95-.58c6.29,3.31,3.6,8.24,1.33,6.08,.04-1.94-.86-4.36-1.73-5.9l.4-.18Zm25.21-19.04c-.25,.29-.83,.61-1.51,.72v25.2c0,2.16-.47,3.49-4.21,3.85-.11-.9-.29-1.66-.79-2.05-.5-.47-1.33-.83-2.99-1.08v-.54s3.52,.25,4.28,.25c.65,0,.83-.22,.83-.76v-16.85c-.14,.29-.43,.4-.83,.4h-11.8l-.29-1.04h6.65c.61-2.02,1.37-4.86,1.8-6.88l3.78,1.08c-.18,.43-.61,.76-1.37,.68-.79,1.48-2.12,3.46-3.34,5.11h1.55l1.4-1.84s1.47,1.26,2.45,2.23v-8.28h-13.42v28.87c0,.22-.93,.97-2.3,.97h-.47v-32.22l3.24,1.33h12.59l1.4-1.73,3.34,2.56Zm-6.73,21.6c.75,.25,1.01,.47,1.01,.97,0,1.04-.9,1.37-4.67,1.37h-2.23c-2.23,0-2.59-.58-2.59-2.2v-6.62h-1.55l-.25-1.04h8.24l1.37-1.8s1.51,1.3,2.45,2.27c-.07,.4-.43,.58-.9,.58h-6.87v6.08c0,.43,.11,.54,.83,.54h3.45c.18,0,.43-.04,.58-.04,.18-.04,.47-.07,.68-.14h.32l.14,.04Zm-9.39-20.12c6.44,3.1,3.78,7.74,1.55,5.65-.07-1.76-1.08-4.03-1.98-5.44l.43-.22Zm2.88,7.77c5.93,1.94,2.84,6.12,.76,4.03,0-1.33-.58-2.88-1.15-3.85l.4-.18Z" fill="#231815"/>
      </g>
      <g>
        <g>
          <path d="M16.74,232.67l.5,.04-.2,9.72c-.01,.69,.11,1.21,.38,1.54,.27,.33,.7,.5,1.3,.5,.04,0,.06,.04,.06,.12s-.02,.12-.06,.12c-.36,0-.64,0-.84-.02l-1.1-.02-1.1,.02c-.19,.01-.46,.02-.82,.02-.03,0-.04-.04-.04-.12s.01-.12,.04-.12c1.11,0,1.67-.68,1.68-2.04l.2-9.76Zm13.83,11.92c0,.08-.01,.12-.04,.12-.44,0-.79,0-1.04-.02l-1.4-.02-1.34,.02c-.23,.01-.54,.02-.94,.02-.03,0-.04-.04-.04-.12s.01-.12,.04-.12c.45,0,.79-.04,1-.11s.35-.2,.42-.39c.07-.19,.09-.48,.06-.88l-.4-9.42,.78-1.12-5.17,12.02c-.03,.05-.08,.08-.16,.08s-.13-.03-.16-.08l-5.21-10.7c-.24-.49-.52-.85-.84-1.08-.32-.23-.69-.34-1.12-.34-.03,0-.04-.04-.04-.12s.01-.12,.04-.12l.8,.02c.16,.01,.37,.02,.62,.02,.29,0,.53,0,.72-.02,.19-.01,.33-.02,.44-.02,.17,0,.31,.06,.42,.18,.11,.12,.27,.41,.5,.86l4.54,9.22-.74,1.28,4.82-11.04c.13-.33,.33-.5,.6-.5,.08,0,.19,0,.32,.02,.13,.01,.31,.02,.52,.02l1.02-.02c.16-.01,.39-.02,.7-.02,.03,0,.04,.04,.04,.12s-.01,.12-.04,.12c-.67,0-1.14,.11-1.42,.32-.28,.21-.41,.59-.4,1.12l.42,9.2c.03,.41,.08,.71,.16,.9,.08,.19,.23,.31,.45,.38,.22,.07,.57,.1,1.05,.1,.03,0,.04,.04,.04,.12Z" fill="#fff"/>
          <path d="M41.66,232.85c.6,.47,.9,1.1,.9,1.9,0,.72-.21,1.38-.63,1.97s-.98,1.06-1.67,1.4c-.69,.34-1.43,.51-2.22,.51-.28,0-.61-.01-.98-.04v4.5c0,.4,.04,.7,.12,.89s.23,.32,.45,.39c.22,.07,.57,.1,1.05,.1,.04,0,.06,.04,.06,.12s-.02,.12-.06,.12c-.41,0-.74,0-.98-.02l-1.44-.02-1.4,.02c-.25,.01-.59,.02-1.02,.02-.04,0-.06-.04-.06-.12s.02-.12,.06-.12c.48,0,.83-.03,1.06-.1,.23-.07,.38-.2,.46-.39s.12-.49,.12-.89v-9.26c0-.4-.04-.69-.12-.88-.08-.19-.23-.32-.45-.39s-.57-.11-1.05-.11c-.03,0-.04-.04-.04-.12s.01-.12,.04-.12l1,.02c.59,.03,1.05,.04,1.4,.04,.28,0,.55,0,.8-.02s.47-.03,.66-.04c.51-.04,.97-.06,1.38-.06,1.11,0,1.96,.23,2.56,.7Zm-1.36,.29c-.41-.43-1.02-.65-1.82-.65-.52,0-.89,.1-1.1,.29-.21,.19-.32,.56-.32,1.09v4.22c.39,.04,.78,.06,1.18,.06,.96,0,1.65-.22,2.06-.67,.41-.45,.62-1.14,.62-2.09,0-1.07-.21-1.82-.62-2.25Zm1.77,9.89c-.9-1.12-1.99-2.69-3.27-4.7l1.34-.42c1.13,1.67,2.08,2.97,2.86,3.9,.77,.93,1.46,1.61,2.05,2.03,.59,.42,1.17,.63,1.73,.63,.04,0,.06,.04,.06,.12s-.02,.12-.06,.12h-2.86c-.33,0-.95-.56-1.85-1.68Z" fill="#fff"/>
          <path d="M50.63,233.3c-.47,.46-.81,1.2-1.04,2.21-.01,.03-.06,.04-.13,.04s-.11-.02-.11-.06c.05-.37,.11-.98,.18-1.82,.07-.84,.1-1.47,.1-1.9,0-.07,.04-.1,.12-.1s.12,.03,.12,.1c0,.29,.37,.44,1.1,.44,1.15,.04,2.48,.06,4.02,.06,.79,0,1.62-.01,2.5-.04l1.36-.02c.49,0,.85-.03,1.08-.1,.23-.07,.37-.2,.44-.4,.01-.05,.06-.08,.13-.08s.11,.03,.11,.08c-.04,.37-.08,.97-.13,1.8-.05,.83-.07,1.49-.07,1.98,0,.04-.04,.06-.11,.06s-.11-.02-.11-.06c-.09-1.03-.36-1.76-.8-2.21-.44-.45-1.09-.67-1.96-.67-.49,0-.85,.03-1.06,.09-.21,.06-.36,.17-.44,.34s-.12,.44-.12,.83v9.22c0,.41,.04,.71,.13,.9,.09,.19,.26,.31,.51,.38,.25,.07,.66,.1,1.22,.1,.03,0,.04,.04,.04,.12s-.01,.12-.04,.12c-.47,0-.83,0-1.1-.02l-1.58-.02-1.54,.02c-.27,.01-.64,.02-1.12,.02-.04,0-.06-.04-.06-.12s.02-.12,.06-.12c.55,0,.95-.03,1.21-.1,.26-.07,.44-.2,.53-.39,.09-.19,.14-.49,.14-.89v-9.26c0-.37-.04-.64-.12-.81-.08-.17-.23-.28-.45-.33-.22-.05-.58-.08-1.07-.08-.83,0-1.47,.23-1.94,.69Z" fill="#fff"/>
          <path d="M78.66,232.85c.6,.47,.9,1.1,.9,1.9,0,.72-.21,1.38-.63,1.97-.42,.59-.98,1.06-1.67,1.4-.69,.34-1.43,.51-2.22,.51-.28,0-.61-.01-.98-.04v4.5c0,.4,.04,.7,.12,.89,.08,.19,.23,.32,.45,.39,.22,.07,.57,.1,1.05,.1,.04,0,.06,.04,.06,.12s-.02,.12-.06,.12c-.41,0-.74,0-.98-.02l-1.44-.02-1.4,.02c-.25,.01-.59,.02-1.02,.02-.04,0-.06-.04-.06-.12s.02-.12,.06-.12c.48,0,.83-.03,1.06-.1,.23-.07,.38-.2,.46-.39s.12-.49,.12-.89v-9.26c0-.4-.04-.69-.12-.88-.08-.19-.23-.32-.45-.39-.22-.07-.57-.11-1.05-.11-.03,0-.04-.04-.04-.12s.01-.12,.04-.12l1,.02c.59,.03,1.05,.04,1.4,.04,.28,0,.55,0,.8-.02s.47-.03,.66-.04c.51-.04,.97-.06,1.38-.06,1.1,0,1.96,.23,2.56,.7Zm-1.36,.29c-.41-.43-1.02-.65-1.82-.65-.52,0-.89,.1-1.1,.29-.21,.19-.32,.56-.32,1.09v4.22c.39,.04,.78,.06,1.18,.06,.96,0,1.64-.22,2.06-.67,.41-.45,.62-1.14,.62-2.09,0-1.07-.21-1.82-.62-2.25Zm1.77,9.89c-.9-1.12-1.99-2.69-3.27-4.7l1.34-.42c1.13,1.67,2.08,2.97,2.86,3.9,.77,.93,1.46,1.61,2.05,2.03,.59,.42,1.17,.63,1.73,.63,.04,0,.06,.04,.06,.12s-.02,.12-.06,.12h-2.86c-.33,0-.95-.56-1.85-1.68Z" fill="#fff"/>
          <path d="M89.6,244.08c-.97-.58-1.71-1.37-2.24-2.36-.53-.99-.79-2.08-.79-3.25,0-1.37,.35-2.55,1.04-3.53,.69-.98,1.58-1.72,2.67-2.21,1.08-.49,2.19-.74,3.33-.74,1.27,0,2.38,.3,3.34,.89s1.69,1.38,2.21,2.35c.51,.97,.77,2.01,.77,3.1,0,1.21-.32,2.33-.96,3.34s-1.5,1.81-2.57,2.4c-1.07,.59-2.23,.88-3.49,.88s-2.34-.29-3.31-.87Zm6.3-.23c.68-.44,1.21-1.08,1.61-1.93,.39-.85,.59-1.86,.59-3.03,0-1.24-.22-2.35-.65-3.32-.43-.97-1.05-1.73-1.86-2.28-.81-.55-1.74-.82-2.81-.82-1.38,0-2.46,.47-3.24,1.41s-1.16,2.24-1.16,3.89c0,1.27,.22,2.41,.66,3.44,.44,1.03,1.05,1.83,1.85,2.42,.79,.59,1.69,.88,2.71,.88,.85,0,1.62-.22,2.3-.66Z" fill="#fff"/>
          <path d="M113.86,232.98c-.31-.35-.75-.53-1.32-.53-.04,0-.06-.04-.06-.12s.02-.12,.06-.12l.9,.02c.48,.03,.86,.04,1.14,.04,.24,0,.59-.01,1.04-.04l.86-.02s.04,.04,.04,.12-.01,.12-.04,.12c-.53,0-.94,.17-1.21,.52-.27,.35-.41,.86-.41,1.54v5.66c0,1.49-.44,2.67-1.31,3.52-.87,.85-2.04,1.28-3.49,1.28-.99,0-1.85-.19-2.6-.57s-1.33-.93-1.74-1.64c-.41-.71-.62-1.55-.62-2.51v-6.42c0-.4-.04-.69-.12-.88-.08-.19-.23-.32-.45-.39s-.57-.11-1.05-.11c-.04,0-.06-.04-.06-.12s.02-.12,.06-.12l1,.02c.59,.03,1.05,.04,1.4,.04,.39,0,.86-.01,1.42-.04l.98-.02s.06,.04,.06,.12-.02,.12-.06,.12c-.47,0-.81,.04-1.03,.12s-.37,.22-.45,.41-.12,.49-.12,.89v5.68c0,1.57,.34,2.76,1.03,3.57,.69,.81,1.65,1.21,2.89,1.21,1.16,0,2.07-.36,2.73-1.09,.66-.73,.99-1.74,.99-3.05v-5.68c0-.67-.15-1.18-.46-1.53Z" fill="#fff"/>
          <path d="M120.91,233.3c-.47,.46-.81,1.2-1.04,2.21-.01,.03-.06,.04-.13,.04s-.11-.02-.11-.06c.05-.37,.11-.98,.18-1.82,.07-.84,.1-1.47,.1-1.9,0-.07,.04-.1,.12-.1s.12,.03,.12,.1c0,.29,.37,.44,1.1,.44,1.15,.04,2.48,.06,4.02,.06,.79,0,1.62-.01,2.5-.04l1.36-.02c.49,0,.85-.03,1.08-.1,.23-.07,.37-.2,.44-.4,.01-.05,.06-.08,.13-.08s.11,.03,.11,.08c-.04,.37-.08,.97-.13,1.8-.05,.83-.07,1.49-.07,1.98,0,.04-.04,.06-.11,.06s-.11-.02-.11-.06c-.09-1.03-.36-1.76-.8-2.21-.44-.45-1.09-.67-1.96-.67-.49,0-.85,.03-1.06,.09-.21,.06-.36,.17-.44,.34-.08,.17-.12,.44-.12,.83v9.22c0,.41,.04,.71,.13,.9,.09,.19,.26,.31,.51,.38,.25,.07,.66,.1,1.22,.1,.03,0,.04,.04,.04,.12s-.01,.12-.04,.12c-.47,0-.83,0-1.1-.02l-1.58-.02-1.54,.02c-.27,.01-.64,.02-1.12,.02-.04,0-.06-.04-.06-.12s.02-.12,.06-.12c.55,0,.95-.03,1.21-.1,.26-.07,.44-.2,.53-.39,.09-.19,.14-.49,.14-.89v-9.26c0-.37-.04-.64-.12-.81-.08-.17-.23-.28-.45-.33-.22-.05-.58-.08-1.07-.08-.83,0-1.47,.23-1.94,.69Z" fill="#fff"/>
          <path d="M134.4,244.59c0-.08,.02-.12,.06-.12,.48,0,.83-.03,1.05-.1,.22-.07,.37-.2,.45-.39s.12-.49,.12-.89v-9.26c0-.4-.04-.69-.12-.88-.08-.19-.23-.32-.45-.39-.22-.07-.57-.11-1.05-.11-.04,0-.06-.04-.06-.12s.02-.12,.06-.12h8.15c.13,0,.2,.06,.2,.18l.04,2.52s-.04,.06-.11,.07c-.07,0-.12,0-.13-.05-.09-.73-.35-1.29-.78-1.68-.43-.39-.99-.58-1.68-.58h-1.02c-.59,0-.98,.09-1.18,.26-.2,.17-.3,.5-.3,.98v9.1c0,.48,.09,.81,.27,.98,.18,.17,.54,.26,1.09,.26h1.32c.75,0,1.37-.22,1.87-.67,.5-.45,.84-1.08,1.03-1.91,0-.03,.03-.04,.08-.04,.04,0,.08,.01,.11,.03,.03,.02,.05,.04,.05,.05-.13,.96-.2,1.86-.2,2.7,0,.11-.02,.18-.06,.23s-.12,.07-.24,.07h-8.51s-.06-.04-.06-.12Zm6.96-5.75c-.33-.27-.84-.41-1.55-.41h-2.92v-.46h2.96c.68,0,1.18-.12,1.5-.35,.32-.23,.48-.6,.48-1.09,0-.03,.04-.04,.11-.04s.11,.01,.11,.04l-.02,1.68,.02,.9c.03,.43,.04,.76,.04,1,0,.03-.04,.04-.12,.04s-.12-.01-.12-.04c0-.57-.16-1-.49-1.27Z" fill="#fff"/>
        </g>
        <g>
          <path d="M16.74,232.67l.5,.04-.2,9.72c-.01,.69,.11,1.21,.38,1.54,.27,.33,.7,.5,1.3,.5,.04,0,.06,.04,.06,.12s-.02,.12-.06,.12c-.36,0-.64,0-.84-.02l-1.1-.02-1.1,.02c-.19,.01-.46,.02-.82,.02-.03,0-.04-.04-.04-.12s.01-.12,.04-.12c1.11,0,1.67-.68,1.68-2.04l.2-9.76Zm13.83,11.92c0,.08-.01,.12-.04,.12-.44,0-.79,0-1.04-.02l-1.4-.02-1.34,.02c-.23,.01-.54,.02-.94,.02-.03,0-.04-.04-.04-.12s.01-.12,.04-.12c.45,0,.79-.04,1-.11s.35-.2,.42-.39c.07-.19,.09-.48,.06-.88l-.4-9.42,.78-1.12-5.17,12.02c-.03,.05-.08,.08-.16,.08s-.13-.03-.16-.08l-5.21-10.7c-.24-.49-.52-.85-.84-1.08-.32-.23-.69-.34-1.12-.34-.03,0-.04-.04-.04-.12s.01-.12,.04-.12l.8,.02c.16,.01,.37,.02,.62,.02,.29,0,.53,0,.72-.02,.19-.01,.33-.02,.44-.02,.17,0,.31,.06,.42,.18,.11,.12,.27,.41,.5,.86l4.54,9.22-.74,1.28,4.82-11.04c.13-.33,.33-.5,.6-.5,.08,0,.19,0,.32,.02,.13,.01,.31,.02,.52,.02l1.02-.02c.16-.01,.39-.02,.7-.02,.03,0,.04,.04,.04,.12s-.01,.12-.04,.12c-.67,0-1.14,.11-1.42,.32-.28,.21-.41,.59-.4,1.12l.42,9.2c.03,.41,.08,.71,.16,.9,.08,.19,.23,.31,.45,.38,.22,.07,.57,.1,1.05,.1,.03,0,.04,.04,.04,.12Z" fill="#231815"/>
          <path d="M41.66,232.85c.6,.47,.9,1.1,.9,1.9,0,.72-.21,1.38-.63,1.97s-.98,1.06-1.67,1.4c-.69,.34-1.43,.51-2.22,.51-.28,0-.61-.01-.98-.04v4.5c0,.4,.04,.7,.12,.89s.23,.32,.45,.39c.22,.07,.57,.1,1.05,.1,.04,0,.06,.04,.06,.12s-.02,.12-.06,.12c-.41,0-.74,0-.98-.02l-1.44-.02-1.4,.02c-.25,.01-.59,.02-1.02,.02-.04,0-.06-.04-.06-.12s.02-.12,.06-.12c.48,0,.83-.03,1.06-.1,.23-.07,.38-.2,.46-.39s.12-.49,.12-.89v-9.26c0-.4-.04-.69-.12-.88-.08-.19-.23-.32-.45-.39s-.57-.11-1.05-.11c-.03,0-.04-.04-.04-.12s.01-.12,.04-.12l1,.02c.59,.03,1.05,.04,1.4,.04,.28,0,.55,0,.8-.02s.47-.03,.66-.04c.51-.04,.97-.06,1.38-.06,1.11,0,1.96,.23,2.56,.7Zm-1.36,.29c-.41-.43-1.02-.65-1.82-.65-.52,0-.89,.1-1.1,.29-.21,.19-.32,.56-.32,1.09v4.22c.39,.04,.78,.06,1.18,.06,.96,0,1.65-.22,2.06-.67,.41-.45,.62-1.14,.62-2.09,0-1.07-.21-1.82-.62-2.25Zm1.77,9.89c-.9-1.12-1.99-2.69-3.27-4.7l1.34-.42c1.13,1.67,2.08,2.97,2.86,3.9,.77,.93,1.46,1.61,2.05,2.03,.59,.42,1.17,.63,1.73,.63,.04,0,.06,.04,.06,.12s-.02,.12-.06,.12h-2.86c-.33,0-.95-.56-1.85-1.68Z" fill="#231815"/>
          <path d="M50.63,233.3c-.47,.46-.81,1.2-1.04,2.21-.01,.03-.06,.04-.13,.04s-.11-.02-.11-.06c.05-.37,.11-.98,.18-1.82,.07-.84,.1-1.47,.1-1.9,0-.07,.04-.1,.12-.1s.12,.03,.12,.1c0,.29,.37,.44,1.1,.44,1.15,.04,2.48,.06,4.02,.06,.79,0,1.62-.01,2.5-.04l1.36-.02c.49,0,.85-.03,1.08-.1,.23-.07,.37-.2,.44-.4,.01-.05,.06-.08,.13-.08s.11,.03,.11,.08c-.04,.37-.08,.97-.13,1.8-.05,.83-.07,1.49-.07,1.98,0,.04-.04,.06-.11,.06s-.11-.02-.11-.06c-.09-1.03-.36-1.76-.8-2.21-.44-.45-1.09-.67-1.96-.67-.49,0-.85,.03-1.06,.09-.21,.06-.36,.17-.44,.34s-.12,.44-.12,.83v9.22c0,.41,.04,.71,.13,.9,.09,.19,.26,.31,.51,.38,.25,.07,.66,.1,1.22,.1,.03,0,.04,.04,.04,.12s-.01,.12-.04,.12c-.47,0-.83,0-1.1-.02l-1.58-.02-1.54,.02c-.27,.01-.64,.02-1.12,.02-.04,0-.06-.04-.06-.12s.02-.12,.06-.12c.55,0,.95-.03,1.21-.1,.26-.07,.44-.2,.53-.39,.09-.19,.14-.49,.14-.89v-9.26c0-.37-.04-.64-.12-.81-.08-.17-.23-.28-.45-.33-.22-.05-.58-.08-1.07-.08-.83,0-1.47,.23-1.94,.69Z" fill="#231815"/>
          <path d="M78.66,232.85c.6,.47,.9,1.1,.9,1.9,0,.72-.21,1.38-.63,1.97-.42,.59-.98,1.06-1.67,1.4-.69,.34-1.43,.51-2.22,.51-.28,0-.61-.01-.98-.04v4.5c0,.4,.04,.7,.12,.89,.08,.19,.23,.32,.45,.39,.22,.07,.57,.1,1.05,.1,.04,0,.06,.04,.06,.12s-.02,.12-.06,.12c-.41,0-.74,0-.98-.02l-1.44-.02-1.4,.02c-.25,.01-.59,.02-1.02,.02-.04,0-.06-.04-.06-.12s.02-.12,.06-.12c.48,0,.83-.03,1.06-.1,.23-.07,.38-.2,.46-.39s.12-.49,.12-.89v-9.26c0-.4-.04-.69-.12-.88-.08-.19-.23-.32-.45-.39-.22-.07-.57-.11-1.05-.11-.03,0-.04-.04-.04-.12s.01-.12,.04-.12l1,.02c.59,.03,1.05,.04,1.4,.04,.28,0,.55,0,.8-.02s.47-.03,.66-.04c.51-.04,.97-.06,1.38-.06,1.1,0,1.96,.23,2.56,.7Zm-1.36,.29c-.41-.43-1.02-.65-1.82-.65-.52,0-.89,.1-1.1,.29-.21,.19-.32,.56-.32,1.09v4.22c.39,.04,.78,.06,1.18,.06,.96,0,1.64-.22,2.06-.67,.41-.45,.62-1.14,.62-2.09,0-1.07-.21-1.82-.62-2.25Zm1.77,9.89c-.9-1.12-1.99-2.69-3.27-4.7l1.34-.42c1.13,1.67,2.08,2.97,2.86,3.9,.77,.93,1.46,1.61,2.05,2.03,.59,.42,1.17,.63,1.73,.63,.04,0,.06,.04,.06,.12s-.02,.12-.06,.12h-2.86c-.33,0-.95-.56-1.85-1.68Z" fill="#231815"/>
          <path d="M89.6,244.08c-.97-.58-1.71-1.37-2.24-2.36-.53-.99-.79-2.08-.79-3.25,0-1.37,.35-2.55,1.04-3.53,.69-.98,1.58-1.72,2.67-2.21,1.08-.49,2.19-.74,3.33-.74,1.27,0,2.38,.3,3.34,.89s1.69,1.38,2.21,2.35c.51,.97,.77,2.01,.77,3.1,0,1.21-.32,2.33-.96,3.34s-1.5,1.81-2.57,2.4c-1.07,.59-2.23,.88-3.49,.88s-2.34-.29-3.31-.87Zm6.3-.23c.68-.44,1.21-1.08,1.61-1.93,.39-.85,.59-1.86,.59-3.03,0-1.24-.22-2.35-.65-3.32-.43-.97-1.05-1.73-1.86-2.28-.81-.55-1.74-.82-2.81-.82-1.38,0-2.46,.47-3.24,1.41s-1.16,2.24-1.16,3.89c0,1.27,.22,2.41,.66,3.44,.44,1.03,1.05,1.83,1.85,2.42,.79,.59,1.69,.88,2.71,.88,.85,0,1.62-.22,2.3-.66Z" fill="#231815"/>
          <path d="M113.86,232.98c-.31-.35-.75-.53-1.32-.53-.04,0-.06-.04-.06-.12s.02-.12,.06-.12l.9,.02c.48,.03,.86,.04,1.14,.04,.24,0,.59-.01,1.04-.04l.86-.02s.04,.04,.04,.12-.01,.12-.04,.12c-.53,0-.94,.17-1.21,.52-.27,.35-.41,.86-.41,1.54v5.66c0,1.49-.44,2.67-1.31,3.52-.87,.85-2.04,1.28-3.49,1.28-.99,0-1.85-.19-2.6-.57s-1.33-.93-1.74-1.64c-.41-.71-.62-1.55-.62-2.51v-6.42c0-.4-.04-.69-.12-.88-.08-.19-.23-.32-.45-.39s-.57-.11-1.05-.11c-.04,0-.06-.04-.06-.12s.02-.12,.06-.12l1,.02c.59,.03,1.05,.04,1.4,.04,.39,0,.86-.01,1.42-.04l.98-.02s.06,.04,.06,.12-.02,.12-.06,.12c-.47,0-.81,.04-1.03,.12s-.37,.22-.45,.41-.12,.49-.12,.89v5.68c0,1.57,.34,2.76,1.03,3.57,.69,.81,1.65,1.21,2.89,1.21,1.16,0,2.07-.36,2.73-1.09,.66-.73,.99-1.74,.99-3.05v-5.68c0-.67-.15-1.18-.46-1.53Z" fill="#231815"/>
          <path d="M120.91,233.3c-.47,.46-.81,1.2-1.04,2.21-.01,.03-.06,.04-.13,.04s-.11-.02-.11-.06c.05-.37,.11-.98,.18-1.82,.07-.84,.1-1.47,.1-1.9,0-.07,.04-.1,.12-.1s.12,.03,.12,.1c0,.29,.37,.44,1.1,.44,1.15,.04,2.48,.06,4.02,.06,.79,0,1.62-.01,2.5-.04l1.36-.02c.49,0,.85-.03,1.08-.1,.23-.07,.37-.2,.44-.4,.01-.05,.06-.08,.13-.08s.11,.03,.11,.08c-.04,.37-.08,.97-.13,1.8-.05,.83-.07,1.49-.07,1.98,0,.04-.04,.06-.11,.06s-.11-.02-.11-.06c-.09-1.03-.36-1.76-.8-2.21-.44-.45-1.09-.67-1.96-.67-.49,0-.85,.03-1.06,.09-.21,.06-.36,.17-.44,.34-.08,.17-.12,.44-.12,.83v9.22c0,.41,.04,.71,.13,.9,.09,.19,.26,.31,.51,.38,.25,.07,.66,.1,1.22,.1,.03,0,.04,.04,.04,.12s-.01,.12-.04,.12c-.47,0-.83,0-1.1-.02l-1.58-.02-1.54,.02c-.27,.01-.64,.02-1.12,.02-.04,0-.06-.04-.06-.12s.02-.12,.06-.12c.55,0,.95-.03,1.21-.1,.26-.07,.44-.2,.53-.39,.09-.19,.14-.49,.14-.89v-9.26c0-.37-.04-.64-.12-.81-.08-.17-.23-.28-.45-.33-.22-.05-.58-.08-1.07-.08-.83,0-1.47,.23-1.94,.69Z" fill="#231815"/>
          <path d="M134.4,244.59c0-.08,.02-.12,.06-.12,.48,0,.83-.03,1.05-.1,.22-.07,.37-.2,.45-.39s.12-.49,.12-.89v-9.26c0-.4-.04-.69-.12-.88-.08-.19-.23-.32-.45-.39-.22-.07-.57-.11-1.05-.11-.04,0-.06-.04-.06-.12s.02-.12,.06-.12h8.15c.13,0,.2,.06,.2,.18l.04,2.52s-.04,.06-.11,.07c-.07,0-.12,0-.13-.05-.09-.73-.35-1.29-.78-1.68-.43-.39-.99-.58-1.68-.58h-1.02c-.59,0-.98,.09-1.18,.26-.2,.17-.3,.5-.3,.98v9.1c0,.48,.09,.81,.27,.98,.18,.17,.54,.26,1.09,.26h1.32c.75,0,1.37-.22,1.87-.67,.5-.45,.84-1.08,1.03-1.91,0-.03,.03-.04,.08-.04,.04,0,.08,.01,.11,.03,.03,.02,.05,.04,.05,.05-.13,.96-.2,1.86-.2,2.7,0,.11-.02,.18-.06,.23s-.12,.07-.24,.07h-8.51s-.06-.04-.06-.12Zm6.96-5.75c-.33-.27-.84-.41-1.55-.41h-2.92v-.46h2.96c.68,0,1.18-.12,1.5-.35,.32-.23,.48-.6,.48-1.09,0-.03,.04-.04,.11-.04s.11,.01,.11,.04l-.02,1.68,.02,.9c.03,.43,.04,.76,.04,1,0,.03-.04,.04-.12,.04s-.12-.01-.12-.04c0-.57-.16-1-.49-1.27Z" fill="#231815"/>
        </g>
      </g>
      <path id="train" d="M114.78,117.74l-13.2-23.13,2.41-1.38,13.2,23.13-2.41,1.38Zm-74.7,0l-2.41-1.38,13.2-23.13,2.41,1.38-13.2,23.13Zm75.9-30.14H38.87c-.77,0-1.39-.62-1.39-1.39V32.23c0-13.52,11-24.52,24.52-24.52h30.84c13.52,0,24.52,11,24.52,24.52v53.97c0,.77-.62,1.39-1.39,1.39Zm-75.72-2.78H114.59V32.23c0-11.99-9.75-21.74-21.74-21.74h-30.84c-11.99,0-21.74,9.75-21.74,21.74v52.59Zm62.22-8.79c-3.95,0-7.17-3.22-7.17-7.17s3.22-7.17,7.17-7.17,7.17,3.22,7.17,7.17-3.22,7.17-7.17,7.17Zm0-11.57c-2.42,0-4.4,1.97-4.4,4.4s1.97,4.4,4.4,4.4,4.4-1.97,4.4-4.4-1.97-4.4-4.4-4.4Zm-50.12,11.57c-3.95,0-7.17-3.22-7.17-7.17s3.22-7.17,7.17-7.17,7.17,3.22,7.17,7.17-3.22,7.17-7.17,7.17Zm0-11.57c-2.42,0-4.4,1.97-4.4,4.4s1.97,4.4,4.4,4.4,4.4-1.97,4.4-4.4-1.97-4.4-4.4-4.4Zm55.9-7.71H46.58c-.77,0-1.39-.62-1.39-1.39v-23.13c0-9.27,7.54-16.81,16.81-16.81h30.84c9.27,0,16.81,7.54,16.81,16.81v23.13c0,.77-.62,1.39-1.39,1.39Zm-60.3-2.78h58.91v-21.74c0-7.74-6.3-14.03-14.03-14.03h-30.84c-7.74,0-14.03,6.3-14.03,14.03v21.74ZM96.7,2.78H58.15V0h38.55V2.78Z" fill="#595757"/>
    </g>
  </g>
</svg>