<?xml version="1.0" encoding="UTF-8"?>
<svg id="_圖層_2" data-name="圖層 2" xmlns="http://www.w3.org/2000/svg" viewBox="0 0 233.23 222.74">
  <g id="_圖層_1-2" data-name="圖層 1">
    <g>
      <g>
        <path d="M65.39,152.23c-.25,.32-.79,.61-1.47,.76v28.15c-.07,.32-1.58,1.12-2.81,1.12h-.5v-2.38h-23.23v1.4c0,.43-1.26,1.26-2.7,1.26h-.54v-32.68l3.52,1.51h22.59l1.69-1.87,3.45,2.74Zm-4.78,26.6v-26.42h-23.23v26.42h23.23Zm-11.36-8.21c-1.8,.94-4.57,2.27-8.38,3.96-.18,.47-.47,.76-.83,.86l-1.83-3.56c1.94-.22,6.47-.94,10.97-1.76l.07,.5Zm2.48-11.73c.18,2.84,.58,5.62,1.33,8.1,1.04-2.02,1.91-4.21,2.52-6.62l3.96,1.62c-.22,.4-.61,.68-1.44,.58-1.04,2.84-2.37,5.26-3.92,7.31,.65,1.26,1.44,2.38,2.41,3.31,.43,.47,.61,.47,.86-.11,.4-.76,.97-2.23,1.37-3.49l.4,.07-.5,4.79c.9,1.48,1.04,2.16,.61,2.59-1.01,1.19-3.13,.07-4.32-1.08-1.11-1.12-2.05-2.38-2.8-3.74-2.34,2.38-5.04,4.1-8.09,5.36l-.32-.47c2.73-1.69,5.29-4.07,7.41-7.05-1.33-3.24-1.98-7.02-2.3-11.16h-10.25l-.29-1.04h10.47c-.07-1.58-.11-3.2-.14-4.86l4.17,.79c-.07,.43-.43,.79-1.22,.86,0,1.04,.04,2.12,.07,3.2h3.7l.79-1.01c-.18-.04-.4-.14-.61-.25-.43-1.12-1.55-2.52-2.55-3.24l.32-.32c4.21,.29,4.93,2.34,4.21,3.31,.65,.5,1.62,1.3,2.27,1.98-.11,.4-.47,.58-.93,.58h-7.16Zm-6.44,10.22v-1.12h-2.91v1.04c0,.18-1.08,.76-2.09,.76h-.4v-9.32l2.66,1.08h2.48l1.22-1.22,2.7,1.94c-.18,.22-.61,.47-1.12,.54v5.44c-.04,.25-1.29,.86-2.16,.86h-.4Zm0-2.16v-4.36h-2.91v4.36h2.91Z" fill="#231815"/>
        <path d="M86.31,166.92c-.25,.32-.61,.43-1.37,.5-.83,2.56-2.52,5.4-4.89,7.56,.14,.07,.32,.18,.5,.32,2.95,2.66,7.16,3.17,14.71,3.17,4.21-.04,7.73-.04,11.98-.25v.47c-1.44,.25-2.19,1.44-2.37,2.77h-10.75c-7.59,0-10.9-1.19-14.03-5-.5-.58-.86-.5-1.19,.07-.65,1.08-1.8,3.06-2.59,4.72,.11,.32,.04,.54-.22,.72l-2.55-3.35c1.73-1.04,4.24-3.24,5.36-3.71,1.29-2.12,2.3-5.15,2.73-7.74h-3.09l-1.19,1.04-2.66-2.12c.36-.22,.9-.47,1.44-.61,1.15-1.73,2.73-4.21,3.74-6.05h-5.54l-.32-1.04h5.93l1.58-1.58,3.13,2.84c-.32,.36-1.04,.54-1.91,.58-.97,1.62-2.55,4.1-3.78,5.9h2.48l1.73-1.73,3.13,2.52Zm-10.65-17.42c8.85,1.44,6.29,7.96,3.02,5.76-.4-1.94-1.94-4.14-3.38-5.51l.36-.25Zm9.17,6.66l-.29-1.04h11.69c.61-1.84,1.26-4.36,1.65-6.16l4.78,1.12c-.11,.4-.54,.72-1.33,.72-.97,1.26-2.59,2.95-4.1,4.32h3.49l1.98-2.56s2.27,1.73,3.6,3.02c-.07,.4-.47,.58-.97,.58h-9.46c-.61,1.12-1.4,2.41-2.16,3.46h5.47l1.62-1.76,3.42,2.63c-.25,.29-.76,.58-1.44,.72v14.69c-.04,.25-1.62,.94-2.7,.94h-.54v-2.27h-9.28v1.44c0,.36-1.33,1.08-2.7,1.08h-.5v-18.9l3.38,1.44h1.44c.11-1.08,.18-2.41,.22-3.46h-7.27Zm3.17-7.13c7.95,1.8,4.82,7.56,1.94,5.25-.14-1.73-1.29-3.78-2.34-5l.4-.25Zm2.27,11.63v3.53h9.28v-3.53h-9.28Zm0,8.17h9.28v-3.6h-9.28v3.6Zm9.28,4.68v-3.64h-9.28v3.64h9.28Z" fill="#231815"/>
        <path d="M127.38,166.95c-.22,.36-.58,.43-1.33,.5-.83,2.56-2.45,5.4-4.75,7.52,.11,.07,.25,.18,.4,.32,3.02,2.66,7.23,3.13,14.82,3.13,4.24,0,7.77-.04,12.08-.25v.47c-1.4,.25-2.23,1.4-2.41,2.77h-10.79c-7.7,0-10.97-1.19-14.06-4.97-.54-.58-.9-.5-1.22,.07-.61,1.08-1.69,3.02-2.48,4.68,.11,.29,.04,.5-.22,.72l-2.52-3.35c1.69-1.08,4.21-3.24,5.25-3.67,1.26-2.2,2.27-5.15,2.7-7.7h-3.42l-1.15,1.01-2.59-2.12c.36-.22,.94-.47,1.47-.65,1.22-1.69,2.91-4.18,3.99-5.98h-5.43l-.32-1.04h5.9l1.51-1.55,3.06,2.74c-.32,.36-1.01,.54-1.83,.61-1.04,1.62-2.77,4.1-4.1,5.94h2.7l1.76-1.69,2.99,2.48Zm-10.32-17.46c8.67,1.62,6.01,7.96,2.81,5.76-.32-1.94-1.83-4.14-3.17-5.51l.36-.25Zm8.09,4.21h9.5v-4.82l4.57,.5c-.07,.5-.36,.86-1.33,1.01v3.31h3.92l1.94-2.45s2.3,1.66,3.67,2.92c-.11,.4-.47,.58-.97,.58h-8.56v3.38h3.38l1.58-1.69,3.42,2.56c-.22,.29-.79,.61-1.51,.76v6.08c-.04,.25-1.58,.9-2.59,.9h-.54v-1.37h-3.74v1.69c10.36,2.59,8.67,9.07,5.36,7.2-.94-2.05-3.34-4.57-5.36-6.3v8.71c0,.4-1.4,1.15-2.59,1.15h-.65v-8.24c-2.27,2.52-5.18,4.57-8.49,6.26l-.4-.54c3.49-2.52,6.33-6.19,8.02-9.93h-3.2v.97c0,.29-1.37,.97-2.62,.97h-.43v-10.55l3.27,1.37h3.85v-3.38h-9.24l-.25-1.04Zm9.5,10.62v-5.15h-4.06v5.15h4.06Zm3.24-5.15v5.15h3.74v-5.15h-3.74Z" fill="#231815"/>
        <path d="M159.61,172.39c1.19,3.6,.83,6.41-.14,7.74-.68,.86-2.3,1.04-2.88,.07-.47-.86-.07-1.87,.76-2.48,.9-.97,1.87-3.35,1.65-5.33h.61Zm6.87-21.24c-.14,.32-.54,.61-1.26,.54-1.4,2.34-3.96,5.62-6.22,7.77,1.37,.04,3.13,.04,4.89,0,.76-1.33,1.4-2.59,1.83-3.6l3.7,2.52c-.18,.29-.65,.54-1.37,.4-1.87,2.7-5.47,6.51-8.74,9.11,1.76-.11,4.1-.25,6.55-.43-.32-1.3-.79-2.56-1.26-3.49l.43-.18c6.26,3.85,3.38,8.67,1.22,6.44,0-.54-.07-1.15-.18-1.76-1.91,.68-4.5,1.58-7.23,2.38-.29,.4-.65,.65-.97,.76l-1.29-3.74s.79-.18,1.12-.4c1.62-1.37,3.6-3.92,5.25-6.52-1.15,.43-2.55,.94-3.96,1.37-.22,.36-.5,.61-.79,.76l-1.55-3.74s.68-.18,.97-.4c1.73-1.94,3.96-7.09,4.68-9.83l4.17,2.05Zm-4.21,20.7c4.78,4.61,1.65,9.21-.25,6.73,.36-2.12,.14-4.79-.25-6.62l.5-.11Zm2.95-.58c6.29,3.31,3.6,8.24,1.33,6.08,.04-1.94-.86-4.36-1.73-5.9l.4-.18Zm25.21-19.04c-.25,.29-.83,.61-1.51,.72v25.2c0,2.16-.47,3.49-4.21,3.85-.11-.9-.29-1.66-.79-2.05-.5-.47-1.33-.83-2.99-1.08v-.54s3.52,.25,4.28,.25c.65,0,.83-.22,.83-.76v-16.85c-.14,.29-.43,.4-.83,.4h-11.8l-.29-1.04h6.65c.61-2.02,1.37-4.86,1.8-6.88l3.78,1.08c-.18,.43-.61,.76-1.37,.68-.79,1.48-2.12,3.46-3.34,5.11h1.55l1.4-1.84s1.47,1.26,2.45,2.23v-8.28h-13.41v28.87c0,.22-.94,.97-2.3,.97h-.47v-32.22l3.24,1.33h12.59l1.4-1.73,3.34,2.56Zm-6.72,21.6c.75,.25,1.01,.47,1.01,.97,0,1.04-.9,1.37-4.68,1.37h-2.23c-2.23,0-2.59-.58-2.59-2.2v-6.62h-1.55l-.25-1.04h8.24l1.37-1.8s1.51,1.3,2.45,2.27c-.07,.4-.43,.58-.9,.58h-6.87v6.08c0,.43,.11,.54,.83,.54h3.45c.18,0,.43-.04,.58-.04,.18-.04,.47-.07,.68-.14h.32l.14,.04Zm-9.39-20.12c6.44,3.1,3.78,7.74,1.55,5.65-.07-1.76-1.08-4.03-1.98-5.44l.43-.22Zm2.88,7.77c5.93,1.94,2.84,6.12,.75,4.03,0-1.33-.58-2.88-1.15-3.85l.4-.18Z" fill="#231815"/>
      </g>
      <g>
        <g>
          <path d="M11.8,222.73c-.06,.01-.1,0-.13-.02l-9.41-11.16c-.44-.52-.83-.88-1.18-1.09-.35-.21-.69-.31-1.04-.31-.03,0-.04-.04-.04-.12s.01-.12,.04-.12l.78,.02c.16,.01,.39,.02,.68,.02l1.02-.02c.13-.01,.29-.02,.46-.02,.11,0,.19,.03,.24,.08,.05,.05,.13,.16,.24,.32l.48,.64,7.79,9.4,.16,2.32s-.03,.05-.09,.06Zm-10.02-12.36l.52,.04v9.72c0,.69,.13,1.21,.39,1.54,.26,.33,.66,.5,1.19,.5,.03,0,.04,.04,.04,.12s-.01,.12-.04,.12c-.35,0-.61,0-.8-.02l-1.02-.02-1.08,.02c-.2,.01-.49,.02-.88,.02-.03,0-.04-.04-.04-.12s.01-.12,.04-.12c.57,0,1-.17,1.27-.5,.27-.33,.41-.85,.41-1.54v-9.76Zm10.11,12.3l-.5-.62v-9.84c0-.69-.13-1.21-.38-1.55-.25-.34-.65-.51-1.18-.51-.03,0-.04-.04-.04-.12s.01-.12,.04-.12l.8,.02c.4,.03,.74,.04,1.02,.04,.24,0,.59-.01,1.04-.04l.84-.02s.04,.04,.04,.12-.01,.12-.04,.12c-1.09,0-1.64,.69-1.64,2.06v10.46Z" fill="#fff"/>
          <path d="M30.09,222.29c0,.08-.03,.12-.1,.12-.25,0-.65-.01-1.18-.04-.56-.03-.96-.04-1.2-.04-.31,0-.69,.01-1.14,.04-.45,.03-.79,.04-1.02,.04-.05,0-.08-.04-.08-.12s.03-.12,.08-.12c.45,0,.78-.04,.98-.13,.2-.09,.3-.24,.3-.47s-.1-.54-.3-.94l-4.29-8.94,.64-.96-3.9,9.04c-.19,.45-.28,.83-.28,1.12,0,.43,.17,.75,.5,.96,.33,.21,.81,.32,1.44,.32,.07,0,.1,.04,.1,.12s-.03,.12-.1,.12c-.24,0-.59-.01-1.04-.04-.51-.03-.95-.04-1.32-.04-.35,0-.76,.01-1.24,.04-.43,.03-.77,.04-1.04,.04-.05,0-.08-.04-.08-.12s.03-.12,.08-.12c.37,0,.69-.07,.95-.22,.26-.15,.51-.4,.75-.76,.24-.36,.51-.89,.82-1.6l4.25-9.82s.06-.06,.14-.07c.08,0,.13,.02,.14,.07l4.79,9.9c.47,.97,.86,1.63,1.17,1.98,.31,.35,.67,.52,1.07,.52,.07,0,.1,.04,.1,.12Zm-10.19-5.54h5.43l.14,.44h-5.81l.24-.44Z" fill="#fff"/>
          <path d="M34.06,211c-.47,.46-.81,1.2-1.04,2.21-.01,.03-.06,.04-.13,.04s-.11-.02-.11-.06c.05-.37,.11-.98,.18-1.82,.07-.84,.1-1.47,.1-1.9,0-.07,.04-.1,.12-.1s.12,.03,.12,.1c0,.29,.37,.44,1.1,.44,1.15,.04,2.48,.06,4.02,.06,.79,0,1.62-.01,2.5-.04l1.36-.02c.49,0,.85-.03,1.08-.1,.23-.07,.37-.2,.44-.4,.01-.05,.06-.08,.13-.08s.11,.03,.11,.08c-.04,.37-.08,.97-.13,1.8-.05,.83-.07,1.49-.07,1.98,0,.04-.04,.06-.11,.06s-.11-.02-.11-.06c-.09-1.03-.36-1.76-.8-2.21-.44-.45-1.09-.67-1.96-.67-.49,0-.85,.03-1.06,.09-.21,.06-.36,.17-.44,.34s-.12,.44-.12,.83v9.22c0,.41,.04,.71,.13,.9,.09,.19,.26,.31,.51,.38,.25,.07,.66,.1,1.22,.1,.03,0,.04,.04,.04,.12s-.01,.12-.04,.12c-.47,0-.83,0-1.1-.02l-1.58-.02-1.54,.02c-.27,.01-.64,.02-1.12,.02-.04,0-.06-.04-.06-.12s.02-.12,.06-.12c.55,0,.95-.03,1.21-.1,.26-.07,.44-.2,.53-.39,.09-.19,.14-.49,.14-.89v-9.26c0-.37-.04-.64-.12-.81-.08-.17-.23-.28-.45-.33-.22-.05-.58-.08-1.07-.08-.83,0-1.47,.23-1.94,.69Z" fill="#fff"/>
          <path d="M51.02,221.69c.07,.19,.22,.31,.44,.38,.22,.07,.58,.1,1.07,.1,.03,0,.04,.04,.04,.12s-.01,.12-.04,.12c-.43,0-.76,0-1-.02l-1.44-.02-1.4,.02c-.25,.01-.6,.02-1.04,.02-.03,0-.04-.04-.04-.12s.01-.12,.04-.12c.48,0,.83-.03,1.06-.1,.23-.07,.38-.2,.47-.39s.13-.49,.13-.89v-9.26c0-.4-.04-.69-.13-.88-.09-.19-.24-.32-.47-.39s-.58-.11-1.06-.11c-.03,0-.04-.04-.04-.12s.01-.12,.04-.12l1.04,.02c.59,.03,1.05,.04,1.4,.04,.39,0,.87-.01,1.46-.04l.98-.02s.04,.04,.04,.12-.01,.12-.04,.12c-.48,0-.83,.04-1.05,.12s-.37,.22-.45,.41c-.08,.19-.12,.49-.12,.89v9.22c0,.41,.04,.71,.11,.9Z" fill="#fff"/>
          <path d="M59.45,221.78c-.97-.58-1.71-1.37-2.24-2.36s-.79-2.08-.79-3.25c0-1.37,.35-2.55,1.04-3.53s1.58-1.72,2.67-2.21,2.19-.74,3.33-.74c1.26,0,2.38,.3,3.34,.89s1.7,1.38,2.21,2.35c.51,.97,.77,2.01,.77,3.1,0,1.21-.32,2.33-.96,3.34-.64,1.01-1.5,1.81-2.57,2.4-1.07,.59-2.24,.88-3.49,.88s-2.34-.29-3.31-.87Zm6.3-.23c.68-.44,1.22-1.08,1.61-1.93,.39-.85,.59-1.86,.59-3.03,0-1.24-.22-2.35-.65-3.32-.43-.97-1.05-1.73-1.86-2.28-.81-.55-1.74-.82-2.81-.82-1.39,0-2.46,.47-3.24,1.41-.77,.94-1.16,2.24-1.16,3.89,0,1.27,.22,2.41,.66,3.44s1.06,1.83,1.85,2.42c.79,.59,1.7,.88,2.71,.88,.85,0,1.62-.22,2.3-.66Z" fill="#fff"/>
          <path d="M85.2,222.73c-.06,.01-.1,0-.13-.02l-9.41-11.16c-.44-.52-.83-.88-1.18-1.09-.35-.21-.69-.31-1.04-.31-.03,0-.04-.04-.04-.12s.01-.12,.04-.12l.78,.02c.16,.01,.39,.02,.68,.02l1.02-.02c.13-.01,.29-.02,.46-.02,.11,0,.19,.03,.24,.08,.05,.05,.13,.16,.24,.32l.48,.64,7.79,9.4,.16,2.32s-.03,.05-.09,.06Zm-10.02-12.36l.52,.04v9.72c0,.69,.13,1.21,.39,1.54,.26,.33,.66,.5,1.19,.5,.03,0,.04,.04,.04,.12s-.01,.12-.04,.12c-.35,0-.61,0-.8-.02l-1.02-.02-1.08,.02c-.2,.01-.49,.02-.88,.02-.03,0-.04-.04-.04-.12s.01-.12,.04-.12c.57,0,1-.17,1.27-.5,.27-.33,.41-.85,.41-1.54v-9.76Zm10.11,12.3l-.5-.62v-9.84c0-.69-.13-1.21-.38-1.55-.25-.34-.65-.51-1.18-.51-.03,0-.04-.04-.04-.12s.01-.12,.04-.12l.8,.02c.4,.03,.74,.04,1.02,.04,.24,0,.59-.01,1.04-.04l.84-.02s.04,.04,.04,.12-.01,.12-.04,.12c-1.09,0-1.64,.69-1.64,2.06v10.46Z" fill="#fff"/>
          <path d="M103.49,222.29c0,.08-.03,.12-.1,.12-.25,0-.65-.01-1.18-.04-.56-.03-.96-.04-1.2-.04-.31,0-.69,.01-1.14,.04-.45,.03-.79,.04-1.02,.04-.05,0-.08-.04-.08-.12s.03-.12,.08-.12c.45,0,.78-.04,.98-.13,.2-.09,.3-.24,.3-.47s-.1-.54-.3-.94l-4.3-8.94,.64-.96-3.9,9.04c-.19,.45-.28,.83-.28,1.12,0,.43,.17,.75,.5,.96,.33,.21,.81,.32,1.44,.32,.07,0,.1,.04,.1,.12s-.03,.12-.1,.12c-.24,0-.59-.01-1.04-.04-.51-.03-.95-.04-1.32-.04-.35,0-.76,.01-1.24,.04-.43,.03-.77,.04-1.04,.04-.05,0-.08-.04-.08-.12s.03-.12,.08-.12c.37,0,.69-.07,.95-.22,.26-.15,.51-.4,.75-.76,.24-.36,.51-.89,.82-1.6l4.26-9.82s.06-.06,.14-.07c.08,0,.13,.02,.14,.07l4.79,9.9c.47,.97,.86,1.63,1.17,1.98,.31,.35,.67,.52,1.07,.52,.07,0,.1,.04,.1,.12Zm-10.19-5.54h5.43l.14,.44h-5.81l.24-.44Z" fill="#fff"/>
          <path d="M109.41,221.52c.07,.17,.21,.28,.41,.34,.2,.06,.51,.09,.94,.09h1.7c.84,0,1.53-.25,2.09-.75,.55-.5,.92-1.18,1.11-2.03,0-.04,.04-.06,.11-.05,.07,0,.11,.03,.11,.07-.12,1.17-.18,2.15-.18,2.92,0,.11-.02,.18-.07,.23s-.12,.07-.23,.07h-9.31s-.04-.04-.04-.12,.01-.12,.04-.12c.48,0,.83-.03,1.06-.1,.23-.07,.38-.2,.46-.39s.12-.49,.12-.89v-9.26c0-.4-.04-.69-.12-.88-.08-.19-.23-.32-.46-.39-.23-.07-.58-.11-1.06-.11-.03,0-.04-.04-.04-.12s.01-.12,.04-.12l1,.02c.59,.03,1.06,.04,1.42,.04s.83-.01,1.42-.04l1-.02s.04,.04,.04,.12-.01,.12-.04,.12c-.48,0-.83,.04-1.05,.11s-.37,.21-.45,.4c-.08,.19-.12,.49-.12,.89v9.16c0,.37,.04,.64,.11,.81Z" fill="#fff"/>
          <path d="M127.07,210.65c-.08-.19-.23-.32-.46-.39s-.59-.11-1.08-.11c-.04,0-.06-.04-.06-.12s.02-.12,.06-.12l1.02,.02c.56,.03,1.03,.04,1.4,.04,.41,0,.93-.01,1.54-.04l1.02-.02s.04,.04,.04,.12-.01,.12-.04,.12c-.51,0-.88,.04-1.12,.12-.24,.08-.4,.22-.49,.41-.09,.19-.13,.49-.13,.89v9.22c0,.4,.04,.7,.13,.89,.09,.19,.25,.32,.48,.39,.23,.07,.61,.1,1.13,.1,.03,0,.04,.04,.04,.12s-.01,.12-.04,.12c-.44,0-.78,0-1.02-.02l-1.54-.02-1.42,.02c-.25,.01-.6,.02-1.04,.02-.03,0-.04-.04-.04-.12s.01-.12,.04-.12c.49,0,.86-.03,1.09-.1,.23-.07,.39-.2,.48-.39,.09-.19,.13-.49,.13-.89v-9.26c0-.4-.04-.69-.12-.88Zm.86,5.02h8.83v.46h-8.83v-.46Zm8.01-4.99c-.08-.19-.24-.33-.48-.41-.24-.08-.61-.12-1.12-.12-.04,0-.06-.04-.06-.12s.02-.12,.06-.12l.94,.02c.61,.03,1.14,.04,1.58,.04,.37,0,.85-.01,1.44-.04l1.02-.02s.06,.04,.06,.12-.02,.12-.06,.12c-.49,0-.86,.04-1.09,.11-.23,.07-.39,.2-.47,.39-.08,.19-.12,.48-.12,.88v9.26c0,.4,.04,.7,.12,.89s.24,.32,.47,.39c.23,.07,.6,.1,1.09,.1,.04,0,.06,.04,.06,.12s-.02,.12-.06,.12c-.43,0-.77,0-1.02-.02l-1.44-.02-1.58,.02c-.23,.01-.54,.02-.94,.02-.04,0-.06-.04-.06-.12s.02-.12,.06-.12c.52,0,.9-.03,1.13-.1,.23-.07,.39-.19,.47-.38,.08-.19,.12-.49,.12-.9v-9.22c0-.4-.04-.7-.12-.89Z" fill="#fff"/>
          <path d="M146.29,221.69c.07,.19,.22,.31,.44,.38,.22,.07,.58,.1,1.07,.1,.03,0,.04,.04,.04,.12s-.01,.12-.04,.12c-.43,0-.76,0-1-.02l-1.44-.02-1.4,.02c-.25,.01-.6,.02-1.04,.02-.03,0-.04-.04-.04-.12s.01-.12,.04-.12c.48,0,.83-.03,1.06-.1,.23-.07,.38-.2,.47-.39,.09-.19,.13-.49,.13-.89v-9.26c0-.4-.04-.69-.13-.88-.09-.19-.24-.32-.47-.39-.23-.07-.58-.11-1.06-.11-.03,0-.04-.04-.04-.12s.01-.12,.04-.12l1.04,.02c.59,.03,1.05,.04,1.4,.04,.39,0,.87-.01,1.46-.04l.98-.02s.04,.04,.04,.12-.01,.12-.04,.12c-.48,0-.83,.04-1.05,.12s-.37,.22-.45,.41-.12,.49-.12,.89v9.22c0,.41,.04,.71,.11,.9Z" fill="#fff"/>
          <path d="M155.08,221.78c-1.1-.58-1.94-1.37-2.52-2.36s-.87-2.09-.87-3.29c0-1.28,.33-2.41,.99-3.38,.66-.97,1.56-1.73,2.72-2.26,1.15-.53,2.45-.8,3.89-.8,.68,0,1.33,.06,1.96,.19s1.15,.3,1.56,.51c.11,.05,.17,.1,.19,.14,.02,.04,.04,.15,.05,.32l.26,2.48s-.04,.07-.11,.08-.12,0-.13-.06c-.28-.93-.78-1.72-1.49-2.35-.71-.63-1.64-.95-2.79-.95-1,0-1.9,.23-2.7,.7s-1.43,1.14-1.89,2.01c-.46,.87-.69,1.89-.69,3.05s.23,2.26,.7,3.25c.47,.99,1.15,1.79,2.05,2.39s1.97,.9,3.21,.9c.91,0,1.54-.18,1.9-.53,.36-.35,.54-.99,.54-1.91,0-.69-.04-1.18-.13-1.45-.09-.27-.27-.46-.56-.55-.29-.09-.79-.14-1.51-.14-.08,0-.12-.05-.12-.16,0-.04,.01-.08,.03-.11s.04-.05,.07-.05c1.07,.07,1.93,.1,2.6,.1s1.33-.02,2.02-.06c.03,0,.05,.02,.07,.05,.02,.03,.03,.06,.03,.09,0,.09-.03,.14-.1,.14-.31-.01-.52,.03-.64,.13-.12,.1-.2,.3-.23,.61-.03,.31-.05,.84-.05,1.6,0,.6,.02,1.03,.07,1.28,.05,.25,.07,.41,.07,.48,0,.08-.01,.13-.04,.16-.03,.03-.09,.05-.18,.08-1.68,.36-3.13,.54-4.36,.54-1.48,0-2.77-.29-3.87-.87Z" fill="#fff"/>
          <path d="M169.32,210.65c-.08-.19-.23-.32-.46-.39s-.59-.11-1.08-.11c-.04,0-.06-.04-.06-.12s.02-.12,.06-.12l1.02,.02c.56,.03,1.03,.04,1.4,.04,.41,0,.93-.01,1.54-.04l1.02-.02s.04,.04,.04,.12-.01,.12-.04,.12c-.51,0-.88,.04-1.12,.12-.24,.08-.4,.22-.49,.41-.09,.19-.13,.49-.13,.89v9.22c0,.4,.04,.7,.13,.89,.09,.19,.25,.32,.48,.39,.23,.07,.61,.1,1.13,.1,.03,0,.04,.04,.04,.12s-.01,.12-.04,.12c-.44,0-.78,0-1.02-.02l-1.54-.02-1.42,.02c-.25,.01-.6,.02-1.04,.02-.03,0-.04-.04-.04-.12s.01-.12,.04-.12c.49,0,.86-.03,1.09-.1,.23-.07,.39-.2,.48-.39,.09-.19,.13-.49,.13-.89v-9.26c0-.4-.04-.69-.12-.88Zm.86,5.02h8.83v.46h-8.83v-.46Zm8.01-4.99c-.08-.19-.24-.33-.48-.41-.24-.08-.61-.12-1.12-.12-.04,0-.06-.04-.06-.12s.02-.12,.06-.12l.94,.02c.61,.03,1.14,.04,1.58,.04,.37,0,.85-.01,1.44-.04l1.02-.02s.06,.04,.06,.12-.02,.12-.06,.12c-.49,0-.86,.04-1.09,.11-.23,.07-.39,.2-.47,.39-.08,.19-.12,.48-.12,.88v9.26c0,.4,.04,.7,.12,.89s.24,.32,.47,.39c.23,.07,.6,.1,1.09,.1,.04,0,.06,.04,.06,.12s-.02,.12-.06,.12c-.43,0-.77,0-1.02-.02l-1.44-.02-1.58,.02c-.23,.01-.54,.02-.94,.02-.04,0-.06-.04-.06-.12s.02-.12,.06-.12c.52,0,.9-.03,1.13-.1,.23-.07,.39-.19,.47-.38,.08-.19,.12-.49,.12-.9v-9.22c0-.4-.04-.7-.12-.89Z" fill="#fff"/>
          <path d="M191.18,222.47c-.13,0-.21-.03-.22-.08l-5.01-10.82c-.25-.56-.49-.94-.71-1.13-.22-.19-.53-.29-.93-.29-.04,0-.06-.04-.06-.12s.02-.12,.06-.12l.62,.02c.35,.03,.67,.04,.98,.04,.6,0,1.19-.01,1.78-.04,.19-.01,.44-.02,.76-.02,.04,0,.06,.04,.06,.12s-.02,.12-.06,.12c-.39,0-.67,.04-.84,.12-.17,.08-.26,.23-.26,.46,0,.19,.09,.49,.28,.9l4.24,9.06-.76,1.1,2.52-6.4,.32,.46-2.54,6.54c-.01,.05-.09,.08-.22,.08Zm11.73-12.44c0,.08-.02,.12-.06,.12-.95,0-1.67,.61-2.16,1.82l-4.08,10.42c-.01,.05-.09,.08-.22,.08s-.21-.03-.22-.08l-5.02-10.82c-.23-.49-.46-.85-.69-1.08-.23-.23-.52-.34-.85-.34-.04,0-.06-.04-.06-.12s.02-.12,.06-.12l.62,.02c.32,.03,.61,.04,.88,.04,.51,0,.97-.01,1.4-.04,.13-.01,.31-.02,.54-.02,.04,0,.06,.04,.06,.12s-.02,.12-.06,.12c-.23,0-.39,.02-.49,.07s-.15,.13-.15,.25c0,.19,.14,.57,.42,1.16l4.24,9.06-.76,1.1,3.86-9.82c.12-.32,.18-.59,.18-.82,0-.32-.12-.57-.35-.74-.23-.17-.58-.26-1.03-.26-.04,0-.06-.04-.06-.12s.02-.12,.06-.12l.86,.02c.45,.03,.87,.04,1.24,.04,.28,0,.59-.01,.94-.04l.84-.02s.06,.04,.06,.12Zm-7.53,.74c0-.41-.25-.62-.74-.62-.03,0-.04-.04-.04-.12s.01-.12,.04-.12l.4,.02c.27,.03,.57,.04,.92,.04,.24,0,.53-.01,.88-.04l.8-.02s.04,.04,.04,.12-.01,.12-.04,.12c-.45,0-.85,.14-1.18,.42-.33,.28-.63,.75-.88,1.4l-1.54,3.88-.32-.46,1.38-3.52c.19-.48,.28-.85,.28-1.1Z" fill="#fff"/>
          <path d="M218.93,222.29c0,.08-.03,.12-.1,.12-.25,0-.65-.01-1.18-.04-.56-.03-.96-.04-1.2-.04-.31,0-.69,.01-1.14,.04-.45,.03-.79,.04-1.02,.04-.05,0-.08-.04-.08-.12s.03-.12,.08-.12c.45,0,.78-.04,.98-.13,.2-.09,.3-.24,.3-.47s-.1-.54-.3-.94l-4.3-8.94,.64-.96-3.9,9.04c-.19,.45-.28,.83-.28,1.12,0,.43,.17,.75,.5,.96,.33,.21,.81,.32,1.44,.32,.07,0,.1,.04,.1,.12s-.03,.12-.1,.12c-.24,0-.59-.01-1.04-.04-.51-.03-.95-.04-1.32-.04-.35,0-.76,.01-1.24,.04-.43,.03-.77,.04-1.04,.04-.05,0-.08-.04-.08-.12s.03-.12,.08-.12c.37,0,.69-.07,.95-.22,.26-.15,.51-.4,.75-.76,.24-.36,.51-.89,.82-1.6l4.26-9.82s.06-.06,.14-.07c.08,0,.13,.02,.14,.07l4.79,9.9c.47,.97,.86,1.63,1.17,1.98,.31,.35,.67,.52,1.07,.52,.07,0,.1,.04,.1,.12Zm-10.19-5.54h5.43l.14,.44h-5.81l.24-.44Z" fill="#fff"/>
          <path d="M221.93,210.52c-.33-.25-.68-.37-1.05-.37-.04,0-.06-.04-.06-.12s.02-.12,.06-.12c.15,0,.38,.01,.7,.04l.66,.02c.44,0,1.05-.01,1.82-.04l1.16-.02s.04,.04,.04,.12-.01,.12-.04,.12c-.64,0-.96,.16-.96,.48,0,.15,.08,.33,.24,.56l3.24,4.86-1.26,.92-3.42-5.12c-.43-.64-.8-1.08-1.13-1.33Zm5.9,5.51v4.76c0,.41,.04,.71,.11,.9,.07,.19,.22,.31,.44,.38,.22,.07,.57,.1,1.05,.1,.04,0,.06,.04,.06,.12s-.02,.12-.06,.12c-.41,0-.74,0-.98-.02l-1.44-.02-1.4,.02c-.24,.01-.58,.02-1.02,.02-.03,0-.04-.04-.04-.12s.01-.12,.04-.12c.48,0,.83-.03,1.06-.1,.23-.07,.38-.2,.46-.39,.08-.19,.12-.49,.12-.89v-4.58l1.6-.18Zm2.46-5.08c0-.53-.37-.8-1.1-.8-.03,0-.04-.04-.04-.12s.01-.12,.04-.12l.98,.02c.53,.03,1.02,.04,1.46,.04,.23,0,.5-.01,.82-.04l.74-.02s.04,.04,.04,.12-.01,.12-.04,.12c-.47,0-.96,.2-1.48,.6-.52,.4-.99,.93-1.4,1.6l-2.96,4.68-.38-.32,2.84-4.46c.32-.52,.48-.95,.48-1.3Z" fill="#fff"/>
        </g>
        <g>
          <path d="M11.8,222.73c-.06,.01-.1,0-.13-.02l-9.41-11.16c-.44-.52-.83-.88-1.18-1.09-.35-.21-.69-.31-1.04-.31-.03,0-.04-.04-.04-.12s.01-.12,.04-.12l.78,.02c.16,.01,.39,.02,.68,.02l1.02-.02c.13-.01,.29-.02,.46-.02,.11,0,.19,.03,.24,.08,.05,.05,.13,.16,.24,.32l.48,.64,7.79,9.4,.16,2.32s-.03,.05-.09,.06Zm-10.02-12.36l.52,.04v9.72c0,.69,.13,1.21,.39,1.54,.26,.33,.66,.5,1.19,.5,.03,0,.04,.04,.04,.12s-.01,.12-.04,.12c-.35,0-.61,0-.8-.02l-1.02-.02-1.08,.02c-.2,.01-.49,.02-.88,.02-.03,0-.04-.04-.04-.12s.01-.12,.04-.12c.57,0,1-.17,1.27-.5,.27-.33,.41-.85,.41-1.54v-9.76Zm10.11,12.3l-.5-.62v-9.84c0-.69-.13-1.21-.38-1.55-.25-.34-.65-.51-1.18-.51-.03,0-.04-.04-.04-.12s.01-.12,.04-.12l.8,.02c.4,.03,.74,.04,1.02,.04,.24,0,.59-.01,1.04-.04l.84-.02s.04,.04,.04,.12-.01,.12-.04,.12c-1.09,0-1.64,.69-1.64,2.06v10.46Z" fill="#231815"/>
          <path d="M30.09,222.29c0,.08-.03,.12-.1,.12-.25,0-.65-.01-1.18-.04-.56-.03-.96-.04-1.2-.04-.31,0-.69,.01-1.14,.04-.45,.03-.79,.04-1.02,.04-.05,0-.08-.04-.08-.12s.03-.12,.08-.12c.45,0,.78-.04,.98-.13,.2-.09,.3-.24,.3-.47s-.1-.54-.3-.94l-4.29-8.94,.64-.96-3.9,9.04c-.19,.45-.28,.83-.28,1.12,0,.43,.17,.75,.5,.96,.33,.21,.81,.32,1.44,.32,.07,0,.1,.04,.1,.12s-.03,.12-.1,.12c-.24,0-.59-.01-1.04-.04-.51-.03-.95-.04-1.32-.04-.35,0-.76,.01-1.24,.04-.43,.03-.77,.04-1.04,.04-.05,0-.08-.04-.08-.12s.03-.12,.08-.12c.37,0,.69-.07,.95-.22,.26-.15,.51-.4,.75-.76,.24-.36,.51-.89,.82-1.6l4.25-9.82s.06-.06,.14-.07c.08,0,.13,.02,.14,.07l4.79,9.9c.47,.97,.86,1.63,1.17,1.98,.31,.35,.67,.52,1.07,.52,.07,0,.1,.04,.1,.12Zm-10.19-5.54h5.43l.14,.44h-5.81l.24-.44Z" fill="#231815"/>
          <path d="M34.06,211c-.47,.46-.81,1.2-1.04,2.21-.01,.03-.06,.04-.13,.04s-.11-.02-.11-.06c.05-.37,.11-.98,.18-1.82,.07-.84,.1-1.47,.1-1.9,0-.07,.04-.1,.12-.1s.12,.03,.12,.1c0,.29,.37,.44,1.1,.44,1.15,.04,2.48,.06,4.02,.06,.79,0,1.62-.01,2.5-.04l1.36-.02c.49,0,.85-.03,1.08-.1,.23-.07,.37-.2,.44-.4,.01-.05,.06-.08,.13-.08s.11,.03,.11,.08c-.04,.37-.08,.97-.13,1.8-.05,.83-.07,1.49-.07,1.98,0,.04-.04,.06-.11,.06s-.11-.02-.11-.06c-.09-1.03-.36-1.76-.8-2.21-.44-.45-1.09-.67-1.96-.67-.49,0-.85,.03-1.06,.09-.21,.06-.36,.17-.44,.34s-.12,.44-.12,.83v9.22c0,.41,.04,.71,.13,.9,.09,.19,.26,.31,.51,.38,.25,.07,.66,.1,1.22,.1,.03,0,.04,.04,.04,.12s-.01,.12-.04,.12c-.47,0-.83,0-1.1-.02l-1.58-.02-1.54,.02c-.27,.01-.64,.02-1.12,.02-.04,0-.06-.04-.06-.12s.02-.12,.06-.12c.55,0,.95-.03,1.21-.1,.26-.07,.44-.2,.53-.39,.09-.19,.14-.49,.14-.89v-9.26c0-.37-.04-.64-.12-.81-.08-.17-.23-.28-.45-.33-.22-.05-.58-.08-1.07-.08-.83,0-1.47,.23-1.94,.69Z" fill="#231815"/>
          <path d="M51.02,221.69c.07,.19,.22,.31,.44,.38,.22,.07,.58,.1,1.07,.1,.03,0,.04,.04,.04,.12s-.01,.12-.04,.12c-.43,0-.76,0-1-.02l-1.44-.02-1.4,.02c-.25,.01-.6,.02-1.04,.02-.03,0-.04-.04-.04-.12s.01-.12,.04-.12c.48,0,.83-.03,1.06-.1,.23-.07,.38-.2,.47-.39s.13-.49,.13-.89v-9.26c0-.4-.04-.69-.13-.88-.09-.19-.24-.32-.47-.39s-.58-.11-1.06-.11c-.03,0-.04-.04-.04-.12s.01-.12,.04-.12l1.04,.02c.59,.03,1.05,.04,1.4,.04,.39,0,.87-.01,1.46-.04l.98-.02s.04,.04,.04,.12-.01,.12-.04,.12c-.48,0-.83,.04-1.05,.12s-.37,.22-.45,.41c-.08,.19-.12,.49-.12,.89v9.22c0,.41,.04,.71,.11,.9Z" fill="#231815"/>
          <path d="M59.45,221.78c-.97-.58-1.71-1.37-2.24-2.36s-.79-2.08-.79-3.25c0-1.37,.35-2.55,1.04-3.53s1.58-1.72,2.67-2.21,2.19-.74,3.33-.74c1.26,0,2.38,.3,3.34,.89s1.7,1.38,2.21,2.35c.51,.97,.77,2.01,.77,3.1,0,1.21-.32,2.33-.96,3.34-.64,1.01-1.5,1.81-2.57,2.4-1.07,.59-2.24,.88-3.49,.88s-2.34-.29-3.31-.87Zm6.3-.23c.68-.44,1.22-1.08,1.61-1.93,.39-.85,.59-1.86,.59-3.03,0-1.24-.22-2.35-.65-3.32-.43-.97-1.05-1.73-1.86-2.28-.81-.55-1.74-.82-2.81-.82-1.39,0-2.46,.47-3.24,1.41-.77,.94-1.16,2.24-1.16,3.89,0,1.27,.22,2.41,.66,3.44s1.06,1.83,1.85,2.42c.79,.59,1.7,.88,2.71,.88,.85,0,1.62-.22,2.3-.66Z" fill="#231815"/>
          <path d="M85.2,222.73c-.06,.01-.1,0-.13-.02l-9.41-11.16c-.44-.52-.83-.88-1.18-1.09-.35-.21-.69-.31-1.04-.31-.03,0-.04-.04-.04-.12s.01-.12,.04-.12l.78,.02c.16,.01,.39,.02,.68,.02l1.02-.02c.13-.01,.29-.02,.46-.02,.11,0,.19,.03,.24,.08,.05,.05,.13,.16,.24,.32l.48,.64,7.79,9.4,.16,2.32s-.03,.05-.09,.06Zm-10.02-12.36l.52,.04v9.72c0,.69,.13,1.21,.39,1.54,.26,.33,.66,.5,1.19,.5,.03,0,.04,.04,.04,.12s-.01,.12-.04,.12c-.35,0-.61,0-.8-.02l-1.02-.02-1.08,.02c-.2,.01-.49,.02-.88,.02-.03,0-.04-.04-.04-.12s.01-.12,.04-.12c.57,0,1-.17,1.27-.5,.27-.33,.41-.85,.41-1.54v-9.76Zm10.11,12.3l-.5-.62v-9.84c0-.69-.13-1.21-.38-1.55-.25-.34-.65-.51-1.18-.51-.03,0-.04-.04-.04-.12s.01-.12,.04-.12l.8,.02c.4,.03,.74,.04,1.02,.04,.24,0,.59-.01,1.04-.04l.84-.02s.04,.04,.04,.12-.01,.12-.04,.12c-1.09,0-1.64,.69-1.64,2.06v10.46Z" fill="#231815"/>
          <path d="M103.49,222.29c0,.08-.03,.12-.1,.12-.25,0-.65-.01-1.18-.04-.56-.03-.96-.04-1.2-.04-.31,0-.69,.01-1.14,.04-.45,.03-.79,.04-1.02,.04-.05,0-.08-.04-.08-.12s.03-.12,.08-.12c.45,0,.78-.04,.98-.13,.2-.09,.3-.24,.3-.47s-.1-.54-.3-.94l-4.3-8.94,.64-.96-3.9,9.04c-.19,.45-.28,.83-.28,1.12,0,.43,.17,.75,.5,.96,.33,.21,.81,.32,1.44,.32,.07,0,.1,.04,.1,.12s-.03,.12-.1,.12c-.24,0-.59-.01-1.04-.04-.51-.03-.95-.04-1.32-.04-.35,0-.76,.01-1.24,.04-.43,.03-.77,.04-1.04,.04-.05,0-.08-.04-.08-.12s.03-.12,.08-.12c.37,0,.69-.07,.95-.22,.26-.15,.51-.4,.75-.76,.24-.36,.51-.89,.82-1.6l4.26-9.82s.06-.06,.14-.07c.08,0,.13,.02,.14,.07l4.79,9.9c.47,.97,.86,1.63,1.17,1.98,.31,.35,.67,.52,1.07,.52,.07,0,.1,.04,.1,.12Zm-10.19-5.54h5.43l.14,.44h-5.81l.24-.44Z" fill="#231815"/>
          <path d="M109.41,221.52c.07,.17,.21,.28,.41,.34,.2,.06,.51,.09,.94,.09h1.7c.84,0,1.53-.25,2.09-.75,.55-.5,.92-1.18,1.11-2.03,0-.04,.04-.06,.11-.05,.07,0,.11,.03,.11,.07-.12,1.17-.18,2.15-.18,2.92,0,.11-.02,.18-.07,.23s-.12,.07-.23,.07h-9.31s-.04-.04-.04-.12,.01-.12,.04-.12c.48,0,.83-.03,1.06-.1,.23-.07,.38-.2,.46-.39s.12-.49,.12-.89v-9.26c0-.4-.04-.69-.12-.88-.08-.19-.23-.32-.46-.39-.23-.07-.58-.11-1.06-.11-.03,0-.04-.04-.04-.12s.01-.12,.04-.12l1,.02c.59,.03,1.06,.04,1.42,.04s.83-.01,1.42-.04l1-.02s.04,.04,.04,.12-.01,.12-.04,.12c-.48,0-.83,.04-1.05,.11s-.37,.21-.45,.4c-.08,.19-.12,.49-.12,.89v9.16c0,.37,.04,.64,.11,.81Z" fill="#231815"/>
          <path d="M127.07,210.65c-.08-.19-.23-.32-.46-.39s-.59-.11-1.08-.11c-.04,0-.06-.04-.06-.12s.02-.12,.06-.12l1.02,.02c.56,.03,1.03,.04,1.4,.04,.41,0,.93-.01,1.54-.04l1.02-.02s.04,.04,.04,.12-.01,.12-.04,.12c-.51,0-.88,.04-1.12,.12-.24,.08-.4,.22-.49,.41-.09,.19-.13,.49-.13,.89v9.22c0,.4,.04,.7,.13,.89,.09,.19,.25,.32,.48,.39,.23,.07,.61,.1,1.13,.1,.03,0,.04,.04,.04,.12s-.01,.12-.04,.12c-.44,0-.78,0-1.02-.02l-1.54-.02-1.42,.02c-.25,.01-.6,.02-1.04,.02-.03,0-.04-.04-.04-.12s.01-.12,.04-.12c.49,0,.86-.03,1.09-.1,.23-.07,.39-.2,.48-.39,.09-.19,.13-.49,.13-.89v-9.26c0-.4-.04-.69-.12-.88Zm.86,5.02h8.83v.46h-8.83v-.46Zm8.01-4.99c-.08-.19-.24-.33-.48-.41-.24-.08-.61-.12-1.12-.12-.04,0-.06-.04-.06-.12s.02-.12,.06-.12l.94,.02c.61,.03,1.14,.04,1.58,.04,.37,0,.85-.01,1.44-.04l1.02-.02s.06,.04,.06,.12-.02,.12-.06,.12c-.49,0-.86,.04-1.09,.11-.23,.07-.39,.2-.47,.39-.08,.19-.12,.48-.12,.88v9.26c0,.4,.04,.7,.12,.89s.24,.32,.47,.39c.23,.07,.6,.1,1.09,.1,.04,0,.06,.04,.06,.12s-.02,.12-.06,.12c-.43,0-.77,0-1.02-.02l-1.44-.02-1.58,.02c-.23,.01-.54,.02-.94,.02-.04,0-.06-.04-.06-.12s.02-.12,.06-.12c.52,0,.9-.03,1.13-.1,.23-.07,.39-.19,.47-.38,.08-.19,.12-.49,.12-.9v-9.22c0-.4-.04-.7-.12-.89Z" fill="#231815"/>
          <path d="M146.29,221.69c.07,.19,.22,.31,.44,.38,.22,.07,.58,.1,1.07,.1,.03,0,.04,.04,.04,.12s-.01,.12-.04,.12c-.43,0-.76,0-1-.02l-1.44-.02-1.4,.02c-.25,.01-.6,.02-1.04,.02-.03,0-.04-.04-.04-.12s.01-.12,.04-.12c.48,0,.83-.03,1.06-.1,.23-.07,.38-.2,.47-.39,.09-.19,.13-.49,.13-.89v-9.26c0-.4-.04-.69-.13-.88-.09-.19-.24-.32-.47-.39-.23-.07-.58-.11-1.06-.11-.03,0-.04-.04-.04-.12s.01-.12,.04-.12l1.04,.02c.59,.03,1.05,.04,1.4,.04,.39,0,.87-.01,1.46-.04l.98-.02s.04,.04,.04,.12-.01,.12-.04,.12c-.48,0-.83,.04-1.05,.12s-.37,.22-.45,.41-.12,.49-.12,.89v9.22c0,.41,.04,.71,.11,.9Z" fill="#231815"/>
          <path d="M155.08,221.78c-1.1-.58-1.94-1.37-2.52-2.36s-.87-2.09-.87-3.29c0-1.28,.33-2.41,.99-3.38,.66-.97,1.56-1.73,2.72-2.26,1.15-.53,2.45-.8,3.89-.8,.68,0,1.33,.06,1.96,.19s1.15,.3,1.56,.51c.11,.05,.17,.1,.19,.14,.02,.04,.04,.15,.05,.32l.26,2.48s-.04,.07-.11,.08-.12,0-.13-.06c-.28-.93-.78-1.72-1.49-2.35-.71-.63-1.64-.95-2.79-.95-1,0-1.9,.23-2.7,.7s-1.43,1.14-1.89,2.01c-.46,.87-.69,1.89-.69,3.05s.23,2.26,.7,3.25c.47,.99,1.15,1.79,2.05,2.39s1.97,.9,3.21,.9c.91,0,1.54-.18,1.9-.53,.36-.35,.54-.99,.54-1.91,0-.69-.04-1.18-.13-1.45-.09-.27-.27-.46-.56-.55-.29-.09-.79-.14-1.51-.14-.08,0-.12-.05-.12-.16,0-.04,.01-.08,.03-.11s.04-.05,.07-.05c1.07,.07,1.93,.1,2.6,.1s1.33-.02,2.02-.06c.03,0,.05,.02,.07,.05,.02,.03,.03,.06,.03,.09,0,.09-.03,.14-.1,.14-.31-.01-.52,.03-.64,.13-.12,.1-.2,.3-.23,.61-.03,.31-.05,.84-.05,1.6,0,.6,.02,1.03,.07,1.28,.05,.25,.07,.41,.07,.48,0,.08-.01,.13-.04,.16-.03,.03-.09,.05-.18,.08-1.68,.36-3.13,.54-4.36,.54-1.48,0-2.77-.29-3.87-.87Z" fill="#231815"/>
          <path d="M169.32,210.65c-.08-.19-.23-.32-.46-.39s-.59-.11-1.08-.11c-.04,0-.06-.04-.06-.12s.02-.12,.06-.12l1.02,.02c.56,.03,1.03,.04,1.4,.04,.41,0,.93-.01,1.54-.04l1.02-.02s.04,.04,.04,.12-.01,.12-.04,.12c-.51,0-.88,.04-1.12,.12-.24,.08-.4,.22-.49,.41-.09,.19-.13,.49-.13,.89v9.22c0,.4,.04,.7,.13,.89,.09,.19,.25,.32,.48,.39,.23,.07,.61,.1,1.13,.1,.03,0,.04,.04,.04,.12s-.01,.12-.04,.12c-.44,0-.78,0-1.02-.02l-1.54-.02-1.42,.02c-.25,.01-.6,.02-1.04,.02-.03,0-.04-.04-.04-.12s.01-.12,.04-.12c.49,0,.86-.03,1.09-.1,.23-.07,.39-.2,.48-.39,.09-.19,.13-.49,.13-.89v-9.26c0-.4-.04-.69-.12-.88Zm.86,5.02h8.83v.46h-8.83v-.46Zm8.01-4.99c-.08-.19-.24-.33-.48-.41-.24-.08-.61-.12-1.12-.12-.04,0-.06-.04-.06-.12s.02-.12,.06-.12l.94,.02c.61,.03,1.14,.04,1.58,.04,.37,0,.85-.01,1.44-.04l1.02-.02s.06,.04,.06,.12-.02,.12-.06,.12c-.49,0-.86,.04-1.09,.11-.23,.07-.39,.2-.47,.39-.08,.19-.12,.48-.12,.88v9.26c0,.4,.04,.7,.12,.89s.24,.32,.47,.39c.23,.07,.6,.1,1.09,.1,.04,0,.06,.04,.06,.12s-.02,.12-.06,.12c-.43,0-.77,0-1.02-.02l-1.44-.02-1.58,.02c-.23,.01-.54,.02-.94,.02-.04,0-.06-.04-.06-.12s.02-.12,.06-.12c.52,0,.9-.03,1.13-.1,.23-.07,.39-.19,.47-.38,.08-.19,.12-.49,.12-.9v-9.22c0-.4-.04-.7-.12-.89Z" fill="#231815"/>
          <path d="M191.18,222.47c-.13,0-.21-.03-.22-.08l-5.01-10.82c-.25-.56-.49-.94-.71-1.13-.22-.19-.53-.29-.93-.29-.04,0-.06-.04-.06-.12s.02-.12,.06-.12l.62,.02c.35,.03,.67,.04,.98,.04,.6,0,1.19-.01,1.78-.04,.19-.01,.44-.02,.76-.02,.04,0,.06,.04,.06,.12s-.02,.12-.06,.12c-.39,0-.67,.04-.84,.12-.17,.08-.26,.23-.26,.46,0,.19,.09,.49,.28,.9l4.24,9.06-.76,1.1,2.52-6.4,.32,.46-2.54,6.54c-.01,.05-.09,.08-.22,.08Zm11.73-12.44c0,.08-.02,.12-.06,.12-.95,0-1.67,.61-2.16,1.82l-4.08,10.42c-.01,.05-.09,.08-.22,.08s-.21-.03-.22-.08l-5.02-10.82c-.23-.49-.46-.85-.69-1.08-.23-.23-.52-.34-.85-.34-.04,0-.06-.04-.06-.12s.02-.12,.06-.12l.62,.02c.32,.03,.61,.04,.88,.04,.51,0,.97-.01,1.4-.04,.13-.01,.31-.02,.54-.02,.04,0,.06,.04,.06,.12s-.02,.12-.06,.12c-.23,0-.39,.02-.49,.07s-.15,.13-.15,.25c0,.19,.14,.57,.42,1.16l4.24,9.06-.76,1.1,3.86-9.82c.12-.32,.18-.59,.18-.82,0-.32-.12-.57-.35-.74-.23-.17-.58-.26-1.03-.26-.04,0-.06-.04-.06-.12s.02-.12,.06-.12l.86,.02c.45,.03,.87,.04,1.24,.04,.28,0,.59-.01,.94-.04l.84-.02s.06,.04,.06,.12Zm-7.53,.74c0-.41-.25-.62-.74-.62-.03,0-.04-.04-.04-.12s.01-.12,.04-.12l.4,.02c.27,.03,.57,.04,.92,.04,.24,0,.53-.01,.88-.04l.8-.02s.04,.04,.04,.12-.01,.12-.04,.12c-.45,0-.85,.14-1.18,.42-.33,.28-.63,.75-.88,1.4l-1.54,3.88-.32-.46,1.38-3.52c.19-.48,.28-.85,.28-1.1Z" fill="#231815"/>
          <path d="M218.93,222.29c0,.08-.03,.12-.1,.12-.25,0-.65-.01-1.18-.04-.56-.03-.96-.04-1.2-.04-.31,0-.69,.01-1.14,.04-.45,.03-.79,.04-1.02,.04-.05,0-.08-.04-.08-.12s.03-.12,.08-.12c.45,0,.78-.04,.98-.13,.2-.09,.3-.24,.3-.47s-.1-.54-.3-.94l-4.3-8.94,.64-.96-3.9,9.04c-.19,.45-.28,.83-.28,1.12,0,.43,.17,.75,.5,.96,.33,.21,.81,.32,1.44,.32,.07,0,.1,.04,.1,.12s-.03,.12-.1,.12c-.24,0-.59-.01-1.04-.04-.51-.03-.95-.04-1.32-.04-.35,0-.76,.01-1.24,.04-.43,.03-.77,.04-1.04,.04-.05,0-.08-.04-.08-.12s.03-.12,.08-.12c.37,0,.69-.07,.95-.22,.26-.15,.51-.4,.75-.76,.24-.36,.51-.89,.82-1.6l4.26-9.82s.06-.06,.14-.07c.08,0,.13,.02,.14,.07l4.79,9.9c.47,.97,.86,1.63,1.17,1.98,.31,.35,.67,.52,1.07,.52,.07,0,.1,.04,.1,.12Zm-10.19-5.54h5.43l.14,.44h-5.81l.24-.44Z" fill="#231815"/>
          <path d="M221.93,210.52c-.33-.25-.68-.37-1.05-.37-.04,0-.06-.04-.06-.12s.02-.12,.06-.12c.15,0,.38,.01,.7,.04l.66,.02c.44,0,1.05-.01,1.82-.04l1.16-.02s.04,.04,.04,.12-.01,.12-.04,.12c-.64,0-.96,.16-.96,.48,0,.15,.08,.33,.24,.56l3.24,4.86-1.26,.92-3.42-5.12c-.43-.64-.8-1.08-1.13-1.33Zm5.9,5.51v4.76c0,.41,.04,.71,.11,.9,.07,.19,.22,.31,.44,.38,.22,.07,.57,.1,1.05,.1,.04,0,.06,.04,.06,.12s-.02,.12-.06,.12c-.41,0-.74,0-.98-.02l-1.44-.02-1.4,.02c-.24,.01-.58,.02-1.02,.02-.03,0-.04-.04-.04-.12s.01-.12,.04-.12c.48,0,.83-.03,1.06-.1,.23-.07,.38-.2,.46-.39,.08-.19,.12-.49,.12-.89v-4.58l1.6-.18Zm2.46-5.08c0-.53-.37-.8-1.1-.8-.03,0-.04-.04-.04-.12s.01-.12,.04-.12l.98,.02c.53,.03,1.02,.04,1.46,.04,.23,0,.5-.01,.82-.04l.74-.02s.04,.04,.04,.12-.01,.12-.04,.12c-.47,0-.96,.2-1.48,.6-.52,.4-.99,.93-1.4,1.6l-2.96,4.68-.38-.32,2.84-4.46c.32-.52,.48-.95,.48-1.3Z" fill="#231815"/>
        </g>
      </g>
      <g>
        <path d="M85.32,34.83c-3.83,0-6.96,3.13-6.96,6.96s3.13,6.96,6.96,6.96,6.96-3.13,6.96-6.96-3.13-6.96-6.96-6.96h0Zm0,10.45c-1.92,0-3.48-1.57-3.48-3.48s1.57-3.48,3.48-3.48,3.48,1.57,3.48,3.48-1.57,3.48-3.48,3.48Z" fill="#595757"/>
        <path d="M141.05,34.83c-3.83,0-6.96,3.13-6.96,6.96s3.13,6.96,6.96,6.96,6.96-3.13,6.96-6.96-3.13-6.96-6.96-6.96h0Zm0,10.45c-1.92,0-3.48-1.57-3.48-3.48s1.57-3.48,3.48-3.48,3.48,1.57,3.48,3.48-1.57,3.48-3.48,3.48Z" fill="#595757"/>
        <path d="M148.19,20.9l-2.96-13.93c-1.22-4.53-4.7-6.96-9.4-6.96h-45.28c-4.88,0-7.66,2.44-9.05,6.96l-3.13,13.93h-12.19v3.48h11.32v.17c-5.4,.35-9.58,4.88-9.58,10.45v24.21h5.22v5.22c0,4.88,3.83,8.71,8.71,8.71s8.71-3.83,8.71-8.71v-5.22h45.28v5.22c0,4.88,3.83,8.71,8.71,8.71s8.71-3.83,8.71-8.71v-5.22h5.22v-24.21c0-5.4-4.18-9.93-9.4-10.45v-.17h11.14v-3.48h-12.02Zm-63.39-12.89c1.04-3.13,2.61-4.53,5.75-4.53h45.28c3.31,0,5.22,1.39,6.1,4.35l3.48,16.72H80.97l3.83-16.55h0Zm2.26,56.43c0,2.96-2.26,5.22-5.22,5.22s-5.22-2.26-5.22-5.22v-5.22h10.45v5.22h0Zm62.69,0c0,2.96-2.26,5.22-5.22,5.22s-5.22-2.26-5.22-5.22v-5.22h10.45v5.22Zm5.22-29.43v20.72H71.39v-20.72c0-3.83,3.13-6.96,6.96-6.96h69.66c3.83,0,6.96,3.13,6.96,6.96h0Z" fill="#595757"/>
      </g>
    </g>
  </g>
</svg>