<?xml version="1.0" encoding="UTF-8"?>
<svg id="_圖層_2" data-name="圖層 2" xmlns="http://www.w3.org/2000/svg" viewBox="0 0 197.9 240.27">
  <g id="_圖層_1-2" data-name="圖層 1">
    <g>
      <g>
        <path d="M0,196.9c6.11-5.8,8.99-15.66,9.53-25.92l5.18,.97c-.11,.43-.4,.65-1.44,.65-1.37,10.22-4.86,19.01-12.84,24.66l-.43-.36Zm24.46-29.12c-.54,.61-1.65,.97-3.2,1.08,1.33,10.58,4.46,20.09,12.55,24.84l-.18,.43c-1.55,.47-2.84,1.84-3.34,3.2-7.01-6.05-9.1-15.66-10.03-29.19h-4.53l-.32-1.01h3.81l1.47-2.2,3.78,2.84Z" fill="#231815"/>
        <path d="M50.53,169.8s1.69,1.62,2.66,2.77c-.11,.4-.43,.58-.94,.58h-3.81v6.08c1.22-.4,2.52-.9,3.78-1.4l.18,.43c-1.04,.76-2.34,1.73-3.96,2.88v11.88c0,2.45-.4,3.85-3.96,4.18-.04-1.01-.22-1.84-.58-2.41-.43-.54-1.04-.86-2.3-1.12v-.54s2.52,.18,3.09,.18c.54,0,.68-.18,.68-.61v-9.39c-.65,.43-1.33,.9-2.05,1.37-.07,.43-.36,.83-.72,1.01l-1.47-3.85c.86-.25,2.37-.79,4.24-1.44v-7.23h-3.78l-.29-1.04h4.06v-8.24l4.39,.47c-.07,.5-.43,.86-1.33,.97v6.8h.58l1.51-2.3Zm21.15-4.1s2.05,1.58,3.31,2.74c-.11,.4-.47,.58-.97,.58h-17.8v9.47c0,6.23-.36,13.89-6.11,19.15l-.5-.36c3.31-5.36,3.6-12.2,3.6-18.75v-11.91l3.52,1.37h13.2l1.76-2.27Zm-17.95,30.96c3.09-1.26,6.37-3.67,7.88-5.47l3.7,2.34c-.22,.36-.83,.43-1.76,.25-2.23,1.37-5.93,2.77-9.6,3.38l-.22-.5Zm18.27-20.27s1.73,1.37,2.77,2.38c-.11,.4-.4,.58-.9,.58h-17.19l-.29-1.01h14.13l1.47-1.94Zm-8.27-6.3c-.07,.43-.36,.72-1.15,.83v1.58h3.96v-2.84l3.81,.4c-.07,.43-.32,.76-1.12,.86v1.58h.86l1.44-1.87s1.73,1.3,2.77,2.34c-.07,.4-.43,.58-.93,.58h-4.14v3.28c0,.22-1.19,.61-2.12,.61h-.58v-.76h-3.96v.32c0,.22-1.15,.65-2.09,.65h-.61v-4.1h-2.59l-.29-1.04h2.88v-2.81l3.85,.4Zm5.83,21.31v-.76h-9.17v.61c0,.25-1.19,.9-2.34,.9h-.43v-12.27l2.95,1.3h8.67l1.44-1.58,3.09,2.38c-.22,.25-.72,.54-1.33,.65v7.99c-.04,.22-1.47,.79-2.41,.79h-.47Zm-9.17-9.18v2.92h3.27v-2.92h-3.27Zm0,7.38h3.27v-3.42h-3.27v3.42Zm1.51-26.06c7.45,.54,4.71,5.94,1.83,4-.25-1.33-1.29-2.88-2.16-3.78l.32-.22Zm.68,10.01v2.09h3.96v-2.09h-3.96Zm3.52,18.21c13.09,1.3,7.84,7.2,5.32,4.61-.9-1.33-2.7-2.92-5.54-4.07l.22-.54Zm.22-9.54v2.92h3.24v-2.92h-3.24Zm3.24,7.38v-3.42h-3.24v3.42h3.24Z" fill="#231815"/>
        <path d="M112.06,192.22s2.55,1.91,4.06,3.28c-.11,.4-.5,.58-1.01,.58h-32.12l-.32-1.04h14.82v-4.1h-11.69l-.32-1.04h12.01v-3.71h-6.73v.72c0,.32-1.51,1.12-2.91,1.12h-.5v-13.93l3.67,1.55h6.47v-3.35h-13.88l-.29-1.04h14.17v-3.1c-3.92,.29-8.02,.43-11.87,.43l-.07-.65c7.98-.72,17.98-2.48,23.27-4.1l3.09,3.17c-.36,.32-1.12,.32-2.12-.14-2.52,.4-5.54,.76-8.81,1.04v3.35h8.67l2.09-2.52s2.37,1.73,3.81,2.99c-.11,.4-.5,.58-.97,.58h-13.59v3.35h6.51l1.69-1.87,3.63,2.74c-.25,.29-.76,.58-1.51,.72v9.32c-.04,.22-1.73,.94-2.88,.94h-.58v-1.3h-6.87v3.71h7.16l1.94-2.41s2.3,1.66,3.7,2.88c-.11,.4-.47,.58-.97,.58h-11.83v4.1h8.85l2.23-2.81Zm-21.29-15.59v3.67h6.73v-3.67h-6.73Zm6.73,8.5v-3.78h-6.73v3.78h6.73Zm3.49-8.5v3.67h6.87v-3.67h-6.87Zm6.87,8.5v-3.78h-6.87v3.78h6.87Z" fill="#231815"/>
        <path d="M143.92,168.25s1.55,1.33,2.45,2.3c-.07,.4-.43,.58-.86,.58h-3.38v3.31c0,.14-.43,.4-1.01,.61,.18,.14,1.83,1.33,2.88,2.34-.11,.4-.43,.58-.94,.58h-7.7v2.27h4.6l1.69-2.09s1.94,1.48,3.13,2.56c-.11,.4-.47,.58-.93,.58h-19.57l-.29-1.04h8.31v-2.27h-7.01l-.29-1.04h7.3v-2.27h-6.33l-.32-1.04h6.65v-2.48h-8.06l-.29-1.04h8.34v-2.48h-6.11l-.32-1.04h6.44v-2.59l4.21,.4c-.11,.47-.4,.79-1.15,.94v1.26h3.52l1.44-1.51,3.09,2.3c-.22,.25-.68,.5-1.29,.61v2.12h.47l1.33-1.84Zm-19.89,25.16c3.63-.04,11.94-.43,20.75-.94l.04,.58c-4.06,1.01-9.75,2.12-18.09,3.6-.22,.4-.61,.65-1.01,.72l-1.69-3.96Zm15.18-1.51v-.86h-10.21v.47c0,.18-.94,.86-2.48,.86h-.47v-10.65l3.42,1.37h9.39l1.51-1.62,3.2,2.45c-.22,.25-.72,.54-1.37,.68v6.48c-.04,.25-1.51,.83-2.48,.83h-.5Zm-10.21-7.77v2.38h3.56v-2.38h-3.56Zm0,5.87h3.56v-2.48h-3.56v2.48Zm6.37-19.91h3.85v-2.48h-3.85v2.48Zm3.85,1.04h-3.85v2.48h3.85v-2.48Zm1.91,3.96c-.47,.14-1.01,.29-1.44,.29h-.47v-.72h-3.85v2.27h4.24l1.51-1.84Zm-5.68,9.04v2.38h3.78v-2.38h-3.78Zm3.78,5.87v-2.48h-3.78v2.48h3.78Zm10.32-1.62c0,.32-1.33,.97-2.45,.97h-.61v-22.21l4.32,.43c-.11,.5-.4,.83-1.26,.97v19.83Zm7.66-23.36c-.07,.5-.43,.86-1.29,.97v27.14c0,2.41-.5,3.82-4.53,4.21-.11-1.01-.32-1.8-.83-2.3-.58-.54-1.44-.94-3.17-1.19v-.54s3.78,.29,4.53,.29c.65,0,.83-.22,.83-.72v-28.33l4.46,.47Z" fill="#231815"/>
        <path d="M195.82,192.87c1.65,.29,2.09,.76,2.09,1.37,0,1.73-2.27,2.02-14.24,2.02h-8.34c-5.54,0-7.73-.65-7.73-4.36v-24.51h-1.37l-.29-1.04h25.64l1.98-2.48s2.16,1.73,3.52,2.95c-.11,.4-.47,.58-.97,.58h-25.39v24.12c0,1.58,.83,2.12,4.24,2.12h8.99c3.52,0,6.54-.07,7.66-.14,.72-.04,1.37-.14,1.87-.22,.43-.04,1.08-.22,1.73-.47h.43l.18,.07Zm-15.9-1.26v-1.73h-3.96v1.55c0,.25-1.26,.9-2.45,.9h-.43v-11.95l3.02,1.26h3.49l1.44-1.48,2.95,2.27c-.18,.22-.61,.5-1.19,.58v7.78c-.04,.25-1.44,.83-2.41,.83h-.47Zm0-2.77v-6.16h-3.96v6.16h3.96Zm8.34-11.05h-8.27v1.08c0,.29-1.44,.97-2.77,.97h-.47v-10.83l3.42,1.4h7.73l1.62-1.73,3.34,2.56c-.22,.25-.68,.54-1.33,.68v6.52c-.04,.25-1.69,.9-2.73,.9h-.54v-1.55Zm0-1.04v-5.29h-8.27v5.29h8.27Zm3.81,14.72v-1.58h-4.06v1.04c0,.29-1.29,.86-2.45,.86h-.43v-11.41l3.06,1.26h3.56l1.44-1.55,3.09,2.38c-.18,.22-.68,.5-1.26,.61v7.56c-.04,.22-1.51,.83-2.48,.83h-.47Zm0-2.63v-6.16h-4.06v6.16h4.06Z" fill="#231815"/>
      </g>
      <g>
        <g>
          <path d="M22.92,228.08c.6,.47,.9,1.1,.9,1.9,0,.72-.21,1.38-.63,1.97-.42,.59-.98,1.06-1.67,1.4-.69,.34-1.43,.51-2.22,.51-.28,0-.61-.01-.98-.04v4.5c0,.4,.04,.7,.12,.89,.08,.19,.23,.32,.45,.39,.22,.07,.57,.1,1.05,.1,.04,0,.06,.04,.06,.12s-.02,.12-.06,.12c-.41,0-.74,0-.98-.02l-1.44-.02-1.4,.02c-.25,.01-.59,.02-1.02,.02-.04,0-.06-.04-.06-.12s.02-.12,.06-.12c.48,0,.83-.03,1.06-.1,.23-.07,.38-.2,.46-.39s.12-.49,.12-.89v-9.26c0-.4-.04-.69-.12-.88-.08-.19-.23-.32-.45-.39-.22-.07-.57-.11-1.05-.11-.03,0-.04-.04-.04-.12s.01-.12,.04-.12l1,.02c.59,.03,1.05,.04,1.4,.04,.28,0,.55,0,.8-.02s.47-.03,.66-.04c.51-.04,.97-.06,1.38-.06,1.1,0,1.96,.23,2.56,.7Zm-1.36,.29c-.41-.43-1.02-.65-1.82-.65-.52,0-.89,.1-1.1,.29-.21,.19-.32,.56-.32,1.09v4.22c.39,.04,.78,.06,1.18,.06,.96,0,1.64-.22,2.06-.67,.41-.45,.62-1.14,.62-2.09,0-1.07-.21-1.82-.62-2.25Zm1.77,9.89c-.9-1.12-1.99-2.69-3.27-4.7l1.34-.42c1.13,1.67,2.08,2.97,2.86,3.9,.77,.93,1.46,1.61,2.05,2.03,.59,.42,1.17,.63,1.73,.63,.04,0,.06,.04,.06,.12s-.02,.12-.06,.12h-2.86c-.33,0-.95-.56-1.85-1.68Z" fill="#fff"/>
          <path d="M30.65,239.82c0-.08,.02-.12,.06-.12,.48,0,.83-.03,1.05-.1,.22-.07,.37-.2,.45-.39,.08-.19,.12-.49,.12-.89v-9.26c0-.4-.04-.69-.12-.88-.08-.19-.23-.32-.45-.39s-.57-.11-1.05-.11c-.04,0-.06-.04-.06-.12s.02-.12,.06-.12h8.15c.13,0,.2,.06,.2,.18l.04,2.52s-.04,.06-.11,.07-.12,0-.13-.05c-.09-.73-.35-1.29-.78-1.68-.43-.39-.99-.58-1.68-.58h-1.02c-.59,0-.98,.09-1.18,.26-.2,.17-.3,.5-.3,.98v9.1c0,.48,.09,.81,.27,.98,.18,.17,.54,.26,1.09,.26h1.32c.75,0,1.37-.22,1.87-.67,.5-.45,.84-1.08,1.03-1.91,0-.03,.03-.04,.08-.04,.04,0,.08,.01,.11,.03,.03,.02,.05,.04,.05,.05-.13,.96-.2,1.86-.2,2.7,0,.11-.02,.18-.06,.23s-.12,.07-.24,.07h-8.51s-.06-.04-.06-.12Zm6.96-5.75c-.33-.27-.84-.41-1.55-.41h-2.92v-.46h2.96c.68,0,1.18-.12,1.5-.35,.32-.23,.48-.6,.48-1.09,0-.03,.04-.04,.11-.04s.11,.01,.11,.04l-.02,1.68,.02,.9c.03,.43,.04,.76,.04,1,0,.03-.04,.04-.12,.04s-.12-.01-.12-.04c0-.57-.16-1-.49-1.27Z" fill="#fff"/>
          <path d="M51.49,227.82s-.05-.04-.16-.04c-2.09,0-3.56,.04-4.42,.13s-1.48,.28-1.87,.59-.74,.85-1.05,1.62c-.01,.01-.04,.02-.08,.02-.12,0-.17-.03-.16-.08l.8-3.22s.03-.02,.08-.02c.13,0,.19,.02,.16,.06-.01,.04-.02,.09-.02,.16,0,.16,.08,.27,.23,.32s.46,.08,.93,.08h7.29c.05,0,.1,.03,.13,.09,.03,.06,.04,.12,0,.17l-7.53,11.7-.06,.12s.05,.04,.16,.04h4.76c.84,0,1.52-.21,2.04-.63s.85-1.02,1-1.79c.01-.04,.05-.06,.12-.06s.1,.02,.1,.06l-.28,2.64s-.02,.08-.05,.13c-.03,.05-.08,.07-.13,.07-1.99-.03-5.17-.04-9.57-.04-.05,0-.09-.03-.12-.09-.03-.06-.02-.12,.02-.17l7.61-11.74,.06-.12Z" fill="#fff"/>
          <path d="M60.63,239.31c-.97-.58-1.71-1.37-2.24-2.36-.53-.99-.79-2.08-.79-3.25,0-1.37,.35-2.55,1.04-3.53,.69-.98,1.58-1.72,2.67-2.21,1.08-.49,2.19-.74,3.33-.74,1.27,0,2.38,.3,3.34,.89s1.69,1.38,2.21,2.35c.51,.97,.77,2.01,.77,3.1,0,1.21-.32,2.33-.96,3.34s-1.5,1.81-2.57,2.4c-1.07,.59-2.23,.88-3.49,.88s-2.34-.29-3.31-.87Zm6.3-.23c.68-.44,1.21-1.08,1.61-1.93,.39-.85,.59-1.86,.59-3.03,0-1.24-.22-2.35-.65-3.32-.43-.97-1.05-1.73-1.86-2.28-.81-.55-1.74-.82-2.81-.82-1.38,0-2.46,.47-3.24,1.41s-1.16,2.24-1.16,3.89c0,1.27,.22,2.41,.66,3.44,.44,1.03,1.05,1.83,1.85,2.42,.79,.59,1.69,.88,2.71,.88,.85,0,1.62-.22,2.3-.66Z" fill="#fff"/>
          <path d="M86.38,240.26c-.06,.01-.1,0-.13-.02l-9.41-11.16c-.44-.52-.83-.88-1.18-1.09-.35-.21-.69-.31-1.04-.31-.03,0-.04-.04-.04-.12s.01-.12,.04-.12l.78,.02c.16,.01,.39,.02,.68,.02l1.02-.02c.13-.01,.29-.02,.46-.02,.11,0,.19,.03,.24,.08,.05,.05,.13,.16,.24,.32l.48,.64,7.79,9.4,.16,2.32s-.03,.05-.09,.06Zm-10.02-12.36l.52,.04v9.72c0,.69,.13,1.21,.39,1.54,.26,.33,.66,.5,1.19,.5,.03,0,.04,.04,.04,.12s-.01,.12-.04,.12c-.35,0-.61,0-.8-.02l-1.02-.02-1.08,.02c-.2,.01-.49,.02-.88,.02-.03,0-.04-.04-.04-.12s.01-.12,.04-.12c.57,0,1-.17,1.27-.5,.27-.33,.41-.85,.41-1.54v-9.76Zm10.11,12.3l-.5-.62v-9.84c0-.69-.13-1.21-.38-1.55s-.65-.51-1.18-.51c-.03,0-.04-.04-.04-.12s.01-.12,.04-.12l.8,.02c.4,.03,.74,.04,1.02,.04,.24,0,.59-.01,1.04-.04l.84-.02s.04,.04,.04,.12-.01,.12-.04,.12c-1.09,0-1.64,.69-1.64,2.06v10.46Z" fill="#fff"/>
          <path d="M91.31,239.82c0-.08,.02-.12,.06-.12,.48,0,.83-.03,1.05-.1,.22-.07,.37-.2,.45-.39s.12-.49,.12-.89v-9.26c0-.4-.04-.69-.12-.88-.08-.19-.23-.32-.45-.39-.22-.07-.57-.11-1.05-.11-.04,0-.06-.04-.06-.12s.02-.12,.06-.12h8.15c.13,0,.2,.06,.2,.18l.04,2.52s-.04,.06-.11,.07c-.07,0-.12,0-.13-.05-.09-.73-.35-1.29-.78-1.68-.43-.39-.99-.58-1.68-.58h-1.02c-.59,0-.98,.09-1.18,.26-.2,.17-.3,.5-.3,.98v9.1c0,.48,.09,.81,.27,.98,.18,.17,.54,.26,1.09,.26h1.32c.75,0,1.37-.22,1.87-.67,.5-.45,.84-1.08,1.03-1.91,0-.03,.03-.04,.08-.04,.04,0,.08,.01,.11,.03,.03,.02,.05,.04,.05,.05-.13,.96-.2,1.86-.2,2.7,0,.11-.02,.18-.06,.23s-.12,.07-.24,.07h-8.51s-.06-.04-.06-.12Zm6.96-5.75c-.33-.27-.84-.41-1.55-.41h-2.92v-.46h2.96c.68,0,1.18-.12,1.5-.35,.32-.23,.48-.6,.48-1.09,0-.03,.04-.04,.11-.04s.11,.01,.11,.04l-.02,1.68,.02,.9c.03,.43,.04,.76,.04,1,0,.03-.04,.04-.12,.04s-.12-.01-.12-.04c0-.57-.16-1-.49-1.27Z" fill="#fff"/>
          <path d="M108.13,239.96c-.2-.01-.44-.03-.73-.04-.29-.01-.61-.02-.97-.02l-1.4,.02c-.25,.01-.6,.02-1.04,.02-.03,0-.04-.04-.04-.12s.01-.12,.04-.12c.48,0,.83-.03,1.06-.1,.23-.07,.38-.2,.47-.39s.13-.49,.13-.89v-9.26c0-.4-.04-.69-.12-.88-.08-.19-.23-.32-.45-.39s-.57-.11-1.05-.11c-.04,0-.06-.04-.06-.12s.02-.12,.06-.12l1,.02c.59,.03,1.05,.04,1.4,.04,.49,0,1-.02,1.52-.06,.64-.03,1.07-.04,1.3-.04,1.37,0,2.59,.27,3.66,.8s1.89,1.26,2.48,2.18,.88,1.95,.88,3.1c0,1.29-.3,2.44-.91,3.43-.61,.99-1.43,1.76-2.46,2.3s-2.15,.81-3.37,.81c-.41,0-.88-.02-1.4-.06Zm3.86-.97c.77-.45,1.38-1.1,1.81-1.96,.43-.86,.65-1.9,.65-3.11s-.21-2.21-.62-3.15c-.41-.94-1-1.68-1.75-2.22-.75-.54-1.63-.81-2.63-.81-.57,0-1.01,.03-1.32,.1-.31,.07-.53,.2-.68,.39-.15,.19-.22,.48-.22,.87v9c0,.39,.06,.69,.17,.91,.11,.22,.32,.38,.62,.49,.3,.11,.74,.16,1.31,.16,1,0,1.88-.22,2.66-.67Z" fill="#fff"/>
          <path d="M140.08,239.82c0,.08-.03,.12-.1,.12-.25,0-.65-.01-1.18-.04-.56-.03-.96-.04-1.2-.04-.31,0-.69,.01-1.14,.04-.45,.03-.79,.04-1.02,.04-.05,0-.08-.04-.08-.12s.03-.12,.08-.12c.45,0,.78-.04,.98-.13,.2-.09,.3-.24,.3-.47s-.1-.54-.3-.94l-4.3-8.94,.64-.96-3.9,9.04c-.19,.45-.28,.83-.28,1.12,0,.43,.17,.75,.5,.96,.33,.21,.81,.32,1.44,.32,.07,0,.1,.04,.1,.12s-.03,.12-.1,.12c-.24,0-.59-.01-1.04-.04-.51-.03-.95-.04-1.32-.04-.35,0-.76,.01-1.24,.04-.43,.03-.77,.04-1.04,.04-.05,0-.08-.04-.08-.12s.03-.12,.08-.12c.37,0,.69-.07,.95-.22,.26-.15,.51-.4,.75-.76,.24-.36,.51-.89,.82-1.6l4.26-9.82s.06-.06,.14-.07c.08,0,.13,.02,.14,.07l4.79,9.9c.47,.97,.86,1.63,1.17,1.98,.31,.35,.67,.52,1.07,.52,.07,0,.1,.04,.1,.12Zm-10.19-5.54h5.43l.14,.44h-5.81l.24-.44Z" fill="#fff"/>
          <path d="M150.68,228.08c.6,.47,.9,1.1,.9,1.9,0,.72-.21,1.38-.63,1.97-.42,.59-.98,1.06-1.67,1.4-.69,.34-1.43,.51-2.22,.51-.28,0-.61-.01-.98-.04v4.5c0,.4,.04,.7,.12,.89,.08,.19,.23,.32,.45,.39,.22,.07,.57,.1,1.05,.1,.04,0,.06,.04,.06,.12s-.02,.12-.06,.12c-.41,0-.74,0-.98-.02l-1.44-.02-1.4,.02c-.25,.01-.59,.02-1.02,.02-.04,0-.06-.04-.06-.12s.02-.12,.06-.12c.48,0,.83-.03,1.06-.1,.23-.07,.38-.2,.46-.39s.12-.49,.12-.89v-9.26c0-.4-.04-.69-.12-.88-.08-.19-.23-.32-.45-.39-.22-.07-.57-.11-1.05-.11-.03,0-.04-.04-.04-.12s.01-.12,.04-.12l1,.02c.59,.03,1.05,.04,1.4,.04,.28,0,.55,0,.8-.02s.47-.03,.66-.04c.51-.04,.97-.06,1.38-.06,1.1,0,1.96,.23,2.56,.7Zm-1.36,.29c-.41-.43-1.02-.65-1.82-.65-.52,0-.89,.1-1.1,.29-.21,.19-.32,.56-.32,1.09v4.22c.39,.04,.78,.06,1.18,.06,.96,0,1.64-.22,2.06-.67,.41-.45,.62-1.14,.62-2.09,0-1.07-.21-1.82-.62-2.25Zm1.77,9.89c-.9-1.12-1.99-2.69-3.27-4.7l1.34-.42c1.13,1.67,2.08,2.97,2.86,3.9,.77,.93,1.46,1.61,2.05,2.03,.59,.42,1.17,.63,1.73,.63,.04,0,.06,.04,.06,.12s-.02,.12-.06,.12h-2.86c-.33,0-.95-.56-1.85-1.68Z" fill="#fff"/>
          <path d="M158.42,239.82c0-.08,.02-.12,.06-.12,.48,0,.83-.03,1.05-.1,.22-.07,.37-.2,.45-.39,.08-.19,.12-.49,.12-.89v-9.26c0-.4-.04-.69-.12-.88-.08-.19-.23-.32-.45-.39s-.57-.11-1.05-.11c-.04,0-.06-.04-.06-.12s.02-.12,.06-.12h8.15c.13,0,.2,.06,.2,.18l.04,2.52s-.04,.06-.11,.07-.12,0-.13-.05c-.09-.73-.35-1.29-.78-1.68-.43-.39-.99-.58-1.68-.58h-1.02c-.59,0-.98,.09-1.18,.26-.2,.17-.3,.5-.3,.98v9.1c0,.48,.09,.81,.27,.98,.18,.17,.54,.26,1.09,.26h1.32c.75,0,1.37-.22,1.87-.67,.5-.45,.84-1.08,1.03-1.91,0-.03,.03-.04,.08-.04,.04,0,.08,.01,.11,.03,.03,.02,.05,.04,.05,.05-.13,.96-.2,1.86-.2,2.7,0,.11-.02,.18-.06,.23s-.12,.07-.24,.07h-8.51s-.06-.04-.06-.12Zm6.96-5.75c-.33-.27-.84-.41-1.55-.41h-2.92v-.46h2.96c.68,0,1.18-.12,1.5-.35,.32-.23,.48-.6,.48-1.09,0-.03,.04-.04,.11-.04s.11,.01,.11,.04l-.02,1.68,.02,.9c.03,.43,.04,.76,.04,1,0,.03-.04,.04-.12,.04s-.12-.01-.12-.04c0-.57-.16-1-.49-1.27Z" fill="#fff"/>
          <path d="M184.61,239.82c0,.08-.03,.12-.1,.12-.25,0-.65-.01-1.18-.04-.56-.03-.96-.04-1.2-.04-.31,0-.69,.01-1.14,.04-.45,.03-.79,.04-1.02,.04-.05,0-.08-.04-.08-.12s.03-.12,.08-.12c.45,0,.78-.04,.98-.13,.2-.09,.3-.24,.3-.47s-.1-.54-.3-.94l-4.3-8.94,.64-.96-3.9,9.04c-.19,.45-.28,.83-.28,1.12,0,.43,.17,.75,.5,.96,.33,.21,.81,.32,1.44,.32,.07,0,.1,.04,.1,.12s-.03,.12-.1,.12c-.24,0-.59-.01-1.04-.04-.51-.03-.95-.04-1.32-.04-.35,0-.76,.01-1.24,.04-.43,.03-.77,.04-1.04,.04-.05,0-.08-.04-.08-.12s.03-.12,.08-.12c.37,0,.69-.07,.95-.22,.26-.15,.51-.4,.75-.76,.24-.36,.51-.89,.82-1.6l4.26-9.82s.06-.06,.14-.07c.08,0,.13,.02,.14,.07l4.79,9.9c.47,.97,.86,1.63,1.17,1.98,.31,.35,.67,.52,1.07,.52,.07,0,.1,.04,.1,.12Zm-10.19-5.54h5.43l.14,.44h-5.81l.24-.44Z" fill="#fff"/>
        </g>
        <g>
          <path d="M22.92,228.08c.6,.47,.9,1.1,.9,1.9,0,.72-.21,1.38-.63,1.97-.42,.59-.98,1.06-1.67,1.4-.69,.34-1.43,.51-2.22,.51-.28,0-.61-.01-.98-.04v4.5c0,.4,.04,.7,.12,.89,.08,.19,.23,.32,.45,.39,.22,.07,.57,.1,1.05,.1,.04,0,.06,.04,.06,.12s-.02,.12-.06,.12c-.41,0-.74,0-.98-.02l-1.44-.02-1.4,.02c-.25,.01-.59,.02-1.02,.02-.04,0-.06-.04-.06-.12s.02-.12,.06-.12c.48,0,.83-.03,1.06-.1,.23-.07,.38-.2,.46-.39s.12-.49,.12-.89v-9.26c0-.4-.04-.69-.12-.88-.08-.19-.23-.32-.45-.39-.22-.07-.57-.11-1.05-.11-.03,0-.04-.04-.04-.12s.01-.12,.04-.12l1,.02c.59,.03,1.05,.04,1.4,.04,.28,0,.55,0,.8-.02s.47-.03,.66-.04c.51-.04,.97-.06,1.38-.06,1.1,0,1.96,.23,2.56,.7Zm-1.36,.29c-.41-.43-1.02-.65-1.82-.65-.52,0-.89,.1-1.1,.29-.21,.19-.32,.56-.32,1.09v4.22c.39,.04,.78,.06,1.18,.06,.96,0,1.64-.22,2.06-.67,.41-.45,.62-1.14,.62-2.09,0-1.07-.21-1.82-.62-2.25Zm1.77,9.89c-.9-1.12-1.99-2.69-3.27-4.7l1.34-.42c1.13,1.67,2.08,2.97,2.86,3.9,.77,.93,1.46,1.61,2.05,2.03,.59,.42,1.17,.63,1.73,.63,.04,0,.06,.04,.06,.12s-.02,.12-.06,.12h-2.86c-.33,0-.95-.56-1.85-1.68Z" fill="#231815"/>
          <path d="M30.65,239.82c0-.08,.02-.12,.06-.12,.48,0,.83-.03,1.05-.1,.22-.07,.37-.2,.45-.39,.08-.19,.12-.49,.12-.89v-9.26c0-.4-.04-.69-.12-.88-.08-.19-.23-.32-.45-.39s-.57-.11-1.05-.11c-.04,0-.06-.04-.06-.12s.02-.12,.06-.12h8.15c.13,0,.2,.06,.2,.18l.04,2.52s-.04,.06-.11,.07-.12,0-.13-.05c-.09-.73-.35-1.29-.78-1.68-.43-.39-.99-.58-1.68-.58h-1.02c-.59,0-.98,.09-1.18,.26-.2,.17-.3,.5-.3,.98v9.1c0,.48,.09,.81,.27,.98,.18,.17,.54,.26,1.09,.26h1.32c.75,0,1.37-.22,1.87-.67,.5-.45,.84-1.08,1.03-1.91,0-.03,.03-.04,.08-.04,.04,0,.08,.01,.11,.03,.03,.02,.05,.04,.05,.05-.13,.96-.2,1.86-.2,2.7,0,.11-.02,.18-.06,.23s-.12,.07-.24,.07h-8.51s-.06-.04-.06-.12Zm6.96-5.75c-.33-.27-.84-.41-1.55-.41h-2.92v-.46h2.96c.68,0,1.18-.12,1.5-.35,.32-.23,.48-.6,.48-1.09,0-.03,.04-.04,.11-.04s.11,.01,.11,.04l-.02,1.68,.02,.9c.03,.43,.04,.76,.04,1,0,.03-.04,.04-.12,.04s-.12-.01-.12-.04c0-.57-.16-1-.49-1.27Z" fill="#231815"/>
          <path d="M51.49,227.82s-.05-.04-.16-.04c-2.09,0-3.56,.04-4.42,.13s-1.48,.28-1.87,.59-.74,.85-1.05,1.62c-.01,.01-.04,.02-.08,.02-.12,0-.17-.03-.16-.08l.8-3.22s.03-.02,.08-.02c.13,0,.19,.02,.16,.06-.01,.04-.02,.09-.02,.16,0,.16,.08,.27,.23,.32s.46,.08,.93,.08h7.29c.05,0,.1,.03,.13,.09,.03,.06,.04,.12,0,.17l-7.53,11.7-.06,.12s.05,.04,.16,.04h4.76c.84,0,1.52-.21,2.04-.63s.85-1.02,1-1.79c.01-.04,.05-.06,.12-.06s.1,.02,.1,.06l-.28,2.64s-.02,.08-.05,.13c-.03,.05-.08,.07-.13,.07-1.99-.03-5.17-.04-9.57-.04-.05,0-.09-.03-.12-.09-.03-.06-.02-.12,.02-.17l7.61-11.74,.06-.12Z" fill="#231815"/>
          <path d="M60.63,239.31c-.97-.58-1.71-1.37-2.24-2.36-.53-.99-.79-2.08-.79-3.25,0-1.37,.35-2.55,1.04-3.53,.69-.98,1.58-1.72,2.67-2.21,1.08-.49,2.19-.74,3.33-.74,1.27,0,2.38,.3,3.34,.89s1.69,1.38,2.21,2.35c.51,.97,.77,2.01,.77,3.1,0,1.21-.32,2.33-.96,3.34s-1.5,1.81-2.57,2.4c-1.07,.59-2.23,.88-3.49,.88s-2.34-.29-3.31-.87Zm6.3-.23c.68-.44,1.21-1.08,1.61-1.93,.39-.85,.59-1.86,.59-3.03,0-1.24-.22-2.35-.65-3.32-.43-.97-1.05-1.73-1.86-2.28-.81-.55-1.74-.82-2.81-.82-1.38,0-2.46,.47-3.24,1.41s-1.16,2.24-1.16,3.89c0,1.27,.22,2.41,.66,3.44,.44,1.03,1.05,1.83,1.85,2.42,.79,.59,1.69,.88,2.71,.88,.85,0,1.62-.22,2.3-.66Z" fill="#231815"/>
          <path d="M86.38,240.26c-.06,.01-.1,0-.13-.02l-9.41-11.16c-.44-.52-.83-.88-1.18-1.09-.35-.21-.69-.31-1.04-.31-.03,0-.04-.04-.04-.12s.01-.12,.04-.12l.78,.02c.16,.01,.39,.02,.68,.02l1.02-.02c.13-.01,.29-.02,.46-.02,.11,0,.19,.03,.24,.08,.05,.05,.13,.16,.24,.32l.48,.64,7.79,9.4,.16,2.32s-.03,.05-.09,.06Zm-10.02-12.36l.52,.04v9.72c0,.69,.13,1.21,.39,1.54,.26,.33,.66,.5,1.19,.5,.03,0,.04,.04,.04,.12s-.01,.12-.04,.12c-.35,0-.61,0-.8-.02l-1.02-.02-1.08,.02c-.2,.01-.49,.02-.88,.02-.03,0-.04-.04-.04-.12s.01-.12,.04-.12c.57,0,1-.17,1.27-.5,.27-.33,.41-.85,.41-1.54v-9.76Zm10.11,12.3l-.5-.62v-9.84c0-.69-.13-1.21-.38-1.55s-.65-.51-1.18-.51c-.03,0-.04-.04-.04-.12s.01-.12,.04-.12l.8,.02c.4,.03,.74,.04,1.02,.04,.24,0,.59-.01,1.04-.04l.84-.02s.04,.04,.04,.12-.01,.12-.04,.12c-1.09,0-1.64,.69-1.64,2.06v10.46Z" fill="#231815"/>
          <path d="M91.31,239.82c0-.08,.02-.12,.06-.12,.48,0,.83-.03,1.05-.1,.22-.07,.37-.2,.45-.39s.12-.49,.12-.89v-9.26c0-.4-.04-.69-.12-.88-.08-.19-.23-.32-.45-.39-.22-.07-.57-.11-1.05-.11-.04,0-.06-.04-.06-.12s.02-.12,.06-.12h8.15c.13,0,.2,.06,.2,.18l.04,2.52s-.04,.06-.11,.07c-.07,0-.12,0-.13-.05-.09-.73-.35-1.29-.78-1.68-.43-.39-.99-.58-1.68-.58h-1.02c-.59,0-.98,.09-1.18,.26-.2,.17-.3,.5-.3,.98v9.1c0,.48,.09,.81,.27,.98,.18,.17,.54,.26,1.09,.26h1.32c.75,0,1.37-.22,1.87-.67,.5-.45,.84-1.08,1.03-1.91,0-.03,.03-.04,.08-.04,.04,0,.08,.01,.11,.03,.03,.02,.05,.04,.05,.05-.13,.96-.2,1.86-.2,2.7,0,.11-.02,.18-.06,.23s-.12,.07-.24,.07h-8.51s-.06-.04-.06-.12Zm6.96-5.75c-.33-.27-.84-.41-1.55-.41h-2.92v-.46h2.96c.68,0,1.18-.12,1.5-.35,.32-.23,.48-.6,.48-1.09,0-.03,.04-.04,.11-.04s.11,.01,.11,.04l-.02,1.68,.02,.9c.03,.43,.04,.76,.04,1,0,.03-.04,.04-.12,.04s-.12-.01-.12-.04c0-.57-.16-1-.49-1.27Z" fill="#231815"/>
          <path d="M108.13,239.96c-.2-.01-.44-.03-.73-.04-.29-.01-.61-.02-.97-.02l-1.4,.02c-.25,.01-.6,.02-1.04,.02-.03,0-.04-.04-.04-.12s.01-.12,.04-.12c.48,0,.83-.03,1.06-.1,.23-.07,.38-.2,.47-.39s.13-.49,.13-.89v-9.26c0-.4-.04-.69-.12-.88-.08-.19-.23-.32-.45-.39s-.57-.11-1.05-.11c-.04,0-.06-.04-.06-.12s.02-.12,.06-.12l1,.02c.59,.03,1.05,.04,1.4,.04,.49,0,1-.02,1.52-.06,.64-.03,1.07-.04,1.3-.04,1.37,0,2.59,.27,3.66,.8s1.89,1.26,2.48,2.18,.88,1.95,.88,3.1c0,1.29-.3,2.44-.91,3.43-.61,.99-1.43,1.76-2.46,2.3s-2.15,.81-3.37,.81c-.41,0-.88-.02-1.4-.06Zm3.86-.97c.77-.45,1.38-1.1,1.81-1.96,.43-.86,.65-1.9,.65-3.11s-.21-2.21-.62-3.15c-.41-.94-1-1.68-1.75-2.22-.75-.54-1.63-.81-2.63-.81-.57,0-1.01,.03-1.32,.1-.31,.07-.53,.2-.68,.39-.15,.19-.22,.48-.22,.87v9c0,.39,.06,.69,.17,.91,.11,.22,.32,.38,.62,.49,.3,.11,.74,.16,1.31,.16,1,0,1.88-.22,2.66-.67Z" fill="#231815"/>
          <path d="M140.08,239.82c0,.08-.03,.12-.1,.12-.25,0-.65-.01-1.18-.04-.56-.03-.96-.04-1.2-.04-.31,0-.69,.01-1.14,.04-.45,.03-.79,.04-1.02,.04-.05,0-.08-.04-.08-.12s.03-.12,.08-.12c.45,0,.78-.04,.98-.13,.2-.09,.3-.24,.3-.47s-.1-.54-.3-.94l-4.3-8.94,.64-.96-3.9,9.04c-.19,.45-.28,.83-.28,1.12,0,.43,.17,.75,.5,.96,.33,.21,.81,.32,1.44,.32,.07,0,.1,.04,.1,.12s-.03,.12-.1,.12c-.24,0-.59-.01-1.04-.04-.51-.03-.95-.04-1.32-.04-.35,0-.76,.01-1.24,.04-.43,.03-.77,.04-1.04,.04-.05,0-.08-.04-.08-.12s.03-.12,.08-.12c.37,0,.69-.07,.95-.22,.26-.15,.51-.4,.75-.76,.24-.36,.51-.89,.82-1.6l4.26-9.82s.06-.06,.14-.07c.08,0,.13,.02,.14,.07l4.79,9.9c.47,.97,.86,1.63,1.17,1.98,.31,.35,.67,.52,1.07,.52,.07,0,.1,.04,.1,.12Zm-10.19-5.54h5.43l.14,.44h-5.81l.24-.44Z" fill="#231815"/>
          <path d="M150.68,228.08c.6,.47,.9,1.1,.9,1.9,0,.72-.21,1.38-.63,1.97-.42,.59-.98,1.06-1.67,1.4-.69,.34-1.43,.51-2.22,.51-.28,0-.61-.01-.98-.04v4.5c0,.4,.04,.7,.12,.89,.08,.19,.23,.32,.45,.39,.22,.07,.57,.1,1.05,.1,.04,0,.06,.04,.06,.12s-.02,.12-.06,.12c-.41,0-.74,0-.98-.02l-1.44-.02-1.4,.02c-.25,.01-.59,.02-1.02,.02-.04,0-.06-.04-.06-.12s.02-.12,.06-.12c.48,0,.83-.03,1.06-.1,.23-.07,.38-.2,.46-.39s.12-.49,.12-.89v-9.26c0-.4-.04-.69-.12-.88-.08-.19-.23-.32-.45-.39-.22-.07-.57-.11-1.05-.11-.03,0-.04-.04-.04-.12s.01-.12,.04-.12l1,.02c.59,.03,1.05,.04,1.4,.04,.28,0,.55,0,.8-.02s.47-.03,.66-.04c.51-.04,.97-.06,1.38-.06,1.1,0,1.96,.23,2.56,.7Zm-1.36,.29c-.41-.43-1.02-.65-1.82-.65-.52,0-.89,.1-1.1,.29-.21,.19-.32,.56-.32,1.09v4.22c.39,.04,.78,.06,1.18,.06,.96,0,1.64-.22,2.06-.67,.41-.45,.62-1.14,.62-2.09,0-1.07-.21-1.82-.62-2.25Zm1.77,9.89c-.9-1.12-1.99-2.69-3.27-4.7l1.34-.42c1.13,1.67,2.08,2.97,2.86,3.9,.77,.93,1.46,1.61,2.05,2.03,.59,.42,1.17,.63,1.73,.63,.04,0,.06,.04,.06,.12s-.02,.12-.06,.12h-2.86c-.33,0-.95-.56-1.85-1.68Z" fill="#231815"/>
          <path d="M158.42,239.82c0-.08,.02-.12,.06-.12,.48,0,.83-.03,1.05-.1,.22-.07,.37-.2,.45-.39,.08-.19,.12-.49,.12-.89v-9.26c0-.4-.04-.69-.12-.88-.08-.19-.23-.32-.45-.39s-.57-.11-1.05-.11c-.04,0-.06-.04-.06-.12s.02-.12,.06-.12h8.15c.13,0,.2,.06,.2,.18l.04,2.52s-.04,.06-.11,.07-.12,0-.13-.05c-.09-.73-.35-1.29-.78-1.68-.43-.39-.99-.58-1.68-.58h-1.02c-.59,0-.98,.09-1.18,.26-.2,.17-.3,.5-.3,.98v9.1c0,.48,.09,.81,.27,.98,.18,.17,.54,.26,1.09,.26h1.32c.75,0,1.37-.22,1.87-.67,.5-.45,.84-1.08,1.03-1.91,0-.03,.03-.04,.08-.04,.04,0,.08,.01,.11,.03,.03,.02,.05,.04,.05,.05-.13,.96-.2,1.86-.2,2.7,0,.11-.02,.18-.06,.23s-.12,.07-.24,.07h-8.51s-.06-.04-.06-.12Zm6.96-5.75c-.33-.27-.84-.41-1.55-.41h-2.92v-.46h2.96c.68,0,1.18-.12,1.5-.35,.32-.23,.48-.6,.48-1.09,0-.03,.04-.04,.11-.04s.11,.01,.11,.04l-.02,1.68,.02,.9c.03,.43,.04,.76,.04,1,0,.03-.04,.04-.12,.04s-.12-.01-.12-.04c0-.57-.16-1-.49-1.27Z" fill="#231815"/>
          <path d="M184.61,239.82c0,.08-.03,.12-.1,.12-.25,0-.65-.01-1.18-.04-.56-.03-.96-.04-1.2-.04-.31,0-.69,.01-1.14,.04-.45,.03-.79,.04-1.02,.04-.05,0-.08-.04-.08-.12s.03-.12,.08-.12c.45,0,.78-.04,.98-.13,.2-.09,.3-.24,.3-.47s-.1-.54-.3-.94l-4.3-8.94,.64-.96-3.9,9.04c-.19,.45-.28,.83-.28,1.12,0,.43,.17,.75,.5,.96,.33,.21,.81,.32,1.44,.32,.07,0,.1,.04,.1,.12s-.03,.12-.1,.12c-.24,0-.59-.01-1.04-.04-.51-.03-.95-.04-1.32-.04-.35,0-.76,.01-1.24,.04-.43,.03-.77,.04-1.04,.04-.05,0-.08-.04-.08-.12s.03-.12,.08-.12c.37,0,.69-.07,.95-.22,.26-.15,.51-.4,.75-.76,.24-.36,.51-.89,.82-1.6l4.26-9.82s.06-.06,.14-.07c.08,0,.13,.02,.14,.07l4.79,9.9c.47,.97,.86,1.63,1.17,1.98,.31,.35,.67,.52,1.07,.52,.07,0,.1,.04,.1,.12Zm-10.19-5.54h5.43l.14,.44h-5.81l.24-.44Z" fill="#231815"/>
        </g>
      </g>
      <g>
        <path d="M51.94,90.25l31.12,12.43c.2,.08,.41,.12,.62,.12s.42-.04,.62-.12l32.62-13.03,31.48,11.43c.55,.2,1.13,.3,1.7,.3,1.01,0,2.01-.31,2.86-.9,1.33-.93,2.13-2.46,2.13-4.08V27.07c0-2.09-1.32-3.97-3.28-4.68l-19.91-7.23c-.87-.3-1.82,.13-2.13,1-.32,.86,.13,1.81,.99,2.13l19.91,7.23c.65,.24,1.09,.86,1.09,1.56V96.4c0,.55-.26,1.04-.71,1.36-.46,.32-1.01,.39-1.52,.2l-30.98-11.25v-27.08c0-.92-.74-1.66-1.66-1.66s-1.66,.74-1.66,1.66v27.12l-29.89,11.93V62.95c0-.92-.74-1.66-1.66-1.66s-1.66,.74-1.66,1.66v35.74l-28.84-11.52c-.63-.26-1.04-.86-1.04-1.54V16.38c0-.56,.27-1.06,.73-1.37,.46-.31,1.03-.38,1.55-.17l10.76,4.3c.85,.35,1.82-.08,2.16-.93,.34-.85-.07-1.82-.92-2.16l-10.76-4.3c-1.54-.62-3.27-.42-4.65,.5-1.37,.93-2.18,2.47-2.18,4.12V85.63c0,2.05,1.23,3.87,3.13,4.63Z" fill="#595757"/>
        <path d="M97.77,51.2c.52,.76,1.39,1.21,2.32,1.21s1.8-.46,2.32-1.22l8.42-12.1,4.73-7.19c3.36-4.26,4.79-9.59,4.04-15.01-1.22-8.73-8.48-15.78-17.27-16.77-11.93-1.32-22.06,7.96-22.06,19.59,0,4.55,1.48,8.59,4.78,13.08l12.73,18.41Zm2.26-48.92c.67,0,1.35,.04,2.04,.12,7.77,.88,14.2,7.11,15.27,14.82,.67,4.8-.6,9.52-3.63,13.36l-4.77,7.25-8.41,12.08c-.28,.41-.61,.41-.89,0l-12.75-18.43c-3.01-4.1-4.35-7.72-4.35-11.75,0-9.61,7.85-17.43,17.49-17.43Z" fill="#595757"/>
        <path d="M99.92,26.55c3.77,0,6.84-3.07,6.84-6.84s-3.07-6.84-6.84-6.84-6.84,3.07-6.84,6.84,3.07,6.84,6.84,6.84Zm0-11.39c2.51,0,4.56,2.04,4.56,4.56s-2.04,4.56-4.56,4.56-4.56-2.04-4.56-4.56,2.04-4.56,4.56-4.56Z" fill="#595757"/>
      </g>
    </g>
  </g>
</svg>