<?xml version="1.0" encoding="UTF-8"?>
<svg id="_圖層_2" data-name="圖層 2" xmlns="http://www.w3.org/2000/svg" viewBox="0 0 260.8 236.51">
  <g id="_圖層_1-2" data-name="圖層 1">
    <g>
      <g>
        <path d="M75.72,186.64s2.55,1.91,4.06,3.28c-.11,.4-.5,.58-1.01,.58H46.66l-.32-1.04h14.82v-4.1h-11.69l-.32-1.04h12.01v-3.71h-6.72v.72c0,.32-1.51,1.12-2.91,1.12h-.5v-13.93l3.67,1.55h6.47v-3.35h-13.88l-.29-1.04h14.17v-3.1c-3.92,.29-8.02,.43-11.87,.43l-.07-.65c7.98-.72,17.98-2.48,23.27-4.1l3.09,3.17c-.36,.32-1.11,.32-2.12-.14-2.52,.4-5.54,.76-8.81,1.04v3.35h8.67l2.09-2.52s2.38,1.73,3.81,2.99c-.11,.4-.5,.58-.97,.58h-13.59v3.35h6.51l1.69-1.87,3.63,2.74c-.25,.29-.76,.58-1.51,.72v9.32c-.04,.22-1.73,.94-2.88,.94h-.58v-1.3h-6.87v3.71h7.16l1.94-2.41s2.3,1.66,3.71,2.88c-.11,.4-.47,.58-.97,.58h-11.83v4.1h8.85l2.23-2.81Zm-21.29-15.59v3.67h6.72v-3.67h-6.72Zm6.72,8.49v-3.78h-6.72v3.78h6.72Zm3.49-8.49v3.67h6.87v-3.67h-6.87Zm6.87,8.49v-3.78h-6.87v3.78h6.87Z" fill="#231815"/>
        <path d="M105.85,170.12c1.26,6.73,5.29,13.64,15.65,18.03l-.07,.4c-1.8,.32-2.91,1.3-3.31,3.24-9.06-5.26-11.87-14-12.88-21.17-1.04,8.53-4.5,15.91-17.23,21.17l-.4-.58c10.25-5.87,13.2-12.96,14.03-21.09h-13.34l-.32-1.04h13.74c.29-3.38,.25-6.95,.25-10.65l5.11,.5c-.11,.54-.43,.9-1.29,1.04-.07,3.13-.11,6.19-.36,9.11h9.1l2.34-2.95s2.66,2.02,4.24,3.42c-.11,.4-.5,.58-1.01,.58h-14.24Z" fill="#231815"/>
        <path d="M141.67,173.28c-.25,.32-.58,.47-1.37,.54-.5,3.82-1.44,7.45-3.34,10.65,3.88,2.48,9.28,3.02,16.87,3.02,1.98,0,6.37,0,8.67-.04v.47c-1.4,.25-2.05,1.44-2.16,2.81h-6.8c-8.27,0-13.85-.9-17.77-4.54-1.62,2.16-3.81,4.03-6.76,5.51l-.29-.5c2.48-1.84,4.28-4.07,5.54-6.62-1.65-2.12-2.99-5-4.03-8.71l.47-.25c1.12,3.2,2.55,5.54,4.28,7.27,1.19-2.92,1.8-6.16,2.12-9.5h-2.95l-1.19,1.12-2.99-2.05c.32-.25,.83-.5,1.29-.68,1.37-2.41,3.24-6.34,4.24-8.89h-6.19l-.32-1.04h6.47l1.62-1.66,3.2,2.92c-.29,.32-.9,.5-1.65,.58-1.01,2.3-2.88,6.16-4.21,8.67h2.37l1.73-1.76,3.13,2.7Zm18.49-8.78s1.83,1.73,2.88,2.88c-.11,.4-.47,.58-.97,.58h-3.96v5.08c-.04,.25-1.62,.9-2.66,.9h-.5v-1.22h-4.1v3.71h4.1l1.76-2.38s2.12,1.66,3.38,2.84c-.11,.4-.47,.58-.97,.58h-8.27v3.78h5.29l1.98-2.56s2.34,1.73,3.74,3.02c-.11,.4-.5,.58-1.01,.58h-10v3.56c0,.32-1.37,.97-2.59,.97h-.68v-4.54h-7.95l-.29-1.04h8.24v-3.78h-6.19l-.29-1.04h6.47v-3.71h-5.75l-.32-1.04h6.08v-3.71h-8.52l-.29-1.04h8.81v-3.64h-5.97l-.32-1.04h6.29v-3.92l4.6,.47c-.11,.5-.36,.86-1.33,1.01v2.45h3.74l1.58-1.73,3.42,2.63c-.25,.25-.79,.58-1.47,.72v3.06h.47l1.58-2.41Zm-9.31,2.41h4.1v-3.64h-4.1v3.64Zm4.1,1.04h-4.1v3.71h4.1v-3.71Z" fill="#231815"/>
        <path d="M182.88,162.99s1.94,1.51,3.09,2.63c-.07,.4-.43,.58-.9,.58h-14.46l-.29-1.04h10.9l1.65-2.16Zm7.34,.68c0,3.02-.65,7.74-6.51,10.58,.25,.18,.47,.4,.65,.58-.11,.4-.43,.58-.93,.58h-11.26l-.29-1.04h7.95l1.62-2.05s1.15,.94,2.23,1.87l-.29-.36c3.31-3.1,3.74-6.91,3.74-10.15v-4.32l3.63,1.4h3.92l1.65-1.73,3.09,2.59c-.22,.25-.68,.43-1.33,.54v6.59c0,.4,.11,.54,.61,.54h1.15c.43,0,.86,0,1.08-.04h.65c.22-.04,.5-.11,.75-.14h.32l.14,.04c.83,.32,1.12,.61,1.12,1.22,0,1.22-1.08,1.87-4.42,1.87h-1.8c-2.34,0-2.66-.68-2.66-2.63v-7.81h-4.82v1.87Zm-10.39,6.05l1.62-2.02s1.8,1.4,2.91,2.48c-.11,.4-.43,.58-.93,.58h-11.26l-.29-1.04h7.95Zm3.49,19.37c-.04,.25-1.51,.94-2.52,.94h-.5v-1.84h-4.89v2.09c0,.32-1.33,1.01-2.59,1.01h-.43v-13.61l3.17,1.37h4.39l1.55-1.66,3.27,2.52c-.22,.25-.76,.54-1.44,.68v8.5Zm-8.88-30.42c8.38,1.15,5.57,7.34,2.37,5.15-.32-1.69-1.58-3.74-2.7-4.93l.32-.22Zm5.86,28.47v-7.06h-4.89v7.06h4.89Zm21.47-11.23c-.29,.36-.65,.47-1.47,.5-1.29,3.06-3.06,5.79-5.43,8.1,2.7,1.69,5.86,2.81,9.42,3.56l-.04,.4c-1.44,.22-2.45,1.26-2.91,2.88-3.45-1.22-6.29-2.77-8.63-4.97-2.98,2.3-6.8,4.1-11.58,5.29l-.29-.54c4.21-1.58,7.62-3.74,10.32-6.44-1.87-2.3-3.27-5.18-4.17-8.82h-1.91l-.32-1.04h11.8l2.01-1.87,3.2,2.95Zm-14.1-.04c1.12,2.92,2.84,5.26,5.04,7.13,1.73-2.16,3.06-4.57,3.96-7.13h-8.99Z" fill="#231815"/>
      </g>
      <g>
        <g>
          <path d="M1.92,219.61l.5,.04-.2,9.72c-.01,.69,.11,1.21,.38,1.54s.7,.5,1.3,.5c.04,0,.06,.04,.06,.12s-.02,.12-.06,.12c-.36,0-.64,0-.84-.02l-1.1-.02-1.1,.02c-.19,.01-.46,.02-.82,.02-.03,0-.04-.04-.04-.12s.01-.12,.04-.12c1.11,0,1.67-.68,1.68-2.04l.2-9.76Zm13.83,11.92c0,.08-.01,.12-.04,.12-.44,0-.79,0-1.04-.02l-1.4-.02-1.34,.02c-.23,.01-.54,.02-.94,.02-.03,0-.04-.04-.04-.12s.01-.12,.04-.12c.45,0,.79-.04,1-.11s.35-.2,.42-.39c.07-.19,.09-.48,.06-.88l-.4-9.42,.78-1.12-5.17,12.02c-.03,.05-.08,.08-.16,.08s-.13-.03-.16-.08l-5.21-10.7c-.24-.49-.52-.85-.84-1.08-.32-.23-.69-.34-1.12-.34-.03,0-.04-.04-.04-.12s.01-.12,.04-.12l.8,.02c.16,.01,.37,.02,.62,.02,.29,0,.53,0,.72-.02,.19-.01,.33-.02,.44-.02,.17,0,.31,.06,.42,.18,.11,.12,.27,.41,.5,.86l4.54,9.22-.74,1.28,4.82-11.04c.13-.33,.33-.5,.6-.5,.08,0,.19,0,.32,.02,.13,.01,.31,.02,.52,.02l1.02-.02c.16-.01,.39-.02,.7-.02,.03,0,.04,.04,.04,.12s-.01,.12-.04,.12c-.67,0-1.14,.11-1.42,.32-.28,.21-.41,.59-.4,1.12l.42,9.2c.03,.41,.08,.71,.16,.9s.23,.31,.45,.38c.22,.07,.57,.1,1.05,.1,.03,0,.04,.04,.04,.12Z" fill="#fff"/>
          <path d="M32.33,231.53c0,.08-.03,.12-.1,.12-.25,0-.65-.01-1.18-.04-.56-.03-.96-.04-1.2-.04-.31,0-.69,.01-1.14,.04-.45,.03-.79,.04-1.02,.04-.05,0-.08-.04-.08-.12s.03-.12,.08-.12c.45,0,.78-.04,.98-.13,.2-.09,.3-.24,.3-.47s-.1-.54-.3-.94l-4.3-8.94,.64-.96-3.9,9.04c-.19,.45-.28,.83-.28,1.12,0,.43,.17,.75,.5,.96,.33,.21,.81,.32,1.44,.32,.07,0,.1,.04,.1,.12s-.03,.12-.1,.12c-.24,0-.59-.01-1.04-.04-.51-.03-.95-.04-1.32-.04-.35,0-.76,.01-1.24,.04-.43,.03-.77,.04-1.04,.04-.05,0-.08-.04-.08-.12s.03-.12,.08-.12c.37,0,.69-.07,.95-.22,.26-.15,.51-.4,.75-.76,.24-.36,.51-.89,.82-1.6l4.26-9.82s.06-.06,.14-.07c.08,0,.13,.02,.14,.07l4.79,9.9c.47,.97,.86,1.63,1.17,1.98,.31,.35,.67,.52,1.07,.52,.07,0,.1,.04,.1,.12Zm-10.19-5.54h5.43l.14,.44h-5.81l.24-.44Z" fill="#fff"/>
          <path d="M40.02,219.27c0,.08-.02,.12-.06,.12-.4,0-.7,.04-.89,.12s-.32,.22-.39,.41-.1,.49-.1,.89v11.26c0,1.37-.32,2.46-.97,3.25-.65,.79-1.58,1.19-2.79,1.19-.47,0-.84-.09-1.12-.26-.28-.17-.42-.41-.42-.7,0-.21,.07-.4,.2-.55,.13-.15,.33-.23,.58-.23,.27,0,.47,.06,.61,.19,.14,.13,.28,.32,.41,.57,.12,.21,.22,.36,.31,.45,.09,.09,.2,.13,.35,.13,.41,0,.72-.26,.93-.78,.21-.52,.31-1.37,.31-2.54v-12.02c0-.4-.05-.69-.14-.88-.09-.19-.27-.32-.53-.39s-.66-.11-1.21-.11c-.03,0-.04-.04-.04-.12s.01-.12,.04-.12l1.18,.02c.61,.03,1.11,.04,1.48,.04,.35,0,.79-.01,1.32-.04l.88-.02s.06,.04,.06,.12Z" fill="#fff"/>
          <path d="M46.8,231.02c-.97-.58-1.71-1.37-2.24-2.36-.53-.99-.79-2.08-.79-3.25,0-1.37,.35-2.55,1.04-3.53,.69-.98,1.58-1.72,2.67-2.21s2.19-.74,3.33-.74c1.26,0,2.38,.3,3.34,.89,.96,.59,1.7,1.38,2.21,2.35,.51,.97,.77,2.01,.77,3.1,0,1.21-.32,2.33-.96,3.34-.64,1.01-1.5,1.81-2.57,2.4-1.07,.59-2.24,.88-3.49,.88s-2.34-.29-3.31-.87Zm6.3-.23c.68-.44,1.22-1.08,1.61-1.93,.39-.85,.59-1.86,.59-3.03,0-1.24-.22-2.35-.65-3.32-.43-.97-1.05-1.73-1.86-2.28-.81-.55-1.74-.82-2.81-.82-1.39,0-2.46,.47-3.24,1.41-.77,.94-1.16,2.24-1.16,3.89,0,1.27,.22,2.41,.66,3.44,.44,1.03,1.06,1.83,1.85,2.42,.79,.59,1.7,.88,2.71,.88,.85,0,1.62-.22,2.3-.66Z" fill="#fff"/>
          <path d="M68.77,219.79c.6,.47,.9,1.1,.9,1.9,0,.72-.21,1.38-.63,1.97s-.98,1.06-1.67,1.4c-.69,.34-1.43,.51-2.22,.51-.28,0-.61-.01-.98-.04v4.5c0,.4,.04,.7,.12,.89s.23,.32,.45,.39c.22,.07,.57,.1,1.05,.1,.04,0,.06,.04,.06,.12s-.02,.12-.06,.12c-.41,0-.74,0-.98-.02l-1.44-.02-1.4,.02c-.25,.01-.59,.02-1.02,.02-.04,0-.06-.04-.06-.12s.02-.12,.06-.12c.48,0,.83-.03,1.06-.1,.23-.07,.38-.2,.46-.39s.12-.49,.12-.89v-9.26c0-.4-.04-.69-.12-.88s-.23-.32-.45-.39-.57-.11-1.05-.11c-.03,0-.04-.04-.04-.12s.01-.12,.04-.12l1,.02c.59,.03,1.05,.04,1.4,.04,.28,0,.55,0,.8-.02,.25-.01,.47-.03,.66-.04,.51-.04,.97-.06,1.38-.06,1.11,0,1.96,.23,2.56,.7Zm-1.36,.29c-.41-.43-1.02-.65-1.82-.65-.52,0-.89,.1-1.1,.29-.21,.19-.32,.56-.32,1.09v4.22c.39,.04,.78,.06,1.18,.06,.96,0,1.65-.22,2.06-.67,.41-.45,.62-1.14,.62-2.09,0-1.07-.21-1.82-.62-2.25Zm1.77,9.89c-.9-1.12-1.99-2.69-3.27-4.7l1.34-.42c1.13,1.67,2.08,2.97,2.86,3.9,.77,.93,1.46,1.61,2.05,2.03,.59,.42,1.17,.63,1.73,.63,.04,0,.06,.04,.06,.12s-.02,.12-.06,.12h-2.86c-.33,0-.95-.56-1.85-1.68Z" fill="#fff"/>
          <path d="M92.73,219.1c.59,.11,1.15,.3,1.67,.55,.09,.04,.15,.08,.18,.13,.03,.05,.05,.15,.06,.31l.26,2.5s-.04,.07-.11,.08c-.07,.01-.12,0-.13-.06-.68-2.23-2.05-3.34-4.12-3.34-1.05,0-1.98,.25-2.8,.74s-1.44,1.19-1.89,2.1c-.45,.91-.67,1.97-.67,3.18s.24,2.26,.73,3.21,1.15,1.7,1.98,2.24c.83,.54,1.75,.81,2.75,.81s1.89-.26,2.56-.79c.67-.53,1.21-1.34,1.62-2.45,.01-.03,.05-.04,.1-.04,.03,0,.06,0,.09,.03,.03,.02,.05,.04,.05,.05l-.22,2.28c-.01,.16-.03,.26-.06,.3-.03,.04-.09,.09-.2,.14-.67,.31-1.31,.52-1.92,.65-.61,.13-1.29,.19-2.02,.19-1.41,0-2.67-.28-3.78-.83s-1.97-1.32-2.59-2.31c-.62-.99-.93-2.12-.93-3.4s.32-2.37,.95-3.35c.63-.98,1.51-1.74,2.63-2.28,1.12-.54,2.37-.81,3.76-.81,.77,0,1.46,.06,2.05,.17Z" fill="#fff"/>
          <path d="M102.04,231.02c-.97-.58-1.71-1.37-2.24-2.36-.53-.99-.79-2.08-.79-3.25,0-1.37,.35-2.55,1.04-3.53,.69-.98,1.58-1.72,2.67-2.21s2.19-.74,3.33-.74c1.26,0,2.38,.3,3.34,.89,.96,.59,1.7,1.38,2.21,2.35,.51,.97,.77,2.01,.77,3.1,0,1.21-.32,2.33-.96,3.34-.64,1.01-1.5,1.81-2.57,2.4-1.07,.59-2.24,.88-3.49,.88s-2.34-.29-3.31-.87Zm6.3-.23c.68-.44,1.22-1.08,1.61-1.93,.39-.85,.59-1.86,.59-3.03,0-1.24-.22-2.35-.65-3.32-.43-.97-1.05-1.73-1.86-2.28-.81-.55-1.74-.82-2.81-.82-1.39,0-2.46,.47-3.24,1.41-.77,.94-1.16,2.24-1.16,3.89,0,1.27,.22,2.41,.66,3.44,.44,1.03,1.06,1.83,1.85,2.42,.79,.59,1.7,.88,2.71,.88,.85,0,1.62-.22,2.3-.66Z" fill="#fff"/>
          <path d="M127.79,231.97c-.06,.01-.1,0-.13-.02l-9.41-11.16c-.44-.52-.83-.88-1.18-1.09-.35-.21-.69-.31-1.04-.31-.03,0-.04-.04-.04-.12s.01-.12,.04-.12l.78,.02c.16,.01,.39,.02,.68,.02l1.02-.02c.13-.01,.29-.02,.46-.02,.11,0,.19,.03,.24,.08,.05,.05,.13,.16,.24,.32l.48,.64,7.79,9.4,.16,2.32s-.03,.05-.09,.06Zm-10.02-12.36l.52,.04v9.72c0,.69,.13,1.21,.39,1.54s.66,.5,1.19,.5c.03,0,.04,.04,.04,.12s-.01,.12-.04,.12c-.35,0-.61,0-.8-.02l-1.02-.02-1.08,.02c-.2,.01-.49,.02-.88,.02-.03,0-.04-.04-.04-.12s.01-.12,.04-.12c.57,0,1-.17,1.27-.5,.27-.33,.41-.85,.41-1.54v-9.76Zm10.11,12.3l-.5-.62v-9.84c0-.69-.13-1.21-.38-1.55-.25-.34-.65-.51-1.18-.51-.03,0-.04-.04-.04-.12s.01-.12,.04-.12l.8,.02c.4,.03,.74,.04,1.02,.04,.24,0,.59-.01,1.04-.04l.84-.02s.04,.04,.04,.12-.01,.12-.04,.12c-1.09,0-1.64,.69-1.64,2.06v10.46Z" fill="#fff"/>
          <path d="M135.38,222.72c.25,.38,.56,.71,.92,.98,.36,.27,.86,.6,1.5,.99,.67,.41,1.2,.77,1.59,1.07,.39,.3,.73,.67,1.01,1.11,.28,.44,.42,.96,.42,1.56,0,.65-.17,1.24-.51,1.77-.34,.53-.83,.94-1.46,1.24-.63,.3-1.37,.45-2.21,.45-.53,0-1.06-.06-1.58-.19s-.97-.31-1.36-.55c-.07-.04-.11-.09-.14-.14-.03-.05-.04-.13-.04-.24l-.2-2.86c-.01-.05,.02-.09,.09-.1,.07-.01,.12,0,.13,.06,.32,1.01,.77,1.87,1.34,2.58s1.32,1.06,2.24,1.06c.63,0,1.15-.17,1.58-.51,.43-.34,.64-.9,.64-1.67,0-.59-.13-1.1-.4-1.54s-.59-.81-.98-1.11c-.39-.3-.9-.64-1.54-1.03-.63-.4-1.12-.74-1.49-1.03s-.68-.64-.93-1.06-.38-.91-.38-1.47c0-.68,.18-1.26,.55-1.74s.85-.84,1.44-1.07c.59-.23,1.21-.35,1.87-.35,.88,0,1.68,.15,2.42,.46,.2,.09,.3,.21,.3,.36l.1,2.5c0,.05-.04,.08-.11,.09s-.12-.02-.13-.07c-.15-.72-.46-1.4-.93-2.04-.47-.64-1.15-.96-2.03-.96-.67,0-1.18,.2-1.55,.6s-.55,.91-.55,1.52c0,.51,.13,.95,.38,1.33Z" fill="#fff"/>
          <path d="M145.93,220.24c-.47,.46-.81,1.2-1.04,2.21-.01,.03-.06,.04-.13,.04s-.11-.02-.11-.06c.05-.37,.11-.98,.18-1.82,.07-.84,.1-1.47,.1-1.9,0-.07,.04-.1,.12-.1s.12,.03,.12,.1c0,.29,.37,.44,1.1,.44,1.15,.04,2.48,.06,4.02,.06,.79,0,1.62-.01,2.5-.04l1.36-.02c.49,0,.85-.03,1.08-.1,.23-.07,.37-.2,.44-.4,.01-.05,.06-.08,.13-.08s.11,.03,.11,.08c-.04,.37-.08,.97-.13,1.8s-.07,1.49-.07,1.98c0,.04-.04,.06-.11,.06s-.11-.02-.11-.06c-.09-1.03-.36-1.76-.8-2.21-.44-.45-1.09-.67-1.96-.67-.49,0-.85,.03-1.06,.09s-.36,.17-.44,.34c-.08,.17-.12,.44-.12,.83v9.22c0,.41,.04,.71,.13,.9s.26,.31,.51,.38c.25,.07,.66,.1,1.22,.1,.03,0,.04,.04,.04,.12s-.01,.12-.04,.12c-.47,0-.83,0-1.1-.02l-1.58-.02-1.54,.02c-.27,.01-.64,.02-1.12,.02-.04,0-.06-.04-.06-.12s.02-.12,.06-.12c.55,0,.95-.03,1.21-.1,.26-.07,.44-.2,.53-.39,.09-.19,.14-.49,.14-.89v-9.26c0-.37-.04-.64-.12-.81-.08-.17-.23-.28-.45-.33-.22-.05-.58-.08-1.07-.08-.83,0-1.47,.23-1.94,.69Z" fill="#fff"/>
          <path d="M167.28,219.79c.6,.47,.9,1.1,.9,1.9,0,.72-.21,1.38-.63,1.97-.42,.59-.98,1.06-1.67,1.4s-1.43,.51-2.22,.51c-.28,0-.61-.01-.98-.04v4.5c0,.4,.04,.7,.12,.89,.08,.19,.23,.32,.45,.39,.22,.07,.57,.1,1.05,.1,.04,0,.06,.04,.06,.12s-.02,.12-.06,.12c-.41,0-.74,0-.98-.02l-1.44-.02-1.4,.02c-.25,.01-.59,.02-1.02,.02-.04,0-.06-.04-.06-.12s.02-.12,.06-.12c.48,0,.83-.03,1.06-.1,.23-.07,.38-.2,.46-.39s.12-.49,.12-.89v-9.26c0-.4-.04-.69-.12-.88s-.23-.32-.45-.39c-.22-.07-.57-.11-1.05-.11-.03,0-.04-.04-.04-.12s.01-.12,.04-.12l1,.02c.59,.03,1.05,.04,1.4,.04,.28,0,.55,0,.8-.02,.25-.01,.47-.03,.66-.04,.51-.04,.97-.06,1.38-.06,1.1,0,1.96,.23,2.56,.7Zm-1.36,.29c-.41-.43-1.02-.65-1.82-.65-.52,0-.89,.1-1.1,.29s-.32,.56-.32,1.09v4.22c.39,.04,.78,.06,1.18,.06,.96,0,1.64-.22,2.06-.67,.41-.45,.62-1.14,.62-2.09,0-1.07-.21-1.82-.62-2.25Zm1.77,9.89c-.9-1.12-1.99-2.69-3.27-4.7l1.34-.42c1.13,1.67,2.08,2.97,2.86,3.9,.77,.93,1.46,1.61,2.05,2.03,.59,.42,1.17,.63,1.73,.63,.04,0,.06,.04,.06,.12s-.02,.12-.06,.12h-2.86c-.33,0-.95-.56-1.85-1.68Z" fill="#fff"/>
          <path d="M185.18,219.93c-.31-.35-.75-.53-1.32-.53-.04,0-.06-.04-.06-.12s.02-.12,.06-.12l.9,.02c.48,.03,.86,.04,1.14,.04,.24,0,.59-.01,1.04-.04l.86-.02s.04,.04,.04,.12-.01,.12-.04,.12c-.53,0-.94,.17-1.21,.52-.27,.35-.41,.86-.41,1.54v5.66c0,1.49-.44,2.67-1.31,3.52s-2.03,1.28-3.49,1.28c-.99,0-1.85-.19-2.6-.57-.75-.38-1.33-.93-1.74-1.64-.41-.71-.62-1.55-.62-2.51v-6.42c0-.4-.04-.69-.12-.88s-.23-.32-.45-.39-.57-.11-1.05-.11c-.04,0-.06-.04-.06-.12s.02-.12,.06-.12l1,.02c.59,.03,1.05,.04,1.4,.04,.39,0,.86-.01,1.42-.04l.98-.02s.06,.04,.06,.12-.02,.12-.06,.12c-.47,0-.81,.04-1.03,.12s-.37,.22-.45,.41c-.08,.19-.12,.49-.12,.89v5.68c0,1.57,.34,2.76,1.03,3.57,.69,.81,1.65,1.21,2.89,1.21,1.16,0,2.07-.36,2.73-1.09s.99-1.74,.99-3.05v-5.68c0-.67-.15-1.18-.46-1.53Z" fill="#fff"/>
          <path d="M200.56,219.1c.59,.11,1.15,.3,1.67,.55,.09,.04,.15,.08,.18,.13,.03,.05,.05,.15,.06,.31l.26,2.5s-.04,.07-.11,.08c-.07,.01-.12,0-.13-.06-.68-2.23-2.05-3.34-4.12-3.34-1.05,0-1.99,.25-2.8,.74-.81,.49-1.44,1.19-1.89,2.1-.45,.91-.67,1.97-.67,3.18s.24,2.26,.73,3.21c.49,.95,1.14,1.7,1.98,2.24,.83,.54,1.75,.81,2.75,.81s1.89-.26,2.56-.79c.67-.53,1.21-1.34,1.62-2.45,.01-.03,.05-.04,.1-.04,.03,0,.06,0,.09,.03,.03,.02,.05,.04,.05,.05l-.22,2.28c-.01,.16-.03,.26-.06,.3-.03,.04-.09,.09-.2,.14-.67,.31-1.3,.52-1.92,.65-.61,.13-1.29,.19-2.02,.19-1.41,0-2.67-.28-3.78-.83s-1.97-1.32-2.59-2.31c-.62-.99-.93-2.12-.93-3.4s.32-2.37,.95-3.35c.63-.98,1.51-1.74,2.63-2.28,1.12-.54,2.37-.81,3.76-.81,.77,0,1.46,.06,2.05,.17Z" fill="#fff"/>
          <path d="M207.9,220.24c-.47,.46-.81,1.2-1.04,2.21-.01,.03-.06,.04-.13,.04s-.11-.02-.11-.06c.05-.37,.11-.98,.18-1.82,.07-.84,.1-1.47,.1-1.9,0-.07,.04-.1,.12-.1s.12,.03,.12,.1c0,.29,.37,.44,1.1,.44,1.15,.04,2.48,.06,4.02,.06,.79,0,1.62-.01,2.5-.04l1.36-.02c.49,0,.85-.03,1.08-.1,.23-.07,.37-.2,.44-.4,.01-.05,.06-.08,.13-.08s.11,.03,.11,.08c-.04,.37-.08,.97-.13,1.8s-.07,1.49-.07,1.98c0,.04-.04,.06-.11,.06s-.11-.02-.11-.06c-.09-1.03-.36-1.76-.8-2.21-.44-.45-1.09-.67-1.96-.67-.49,0-.85,.03-1.06,.09s-.36,.17-.44,.34c-.08,.17-.12,.44-.12,.83v9.22c0,.41,.04,.71,.13,.9s.26,.31,.51,.38c.25,.07,.66,.1,1.22,.1,.03,0,.04,.04,.04,.12s-.01,.12-.04,.12c-.47,0-.83,0-1.1-.02l-1.58-.02-1.54,.02c-.27,.01-.64,.02-1.12,.02-.04,0-.06-.04-.06-.12s.02-.12,.06-.12c.55,0,.95-.03,1.21-.1,.26-.07,.44-.2,.53-.39,.09-.19,.14-.49,.14-.89v-9.26c0-.37-.04-.64-.12-.81-.08-.17-.23-.28-.45-.33-.22-.05-.58-.08-1.07-.08-.83,0-1.47,.23-1.94,.69Z" fill="#fff"/>
          <path d="M224.85,230.93c.07,.19,.22,.31,.44,.38,.22,.07,.58,.1,1.07,.1,.03,0,.04,.04,.04,.12s-.01,.12-.04,.12c-.43,0-.76,0-1-.02l-1.44-.02-1.4,.02c-.25,.01-.6,.02-1.04,.02-.03,0-.04-.04-.04-.12s.01-.12,.04-.12c.48,0,.83-.03,1.06-.1,.23-.07,.38-.2,.47-.39s.13-.49,.13-.89v-9.26c0-.4-.04-.69-.13-.88s-.24-.32-.47-.39-.58-.11-1.06-.11c-.03,0-.04-.04-.04-.12s.01-.12,.04-.12l1.04,.02c.59,.03,1.05,.04,1.4,.04,.39,0,.87-.01,1.46-.04l.98-.02s.04,.04,.04,.12-.01,.12-.04,.12c-.48,0-.83,.04-1.05,.12s-.37,.22-.45,.41c-.08,.19-.12,.49-.12,.89v9.22c0,.41,.04,.71,.11,.9Z" fill="#fff"/>
          <path d="M233.28,231.02c-.97-.58-1.71-1.37-2.24-2.36-.53-.99-.79-2.08-.79-3.25,0-1.37,.35-2.55,1.04-3.53,.69-.98,1.58-1.72,2.67-2.21s2.19-.74,3.33-.74c1.26,0,2.38,.3,3.34,.89,.96,.59,1.7,1.38,2.21,2.35,.51,.97,.77,2.01,.77,3.1,0,1.21-.32,2.33-.96,3.34-.64,1.01-1.5,1.81-2.57,2.4-1.07,.59-2.24,.88-3.49,.88s-2.34-.29-3.31-.87Zm6.3-.23c.68-.44,1.22-1.08,1.61-1.93,.39-.85,.59-1.86,.59-3.03,0-1.24-.22-2.35-.65-3.32-.43-.97-1.05-1.73-1.86-2.28-.81-.55-1.74-.82-2.81-.82-1.39,0-2.46,.47-3.24,1.41-.77,.94-1.16,2.24-1.16,3.89,0,1.27,.22,2.41,.66,3.44,.44,1.03,1.06,1.83,1.85,2.42,.79,.59,1.7,.88,2.71,.88,.85,0,1.62-.22,2.3-.66Z" fill="#fff"/>
          <path d="M259.04,231.97c-.06,.01-.1,0-.13-.02l-9.41-11.16c-.44-.52-.83-.88-1.18-1.09s-.69-.31-1.04-.31c-.03,0-.04-.04-.04-.12s.01-.12,.04-.12l.78,.02c.16,.01,.39,.02,.68,.02l1.02-.02c.13-.01,.29-.02,.46-.02,.11,0,.19,.03,.24,.08s.13,.16,.24,.32l.48,.64,7.79,9.4,.16,2.32s-.03,.05-.09,.06Zm-10.02-12.36l.52,.04v9.72c0,.69,.13,1.21,.39,1.54s.66,.5,1.19,.5c.03,0,.04,.04,.04,.12s-.01,.12-.04,.12c-.35,0-.61,0-.8-.02l-1.02-.02-1.08,.02c-.2,.01-.49,.02-.88,.02-.03,0-.04-.04-.04-.12s.01-.12,.04-.12c.57,0,1-.17,1.27-.5,.27-.33,.41-.85,.41-1.54v-9.76Zm10.11,12.3l-.5-.62v-9.84c0-.69-.13-1.21-.38-1.55-.25-.34-.65-.51-1.18-.51-.03,0-.04-.04-.04-.12s.01-.12,.04-.12l.8,.02c.4,.03,.74,.04,1.02,.04,.24,0,.59-.01,1.04-.04l.84-.02s.04,.04,.04,.12-.01,.12-.04,.12c-1.09,0-1.64,.69-1.64,2.06v10.46Z" fill="#fff"/>
        </g>
        <g>
          <path d="M1.92,219.61l.5,.04-.2,9.72c-.01,.69,.11,1.21,.38,1.54s.7,.5,1.3,.5c.04,0,.06,.04,.06,.12s-.02,.12-.06,.12c-.36,0-.64,0-.84-.02l-1.1-.02-1.1,.02c-.19,.01-.46,.02-.82,.02-.03,0-.04-.04-.04-.12s.01-.12,.04-.12c1.11,0,1.67-.68,1.68-2.04l.2-9.76Zm13.83,11.92c0,.08-.01,.12-.04,.12-.44,0-.79,0-1.04-.02l-1.4-.02-1.34,.02c-.23,.01-.54,.02-.94,.02-.03,0-.04-.04-.04-.12s.01-.12,.04-.12c.45,0,.79-.04,1-.11s.35-.2,.42-.39c.07-.19,.09-.48,.06-.88l-.4-9.42,.78-1.12-5.17,12.02c-.03,.05-.08,.08-.16,.08s-.13-.03-.16-.08l-5.21-10.7c-.24-.49-.52-.85-.84-1.08-.32-.23-.69-.34-1.12-.34-.03,0-.04-.04-.04-.12s.01-.12,.04-.12l.8,.02c.16,.01,.37,.02,.62,.02,.29,0,.53,0,.72-.02,.19-.01,.33-.02,.44-.02,.17,0,.31,.06,.42,.18,.11,.12,.27,.41,.5,.86l4.54,9.22-.74,1.28,4.82-11.04c.13-.33,.33-.5,.6-.5,.08,0,.19,0,.32,.02,.13,.01,.31,.02,.52,.02l1.02-.02c.16-.01,.39-.02,.7-.02,.03,0,.04,.04,.04,.12s-.01,.12-.04,.12c-.67,0-1.14,.11-1.42,.32-.28,.21-.41,.59-.4,1.12l.42,9.2c.03,.41,.08,.71,.16,.9s.23,.31,.45,.38c.22,.07,.57,.1,1.05,.1,.03,0,.04,.04,.04,.12Z" fill="#231815"/>
          <path d="M32.33,231.53c0,.08-.03,.12-.1,.12-.25,0-.65-.01-1.18-.04-.56-.03-.96-.04-1.2-.04-.31,0-.69,.01-1.14,.04-.45,.03-.79,.04-1.02,.04-.05,0-.08-.04-.08-.12s.03-.12,.08-.12c.45,0,.78-.04,.98-.13,.2-.09,.3-.24,.3-.47s-.1-.54-.3-.94l-4.3-8.94,.64-.96-3.9,9.04c-.19,.45-.28,.83-.28,1.12,0,.43,.17,.75,.5,.96,.33,.21,.81,.32,1.44,.32,.07,0,.1,.04,.1,.12s-.03,.12-.1,.12c-.24,0-.59-.01-1.04-.04-.51-.03-.95-.04-1.32-.04-.35,0-.76,.01-1.24,.04-.43,.03-.77,.04-1.04,.04-.05,0-.08-.04-.08-.12s.03-.12,.08-.12c.37,0,.69-.07,.95-.22,.26-.15,.51-.4,.75-.76,.24-.36,.51-.89,.82-1.6l4.26-9.82s.06-.06,.14-.07c.08,0,.13,.02,.14,.07l4.79,9.9c.47,.97,.86,1.63,1.17,1.98,.31,.35,.67,.52,1.07,.52,.07,0,.1,.04,.1,.12Zm-10.19-5.54h5.43l.14,.44h-5.81l.24-.44Z" fill="#231815"/>
          <path d="M40.02,219.27c0,.08-.02,.12-.06,.12-.4,0-.7,.04-.89,.12s-.32,.22-.39,.41-.1,.49-.1,.89v11.26c0,1.37-.32,2.46-.97,3.25-.65,.79-1.58,1.19-2.79,1.19-.47,0-.84-.09-1.12-.26-.28-.17-.42-.41-.42-.7,0-.21,.07-.4,.2-.55,.13-.15,.33-.23,.58-.23,.27,0,.47,.06,.61,.19,.14,.13,.28,.32,.41,.57,.12,.21,.22,.36,.31,.45,.09,.09,.2,.13,.35,.13,.41,0,.72-.26,.93-.78,.21-.52,.31-1.37,.31-2.54v-12.02c0-.4-.05-.69-.14-.88-.09-.19-.27-.32-.53-.39s-.66-.11-1.21-.11c-.03,0-.04-.04-.04-.12s.01-.12,.04-.12l1.18,.02c.61,.03,1.11,.04,1.48,.04,.35,0,.79-.01,1.32-.04l.88-.02s.06,.04,.06,.12Z" fill="#231815"/>
          <path d="M46.8,231.02c-.97-.58-1.71-1.37-2.24-2.36-.53-.99-.79-2.08-.79-3.25,0-1.37,.35-2.55,1.04-3.53,.69-.98,1.58-1.72,2.67-2.21s2.19-.74,3.33-.74c1.26,0,2.38,.3,3.34,.89,.96,.59,1.7,1.38,2.21,2.35,.51,.97,.77,2.01,.77,3.1,0,1.21-.32,2.33-.96,3.34-.64,1.01-1.5,1.81-2.57,2.4-1.07,.59-2.24,.88-3.49,.88s-2.34-.29-3.31-.87Zm6.3-.23c.68-.44,1.22-1.08,1.61-1.93,.39-.85,.59-1.86,.59-3.03,0-1.24-.22-2.35-.65-3.32-.43-.97-1.05-1.73-1.86-2.28-.81-.55-1.74-.82-2.81-.82-1.39,0-2.46,.47-3.24,1.41-.77,.94-1.16,2.24-1.16,3.89,0,1.27,.22,2.41,.66,3.44,.44,1.03,1.06,1.83,1.85,2.42,.79,.59,1.7,.88,2.71,.88,.85,0,1.62-.22,2.3-.66Z" fill="#231815"/>
          <path d="M68.77,219.79c.6,.47,.9,1.1,.9,1.9,0,.72-.21,1.38-.63,1.97s-.98,1.06-1.67,1.4c-.69,.34-1.43,.51-2.22,.51-.28,0-.61-.01-.98-.04v4.5c0,.4,.04,.7,.12,.89s.23,.32,.45,.39c.22,.07,.57,.1,1.05,.1,.04,0,.06,.04,.06,.12s-.02,.12-.06,.12c-.41,0-.74,0-.98-.02l-1.44-.02-1.4,.02c-.25,.01-.59,.02-1.02,.02-.04,0-.06-.04-.06-.12s.02-.12,.06-.12c.48,0,.83-.03,1.06-.1,.23-.07,.38-.2,.46-.39s.12-.49,.12-.89v-9.26c0-.4-.04-.69-.12-.88s-.23-.32-.45-.39-.57-.11-1.05-.11c-.03,0-.04-.04-.04-.12s.01-.12,.04-.12l1,.02c.59,.03,1.05,.04,1.4,.04,.28,0,.55,0,.8-.02,.25-.01,.47-.03,.66-.04,.51-.04,.97-.06,1.38-.06,1.11,0,1.96,.23,2.56,.7Zm-1.36,.29c-.41-.43-1.02-.65-1.82-.65-.52,0-.89,.1-1.1,.29-.21,.19-.32,.56-.32,1.09v4.22c.39,.04,.78,.06,1.18,.06,.96,0,1.65-.22,2.06-.67,.41-.45,.62-1.14,.62-2.09,0-1.07-.21-1.82-.62-2.25Zm1.77,9.89c-.9-1.12-1.99-2.69-3.27-4.7l1.34-.42c1.13,1.67,2.08,2.97,2.86,3.9,.77,.93,1.46,1.61,2.05,2.03,.59,.42,1.17,.63,1.73,.63,.04,0,.06,.04,.06,.12s-.02,.12-.06,.12h-2.86c-.33,0-.95-.56-1.85-1.68Z" fill="#231815"/>
          <path d="M92.73,219.1c.59,.11,1.15,.3,1.67,.55,.09,.04,.15,.08,.18,.13,.03,.05,.05,.15,.06,.31l.26,2.5s-.04,.07-.11,.08c-.07,.01-.12,0-.13-.06-.68-2.23-2.05-3.34-4.12-3.34-1.05,0-1.98,.25-2.8,.74s-1.44,1.19-1.89,2.1c-.45,.91-.67,1.97-.67,3.18s.24,2.26,.73,3.21,1.15,1.7,1.98,2.24c.83,.54,1.75,.81,2.75,.81s1.89-.26,2.56-.79c.67-.53,1.21-1.34,1.62-2.45,.01-.03,.05-.04,.1-.04,.03,0,.06,0,.09,.03,.03,.02,.05,.04,.05,.05l-.22,2.28c-.01,.16-.03,.26-.06,.3-.03,.04-.09,.09-.2,.14-.67,.31-1.31,.52-1.92,.65-.61,.13-1.29,.19-2.02,.19-1.41,0-2.67-.28-3.78-.83s-1.97-1.32-2.59-2.31c-.62-.99-.93-2.12-.93-3.4s.32-2.37,.95-3.35c.63-.98,1.51-1.74,2.63-2.28,1.12-.54,2.37-.81,3.76-.81,.77,0,1.46,.06,2.05,.17Z" fill="#231815"/>
          <path d="M102.04,231.02c-.97-.58-1.71-1.37-2.24-2.36-.53-.99-.79-2.08-.79-3.25,0-1.37,.35-2.55,1.04-3.53,.69-.98,1.58-1.72,2.67-2.21s2.19-.74,3.33-.74c1.26,0,2.38,.3,3.34,.89,.96,.59,1.7,1.38,2.21,2.35,.51,.97,.77,2.01,.77,3.1,0,1.21-.32,2.33-.96,3.34-.64,1.01-1.5,1.81-2.57,2.4-1.07,.59-2.24,.88-3.49,.88s-2.34-.29-3.31-.87Zm6.3-.23c.68-.44,1.22-1.08,1.61-1.93,.39-.85,.59-1.86,.59-3.03,0-1.24-.22-2.35-.65-3.32-.43-.97-1.05-1.73-1.86-2.28-.81-.55-1.74-.82-2.81-.82-1.39,0-2.46,.47-3.24,1.41-.77,.94-1.16,2.24-1.16,3.89,0,1.27,.22,2.41,.66,3.44,.44,1.03,1.06,1.83,1.85,2.42,.79,.59,1.7,.88,2.71,.88,.85,0,1.62-.22,2.3-.66Z" fill="#231815"/>
          <path d="M127.79,231.97c-.06,.01-.1,0-.13-.02l-9.41-11.16c-.44-.52-.83-.88-1.18-1.09-.35-.21-.69-.31-1.04-.31-.03,0-.04-.04-.04-.12s.01-.12,.04-.12l.78,.02c.16,.01,.39,.02,.68,.02l1.02-.02c.13-.01,.29-.02,.46-.02,.11,0,.19,.03,.24,.08,.05,.05,.13,.16,.24,.32l.48,.64,7.79,9.4,.16,2.32s-.03,.05-.09,.06Zm-10.02-12.36l.52,.04v9.72c0,.69,.13,1.21,.39,1.54s.66,.5,1.19,.5c.03,0,.04,.04,.04,.12s-.01,.12-.04,.12c-.35,0-.61,0-.8-.02l-1.02-.02-1.08,.02c-.2,.01-.49,.02-.88,.02-.03,0-.04-.04-.04-.12s.01-.12,.04-.12c.57,0,1-.17,1.27-.5,.27-.33,.41-.85,.41-1.54v-9.76Zm10.11,12.3l-.5-.62v-9.84c0-.69-.13-1.21-.38-1.55-.25-.34-.65-.51-1.18-.51-.03,0-.04-.04-.04-.12s.01-.12,.04-.12l.8,.02c.4,.03,.74,.04,1.02,.04,.24,0,.59-.01,1.04-.04l.84-.02s.04,.04,.04,.12-.01,.12-.04,.12c-1.09,0-1.64,.69-1.64,2.06v10.46Z" fill="#231815"/>
          <path d="M135.38,222.72c.25,.38,.56,.71,.92,.98,.36,.27,.86,.6,1.5,.99,.67,.41,1.2,.77,1.59,1.07,.39,.3,.73,.67,1.01,1.11,.28,.44,.42,.96,.42,1.56,0,.65-.17,1.24-.51,1.77-.34,.53-.83,.94-1.46,1.24-.63,.3-1.37,.45-2.21,.45-.53,0-1.06-.06-1.58-.19s-.97-.31-1.36-.55c-.07-.04-.11-.09-.14-.14-.03-.05-.04-.13-.04-.24l-.2-2.86c-.01-.05,.02-.09,.09-.1,.07-.01,.12,0,.13,.06,.32,1.01,.77,1.87,1.34,2.58s1.32,1.06,2.24,1.06c.63,0,1.15-.17,1.58-.51,.43-.34,.64-.9,.64-1.67,0-.59-.13-1.1-.4-1.54s-.59-.81-.98-1.11c-.39-.3-.9-.64-1.54-1.03-.63-.4-1.12-.74-1.49-1.03s-.68-.64-.93-1.06-.38-.91-.38-1.47c0-.68,.18-1.26,.55-1.74s.85-.84,1.44-1.07c.59-.23,1.21-.35,1.87-.35,.88,0,1.68,.15,2.42,.46,.2,.09,.3,.21,.3,.36l.1,2.5c0,.05-.04,.08-.11,.09s-.12-.02-.13-.07c-.15-.72-.46-1.4-.93-2.04-.47-.64-1.15-.96-2.03-.96-.67,0-1.18,.2-1.55,.6s-.55,.91-.55,1.52c0,.51,.13,.95,.38,1.33Z" fill="#231815"/>
          <path d="M145.93,220.24c-.47,.46-.81,1.2-1.04,2.21-.01,.03-.06,.04-.13,.04s-.11-.02-.11-.06c.05-.37,.11-.98,.18-1.82,.07-.84,.1-1.47,.1-1.9,0-.07,.04-.1,.12-.1s.12,.03,.12,.1c0,.29,.37,.44,1.1,.44,1.15,.04,2.48,.06,4.02,.06,.79,0,1.62-.01,2.5-.04l1.36-.02c.49,0,.85-.03,1.08-.1,.23-.07,.37-.2,.44-.4,.01-.05,.06-.08,.13-.08s.11,.03,.11,.08c-.04,.37-.08,.97-.13,1.8s-.07,1.49-.07,1.98c0,.04-.04,.06-.11,.06s-.11-.02-.11-.06c-.09-1.03-.36-1.76-.8-2.21-.44-.45-1.09-.67-1.96-.67-.49,0-.85,.03-1.06,.09s-.36,.17-.44,.34c-.08,.17-.12,.44-.12,.83v9.22c0,.41,.04,.71,.13,.9s.26,.31,.51,.38c.25,.07,.66,.1,1.22,.1,.03,0,.04,.04,.04,.12s-.01,.12-.04,.12c-.47,0-.83,0-1.1-.02l-1.58-.02-1.54,.02c-.27,.01-.64,.02-1.12,.02-.04,0-.06-.04-.06-.12s.02-.12,.06-.12c.55,0,.95-.03,1.21-.1,.26-.07,.44-.2,.53-.39,.09-.19,.14-.49,.14-.89v-9.26c0-.37-.04-.64-.12-.81-.08-.17-.23-.28-.45-.33-.22-.05-.58-.08-1.07-.08-.83,0-1.47,.23-1.94,.69Z" fill="#231815"/>
          <path d="M167.28,219.79c.6,.47,.9,1.1,.9,1.9,0,.72-.21,1.38-.63,1.97-.42,.59-.98,1.06-1.67,1.4s-1.43,.51-2.22,.51c-.28,0-.61-.01-.98-.04v4.5c0,.4,.04,.7,.12,.89,.08,.19,.23,.32,.45,.39,.22,.07,.57,.1,1.05,.1,.04,0,.06,.04,.06,.12s-.02,.12-.06,.12c-.41,0-.74,0-.98-.02l-1.44-.02-1.4,.02c-.25,.01-.59,.02-1.02,.02-.04,0-.06-.04-.06-.12s.02-.12,.06-.12c.48,0,.83-.03,1.06-.1,.23-.07,.38-.2,.46-.39s.12-.49,.12-.89v-9.26c0-.4-.04-.69-.12-.88s-.23-.32-.45-.39c-.22-.07-.57-.11-1.05-.11-.03,0-.04-.04-.04-.12s.01-.12,.04-.12l1,.02c.59,.03,1.05,.04,1.4,.04,.28,0,.55,0,.8-.02,.25-.01,.47-.03,.66-.04,.51-.04,.97-.06,1.38-.06,1.1,0,1.96,.23,2.56,.7Zm-1.36,.29c-.41-.43-1.02-.65-1.82-.65-.52,0-.89,.1-1.1,.29s-.32,.56-.32,1.09v4.22c.39,.04,.78,.06,1.18,.06,.96,0,1.64-.22,2.06-.67,.41-.45,.62-1.14,.62-2.09,0-1.07-.21-1.82-.62-2.25Zm1.77,9.89c-.9-1.12-1.99-2.69-3.27-4.7l1.34-.42c1.13,1.67,2.08,2.97,2.86,3.9,.77,.93,1.46,1.61,2.05,2.03,.59,.42,1.17,.63,1.73,.63,.04,0,.06,.04,.06,.12s-.02,.12-.06,.12h-2.86c-.33,0-.95-.56-1.85-1.68Z" fill="#231815"/>
          <path d="M185.18,219.93c-.31-.35-.75-.53-1.32-.53-.04,0-.06-.04-.06-.12s.02-.12,.06-.12l.9,.02c.48,.03,.86,.04,1.14,.04,.24,0,.59-.01,1.04-.04l.86-.02s.04,.04,.04,.12-.01,.12-.04,.12c-.53,0-.94,.17-1.21,.52-.27,.35-.41,.86-.41,1.54v5.66c0,1.49-.44,2.67-1.31,3.52s-2.03,1.28-3.49,1.28c-.99,0-1.85-.19-2.6-.57-.75-.38-1.33-.93-1.74-1.64-.41-.71-.62-1.55-.62-2.51v-6.42c0-.4-.04-.69-.12-.88s-.23-.32-.45-.39-.57-.11-1.05-.11c-.04,0-.06-.04-.06-.12s.02-.12,.06-.12l1,.02c.59,.03,1.05,.04,1.4,.04,.39,0,.86-.01,1.42-.04l.98-.02s.06,.04,.06,.12-.02,.12-.06,.12c-.47,0-.81,.04-1.03,.12s-.37,.22-.45,.41c-.08,.19-.12,.49-.12,.89v5.68c0,1.57,.34,2.76,1.03,3.57,.69,.81,1.65,1.21,2.89,1.21,1.16,0,2.07-.36,2.73-1.09s.99-1.74,.99-3.05v-5.68c0-.67-.15-1.18-.46-1.53Z" fill="#231815"/>
          <path d="M200.56,219.1c.59,.11,1.15,.3,1.67,.55,.09,.04,.15,.08,.18,.13,.03,.05,.05,.15,.06,.31l.26,2.5s-.04,.07-.11,.08c-.07,.01-.12,0-.13-.06-.68-2.23-2.05-3.34-4.12-3.34-1.05,0-1.99,.25-2.8,.74-.81,.49-1.44,1.19-1.89,2.1-.45,.91-.67,1.97-.67,3.18s.24,2.26,.73,3.21c.49,.95,1.14,1.7,1.98,2.24,.83,.54,1.75,.81,2.75,.81s1.89-.26,2.56-.79c.67-.53,1.21-1.34,1.62-2.45,.01-.03,.05-.04,.1-.04,.03,0,.06,0,.09,.03,.03,.02,.05,.04,.05,.05l-.22,2.28c-.01,.16-.03,.26-.06,.3-.03,.04-.09,.09-.2,.14-.67,.31-1.3,.52-1.92,.65-.61,.13-1.29,.19-2.02,.19-1.41,0-2.67-.28-3.78-.83s-1.97-1.32-2.59-2.31c-.62-.99-.93-2.12-.93-3.4s.32-2.37,.95-3.35c.63-.98,1.51-1.74,2.63-2.28,1.12-.54,2.37-.81,3.76-.81,.77,0,1.46,.06,2.05,.17Z" fill="#231815"/>
          <path d="M207.9,220.24c-.47,.46-.81,1.2-1.04,2.21-.01,.03-.06,.04-.13,.04s-.11-.02-.11-.06c.05-.37,.11-.98,.18-1.82,.07-.84,.1-1.47,.1-1.9,0-.07,.04-.1,.12-.1s.12,.03,.12,.1c0,.29,.37,.44,1.1,.44,1.15,.04,2.48,.06,4.02,.06,.79,0,1.62-.01,2.5-.04l1.36-.02c.49,0,.85-.03,1.08-.1,.23-.07,.37-.2,.44-.4,.01-.05,.06-.08,.13-.08s.11,.03,.11,.08c-.04,.37-.08,.97-.13,1.8s-.07,1.49-.07,1.98c0,.04-.04,.06-.11,.06s-.11-.02-.11-.06c-.09-1.03-.36-1.76-.8-2.21-.44-.45-1.09-.67-1.96-.67-.49,0-.85,.03-1.06,.09s-.36,.17-.44,.34c-.08,.17-.12,.44-.12,.83v9.22c0,.41,.04,.71,.13,.9s.26,.31,.51,.38c.25,.07,.66,.1,1.22,.1,.03,0,.04,.04,.04,.12s-.01,.12-.04,.12c-.47,0-.83,0-1.1-.02l-1.58-.02-1.54,.02c-.27,.01-.64,.02-1.12,.02-.04,0-.06-.04-.06-.12s.02-.12,.06-.12c.55,0,.95-.03,1.21-.1,.26-.07,.44-.2,.53-.39,.09-.19,.14-.49,.14-.89v-9.26c0-.37-.04-.64-.12-.81-.08-.17-.23-.28-.45-.33-.22-.05-.58-.08-1.07-.08-.83,0-1.47,.23-1.94,.69Z" fill="#231815"/>
          <path d="M224.85,230.93c.07,.19,.22,.31,.44,.38,.22,.07,.58,.1,1.07,.1,.03,0,.04,.04,.04,.12s-.01,.12-.04,.12c-.43,0-.76,0-1-.02l-1.44-.02-1.4,.02c-.25,.01-.6,.02-1.04,.02-.03,0-.04-.04-.04-.12s.01-.12,.04-.12c.48,0,.83-.03,1.06-.1,.23-.07,.38-.2,.47-.39s.13-.49,.13-.89v-9.26c0-.4-.04-.69-.13-.88s-.24-.32-.47-.39-.58-.11-1.06-.11c-.03,0-.04-.04-.04-.12s.01-.12,.04-.12l1.04,.02c.59,.03,1.05,.04,1.4,.04,.39,0,.87-.01,1.46-.04l.98-.02s.04,.04,.04,.12-.01,.12-.04,.12c-.48,0-.83,.04-1.05,.12s-.37,.22-.45,.41c-.08,.19-.12,.49-.12,.89v9.22c0,.41,.04,.71,.11,.9Z" fill="#231815"/>
          <path d="M233.28,231.02c-.97-.58-1.71-1.37-2.24-2.36-.53-.99-.79-2.08-.79-3.25,0-1.37,.35-2.55,1.04-3.53,.69-.98,1.58-1.72,2.67-2.21s2.19-.74,3.33-.74c1.26,0,2.38,.3,3.34,.89,.96,.59,1.7,1.38,2.21,2.35,.51,.97,.77,2.01,.77,3.1,0,1.21-.32,2.33-.96,3.34-.64,1.01-1.5,1.81-2.57,2.4-1.07,.59-2.24,.88-3.49,.88s-2.34-.29-3.31-.87Zm6.3-.23c.68-.44,1.22-1.08,1.61-1.93,.39-.85,.59-1.86,.59-3.03,0-1.24-.22-2.35-.65-3.32-.43-.97-1.05-1.73-1.86-2.28-.81-.55-1.74-.82-2.81-.82-1.39,0-2.46,.47-3.24,1.41-.77,.94-1.16,2.24-1.16,3.89,0,1.27,.22,2.41,.66,3.44,.44,1.03,1.06,1.83,1.85,2.42,.79,.59,1.7,.88,2.71,.88,.85,0,1.62-.22,2.3-.66Z" fill="#231815"/>
          <path d="M259.04,231.97c-.06,.01-.1,0-.13-.02l-9.41-11.16c-.44-.52-.83-.88-1.18-1.09s-.69-.31-1.04-.31c-.03,0-.04-.04-.04-.12s.01-.12,.04-.12l.78,.02c.16,.01,.39,.02,.68,.02l1.02-.02c.13-.01,.29-.02,.46-.02,.11,0,.19,.03,.24,.08s.13,.16,.24,.32l.48,.64,7.79,9.4,.16,2.32s-.03,.05-.09,.06Zm-10.02-12.36l.52,.04v9.72c0,.69,.13,1.21,.39,1.54s.66,.5,1.19,.5c.03,0,.04,.04,.04,.12s-.01,.12-.04,.12c-.35,0-.61,0-.8-.02l-1.02-.02-1.08,.02c-.2,.01-.49,.02-.88,.02-.03,0-.04-.04-.04-.12s.01-.12,.04-.12c.57,0,1-.17,1.27-.5,.27-.33,.41-.85,.41-1.54v-9.76Zm10.11,12.3l-.5-.62v-9.84c0-.69-.13-1.21-.38-1.55-.25-.34-.65-.51-1.18-.51-.03,0-.04-.04-.04-.12s.01-.12,.04-.12l.8,.02c.4,.03,.74,.04,1.02,.04,.24,0,.59-.01,1.04-.04l.84-.02s.04,.04,.04,.12-.01,.12-.04,.12c-1.09,0-1.64,.69-1.64,2.06v10.46Z" fill="#231815"/>
        </g>
      </g>
      <g>
        <path d="M172.87,88.07c-.09-.03-3-1.04-8.04-2.38V22.04c0-1.01-.59-1.9-1.6-1.9h-22.2V9.06c0-1.01-.59-1.73-1.6-1.73h-3.89V1.9c0-1.01-.59-1.9-1.6-1.9h-27.47c-1.01,0-2.06,.89-2.06,1.9V7.33h-3.43c-1.01,0-2.06,.72-2.06,1.73v11.09h-21.75c-1.01,0-2.06,.89-2.06,1.9v63.15c-5.95,1.58-9.54,2.84-9.64,2.88-.95,.33-1.41,1.37-1.08,2.33,.26,.76,1,1.23,1.76,1.23,.2,0,.41-.03,.61-.1,.26-.09,26.57-9.06,52.52-9.06s52.25,8.97,52.51,9.06c.96,.33,1.94-.18,2.27-1.13,.33-.96-.23-2-1.19-2.33Zm-73.96-7.74c-7.33,1.07-14.19,2.55-20.14,3.93V23.81h20.14v56.52Zm38.46-.25c-5.49-.77-12.11-1.27-18.31-1.27-5.56,0-10.99,.4-16.48,1.04V10.99h3.89c1.01,0,1.6-.92,1.6-1.93V3.66h23.81v5.4c0,1.01,1.05,1.93,2.06,1.93h3.43V80.08h0Zm23.81,4.64c-5.04-1.39-12.36-2.95-20.14-4.12V23.81h20.14v60.91Z" fill="#595757"/>
        <rect x="108.06" y="64.1" width="23.81" height="3.66" fill="#595757"/>
        <rect x="108.06" y="54.94" width="23.81" height="3.66" fill="#595757"/>
        <rect x="108.06" y="45.78" width="23.81" height="3.66" fill="#595757"/>
        <rect x="108.06" y="36.63" width="23.81" height="3.66" fill="#595757"/>
        <rect x="108.06" y="27.47" width="23.81" height="3.66" fill="#595757"/>
        <rect x="108.06" y="18.31" width="23.81" height="3.66" fill="#595757"/>
      </g>
    </g>
  </g>
</svg>