<?xml version="1.0" encoding="UTF-8"?>
<svg id="_圖層_2" data-name="圖層 2" xmlns="http://www.w3.org/2000/svg" viewBox="0 0 1491.82 239">
  <g id="_圖層_1-2" data-name="圖層 1">
    <g opacity=".3">
      <path d="M55.79,222.62c-17.8-10.68-31.55-25.16-41.25-43.46C4.85,160.88,0,140.92,0,119.32c0-25.28,6.38-46.95,19.15-65,12.76-18.04,29.15-31.61,49.16-40.69C88.32,4.55,108.76,0,129.63,0c23.32,0,43.82,5.47,61.5,16.39,17.68,10.93,31.24,25.35,40.69,43.27,9.45,17.92,14.18,36.95,14.18,57.08,0,22.34-5.89,42.85-17.68,61.5-11.78,18.66-27.56,33.39-47.32,44.19-19.77,10.81-41.19,16.2-64.26,16.2s-43.15-5.34-60.95-16.02Zm116.19-4.23c12.52-8.1,22.4-19.94,29.65-35.54,7.24-15.59,10.86-34.19,10.86-55.79,0-22.83-3.99-43.21-11.97-61.13-7.98-17.92-19.4-31.91-34.25-41.98-14.86-10.06-32.1-15.1-51.74-15.1-25.54,0-45.42,8.65-59.66,25.96-14.24,17.31-21.36,41.19-21.36,71.63,0,23.33,4.05,44.44,12.15,63.34,8.1,18.91,19.45,33.76,34.06,44.56,14.6,10.81,31.24,16.2,49.9,16.2,15.71,0,29.83-4.05,42.35-12.15Z" fill="#b5b5b6"/>
      <path d="M281.35,232.01c0-1.47,.37-2.21,1.1-2.21,9.08,0,15.71-.61,19.89-1.84,4.17-1.23,7.05-3.62,8.65-7.18,1.59-3.56,2.39-9.02,2.39-16.39V33.88c0-7.37-.74-12.76-2.21-16.2-1.47-3.43-4.23-5.83-8.29-7.18-4.05-1.35-10.5-2.03-19.33-2.03-.74,0-1.1-.74-1.1-2.21s.37-2.21,1.1-2.21h150.25c2.45,0,3.68,1.11,3.68,3.31l.74,46.4c0,.74-.68,1.17-2.03,1.29-1.35,.13-2.15-.18-2.39-.92-1.72-13.5-6.51-23.81-14.36-30.93-7.86-7.12-18.17-10.68-30.93-10.68h-18.78c-10.56,0-17.74,1.54-21.54,4.6-3.81,3.07-5.71,8.78-5.71,17.12V202.91c0,7.86,1.04,13.57,3.13,17.12,2.08,3.56,6.08,6.08,11.97,7.55,5.89,1.47,15.22,2.21,27.99,2.21,.49,0,.74,.74,.74,2.21s-.25,2.21-.74,2.21c-10.07,0-17.92-.12-23.57-.37l-34.62-.37-25.78,.37c-4.67,.25-11.05,.37-19.15,.37-.74,0-1.1-.74-1.1-2.21Zm124.47-101.46c-6.39-5.03-16.57-7.55-30.57-7.55h-46.77v-8.47h47.88c13.26,0,23.02-2.21,29.28-6.63,6.26-4.42,9.39-11.05,9.39-19.89,0-.49,.74-.74,2.21-.74s2.21,.25,2.21,.74l-.37,30.93c0,7.37,.12,12.89,.37,16.57l.37,18.41c0,.5-.74,.74-2.21,.74s-2.21-.24-2.21-.74c0-10.55-3.19-18.35-9.58-23.38Z" fill="#b5b5b6"/>
      <path d="M473.95,232.01c0-1.47,.37-2.21,1.1-2.21,9.08,0,15.71-.61,19.89-1.84,4.17-1.23,7.05-3.62,8.65-7.18,1.59-3.56,2.39-9.02,2.39-16.39V33.88c0-7.37-.74-12.76-2.21-16.2-1.47-3.43-4.24-5.83-8.29-7.18-4.05-1.35-10.5-2.03-19.33-2.03-.74,0-1.1-.74-1.1-2.21s.37-2.21,1.1-2.21h150.25c2.45,0,3.68,1.11,3.68,3.31l.74,46.4c0,.74-.68,1.17-2.03,1.29-1.35,.13-2.15-.18-2.39-.92-1.72-13.5-6.51-23.81-14.36-30.93-7.86-7.12-18.17-10.68-30.93-10.68h-18.78c-10.56,0-17.74,1.54-21.54,4.6-3.81,3.07-5.71,8.78-5.71,17.12V202.91c0,7.86,1.04,13.57,3.13,17.12,2.08,3.56,6.08,6.08,11.97,7.55,5.89,1.47,15.22,2.21,27.99,2.21,.49,0,.74,.74,.74,2.21s-.25,2.21-.74,2.21c-10.07,0-17.92-.12-23.57-.37l-34.62-.37-25.78,.37c-4.67,.25-11.05,.37-19.15,.37-.74,0-1.1-.74-1.1-2.21Zm124.47-101.46c-6.39-5.03-16.57-7.55-30.57-7.55h-46.77v-8.47h47.87c13.26,0,23.02-2.21,29.28-6.63,6.26-4.42,9.39-11.05,9.39-19.89,0-.49,.74-.74,2.21-.74s2.21,.25,2.21,.74l-.37,30.93c0,7.37,.12,12.89,.37,16.57l.37,18.41c0,.5-.74,.74-2.21,.74s-2.21-.24-2.21-.74c0-10.55-3.19-18.35-9.57-23.38Z" fill="#b5b5b6"/>
      <path d="M731.54,220.96c1.35,3.44,4.05,5.77,8.1,7,4.05,1.23,10.62,1.84,19.7,1.84,.49,0,.74,.74,.74,2.21s-.25,2.21-.74,2.21c-7.86,0-13.99-.12-18.41-.37l-26.52-.37-25.78,.37c-4.67,.25-11.05,.37-19.15,.37-.5,0-.74-.74-.74-2.21s.24-2.21,.74-2.21c8.84,0,15.34-.61,19.52-1.84,4.17-1.23,7.05-3.62,8.65-7.18,1.59-3.56,2.39-9.02,2.39-16.39V33.88c0-7.37-.8-12.76-2.39-16.2-1.6-3.43-4.48-5.83-8.65-7.18-4.18-1.35-10.68-2.03-19.52-2.03-.5,0-.74-.74-.74-2.21s.24-2.21,.74-2.21l19.15,.37c10.8,.49,19.39,.74,25.78,.74,7.12,0,16.08-.24,26.88-.74l18.04-.37c.49,0,.74,.74,.74,2.21s-.25,2.21-.74,2.21c-8.84,0-15.28,.74-19.33,2.21-4.05,1.47-6.81,3.99-8.29,7.55-1.47,3.56-2.21,9.02-2.21,16.39V204.39c0,7.61,.67,13.14,2.03,16.57Z" fill="#b5b5b6"/>
      <path d="M970.91,3.13c10.92,2.09,21.18,5.47,30.75,10.13,1.71,.74,2.82,1.54,3.31,2.39,.49,.86,.86,2.76,1.1,5.71l4.79,46.03c0,.74-.68,1.23-2.03,1.47-1.35,.25-2.15-.12-2.39-1.11-12.52-41-37.81-61.5-75.86-61.5-19.4,0-36.58,4.55-51.56,13.63-14.98,9.09-26.58,21.97-34.8,38.67-8.23,16.7-12.34,36.22-12.34,58.55s4.48,41.56,13.44,59.11c8.96,17.56,21.11,31.3,36.46,41.25,15.34,9.94,32.22,14.91,50.64,14.91s34.86-4.84,47.14-14.55c12.27-9.7,22.22-24.73,29.83-45.11,.24-.49,.86-.74,1.84-.74,.49,0,1.04,.18,1.66,.55,.61,.37,.92,.68,.92,.92l-4.05,41.98c-.25,2.95-.62,4.79-1.1,5.52-.5,.74-1.72,1.6-3.68,2.58-12.28,5.65-24.06,9.64-35.35,11.97-11.29,2.33-23.7,3.5-37.19,3.5-26.03,0-49.23-5.09-69.6-15.28-20.38-10.19-36.27-24.36-47.69-42.54-11.42-18.17-17.12-39.04-17.12-62.6s5.83-43.64,17.49-61.68c11.66-18.04,27.8-32.04,48.43-41.98,20.62-9.94,43.7-14.92,69.23-14.92,14.24,0,26.82,1.05,37.75,3.13Z" fill="#b5b5b6"/>
      <path d="M1296.64,232.01c0,1.47-.62,2.21-1.84,2.21-4.67,0-11.91-.24-21.73-.74-10.31-.49-17.68-.74-22.1-.74-5.65,0-12.65,.25-20.99,.74-8.35,.5-14.61,.74-18.78,.74-.98,0-1.47-.74-1.47-2.21s.49-2.21,1.47-2.21c8.34,0,14.36-.79,18.04-2.39,3.68-1.59,5.52-4.48,5.52-8.65s-1.84-9.94-5.52-17.31l-79.18-164.61,11.78-17.68-71.81,166.46c-3.44,8.35-5.16,15.23-5.16,20.62,0,7.86,3.07,13.75,9.21,17.68,6.13,3.93,14.97,5.89,26.52,5.89,1.23,0,1.84,.74,1.84,2.21s-.62,2.21-1.84,2.21c-4.42,0-10.81-.24-19.15-.74-9.33-.49-17.44-.74-24.31-.74-6.39,0-13.99,.25-22.83,.74-7.86,.5-14.24,.74-19.15,.74-.98,0-1.47-.74-1.47-2.21s.5-2.21,1.47-2.21c6.87,0,12.71-1.35,17.49-4.05,4.79-2.7,9.39-7.37,13.81-13.99,4.42-6.63,9.45-16.45,15.1-29.46L1160.01,1.47c.24-.74,1.1-1.16,2.58-1.29,1.47-.12,2.33,.31,2.58,1.29l88.38,182.29c8.59,17.92,15.77,30.08,21.54,36.46,5.77,6.39,12.34,9.58,19.7,9.58,1.23,0,1.84,.74,1.84,2.21Zm-187.81-102.01h100.17l2.58,8.1h-107.17l4.42-8.1Z" fill="#b5b5b6"/>
      <path d="M1372.69,217.83c1.35,3.07,3.87,5.16,7.55,6.26,3.68,1.1,9.45,1.66,17.31,1.66h31.3c15.47,0,28.29-4.6,38.48-13.81,10.18-9.21,17-21.66,20.44-37.38,0-.74,.67-1.04,2.03-.92,1.35,.13,2.03,.55,2.03,1.29-2.21,21.61-3.31,39.53-3.31,53.77,0,1.97-.43,3.38-1.29,4.24s-2.27,1.29-4.23,1.29h-171.61c-.49,0-.74-.74-.74-2.21s.24-2.21,.74-2.21c8.84,0,15.34-.61,19.52-1.84,4.17-1.23,7-3.62,8.47-7.18,1.47-3.56,2.21-9.02,2.21-16.39V33.88c0-7.37-.74-12.76-2.21-16.2-1.47-3.43-4.3-5.83-8.47-7.18-4.18-1.35-10.68-2.03-19.52-2.03-.49,0-.74-.74-.74-2.21s.24-2.21,.74-2.21l18.41,.37c10.8,.49,19.52,.74,26.15,.74s15.34-.24,26.15-.74l18.41-.37c.49,0,.74,.74,.74,2.21s-.25,2.21-.74,2.21c-8.84,0-15.28,.68-19.33,2.03-4.05,1.35-6.81,3.81-8.29,7.37-1.47,3.56-2.21,9.02-2.21,16.39V202.91c0,6.88,.67,11.85,2.03,14.92Z" fill="#b5b5b6"/>
    </g>
  </g>
</svg>