<?xml version="1.0" encoding="UTF-8"?>
<svg id="_圖層_2" data-name="圖層 2" xmlns="http://www.w3.org/2000/svg" viewBox="0 0 217.99 47.21">
  <g id="_圖層_3" data-name="圖層 3">
    <g>
      <path id="path4" d="M78.67,1.31h11.97v15.15h11.81V1.31h11.97V44.71h-11.97V28.43h-11.81v16.29h-11.97V1.31" fill="#040000"/>
      <path id="path6" d="M117.52,1.31h11.97V33.52h13.19v11.2h-25.16V1.31" fill="#040000"/>
      <path id="path8" d="M145.12,1.31h24.19V11.28h-12.22v6.68h12.22v9.98h-12.22v6.8h12.22v9.98h-24.19V1.31" fill="#040000"/>
      <path id="path10" d="M172,1.31h11.97c2.21,.05,4.42,.21,6.6,.61,6.84,1.46,12.38,8.83,10.59,15.89-.81,4.13-3.83,7.29-7.17,9.73,4.16,5.68,8.23,11.43,12.3,17.18h-12.87c-3.25-4.19-6.35-8.53-9.45-12.79v12.79h-11.97V1.31Zm11.97,10.03v8.47c1.97-.09,4.24,.34,5.7-1.2,1.79-1.38,1.79-4.46,.08-5.92-1.55-1.46-3.75-1.24-5.78-1.36" fill="#040000"/>
      <path id="path12" d="M76.96,22.6c0-12.48-10.03-22.6-22.41-22.6s-22.41,10.12-22.41,22.6,10.03,22.6,22.41,22.6,22.41-10.12,22.41-22.6h0Zm-22.41-11.11c5.54,0,10.03,4.98,10.03,11.11s-4.49,11.11-10.03,11.11-10.03-4.98-10.03-11.11,4.49-11.11,10.03-11.11" fill="#040000"/>
      <path id="path14" d="M38.52,1.32c-5.64,6.91-11.4,13.74-17.02,20.67l19.55,22.72h-15.8l-13.27-15.55v15.55H0V1.31H11.97V14.12L23.32,1.32h15.2" fill="#040000"/>
      <path id="path41" d="M213.58,38.4c1.22,0,2.32,.49,3.11,1.29,.8,.8,1.29,1.9,1.29,3.11s-.49,2.32-1.29,3.11c-.8,.8-1.9,1.29-3.11,1.29s-2.32-.49-3.11-1.29c-.8-.8-1.29-1.9-1.29-3.11s.49-2.32,1.29-3.11c.8-.8,1.9-1.29,3.11-1.29Zm2.5,1.9c-.64-.64-1.53-1.04-2.5-1.04s-1.86,.4-2.5,1.04c-.64,.64-1.04,1.53-1.04,2.5s.4,1.86,1.04,2.5c.64,.64,1.53,1.04,2.5,1.04s1.86-.4,2.5-1.04c.64-.64,1.04-1.53,1.04-2.5s-.4-1.86-1.04-2.5" fill="#040000"/>
      <path id="path43" d="M215.43,45.04h-.85l-.69-1.84h-1.13v1.84h-.81v-4.47h1.94c.54,0,.94,.12,1.19,.37,.25,.24,.38,.56,.38,.94,0,.57-.27,.97-.81,1.18l.78,1.97h0Zm-2.68-2.48h1c.29,0,.51-.06,.65-.18,.14-.12,.21-.29,.21-.5,0-.2-.07-.36-.21-.48-.14-.12-.34-.18-.59-.18h-1.07v1.34" fill="#040000"/>
    </g>
  </g>
</svg>