<?xml version="1.0" encoding="UTF-8"?>
<svg id="_圖層_2" data-name="圖層 2" xmlns="http://www.w3.org/2000/svg" xmlns:xlink="http://www.w3.org/1999/xlink" viewBox="0 0 267.51 40.64">
  <defs>
    <clipPath id="clippath">
      <rect x="0" y="0" width="267.5" height="40.64" fill="none"/>
    </clipPath>
    <clipPath id="clippath-1">
      <rect x="0" y="0" width="267.5" height="40.64" fill="none"/>
    </clipPath>
    <clipPath id="clippath-2">
      <rect x="0" y="0" width="267.5" height="40.64" fill="none"/>
    </clipPath>
  </defs>
  <g id="_圖層_3" data-name="圖層 3">
    <g id="g3344">
      <g id="g3532">
        <g clip-path="url(#clippath)">
          <g id="g3534">
            <g id="g3540">
              <path id="path3542" d="M261.79,36.03c-2.13,2.24-4.55,3.58-7.58,4.19-2.05,.41-3.84,.5-5.92,.28-2.76-.28-5.03-1.17-7.25-2.83-1.81-1.35-3.11-2.82-4.25-4.78-.88-1.52-1.39-2.94-1.67-4.67-.4-2.4-.29-4.51,.34-6.85,1.44-5.34,5.46-9.12,10.87-10.24,3.09-.64,5.84-.58,8.89,.21,2.17,.56,3.9,1.51,5.55,3.04,1.04,.96,1.78,1.93,2.43,3.18,.77,1.48,1.09,2.92,1,4.59h-9.65c-.21-1.29-.83-2.32-1.87-3.12-1.35-1.03-3.09-1.11-4.53-.22-.99,.61-1.63,1.45-1.98,2.55-.83,2.64-.87,5.09-.13,7.75,.32,1.12,.85,2,1.69,2.79,.96,.92,2.17,1.3,3.49,1.1,.82-.12,1.48-.48,2.03-1.1,.58-.64,.91-1.32,1.06-2.17,.11-.6,.17-1.1,.2-1.71h10.17c.2,3.07-.77,5.76-2.88,7.99" fill="#0b529c"/>
            </g>
          </g>
        </g>
      </g>
      <path id="path3544" d="M222.9,7.64h10.55V.19h-10.55V7.64Z" fill="#0b529c"/>
      <path id="path3546" d="M222.9,39.69h10.55V11.47h-10.55v28.22Z" fill="#0b529c"/>
      <g id="g3548">
        <path id="path3550" d="M201.05,14.45c1.39-1.21,2.71-2.07,4.39-2.84,2.73-1.26,5.45-1.46,8.33-.62,3.09,.91,5.32,3.08,6.3,6.15,.47,1.48,.67,2.79,.67,4.34v18.21h-11.21V23.31c0-.55-.07-1.01-.23-1.54-.29-.94-.91-1.63-1.82-2.02-1.99-.84-4.25-.1-5.34,1.76-.46,.78-.66,1.54-.66,2.44v15.72h-10.85V11.47h10.18l.24,2.98" fill="#0b529c"/>
      </g>
      <g id="g3552">
        <path id="path3554" d="M76.25,14.45c1.39-1.21,2.71-2.07,4.38-2.84,2.73-1.26,5.45-1.46,8.34-.62,3.09,.91,5.32,3.08,6.3,6.15,.47,1.48,.67,2.79,.67,4.34v18.21h-11.21V23.31c0-.55-.07-1.01-.23-1.54-.29-.94-.91-1.63-1.82-2.02-1.99-.84-4.24-.1-5.33,1.76-.46,.78-.66,1.54-.66,2.44v15.72h-10.85V11.47h10.18l.24,2.98" fill="#0b529c"/>
      </g>
      <g id="g3556">
        <g clip-path="url(#clippath-1)">
          <g id="g3558">
            <g id="g3564">
              <path id="path3566" d="M142.75,29.32c.81,.14,1.48,.31,2.26,.57,.65,.21,1.09,.71,1.24,1.38,.15,.73-.05,1.42-.57,1.94-.53,.54-1.13,.85-1.88,.96-.99,.16-1.88,.08-2.83-.27-.46-.16-.82-.37-1.2-.68-.48-.41-.8-.88-.99-1.48-.16-.51-.22-.97-.21-1.51h-10.33v.6c0,.97,.15,1.8,.49,2.71,.52,1.37,1.23,2.43,2.3,3.42,1.4,1.31,2.86,2.13,4.7,2.65,3.82,1.09,7.26,1.3,11.19,.7,1.84-.28,3.36-.78,5.02-1.64,.73-.38,1.31-.77,1.94-1.3,2.79-2.34,3.83-5.92,2.71-9.39-.42-1.31-1.09-2.32-2.13-3.22-1.42-1.23-2.86-2.02-4.67-2.55-.4-.11-.73-.21-1.13-.32-2.21-.61-4.11-1.02-6.39-1.36-.61-.09-1.12-.19-1.72-.33-.28-.07-.51-.14-.76-.26-.64-.29-.92-1.04-.63-1.67,.02-.03,.03-.06,.05-.1,.34-.61,.85-1.01,1.51-1.2,1.18-.34,2.27-.31,3.42,.08,1.11,.38,1.81,1.4,1.76,2.57h9.96c0-1.22-.2-2.26-.61-3.41-.42-1.17-1.06-2.05-2.04-2.82-.85-.67-1.65-1.13-2.66-1.52-.98-.38-1.85-.62-2.89-.8-2.47-.43-4.59-.55-7.09-.4-1.43,.08-2.63,.26-4.03,.59-1.88,.44-3.4,1.17-4.92,2.36-1.29,1.01-2.14,2.2-2.68,3.74-.25,.7-.36,1.32-.4,2.06-.06,1.24,.12,2.29,.58,3.44,.82,2.06,2.28,3.52,4.34,4.34,1.04,.42,1.96,.69,3.06,.92,2.17,.45,4.01,.8,6.2,1.17" fill="#0b529c"/>
            </g>
          </g>
        </g>
      </g>
      <g id="g3568">
        <path id="path3570" d="M19.23,27.52h-7.24v-9.26h4.71c.89,0,1.65-.02,2.54-.07,1.24-.07,2.27-.62,3-1.62,.39-.53,.61-1.06,.71-1.72,.08-.55,.09-1.02,.03-1.57-.2-2.06-1.91-3.61-3.98-3.61h-7.02v30.01H0V.19H19.59c.78,0,1.44,.01,2.22,.06,5.2,.28,9.48,3.17,11.68,7.88,1.15,2.46,1.54,4.82,1.24,7.51-.62,5.67-4.59,10.09-10.16,11.31-1.85,.41-3.45,.58-5.34,.58" fill="#0b529c"/>
      </g>
      <g id="g3572">
        <path id="path3574" d="M176.6,10.93c-1.12-.18-2.07-.25-3.2-.25s-2.08,.07-3.2,.25c-3.24,.51-5.86,1.81-8.23,4.08-2.53,2.43-3.92,5.31-4.23,8.81-.19,2.15-.03,4,.55,6.07,.89,3.18,2.55,5.64,5.17,7.65,1.73,1.33,3.45,2.12,5.57,2.59,1.51,.33,2.82,.47,4.36,.47s2.85-.14,4.37-.47c2.13-.46,3.84-1.26,5.57-2.59l-6.06-6.61c-.96,2.14-3.48,3.1-5.62,2.13-.99-.44-1.69-1.14-2.13-2.13-.41-.91-.65-1.73-.8-2.72-.3-1.98-.27-3.7,.12-5.67,.2-1.02,.54-1.86,1.11-2.73,1.25-1.9,3.8-2.43,5.7-1.19,.5,.33,.86,.69,1.18,1.19,.57,.87,.91,1.7,1.11,2.73,.38,1.97,.42,3.69,.12,5.67-.15,.99-.39,1.81-.8,2.72l6.06,6.61c2.63-2.01,4.29-4.47,5.17-7.65,.58-2.08,.74-3.92,.55-6.07-.32-3.5-1.7-6.37-4.23-8.81-2.37-2.27-4.99-3.57-8.23-4.08" fill="#0b529c"/>
      </g>
      <g id="g3576">
        <g clip-path="url(#clippath-2)">
          <g id="g3578">
            <g id="g3584">
              <path id="path3586" d="M127.09,37.48c-.16-2.32-.25-4.29-.29-6.63-.06-3.07-.1-5.65-.12-8.71-.01-1.65-.19-3.05-.61-4.65-.54-2.1-1.77-3.69-3.66-4.75-1.14-.64-2.19-1.03-3.47-1.31-4.07-.87-7.66-.94-11.76-.23-1.15,.2-2.11,.48-3.19,.92-2.5,1.03-4.22,2.92-5.02,5.5-.31,.99-.39,1.88-.27,2.91,.02,.19,.07,.35,.15,.52l9.5,.23c-.02-.61,.05-1.12,.26-1.69,.31-.87,.92-1.48,1.79-1.8,1.27-.47,2.5-.49,3.79-.06,.85,.28,1.45,.89,1.71,1.74,.17,.53,.08,1.06-.24,1.51-.28,.4-.63,.67-1.09,.85-.28,.11-.52,.19-.81,.26-1.32,.36-2.45,.6-3.79,.82-1.07,.18-1.97,.34-3.02,.56-1.44,.28-2.64,.6-4.03,1.05-1.28,.41-2.28,1-3.26,1.9-1.28,1.17-2.01,2.56-2.26,4.29-.16,1.15-.12,2.15,.13,3.28,.66,2.94,2.71,5.12,5.61,5.96,3.21,.93,6.23,.78,9.33-.47,1.51-.61,2.66-1.45,3.7-2.7l-.67-4.85c-.48,.74-1.07,1.25-1.88,1.6-.75,.33-1.43,.51-2.25,.59-.68,.07-1.28,.02-1.94-.17-.54-.15-.96-.4-1.34-.8-.32-.35-.51-.72-.61-1.18-.15-.71,.08-1.4,.64-1.87,.37-.32,.74-.53,1.19-.7,1.1-.41,2.04-.71,3.17-1.03,1.37-.38,2.5-.8,3.78-1.39,.13,1.03,.12,1.92-.02,2.94-.1,.75-.33,1.37-.75,2.01l.67,4.85c.21,.69,.4,1.27,.63,1.94,.13,.38,.31,.67,.57,.97h10.46c-.45-.7-.67-1.39-.73-2.22" fill="#0b529c"/>
            </g>
            <g id="g3588">
              <path id="path3590" d="M63.74,37.48c-.16-2.32-.25-4.29-.29-6.63-.06-3.07-.1-5.65-.12-8.71-.01-1.65-.19-3.05-.61-4.65-.54-2.1-1.77-3.69-3.66-4.75-1.14-.64-2.19-1.03-3.47-1.31-4.07-.87-7.66-.94-11.76-.23-1.15,.2-2.11,.48-3.19,.92-2.5,1.03-4.22,2.92-5.02,5.5-.31,.99-.39,1.88-.27,2.91,.02,.19,.07,.35,.15,.52l9.5,.23c-.02-.61,.05-1.12,.26-1.69,.31-.87,.92-1.48,1.79-1.8,1.28-.47,2.5-.49,3.79-.06,.85,.28,1.45,.89,1.72,1.74,.16,.53,.08,1.06-.24,1.51-.28,.4-.63,.67-1.09,.85-.28,.11-.52,.19-.82,.26-1.32,.36-2.45,.6-3.79,.82-1.07,.18-1.97,.34-3.03,.56-1.44,.28-2.64,.6-4.03,1.05-1.27,.41-2.28,1-3.26,1.9-1.28,1.17-2.01,2.56-2.26,4.29-.16,1.15-.12,2.15,.13,3.28,.66,2.94,2.71,5.12,5.6,5.96,3.22,.93,6.23,.78,9.33-.47,1.51-.61,2.66-1.45,3.7-2.7l-.67-4.85c-.48,.74-1.07,1.25-1.88,1.6-.75,.33-1.43,.51-2.25,.59-.69,.07-1.28,.02-1.94-.17-.54-.15-.96-.4-1.34-.8-.32-.35-.52-.72-.61-1.18-.15-.71,.08-1.4,.64-1.87,.37-.32,.73-.53,1.19-.7,1.1-.41,2.05-.71,3.17-1.03,1.37-.38,2.49-.8,3.78-1.39,.13,1.03,.12,1.92-.02,2.94-.1,.75-.33,1.37-.75,2.01l.67,4.85c.21,.69,.4,1.27,.63,1.94,.13,.38,.31,.67,.57,.97h10.46c-.45-.7-.67-1.39-.73-2.22" fill="#0b529c"/>
            </g>
          </g>
        </g>
      </g>
    </g>
  </g>
</svg>