<?xml version="1.0" encoding="UTF-8"?>
<svg id="_圖層_2" data-name="圖層 2" xmlns="http://www.w3.org/2000/svg" viewBox="0 0 43.6 57.76">
  <g id="_圖層_1-2" data-name="圖層 1">
    <path d="M2.76,13.68c1.84-4.32,4.4-7.68,7.68-10.08C13.72,1.2,17.52,0,21.84,0s8.19,1.2,11.44,3.6c3.25,2.4,5.79,5.76,7.6,10.08,1.81,4.32,2.72,9.39,2.72,15.2s-.91,10.88-2.72,15.2c-1.81,4.32-4.35,7.68-7.6,10.08-3.25,2.4-7.07,3.6-11.44,3.6s-8.12-1.2-11.4-3.6c-3.28-2.4-5.84-5.76-7.68-10.08S0,34.69,0,28.88s.92-10.88,2.76-15.2Zm7.4,23.44c.59,2.51,1.43,4.67,2.52,6.48,1.09,1.81,2.41,3.21,3.96,4.2,1.55,.99,3.28,1.48,5.2,1.48s3.64-.49,5.16-1.48c1.52-.99,2.83-2.39,3.92-4.2,1.09-1.81,1.93-3.97,2.52-6.48,.59-2.51,.88-5.25,.88-8.24s-.29-5.73-.88-8.24c-.59-2.51-1.43-4.67-2.52-6.48-1.09-1.81-2.4-3.21-3.92-4.2-1.52-.99-3.24-1.48-5.16-1.48s-3.65,.49-5.2,1.48c-1.55,.99-2.87,2.39-3.96,4.2-1.09,1.81-1.93,3.97-2.52,6.48-.59,2.51-.88,5.25-.88,8.24s.29,5.73,.88,8.24Z" fill="#fff"/>
  </g>
</svg>