<?xml version="1.0" encoding="UTF-8"?>
<svg id="_圖層_2" data-name="圖層 2" xmlns="http://www.w3.org/2000/svg" viewBox="0 0 42.72 56.96">
  <g id="_圖層_1-2" data-name="圖層 1">
    <path d="M25.92,29.68c1.33-1.44,2.48-2.83,3.44-4.16s1.68-2.67,2.16-4c.48-1.33,.72-2.75,.72-4.24,0-1.07-.2-2.12-.6-3.16-.4-1.04-1.01-1.99-1.84-2.84-.83-.85-1.83-1.53-3-2.04-1.17-.51-2.53-.76-4.08-.76-2.13,0-3.97,.49-5.52,1.48-1.55,.99-2.73,2.41-3.56,4.28-.83,1.87-1.24,4.03-1.24,6.48H3.04c0-4,.76-7.56,2.28-10.68,1.52-3.12,3.77-5.57,6.76-7.36C15.07,.89,18.67,0,22.88,0c3.25,0,6.08,.52,8.48,1.56s4.39,2.39,5.96,4.04c1.57,1.65,2.76,3.47,3.56,5.44,.8,1.97,1.2,3.89,1.2,5.76,0,2.93-.72,5.76-2.16,8.48-1.44,2.72-3.31,5.15-5.6,7.28l-15.84,15.6h24.24v8.8H0L25.92,29.68Z" fill="#fff"/>
  </g>
</svg>