<?xml version="1.0" encoding="UTF-8"?>
<svg id="_圖層_2" data-name="圖層 2" xmlns="http://www.w3.org/2000/svg" viewBox="0 0 38.56 57.84">
  <g id="_圖層_1-2" data-name="圖層 1">
    <path d="M11.32,56.52c-2.37-.88-4.4-2.11-6.08-3.68-1.68-1.57-2.97-3.39-3.88-5.44-.91-2.05-1.36-4.23-1.36-6.52H9.52c0,1.76,.44,3.31,1.32,4.64s2.08,2.36,3.6,3.08c1.52,.72,3.21,1.08,5.08,1.08s3.6-.35,5.04-1.04c1.44-.69,2.55-1.69,3.32-3,.77-1.31,1.16-2.89,1.16-4.76,0-1.49-.29-2.83-.88-4-.59-1.17-1.43-2.16-2.52-2.96-1.09-.8-2.4-1.41-3.92-1.84-1.52-.43-3.24-.64-5.16-.64v-5.36c3.09,0,5.97,.29,8.64,.88,2.67,.59,5,1.52,7,2.8,2,1.28,3.56,2.92,4.68,4.92s1.68,4.39,1.68,7.16c0,3.2-.8,6-2.4,8.4-1.6,2.4-3.84,4.27-6.72,5.6-2.88,1.33-6.24,2-10.08,2-2.99,0-5.67-.44-8.04-1.32Zm5.24-32.12c1.71,0,3.23-.23,4.56-.68,1.33-.45,2.47-1.09,3.4-1.92,.93-.83,1.65-1.77,2.16-2.84,.51-1.07,.76-2.19,.76-3.36,0-1.49-.28-2.81-.84-3.96-.56-1.15-1.4-2.04-2.52-2.68-1.12-.64-2.53-.96-4.24-.96-2.4,0-4.43,.73-6.08,2.2-1.65,1.47-2.48,3.32-2.48,5.56H2.4c0-3.09,.73-5.81,2.2-8.16,1.47-2.35,3.51-4.2,6.12-5.56C13.33,.68,16.35,0,19.76,0c3.63,0,6.72,.69,9.28,2.08,2.56,1.39,4.52,3.21,5.88,5.48,1.36,2.27,2.04,4.79,2.04,7.56s-.88,5.33-2.64,7.52c-1.76,2.19-4.17,3.87-7.24,5.04-3.07,1.17-6.57,1.76-10.52,1.76v-5.04Z" fill="#fff"/>
  </g>
</svg>