<?xml version="1.0" encoding="UTF-8"?>
<svg id="_圖層_2" data-name="圖層 2" xmlns="http://www.w3.org/2000/svg" viewBox="0 0 41.76 56.88">
  <g id="_圖層_1-2" data-name="圖層 1">
    <path d="M40.04,46.24c-1.15,2.4-2.71,4.39-4.68,5.96-1.97,1.57-4.19,2.75-6.64,3.52-2.45,.77-5.04,1.16-7.76,1.16-3.41,0-6.44-.45-9.08-1.36-2.64-.91-4.92-2.12-6.84-3.64s-3.6-3.16-5.04-4.92l5.6-6.88c1.12,1.49,2.43,2.84,3.92,4.04,1.49,1.2,3.13,2.16,4.92,2.88,1.79,.72,3.56,1.08,5.32,1.08,2.51,0,4.64-.44,6.4-1.32,1.76-.88,3.11-2.13,4.04-3.76,.93-1.63,1.4-3.56,1.4-5.8s-.53-4.24-1.6-5.84c-1.07-1.6-2.51-2.83-4.32-3.68-1.81-.85-3.79-1.28-5.92-1.28-1.65,0-3.27,.12-4.84,.36-1.57,.24-3.17,.68-4.8,1.32-1.63,.64-3.4,1.55-5.32,2.72L12.4,0h28.8V8.32H19.52l-3.52,12.8c1.39-.69,2.83-1.2,4.32-1.52,1.49-.32,3.01-.48,4.56-.48,3.09,0,5.92,.77,8.48,2.32,2.56,1.55,4.6,3.71,6.12,6.48,1.52,2.77,2.28,6.05,2.28,9.84,0,3.25-.57,6.08-1.72,8.48Z" fill="#fff"/>
  </g>
</svg>