<?xml version="1.0" encoding="UTF-8"?>
<svg id="_圖層_2" data-name="圖層 2" xmlns="http://www.w3.org/2000/svg" viewBox="0 0 41.12 56.88">
  <g id="_圖層_1-2" data-name="圖層 1">
    <path d="M34.48,0L16.72,22l-1.36,.24c1.23-1.39,2.53-2.31,3.92-2.76,1.39-.45,3.04-.68,4.96-.68,2.19,0,4.29,.44,6.32,1.32,2.03,.88,3.83,2.13,5.4,3.76,1.57,1.63,2.83,3.56,3.76,5.8,.93,2.24,1.4,4.69,1.4,7.36,0,4.11-.92,7.65-2.76,10.64-1.84,2.99-4.31,5.27-7.4,6.84-3.09,1.57-6.56,2.36-10.4,2.36s-7.31-.79-10.4-2.36c-3.09-1.57-5.56-3.85-7.4-6.84-1.84-2.99-2.76-6.53-2.76-10.64,0-2.61,.44-5.03,1.32-7.24,.88-2.21,2.01-4.2,3.4-5.96L22.48,0h12ZM10.76,43.04c.99,1.71,2.33,3.05,4.04,4.04,1.71,.99,3.63,1.48,5.76,1.48s4.05-.49,5.76-1.48c1.71-.99,3.05-2.33,4.04-4.04,.99-1.71,1.48-3.71,1.48-6s-.49-4.33-1.48-6.12c-.99-1.79-2.33-3.17-4.04-4.16-1.71-.99-3.63-1.48-5.76-1.48s-4.05,.49-5.76,1.48c-1.71,.99-3.05,2.37-4.04,4.16-.99,1.79-1.48,3.83-1.48,6.12s.49,4.29,1.48,6Z" fill="#fff"/>
  </g>
</svg>