<?xml version="1.0" encoding="UTF-8"?>
<svg id="_圖層_2" data-name="圖層 2" xmlns="http://www.w3.org/2000/svg" viewBox="0 0 37.68 58">
  <g id="_圖層_1-2" data-name="圖層 1">
    <path d="M1.6,34.72c1.07-2.03,2.51-3.72,4.32-5.08,1.81-1.36,3.84-2.37,6.08-3.04,2.24-.67,4.51-1,6.8-1s4.57,.33,6.84,1c2.27,.67,4.31,1.68,6.12,3.04,1.81,1.36,3.25,3.05,4.32,5.08,1.07,2.03,1.6,4.4,1.6,7.12,0,2.35-.49,4.49-1.48,6.44-.99,1.95-2.35,3.65-4.08,5.12-1.73,1.47-3.73,2.6-6,3.4-2.27,.8-4.71,1.2-7.32,1.2s-4.97-.4-7.24-1.2c-2.27-.8-4.27-1.93-6-3.4-1.73-1.47-3.09-3.17-4.08-5.12-.99-1.95-1.48-4.09-1.48-6.44,0-2.72,.53-5.09,1.6-7.12ZM4.24,7c1.49-2.16,3.52-3.87,6.08-5.12,2.56-1.25,5.39-1.88,8.48-1.88s5.99,.63,8.52,1.88c2.53,1.25,4.56,2.96,6.08,5.12,1.52,2.16,2.28,4.68,2.28,7.56,0,2.35-.44,4.41-1.32,6.2-.88,1.79-2.09,3.29-3.64,4.52-1.55,1.23-3.35,2.16-5.4,2.8-2.05,.64-4.23,.96-6.52,.96s-4.45-.32-6.48-.96c-2.03-.64-3.81-1.57-5.36-2.8-1.55-1.23-2.76-2.73-3.64-4.52-.88-1.79-1.32-3.85-1.32-6.2,0-2.88,.75-5.4,2.24-7.56Zm6.36,38.68c.88,1.39,2.05,2.45,3.52,3.2,1.47,.75,3.03,1.12,4.68,1.12s3.28-.37,4.72-1.12c1.44-.75,2.61-1.81,3.52-3.2,.91-1.39,1.36-3.09,1.36-5.12,0-1.76-.45-3.36-1.36-4.8-.91-1.44-2.08-2.57-3.52-3.4-1.44-.83-3.01-1.24-4.72-1.24s-3.21,.41-4.68,1.24c-1.47,.83-2.64,1.96-3.52,3.4-.88,1.44-1.32,3.04-1.32,4.8,0,2.03,.44,3.73,1.32,5.12Zm1.44-26c.72,1.17,1.68,2.09,2.88,2.76,1.2,.67,2.49,1,3.88,1s2.76-.33,3.96-1c1.2-.67,2.16-1.59,2.88-2.76,.72-1.17,1.08-2.56,1.08-4.16s-.35-2.93-1.04-4.16c-.69-1.23-1.61-2.17-2.76-2.84-1.15-.67-2.52-1-4.12-1-1.49,0-2.84,.33-4.04,1-1.2,.67-2.13,1.61-2.8,2.84-.67,1.23-1,2.61-1,4.16s.36,2.99,1.08,4.16Z" fill="#fff"/>
  </g>
</svg>