<?xml version="1.0" encoding="UTF-8"?>
<svg id="_圖層_2" data-name="圖層 2" xmlns="http://www.w3.org/2000/svg" viewBox="0 0 41.12 56.96">
  <g id="_圖層_1-2" data-name="圖層 1">
    <path d="M6.56,56.96l17.76-22,1.44-.24c-1.23,1.39-2.55,2.29-3.96,2.72-1.41,.43-3.05,.64-4.92,.64-2.24,0-4.36-.43-6.36-1.28-2-.85-3.8-2.09-5.4-3.72-1.6-1.63-2.85-3.56-3.76-5.8-.91-2.24-1.36-4.69-1.36-7.36,0-4.16,.92-7.72,2.76-10.68S7.07,4,10.16,2.4C13.25,.8,16.72,0,20.56,0s7.31,.8,10.4,2.4c3.09,1.6,5.56,3.88,7.4,6.84,1.84,2.96,2.76,6.52,2.76,10.68,0,2.61-.45,5.01-1.36,7.2-.91,2.19-2.03,4.19-3.36,6l-17.84,23.84H6.56ZM30.36,13.88c-.99-1.73-2.33-3.09-4.04-4.08-1.71-.99-3.63-1.48-5.76-1.48s-4.05,.49-5.76,1.48c-1.71,.99-3.05,2.35-4.04,4.08-.99,1.73-1.48,3.75-1.48,6.04s.49,4.32,1.48,6.08c.99,1.76,2.33,3.15,4.04,4.16,1.71,1.01,3.63,1.52,5.76,1.52s4.05-.51,5.76-1.52c1.71-1.01,3.05-2.4,4.04-4.16,.99-1.76,1.48-3.79,1.48-6.08s-.49-4.31-1.48-6.04Z" fill="#fff"/>
  </g>
</svg>