<?xml version="1.0" encoding="UTF-8"?>
<svg id="_圖層_2" data-name="圖層 2" xmlns="http://www.w3.org/2000/svg" viewBox="0 0 90.28 42.45">
  <g id="_圖層_1-2" data-name="圖層 1">
    <g>
      <path d="M42.56,39.42l-2.98,3.02c-3.5-2.97-6.2-5.76-8.11-8.37-2.08,2.69-4.86,5.46-8.34,8.32l-3.07-2.98c3.97-3.16,6.99-6.13,9.07-8.93-3.42-5.56-5.53-12.89-6.33-21.98h-.96v-3.12h-2.46V42.05h-4.12v-7.92c-4.44,1.48-9.03,2.69-13.78,3.61l-1.48-4.12c1.14-.12,2.38-.32,3.7-.59V5.39H.63V1.36H22.5v2.93h18.09c-.45,11.7-2.62,20.47-6.52,26.3,1.91,2.78,4.73,5.73,8.48,8.84ZM15.26,11.2V5.39H7.88v5.81h7.38Zm0,9.82v-5.79H7.88v5.79h7.38Zm0,8.79v-4.8H7.88v7.01c2.77-.64,5.23-1.38,7.38-2.2ZM36.14,8.51h-9.16c.75,7.25,2.34,13.17,4.76,17.77,2.23-4.56,3.7-10.48,4.41-17.77Z" fill="#fff"/>
      <path d="M59.46,17.81l-2.62,3.52c-2.67-2.33-5.54-4.3-8.6-5.91l2.6-3.52c3.16,1.7,6.03,3.67,8.62,5.91Zm.68,8.51c-2.23,6.16-4.88,11.52-7.92,16.08l-3.75-2.51c2.95-4.27,5.61-9.58,7.97-15.94l3.7,2.37Zm0-19.41l-2.98,3.28c-2.48-2.69-5.31-5.01-8.48-6.96l3.12-3.23c3,1.97,5.78,4.27,8.34,6.91Zm28.62,30c0,2.17-.48,3.56-1.43,4.17s-2.71,.91-5.27,.91c-.94,0-1.78-.03-2.53-.09l-1.57-3.98c2.62,.05,4.39,.04,5.31-.02s1.37-.41,1.37-1.03v-5.55c-5.19,1.39-10.65,2.63-16.38,3.73l-1.43-2.67c-.81,4.06-2.35,7.26-4.62,9.59l-3.4-2.72c1.2-1.22,2.21-2.92,3.01-5.11s1.21-5.48,1.21-9.87V14.32h10.71V.21h4.27V14.32h10.76v22.59Zm-17.81-25.97l-3.7,2.11c-1.92-3.73-3.98-6.91-6.19-9.54l3.75-2.25c2.83,3.67,4.88,6.9,6.14,9.68Zm13.69,16.29v-9.02h-17.39v2.81c5,.39,9.93,.88,14.79,1.45l-1.1,4.08c-4.03-.7-8.59-1.25-13.69-1.64,.05,1.98-.03,4.05-.23,6.19,6.17-.98,12.05-2.27,17.62-3.87Zm5.65-24.3c-1.19,3.27-2.98,6.71-5.37,10.34l-3.98-1.92c2.16-3.11,3.96-6.47,5.41-10.08l3.94,1.66Z" fill="#fff"/>
    </g>
  </g>
</svg>