<?xml version="1.0" encoding="UTF-8"?>
<svg id="_圖層_2" data-name="圖層 2" xmlns="http://www.w3.org/2000/svg" viewBox="0 0 202.97 27.61">
  <g id="_圖層_2-2" data-name="圖層 2">
    <g>
      <path d="M18.12,17.39c0,2.2-.91,3.95-2.73,5.24-1.64,1.17-3.59,1.76-5.85,1.76-2.55,0-4.82-.93-6.82-2.79l-1.49,2.48H.21l-.21-8.82,1.06-.06c1.11,5.44,3.94,8.15,8.49,8.15,1.55,0,2.85-.48,3.88-1.45,1.01-.99,1.51-2.25,1.51-3.79,0-1.43-.65-2.52-1.94-3.27-.65-.36-1.92-.78-3.82-1.24-2.63-.65-4.54-1.33-5.76-2.06-1.94-1.23-2.91-2.91-2.91-5.03,0-1.96,.8-3.56,2.39-4.79,1.45-1.15,3.19-1.73,5.21-1.73,2.49,0,4.68,.77,6.58,2.3L15.73,.21h.97l.42,8.12h-1.03c-1.31-4.89-3.91-7.33-7.79-7.33-1.35,0-2.46,.48-3.33,1.42-.87,.93-1.3,2.07-1.3,3.42,0,1.25,.64,2.18,1.91,2.79,.4,.22,1.75,.63,4.03,1.21,3.05,.81,4.99,1.48,5.82,2.03,1.8,1.13,2.7,2.97,2.7,5.52Z" fill="#c9a063"/>
      <path d="M38.66,15.49c0,2.3-.59,4.23-1.76,5.79-1.27,1.74-3.03,2.61-5.27,2.61-1.92,0-3.29-.57-4.12-1.7v3.15c0,.83,.4,1.24,1.21,1.24h1.85v1.03h-9.36v-1.03h1.88c.79,0,1.18-.41,1.18-1.24V10.46c0-.79-.21-1.26-.64-1.42-.18-.08-.77-.12-1.76-.12v-1.09l5.64-.39v1.91c.71-1.52,2.08-2.27,4.12-2.27,2.22,0,3.98,.87,5.27,2.61,1.17,1.58,1.76,3.52,1.76,5.82Zm-3.76,0c0-1.74-.24-3.27-.73-4.61-.69-1.86-1.74-2.79-3.15-2.79s-2.57,.99-3.27,2.97c-.48,1.41-.73,3.02-.73,4.82,0,1.68,.25,3.14,.76,4.39,.73,1.72,1.81,2.58,3.24,2.58s2.43-.94,3.12-2.82c.5-1.33,.76-2.85,.76-4.55Z" fill="#c9a063"/>
      <path d="M56.81,9.82c0,.61-.2,1.12-.61,1.55-.38,.42-.88,.64-1.49,.64-.54,0-1.04-.2-1.48-.61-.45-.36-.67-.82-.67-1.36,0-.69,.2-1.23,.61-1.64-1.68,.34-2.95,1.76-3.82,4.24-.65,1.88-.97,3.96-.97,6.24v2.79c0,.79,.39,1.18,1.18,1.18h1.85v1.03h-9.21v-1.03h1.82c.81,0,1.21-.39,1.21-1.18V10.36c0-.77-.2-1.23-.61-1.39-.16-.1-.73-.15-1.7-.15v-1.06l5.46-.36v4.64c1.35-3.31,3.11-4.97,5.27-4.97,.83,0,1.57,.26,2.21,.79,.63,.51,.94,1.16,.94,1.97Z" fill="#c9a063"/>
      <path d="M74.47,15.73h-10.85c0,1.82,.29,3.35,.88,4.61,.77,1.7,1.96,2.55,3.58,2.55,2.34,0,4.17-1.3,5.48-3.91l.88,.48c-.79,1.74-1.66,2.97-2.61,3.7-1.09,.83-2.53,1.24-4.3,1.24-2.34,0-4.23-.88-5.67-2.64-1.33-1.58-2-3.58-2-6s.66-4.42,1.97-6.06c1.41-1.76,3.29-2.64,5.64-2.64s4.04,.91,5.27,2.73c1.11,1.58,1.69,3.56,1.73,5.94Zm-3.73-1.88c0-1.41-.22-2.63-.67-3.64-.57-1.41-1.48-2.12-2.73-2.12s-2.27,.82-2.94,2.45c-.5,1.19-.76,2.56-.76,4.09h5.85c.83,0,1.24-.26,1.24-.79Z" fill="#c9a063"/>
      <path d="M94.46,22.33c0,.44-.33,.85-1,1.21-.57,.32-1.1,.48-1.61,.48-1.5,0-2.46-.8-2.91-2.39-1.56,1.84-3.4,2.76-5.54,2.76-1.5,0-2.73-.34-3.7-1.03-1.13-.79-1.7-1.91-1.7-3.36,0-3.29,3.55-5.31,10.64-6.06v-3.39c0-1.64-1.04-2.45-3.12-2.45-1.84,0-2.76,.64-2.76,1.91,0-.02,.12,.21,.36,.7,.26,.44,.39,.84,.39,1.18,0,.63-.23,1.14-.7,1.55-.44,.38-.99,.58-1.64,.58-.69,0-1.22-.23-1.61-.7-.4-.48-.61-1.07-.61-1.76,0-1.47,.79-2.63,2.36-3.45,1.29-.69,2.74-1.03,4.33-1.03,4.16,0,6.24,1.65,6.24,4.94v9.64c0,.59,.25,.88,.76,.88,.26,0,.54-.1,.82-.3,.28-.2,.46-.3,.55-.3,.28,0,.42,.14,.42,.42Zm-5.82-3.27v-4.12c-1.68,.28-3.13,.75-4.36,1.39-1.72,.93-2.58,2.08-2.58,3.45,0,2.26,.83,3.39,2.49,3.39,.97,0,1.96-.44,2.97-1.33,.99-.87,1.48-1.8,1.48-2.79Z" fill="#c9a063"/>
      <path d="M113.46,24.3h-1.88l-1.97-4.06c-.75,2.77-2.42,4.15-5.03,4.15-2.22,0-3.98-.93-5.27-2.79-1.17-1.64-1.76-3.6-1.76-5.88s.58-4.29,1.73-5.91c1.29-1.84,3.05-2.76,5.27-2.76s3.71,1.04,4.76,3.12V3.03c0-.71-.21-1.16-.64-1.36-.24-.12-.77-.18-1.58-.18V.39l5.39-.39V18.88c0,2.08,.32,3.89,.97,5.42Zm-4.3-8.73c0-1.68-.25-3.22-.76-4.64-.73-1.9-1.8-2.85-3.21-2.85s-2.44,.98-3.15,2.94c-.5,1.41-.76,2.98-.76,4.7s.25,3.29,.76,4.67c.69,1.98,1.74,2.97,3.15,2.97s2.54-1,3.24-3c.49-1.41,.73-3.01,.73-4.79Z" fill="#c9a063"/>
      <path d="M129.21,18.97c0,1.64-.54,2.95-1.61,3.94-1.07,.99-2.43,1.48-4.09,1.48-1.92,0-3.63-.74-5.12-2.21l-1,1.97h-1.03v-6.79h1.06c.49,1.7,1.19,3.06,2.12,4.09,1.13,1.27,2.49,1.91,4.06,1.91,.73,0,1.4-.28,2.03-.85,.58-.55,.88-1.17,.88-1.88,0-.93-.34-1.67-1.03-2.21-.46-.4-1.22-.75-2.27-1.03-2.28-.65-3.82-1.22-4.61-1.73-1.31-.87-1.97-2.12-1.97-3.76,0-1.43,.5-2.61,1.49-3.52,.99-.89,2.2-1.33,3.64-1.33,1.76,0,3.26,.5,4.51,1.48l.91-1.36h1.06v6.03h-1.06c-.5-1.66-1.09-2.86-1.76-3.61-.89-1.01-2.1-1.52-3.64-1.52-.69,0-1.28,.24-1.79,.73-.49,.48-.73,1.07-.73,1.76,0,1.35,.86,2.26,2.58,2.73,2.61,.69,4.34,1.29,5.21,1.82,1.43,.89,2.15,2.17,2.15,3.85Z" fill="#c9a063"/>
      <path d="M151.42,23.88h-8.79v-1.03h1.51c.81,0,1.21-.41,1.21-1.24V11.94c0-1.05-.23-1.93-.7-2.64-.55-.81-1.32-1.21-2.33-1.21-1.33,0-2.38,.76-3.15,2.27-.63,1.23-.94,2.58-.94,4.03v7.21c0,.83,.42,1.24,1.27,1.24h1.46v1.03h-8.67v-1.03h1.49c.83,0,1.24-.41,1.24-1.24V3.03c0-.79-.18-1.27-.55-1.45-.16-.08-.71-.12-1.64-.12V.36l5.39-.36V9.85c.4-.83,1.01-1.49,1.82-2,.81-.52,1.68-.79,2.61-.79,4.02,0,6.03,2.24,6.03,6.73v7.82c0,.83,.4,1.24,1.21,1.24h1.52v1.03Z" fill="#c9a063"/>
      <path d="M169.11,15.73h-10.85c0,1.82,.29,3.35,.88,4.61,.77,1.7,1.96,2.55,3.58,2.55,2.34,0,4.17-1.3,5.48-3.91l.88,.48c-.79,1.74-1.66,2.97-2.61,3.7-1.09,.83-2.53,1.24-4.3,1.24-2.34,0-4.23-.88-5.67-2.64-1.33-1.58-2-3.58-2-6s.66-4.42,1.97-6.06c1.41-1.76,3.29-2.64,5.64-2.64s4.04,.91,5.27,2.73c1.11,1.58,1.69,3.56,1.73,5.94Zm-3.73-1.88c0-1.41-.22-2.63-.67-3.64-.57-1.41-1.48-2.12-2.73-2.12s-2.27,.82-2.94,2.45c-.5,1.19-.76,2.56-.76,4.09h5.85c.83,0,1.24-.26,1.24-.79Z" fill="#c9a063"/>
      <path d="M187.25,15.73h-10.85c0,1.82,.29,3.35,.88,4.61,.77,1.7,1.96,2.55,3.58,2.55,2.34,0,4.17-1.3,5.49-3.91l.88,.48c-.79,1.74-1.66,2.97-2.61,3.7-1.09,.83-2.53,1.24-4.3,1.24-2.34,0-4.23-.88-5.67-2.64-1.33-1.58-2-3.58-2-6s.66-4.42,1.97-6.06c1.41-1.76,3.29-2.64,5.64-2.64s4.04,.91,5.27,2.73c1.11,1.58,1.69,3.56,1.73,5.94Zm-3.73-1.88c0-1.41-.22-2.63-.67-3.64-.57-1.41-1.47-2.12-2.73-2.12s-2.27,.82-2.94,2.45c-.5,1.19-.76,2.56-.76,4.09h5.85c.83,0,1.24-.26,1.24-.79Z" fill="#c9a063"/>
      <path d="M202.97,17.85c0,4.36-1.58,6.55-4.73,6.55-1.43,0-2.54-.42-3.33-1.27-.79-.85-1.18-2.01-1.18-3.48V8.58h-3.09v-1.03c1.72,0,3.02-.75,3.91-2.24,.73-1.23,1.09-2.78,1.09-4.64h1.24V7.55h5v1.03h-5v11.58c0,2.08,.69,3.12,2.06,3.12,1.09,0,1.91-.68,2.46-2.03,.36-.97,.54-2.1,.54-3.39h1.03Z" fill="#c9a063"/>
    </g>
  </g>
</svg>