<?xml version="1.0" encoding="UTF-8"?>
<svg id="_圖層_2" data-name="圖層 2" xmlns="http://www.w3.org/2000/svg" viewBox="0 0 91.01 42.77">
  <g id="_圖層_1-2" data-name="圖層 1">
    <g>
      <path d="M16.12,6.23h-5.95c-.81,3.92-1.73,7.33-2.74,10.22h7.92v23.95h-3.98v-2.2h-3.07v3.21H4.27V23.51c-.86,1.42-1.55,2.45-2.06,3.09L0,22.17c2.7-3.84,4.7-9.16,6-15.94H.66V2.2h15.47V6.23Zm-4.76,27.98v-13.73h-3.07v13.73h3.07Zm30.91,6.05H24.09v2.37h-4.12V21.49c-.59,.44-1.49,1.15-2.7,2.13l-1.48-4.08c4.33-3.55,7.34-7.39,9.02-11.53h-3.56v5.23h-4.08V4.22h9.12c.31-.7,.74-2.11,1.29-4.22l3.89,.73c-.2,1.09-.52,2.26-.96,3.49h10.99V13.2h-4.12v-5.18h-8.25c-1.2,2.86-2.62,5.5-4.27,7.92h5.13c-.23-.98-.65-2.2-1.24-3.66l3.82-1.2c.52,1.31,1.03,2.93,1.55,4.85h7.64v3.49h-7.69v3.23h6.82v3.49h-6.82v3.47h6.82v3.45h-6.82v3.52h8.2v3.68Zm-12.19-17.6v-3.23h-6v3.23h6Zm0,6.96v-3.47h-6v3.47h6Zm0,6.96v-3.52h-6v3.52h6Z" fill="#fff"/>
      <path d="M91.01,37.69l-1.2,4.17c-1.72,.03-3.53,.05-5.44,.05-6.89,0-11.48-.17-13.77-.5s-4.48-1.09-6.56-2.25-4.04-3.01-5.87-5.54c-1.72,3.23-3.84,6.29-6.38,9.16l-3.42-2.79c4.88-4.73,7.84-10.93,8.88-18.59l4.36,.54c-.33,2.34-.85,4.63-1.57,6.87,2.2,4,4.94,6.55,8.2,7.66V18.19h-12.87v-3.98h27.89v3.98h-10.66v6.23h14.79v3.98h-14.79v8.88c3.78,.34,7.82,.52,12.12,.52,2.11,0,4.2-.04,6.28-.12Zm-1.83-21.66h-4.31v-7.24h-30.82v7.24h-4.52V4.8h17.62c-.56-1.22-1.27-2.45-2.11-3.7L69.3,.09c.97,1.25,1.87,2.82,2.7,4.71h17.18v11.23Z" fill="#fff"/>
    </g>
  </g>
</svg>