<?xml version="1.0" encoding="UTF-8"?>
<svg id="_圖層_2" data-name="圖層 2" xmlns="http://www.w3.org/2000/svg" viewBox="0 0 25.06 29.3">
  <g id="icon">
    <g>
      <path d="M11.8,29.3h-.04c-.29-.02-.51-.27-.49-.56,0,0,0,0,0,0,.46-6.82,1.22-25.14-.84-27.9-.17-.23-.12-.56,.12-.74,.23-.17,.56-.12,.73,.11,2.67,3.58,1.22,26.05,1.05,28.6-.02,.28-.25,.49-.52,.49Z" fill="#f0f0f0"/>
      <path d="M12.36,13.61h0c-.16,0-.31-.1-.38-.24-.03-.07-3.32-6.86-5.69-9.16-.17-.16-.15-.69,.01-.86,.16-.17,.43-.17,.6,0h0c2.02,1.96,4.53,6.93,5.47,8.88,.4-.81,1.08-2.15,1.86-3.54,1.7-3.02,3.06-4.84,4.03-5.4,.2-.12,.46-.05,.58,.15,0,0,0,0,0,0,.12,.2,.03,.71-.15,.84-1.49,1.09-4.86,6.82-5.94,9.1-.07,.15-.22,.24-.38,.24Z" fill="#f0f0f0"/>
      <path d="M12.29,16.14h0c-.14,0-.27-.07-.34-.18-.05-.07-5.12-6.84-7.16-8.75-.28-.26-.19-.7-.05-.88,.15-.18,.41-.21,.59-.06,0,0,0,0,0,0,1.95,1.58,5.8,7.04,6.97,8.72,.58-.8,1.81-2.47,3.09-4.12,3.7-4.76,4.25-4.72,4.58-4.7,.23,.02,.41,.22,.39,.45,0,0,0,0,0,0-.01,.22-.21,.59-.46,.66-.76,.27-4.26,4.48-7.27,8.69-.08,.11-.21,.18-.34,.18Z" fill="#f0f0f0"/>
      <path d="M12.22,18.17h-.01c-.12,0-.23-.05-.3-.14-.06-.07-5.8-6.02-8.51-7.11-.44-.18-.49-.89-.41-1.11,.08-.22,.32-.33,.54-.25,0,0,0,0,0,0,2.6,.95,7.45,6.18,8.72,7.58,.65-.65,2.22-2.19,3.86-3.67,4.51-4.09,5.18-3.83,5.54-3.69,.22,.08,.25,.4,.25,.63,0,.26-.33,.71-.57,.78-.36,.12-4.69,2.71-8.79,6.85-.08,.08-.19,.13-.3,.13h0Z" fill="#f0f0f0"/>
      <path d="M12.22,20.07c-.1,0-.2-.04-.27-.1-3.1-2.65-8.2-6.01-9.4-6.43-.22-.08-.4-.68-.36-.91,.04-.23,.25-.39,.48-.35,0,0,0,0,0,0,.31,.05,1.25,.19,5.69,3.66,1.7,1.33,3.27,2.65,3.88,3.16,1.95-1.48,8.7-6.55,10.29-6.55h.03c.23,.01,.41,.21,.4,.44-.01,.23-.25,.62-.5,.65-.9,.13-5.76,3.08-9.98,6.33-.07,.06-.16,.09-.26,.09h0Z" fill="#f0f0f0"/>
      <path d="M12.15,21.54c-.09,0-.18-.03-.25-.08-.07-.05-7.16-4.92-10.37-5.06-.42-.02-.62-.68-.61-.91,0-.23,.2-.41,.43-.4,0,0,0,0,0,0,3.15,.13,9.47,4.57,10.8,5.52,1.6-1.06,8.62-5.58,11.13-5.31,.23,.03,.4,.23,.37,.46-.03,.23-.34,.59-.57,.59-1.99-.01-8.38,3.56-10.71,5.12-.07,.05-.15,.07-.23,.07Z" fill="#f0f0f0"/>
      <path d="M12.15,22.67c-.11,0-.15-.01-1.49-.44-2.56-.81-7.61-1.92-9.7-2.07-.23-.02-.68-.8-.67-1.03,.02-.23,.21-.4,.45-.39,0,0,0,0,0,0,2.19,.16,7.58,1.87,10.17,2.69,.55,.17,1.04,.33,1.23,.38,.14-.05,.45-.16,.77-.27,2.33-.83,8.51-3.05,11.34-2.87,.23,.02,.41,.22,.39,.45-.01,.23-.42,.84-.66,.82-2.65-.17-8.51,1.58-10.79,2.4-.9,.32-.94,.33-1.05,.33h0Z" fill="#f0f0f0"/>
      <path d="M12.07,23.79s-.06,0-.09-.01c-1.46-.33-9.91-.83-11.16-.39-.22,.08-.72-.36-.8-.58-.08-.22,.04-.46,.26-.54,1.56-.54,10.27,.37,11.79,.67,1.34-.28,11.1-1.94,12.84-.45,.18,.15,.2,.42,.05,.59-.15,.18-.81,.31-1.19,.06-1.31-.86-9.23,.07-11.6,.63-.03,0-.07,.01-.1,.01h0Z" fill="#f0f0f0"/>
      <path d="M2.6,25.97c-.23,0-.42-.19-.42-.42,0-.12,.05-.23,.14-.31,2.64-2.43,9.24-1.73,9.85-1.66,1.64-.07,9.4-.32,10.66,1.6,.13,.19,.07,.46-.12,.58h0c-.2,.13-.73,.03-.91-.15-.53-.53-3.15-1.48-9.62-1.18-.02,0-.05,0-.07,0-.07,0-6.69-.7-9.11,1.53-.08,.07-.28,.02-.39,.02h0Z" fill="#f0f0f0"/>
    </g>
  </g>
</svg>