<?xml version="1.0" encoding="UTF-8"?>
<svg id="_圖層_2" data-name="圖層 2" xmlns="http://www.w3.org/2000/svg" viewBox="0 0 158.45 87.04">
  <g id="text">
    <g>
      <g>
        <path d="M35.62,59.87c-.3,.33-.63,.41-1.41,.48-1.38,1.12-3.65,2.6-5.47,3.39l-.22-.22c.15-1.19,.22-2.9,.26-4.28H6.55c.45,2.87-.48,4.91-1.97,5.81-1.45,.86-3.91,.15-4.47-1.86-.48-1.9,.63-3.28,2.23-3.95,1.15-.56,2.87-1.94,2.83-3.39h.37c.37,.82,.63,1.6,.82,2.34h11.24c-.48-.15-1-.37-1.49-.74,.04-2.08-.86-4.24-2.31-5.47l.19-.19c9.79-.56,8.93,5.4,5.58,6.4h8.78l2.64-2.68,4.61,4.35Zm-4.73,20.58s2.9,2.53,4.58,4.17c-.11,.41-.52,.6-1.04,.6H.67l-.3-1.04H7.89v-22.4l5.47,2.05h8.78l2.16-2.83,5.28,3.61c-.26,.37-.71,.6-1.67,.78v18.79h.37l2.6-3.72Zm-17.83-15.59v5.58h9.42v-5.58H13.07Zm9.42,6.62H13.07v5.62h9.42v-5.62Zm-9.42,12.69h9.42v-6.03H13.07v6.03Z" fill="#fff"/>
        <path d="M68.88,61.17c.04,3.46,.26,6.77,.74,9.71,.67-2.01,1.23-4.21,1.71-6.62l5.36,1.71c-.15,.48-.52,.71-1.49,.71-1.12,3.76-2.46,6.96-4.09,9.68,.52,1.3,1.15,2.42,1.94,3.42,.41,.56,.6,.56,.97-.11,.52-.97,1.41-2.87,2.05-4.43l.37,.07-.82,6.44c1.08,2.46,1.3,3.91,.56,4.47-2.01,1.56-4.84-.37-6.07-2.01-.82-1.12-1.53-2.34-2.16-3.65-2.38,2.6-5.28,4.65-8.93,6.29l-.3-.56c3.39-2.38,5.99-5.21,8.04-8.75-.97-2.87-1.56-5.99-1.94-9.38l-.26,.04c-.11,7.93-.3,10.94-1.79,12.21-.82,.67-1.86,.89-3.05,.93,.04-.78-.11-1.71-.41-2.2-.22-.41-.63-.82-1.23-1.08-.97,3.27-2.75,6.48-5.95,8.97l-.37-.3c.48-.93,.89-1.9,1.23-2.87-.33,.37-2.16,1.15-3.42,1.15h-.74v-2.01h-1.97v2.49c0,.37-1.82,1.34-3.65,1.34h-.63v-15.18l4.43,1.75h1.49l1.9-1.97,3.83,2.9c-.19,.22-.6,.48-1.15,.6v8.75c1.75-5.06,1.86-10.83,1.86-15.89v-7.82c-.19,.19-.45,.26-.78,.26h-12.58l-.3-1.04h8.97l1.71-2.31s1.79,1.45,2.98,2.57v-1.12l5.06,1.79h4.35c-.07-2.57-.07-5.21-.07-7.93l6.03,.63c-.04,.48-.37,.93-1.34,1.08-.04,2.08-.07,4.17-.07,6.22h1.79l1.64-2.16c-.15-.11-.3-.19-.45-.3-.11-1.56-.93-3.24-1.71-4.24l.3-.19c7.15,.19,6.33,4.35,3.87,4.99,.86,.71,1.97,1.6,2.75,2.34-.11,.41-.48,.6-1.04,.6h-7.15Zm-18.09,.6s1.86,1.53,2.94,2.61c-.07,.41-.45,.6-.93,.6h-10.2l-.3-1.04h6.85l1.64-2.16Zm-8.49,7h6.85l1.64-2.16s1.86,1.53,2.94,2.6c-.07,.41-.45,.6-.93,.6h-10.2l-.3-1.04Zm1.41-16.04c10.64-.41,6.48,7.89,2.01,4.95-.22-1.79-1.23-3.65-2.27-4.76l.26-.19Zm5.1,29.25v-7.52h-1.97v7.52h1.97Zm10.46-14.18c0,2.83-.11,6.29-1,9.68,.52,0,1,.04,1.3,.04,.22,0,.33-.04,.45-.22,.48-.67,.63-3.27,.71-9.68h-1.45v.19Zm5.4-1.27c-.15-1.75-.22-3.54-.3-5.36h-5.1v5.4h1.08l2.01-1.97,2.31,1.94Z" fill="#fff"/>
        <path d="M112.76,81.79s2.83,2.08,4.54,3.57c-.11,.41-.52,.6-1.04,.6h-33.83l-.3-1.04h19.5c.41-1.71,.86-4.09,1.12-5.69l6.29,1.53c-.11,.48-.56,.78-1.38,.78-1.23,.97-3.16,2.31-4.91,3.39h7.48l2.53-3.13Zm-29.66-11.83h4.17l-3.94-2.27c.3-.37,.74-.82,1.19-1.15v-13.47l5.92,.6c-.11,.52-.41,.86-1.34,1v12.36h2.38v-2.83h-1.86l-.3-1.04h2.16v-2.53h-1.71l-.3-1.04h2.01v-2.68h-1.79l-.3-1.04h2.08v-3.68l3.87,.41c-.04,.37-.3,.63-.93,.74v2.53h.11l.97-1.19s1.04,.82,1.75,1.56v-4.54l5.88,.52c-.07,.45-.33,.78-1.23,.93v13.88h2.16v-2.83h-1.75l-.3-1.04h2.05v-2.53h-1.6l-.3-1.04h1.9v-2.68h-1.67l-.3-1.04h1.97v-3.72l3.94,.41c-.07,.37-.3,.63-.93,.78v2.53h.3l1-1.19s1,.82,1.75,1.56v-2.98l5.88,.52c-.04,.45-.3,.78-1.23,.93v12.69c0,.19-.41,.45-1,.71,.89,.71,1.97,1.56,2.79,2.31-.11,.41-.52,.6-1.04,.6h-6.48l3.8,2.79c-.22,.33-.56,.56-1.38,.71v4.43c0,.15-1.56,.89-4.35,.89h-.97v-.93h-13.17v.48c8.71,1.56,3.27,8-.41,4.5,.11-1.41-.22-2.83-.63-3.91-.71,.22-1.75,.41-3.05,.41h-.93v-9.23l5.4,2.01h12.69l1.9-2.16h-24.53l-.3-1.04Zm5.14,0h21.59l.97-1.23h-.67v-.67h-20.77l-1.12,1.9Zm17.9,7.89v-3.65h-13.17v3.65h13.17Zm-11.72-14.7h.37l.97-1.27s.82,.71,1.49,1.41v-6.7c-.15,.19-.41,.3-.78,.3h-2.05v2.68h.19l.86-1.04s.97,.82,1.6,1.53c-.11,.37-.41,.56-.89,.56h-1.75v2.53Zm0,3.87h2.83v-2.98c-.15,.11-.33,.15-.56,.15h-2.27v2.83Zm12.65-3.87h.41l.97-1.27s1,.86,1.67,1.64v-6.96c-.15,.22-.41,.33-.78,.33h-2.27v2.68h.22l.86-1.08s1,.82,1.67,1.56c-.07,.37-.41,.56-.86,.56h-1.9v2.53Zm0,3.87h3.05v-3.13c-.15,.19-.41,.3-.74,.3h-2.31v2.83Z" fill="#fff"/>
        <path d="M156.78,80.45c1.38,.6,1.67,1.23,1.67,2.31,0,2.16-1.79,3.24-8.04,3.24h-3.42c-4.24,0-5.25-.93-5.25-4.54v-13.81h-3.2c-.71,9.12-4.09,16.23-15.48,19.35l-.15-.37c7.59-4.61,9.34-11.28,9.49-18.98h-9.19l-.3-1.04h14.81v-14.92l6.96,.56c-.07,.52-.33,.89-1.38,1.04v13.32h7.18l2.83-3.57s3.2,2.38,5.1,4.02c-.11,.41-.52,.6-1.08,.6h-10.09v12.36c0,.6,.22,.78,1.15,.78h2.68c.78,0,1.56,0,2.05-.04s.71-.15,1-.56c.52-.78,1.23-2.79,2.16-5.36h.33l.15,5.62Zm-30.29-26.27c13.32,3.57,8.15,14.18,2.98,9.71-.15-3.35-1.53-6.89-3.28-9.53l.3-.19Zm29.96,2.72c-.19,.45-.74,.74-1.64,.63-2.79,2.98-6.07,5.69-9.16,7.56l-.33-.26c1.15-2.64,2.79-7.15,3.98-11.02l7.15,3.09Z" fill="#fff"/>
      </g>
      <g>
        <path d="M62.06,4.11c-.71,.26-1.46,.43-2.25,.46-.91,.87-1.84,1.72-2.75,2.59l.64,.44,12.6,8.95v15.05l1.36-.35,.24,.06v.38h6.5V15.71L62.06,4.11Z" fill="#fff"/>
        <path d="M79.23,0c-16.34,0-29.58,7.24-29.58,16.17s13.24,16.17,29.58,16.17,29.58-7.24,29.58-16.17S95.56,0,79.23,0Zm-24.85,16.17c0-8.44,11.12-15.28,24.85-15.28,6.41,0,12.25,1.49,16.66,3.95l-15.32,10.88v15.72c-.44,.01-.89,.02-1.34,.02-13.72,0-24.85-6.84-24.85-15.28Zm34.29,14.14v-13.75l11.76-8.36c2.31,2.32,3.64,5.05,3.64,7.97,0,6.38-6.36,11.85-15.4,14.14Z" fill="#fff"/>
        <path d="M83.09,3.82c-1.99-1.99-5.22-1.99-7.21,0-1.99,1.99-1.99,5.22,0,7.21,1.99,1.99,5.22,1.99,7.21,0,1.99-1.99,1.99-5.22,0-7.21Z" fill="#fff"/>
      </g>
    </g>
  </g>
</svg>