<?xml version="1.0" encoding="UTF-8"?>
<svg id="_圖層_2" data-name="圖層 2" xmlns="http://www.w3.org/2000/svg" viewBox="0 0 25.83 25.83">
  <g id="text">
    <path d="M24.49,17.79c-.8,1.89-2.05,3.55-3.64,4.85-1.59,1.29-3.47,2.18-5.48,2.58-2.01,.4-4.09,.3-6.05-.29-1.96-.59-3.75-1.65-5.21-3.09-1.46-1.44-2.54-3.22-3.15-5.17-.61-1.96-.74-4.03-.36-6.05,.38-2.02,1.24-3.91,2.51-5.51,1.28-1.6,2.93-2.87,4.8-3.69m16.62,6.71c.5,1.21,.81,2.5,.92,3.8,.03,.32,.04,.48-.03,.63-.05,.12-.16,.24-.28,.3-.14,.08-.31,.08-.66,.08H13.93c-.35,0-.53,0-.66-.07-.12-.06-.21-.16-.27-.27-.07-.13-.07-.31-.07-.66V1.36c0-.35,0-.52,.08-.66,.06-.12,.18-.22,.3-.28,.15-.06,.31-.05,.63-.03,1.3,.1,2.59,.41,3.8,.92,1.52,.63,2.91,1.56,4.07,2.72,1.17,1.17,2.09,2.55,2.72,4.07Z" fill="none" stroke="#d27c8e" stroke-linecap="round" stroke-linejoin="round" stroke-width=".75"/>
  </g>
</svg>