<?xml version="1.0" encoding="UTF-8"?>
<svg id="_圖層_2" data-name="圖層 2" xmlns="http://www.w3.org/2000/svg" viewBox="0 0 241.46 48.66">
  <g id="text">
    <g>
      <g>
        <path d="M18.69,6.19c-1.07,.4-2.2,.65-3.39,.69-1.37,1.3-2.77,2.59-4.14,3.9l.97,.66,18.96,13.47v22.65l2.05-.52,.35,.09v.57h9.78V23.64L18.69,6.19Z" fill="#fff"/>
        <path d="M44.51,0C19.93,0,0,10.9,0,24.33s19.93,24.33,44.51,24.33,44.51-10.89,44.51-24.33S69.08,0,44.51,0ZM7.12,24.33C7.12,11.63,23.86,1.34,44.51,1.34c9.65,0,18.43,2.25,25.07,5.94l-23.05,16.36v23.65c-.67,.02-1.34,.03-2.02,.03-20.65,0-37.38-10.3-37.38-22.99Zm51.59,21.27V24.91l17.69-12.57c3.48,3.49,5.48,7.6,5.48,11.99,0,9.6-9.58,17.83-23.17,21.27Z" fill="#fff"/>
        <path d="M50.32,5.74c-3-2.99-7.86-2.99-10.85,0-3,3-3,7.85,0,10.85,2.99,2.99,7.85,2.99,10.85,0,3-3,3-7.85,0-10.85Z" fill="#fff"/>
      </g>
      <g>
        <g>
          <path d="M103.34,33.74h2.76l2.13,3.59,2.16-3.59h2.77l-3.67,6.15v5.4h-2.47v-5.4l-3.68-6.15Z" fill="#fff"/>
          <path d="M114.6,33.74h2.49v11.56h-2.49v-11.56Z" fill="#fff"/>
          <path d="M118.49,40.37h5.08v2.27h-5.08v-2.27Z" fill="#fff"/>
          <path d="M133.68,34.36v2.81c-1.25-.74-2.34-1.13-3.28-1.13s-1.69,.33-2.26,.98c-.56,.64-.84,1.51-.84,2.6s.3,1.86,.89,2.47c.6,.62,1.38,.94,2.37,.94,.88,0,1.92-.35,3.12-1.05v2.8c-1.35,.45-2.48,.68-3.38,.68-1.56,0-2.87-.57-3.96-1.72-1.08-1.14-1.63-2.53-1.63-4.17s.56-3.09,1.66-4.24c1.11-1.16,2.45-1.74,4.04-1.74,1.02,0,2.11,.26,3.28,.78Z" fill="#fff"/>
          <path d="M135.53,33.74h2.5v4.45h4.08v-4.45h2.49v11.56h-2.49v-4.6h-4.08v4.6h-2.5v-11.56Z" fill="#fff"/>
          <path d="M147.01,33.74h6.5v2.29h-4.01v2.33h4.01v2.25h-4.01v2.4h4.01v2.29h-6.5v-11.56Z" fill="#fff"/>
          <path d="M163.27,33.74h2.43v11.56h-2.42l-5.28-7.48v7.48h-2.5v-11.56h2.47l5.3,7.44v-7.44Z" fill="#fff"/>
          <path d="M177.85,36.25l-1.65,1.55c-.34-.6-.77-1.05-1.29-1.34-.5-.3-1.04-.45-1.6-.45-.9,0-1.69,.35-2.36,1.03-.66,.69-.99,1.49-.99,2.43,0,.99,.33,1.83,.99,2.52,.67,.69,1.47,1.04,2.41,1.04,.51,0,1-.13,1.47-.4,.47-.25,.85-.74,1.14-1.44h-2.74v-2.26h5.33v1.5c0,.76-.26,1.59-.79,2.47-.53,.88-1.22,1.52-2.09,1.93-.86,.41-1.73,.61-2.61,.61-1.6,0-2.94-.58-4.04-1.73-1.1-1.16-1.65-2.58-1.65-4.29,0-1.61,.56-2.99,1.7-4.13,1.13-1.15,2.49-1.72,4.07-1.72,2.03,0,3.6,.9,4.68,2.67Z" fill="#fff"/>
          <path d="M195.04,36.25l-1.65,1.55c-.34-.6-.78-1.05-1.29-1.34-.51-.3-1.05-.45-1.6-.45-.91,0-1.69,.35-2.36,1.03-.67,.69-1,1.49-1,2.43,0,.99,.34,1.83,1,2.52,.67,.69,1.48,1.04,2.41,1.04,.51,0,1-.13,1.47-.4,.47-.25,.85-.74,1.13-1.44h-2.73v-2.26h5.33v1.5c0,.76-.26,1.59-.8,2.47-.52,.88-1.22,1.52-2.08,1.93-.86,.41-1.73,.61-2.61,.61-1.59,0-2.94-.58-4.04-1.73-1.1-1.16-1.64-2.58-1.64-4.29,0-1.61,.57-2.99,1.7-4.13,1.12-1.15,2.48-1.72,4.07-1.72,2.03,0,3.59,.9,4.68,2.67Z" fill="#fff"/>
          <path d="M197.6,33.74h3.8c1.16,0,2.07,.31,2.75,.92,.68,.6,1.01,1.43,1.01,2.47,0,.59-.16,1.21-.47,1.85-.3,.63-.87,1.14-1.7,1.5l3.23,4.82h-2.86l-2.99-4.48h-.29v4.48h-2.49v-11.56Zm2.51,2.06v3.01h.54c1.3,0,1.95-.53,1.95-1.59,0-.44-.18-.78-.51-1.04-.34-.25-.81-.38-1.41-.38h-.57Z" fill="#fff"/>
          <path d="M207.03,39.51c0-1.71,.57-3.12,1.7-4.23,1.13-1.11,2.47-1.67,4.01-1.67,1.71,0,3.13,.56,4.25,1.67,1.12,1.12,1.68,2.53,1.68,4.24s-.55,3.1-1.66,4.22c-1.11,1.12-2.51,1.69-4.19,1.69s-3.07-.56-4.16-1.68c-1.09-1.11-1.63-2.52-1.63-4.24Zm5.82-3.59c-.96-.01-1.74,.32-2.34,1-.59,.69-.89,1.57-.89,2.66,0,1.03,.31,1.88,.91,2.55,.6,.68,1.37,1.01,2.29,1.01s1.74-.34,2.34-1c.59-.67,.89-1.54,.89-2.64s-.29-1.94-.87-2.59c-.59-.64-1.36-.98-2.34-1Z" fill="#fff"/>
          <path d="M220.75,33.74h2.45v7.07c0,.66,.19,1.19,.56,1.59,.36,.39,.83,.59,1.43,.59,.68,0,1.21-.2,1.59-.6,.37-.4,.56-.97,.56-1.7v-6.94h2.45v7.48c0,.66-.17,1.34-.51,2.05-.34,.7-.87,1.25-1.57,1.62-.7,.38-1.5,.56-2.37,.56-1.58,0-2.74-.44-3.48-1.32-.74-.89-1.1-1.81-1.1-2.79v-7.61Z" fill="#fff"/>
          <path d="M232.24,33.74h3.96c1.05,0,1.92,.32,2.57,.93,.64,.62,.97,1.43,.97,2.44,0,.66-.16,1.29-.48,1.89-.31,.59-.8,1.04-1.45,1.33-.64,.29-1.19,.45-1.65,.46l-1.44,.03v4.48h-2.47v-11.56Zm2.44,2.07v2.96h.97c.41,0,.77-.15,1.06-.45,.3-.3,.45-.66,.45-1.06,0-.47-.17-.83-.5-1.09-.34-.26-.81-.39-1.43-.39l-.55,.03Z" fill="#fff"/>
        </g>
        <g>
          <path d="M104.7,11.65c0-.46,.23-.69,.69-.69h13.08c.48,0,.72,.23,.72,.69v12.89h3.42v2.01h-21.37v-2.01h3.47V11.65Zm6.24-6.38h2.1v1.89h8.13l1.83,.92c-.12,1.34-.51,2.94-1.16,4.81l-1.89-.65c.43-1.49,.65-2.41,.67-2.75,.02-.22-.08-.32-.28-.32h-16.78c-.12,.02-.18,.08-.18,.18v3.28h-2.01V7.56c.02-.26,.15-.39,.39-.39h9.17v-1.89Zm6.24,10.4v-2.43c0-.18-.1-.28-.3-.28h-9.89c-.18,0-.28,.09-.28,.28v2.43h10.47Zm0,4.44v-2.43h-10.47v2.43h10.47Zm0,4.44v-2.43h-10.47v2.43h10.47Z" fill="#fff"/>
          <path d="M132.22,8.88v1.92h-7.32v-1.92h7.32Zm.69,13.38c.18-1.09,.28-2.46,.3-4.09V9.04c.02-.35,.19-.53,.53-.53h5.68c-.02-1.02-.02-2.06-.02-3.14l1.92,.18c-.05,.99-.06,1.97-.05,2.96h4.85v1.92h-4.81c.11,3.14,.49,5.99,1.13,8.55,.22-.52,.42-1.06,.62-1.62,.43-1.31,.74-3.1,.92-5.38l1.89,.32c-.42,3.51-1.34,6.54-2.77,9.08,.29,.82,.61,1.6,.95,2.36,.23,.52,.44,.79,.62,.79,.05,0,.08-.07,.09-.21,.05-.35,.07-1.3,.07-2.84l1.85,.46c-.14,2.13-.29,3.49-.44,4.09-.14,.42-.31,.7-.51,.85-.23,.18-.49,.28-.76,.28-1.02-.02-2.06-1.33-3.14-3.93-1.48,1.76-3.17,3.1-5.08,4.02l-1.29-1.48c2.34-1.02,4.24-2.52,5.68-4.51-.89-2.7-1.44-6.31-1.64-10.84h-4.14c-.17,.02-.25,.1-.25,.25v2.4h3.37c.42-.02,.63,.08,.65,.28v6.33c-.02,1.51-.49,2.6-1.41,3.26-.42,.26-1.28,.23-2.59-.09l.05-1.92c.82,.37,1.3,.51,1.46,.42,.22-.14,.38-.35,.49-.65,.12-.28,.18-.52,.18-.72v-5.04c-.02-.15-.1-.23-.25-.23h-1.94v4.02c-.02,2.97-.56,5.64-1.64,7.99l-1.55-.58c-.05,.08-.12,.12-.23,.12h-6.19c-.17,0-.25-.09-.25-.28v-7.86c.02-.17,.1-.25,.25-.25h6.19c.18,.02,.28,.1,.28,.25v7.07c.43-1.05,.74-2.03,.92-2.96Zm-1.43-16.43v1.92h-5.94v-1.92h5.94Zm0,6.05v1.83h-5.85v-1.83h5.85Zm0,2.96v1.83h-5.85v-1.83h5.85Zm-4.23,4.88c-.06,0-.08,.02-.07,.07v4.58s0,.08,.07,.09h2.73c.06-.02,.09-.05,.09-.09v-4.58s-.03-.07-.09-.07h-2.73Zm16.04-14.63c.74,.42,1.53,1.02,2.38,1.8l-1.18,1.43c-.91-.8-1.67-1.39-2.29-1.76l1.09-1.48Z" fill="#fff"/>
          <path d="M153.18,15.14c-.02-.18-.05-.28-.12-.28h-3.3l-.72-1.13,3.3-5.92c.02-.06,.02-.08,0-.07h-3.35v-1.94h5.2l.85,1.22-3.51,5.92h3c.46,0,.69,.22,.69,.65-.02,1.86-.22,3.52-.6,4.97-.31,1.06-.76,2.23-1.36,3.49,1.39,1.68,3.57,2.5,6.54,2.45h10.47l-.55,2.1h-9.15c-1.68-.06-3.15-.26-4.41-.6-1.39-.31-2.66-1.04-3.81-2.19-.72,1.17-1.56,2.3-2.5,3.37l-1.69-1.53c1.2-1.28,2.13-2.48,2.8-3.6-.08-.08-.12-.15-.14-.21-.71-1.16-1.36-2.71-1.96-4.67l1.89-.53c.35,1.26,.77,2.39,1.25,3.37,.79-1.72,1.18-3.35,1.18-4.88Zm2.22,6.47v-1.92h5.78v-1.32h-4.85v-1.92h4.85v-1.41h-4.18v-1.92h4.18v-1.55h-6.05v-1.83h6.05v-1.55h-4.27v-1.92h4.27v-1.2h2.01v1.2h4.78c.42,.02,.62,.22,.62,.6v2.87h1.52v1.83h-1.52v2.84c0,.42-.21,.62-.62,.62h-4.78v1.41h5.73v1.92h-5.73v1.32h6.56v1.92h-6.56v2.26h-2.01v-2.26h-5.78Zm7.79-11.85h3.49v-1.39c-.02-.11-.08-.16-.18-.16h-3.3v1.55Zm0,3.37h3.3c.12-.02,.18-.08,.18-.18v-1.36h-3.49v1.55Z" fill="#fff"/>
          <path d="M180.93,9.07v1.92h-8.8v-1.92h8.8Zm-.97,17.4h-7.12c-.17,0-.25-.09-.25-.28v-8.04c.02-.17,.1-.25,.25-.25h7.12c.18,.02,.28,.1,.28,.25v8.04c0,.18-.09,.28-.28,.28Zm-.14-14.4v1.83h-6.68v-1.83h6.68Zm0,2.96v1.83h-6.68v-1.83h6.68Zm.09-9.01v1.92h-6.68v-1.92h6.68Zm-5.34,13.7c-.06,0-.08,.02-.07,.07v4.76s0,.08,.07,.09h3.65c.06-.02,.09-.05,.09-.09v-4.76s-.03-.07-.09-.07h-3.65Zm10.14-11.76v.88c0,2.34-.92,4.14-2.77,5.38l-1.36-1.43c.25-.17,.47-.32,.67-.46,1.09-.94,1.64-2.31,1.64-4.11v-1.94c.02-.12,.05-.22,.12-.28,.08-.08,.17-.12,.28-.12h6.84c.12,0,.22,.03,.28,.09,.08,.09,.12,.19,.14,.3v4.74c0,.28,.05,.49,.14,.65,.09,.14,.33,.22,.72,.23h.18c.15,0,.33-.05,.53-.14,.09-.05,.14-.26,.14-.65v-1.39l1.76,.18c-.05,1.33-.08,2.15-.09,2.47-.05,.34-.18,.6-.42,.79-.42,.37-.83,.55-1.25,.55h-1.69c-.54-.02-.98-.18-1.32-.51-.37-.37-.55-.81-.53-1.32v-3.9c-.02-.18-.12-.28-.3-.28h-3.44c-.17,.02-.25,.1-.25,.25Zm-2.73,19.18l-1.22-1.71c2.03-.79,3.64-1.56,4.81-2.31-1.37-1.39-2.63-3.15-3.79-5.29l1.71-.9c.92,1.96,2.1,3.65,3.54,5.08,1.88-1.71,3.03-3.44,3.44-5.2,0-.11-.03-.18-.09-.23-.08-.05-.23-.06-.46-.05h-8.11v-1.92h9.8l1.09,.83c-.29,2-.86,3.63-1.71,4.88-.71,1.11-1.51,2.09-2.4,2.93,1.2,.82,3,1.49,5.41,2.01l-1.06,1.89c-2.42-.77-4.37-1.67-5.87-2.7-1.28,.85-2.97,1.74-5.06,2.68Z" fill="#fff"/>
          <path d="M202.9,16.48c.09,.18,.19,.38,.3,.58l-1.76,.97c-.32-.72-.68-1.48-1.06-2.26v11.35h-1.92v-9.8c-.34,.97-.68,1.81-1.02,2.52l-1.99-.39c1.36-2.5,2.24-5.08,2.66-7.76h-2.15v-2.01h2.5V5.18h1.92v4.48h1.89v2.01h-1.89v.46c.55,.86,1.09,1.76,1.59,2.68l.81-.16c.51-.62,1.05-1.41,1.62-2.38-.94-1.39-1.93-2.55-2.96-3.49,.42-.46,.82-.92,1.2-1.39,.06,.03,.21,.17,.44,.42,.37-.83,.7-1.71,.99-2.63,.55,.25,1.12,.49,1.69,.72-.31,.86-.79,1.97-1.46,3.33,.29,.35,.62,.77,.99,1.25,.34-.8,.58-1.57,.74-2.31l1.78,.39c-.29,1.52-1.2,3.38-2.73,5.57l1.13-.25c-.14-.35-.24-.59-.3-.69l1.57-.51c.59,1.37,.98,2.5,1.18,3.4l-1.57,.39c-.08-.28-.16-.55-.25-.83l-3.95,.85Zm14.49,.86v1.83h-5.8c.37,1.02,.76,1.92,1.18,2.7,.57-.63,1.19-1.35,1.85-2.15l1.46,1.11c-.74,.99-1.5,1.86-2.29,2.61,.63,.94,1.09,1.41,1.36,1.41,.12-.03,.21-.12,.25-.28,.14-.55,.26-1.46,.37-2.73l1.89,.58c-.28,2.46-.72,3.98-1.32,4.55-.26,.2-.52,.31-.76,.32-.92-.02-2.01-.91-3.26-2.68-1.56,1.06-3.7,1.89-6.42,2.5l-.81-1.78c2.7-.54,4.79-1.3,6.28-2.29-.83-1.66-1.39-2.96-1.66-3.88h-4.67c-.15,0-.23,.08-.23,.23v.85c1.48,.55,2.92,1.18,4.32,1.87l-.83,1.83c-1-.6-2.17-1.21-3.51-1.83-.11,1.93-.79,3.58-2.06,4.97l-1.71-.97c.75-.83,1.26-1.62,1.5-2.36,.23-.68,.35-1.53,.37-2.54v-3.37c0-.34,.17-.51,.51-.51h5.78c-.8-3.27-1.25-7.28-1.34-12.04l1.92,.14c0,3.13,.21,5.99,.62,8.6l1.02-.21c.48-.57,.98-1.23,1.5-1.99-.95-1.28-1.96-2.34-3.03-3.19,.37-.48,.75-.95,1.13-1.43,.08,.02,.24,.15,.49,.39,.4-.82,.78-1.67,1.15-2.56,.55,.28,1.09,.55,1.62,.83-.32,.8-.83,1.81-1.53,3.03,.34,.39,.72,.83,1.16,1.34,.63-1.22,1.11-2.39,1.43-3.51l1.76,.49c-.37,1.52-1.49,3.57-3.35,6.12l1.48-.3c-.15-.4-.25-.67-.3-.81l1.55-.49c.69,1.91,1.12,3.2,1.27,3.86l-1.57,.37c-.09-.4-.21-.79-.35-1.18l-2.29,.46c.46,.31,.95,.72,1.46,1.22l-.76,.86h3.17Zm-4.34-1.96l-2.36,.44c.09,.54,.21,1.05,.35,1.53h2.43c-.46-.45-.86-.77-1.2-.97l.79-.99Z" fill="#fff"/>
          <path d="M224.09,26.93h-1.83v-10.21c-.49,1.28-.98,2.36-1.46,3.26l-1.78-.44c1.56-2.6,2.59-5.27,3.1-7.99h-2.87v-1.92h3V5h1.83v4.62h1.94v1.92h-1.94v.62c.99,1.45,1.9,2.94,2.75,4.48l-1.55,.92c-.37-.72-.77-1.49-1.2-2.29v11.65Zm4.9-.02h-1.83v-3.86h-1.71v-1.64h1.71v-5.68c0-.28,.14-.42,.42-.42h5.04v-1.22h-6.52v-1.64h3.84v-1.32h-2.91v-1.64h2.91v-1.22h-3.47v-1.64h3.47v-1.53h1.83v1.53h3.63v-1.53h1.83v1.53h3.51v1.64h-3.51v1.22h3.05v1.64h-3.05v1.32h4.07v1.64h-6.84v1.22h5.11c.29,0,.44,.14,.44,.42v5.68h1.48v1.64h-1.48v1.89c0,.74-.29,1.3-.85,1.69-.79,.52-2.2,.55-4.23,.09l-.02-2.01c1.52,.45,2.46,.55,2.8,.32,.32-.22,.49-.49,.49-.83v-1.16h-9.17v3.86Zm3.63-9.96h-3.49c-.09,0-.14,.05-.14,.14v1.27h3.63v-1.41Zm0,4.46v-1.41h-3.63v1.41h3.63Zm2.77-13.15h-3.63v1.22h3.63v-1.22Zm0,4.18v-1.32h-3.63v1.32h3.63Zm-.95,5.92h3.72v-1.27c0-.09-.05-.14-.16-.14h-3.56v1.41Zm3.72,3.05v-1.41h-3.72v1.41h3.72Z" fill="#fff"/>
        </g>
      </g>
    </g>
  </g>
</svg>