<?xml version="1.0" encoding="UTF-8"?>
<svg id="_圖層_2" data-name="圖層 2" xmlns="http://www.w3.org/2000/svg" viewBox="0 0 195.04 44.42">
  <g id="_圖層_3" data-name="圖層 3">
    <g id="layer1">
      <path id="path5840" d="M35.89,42.84v-5h-5.79c-1.43,0-2.62-.67-2.62-2.35V7.03h3.15c5.67,0,8.3,4.35,8.3,9.93v.68h5.61V1.89H0v15.75H5.59v-.68c0-5.58,2.65-9.93,8.33-9.93h3.19v28.46c0,1.68-1.26,2.35-2.68,2.35h-5.81v5h27.26ZM87.41,4.16c-4.1-3.19-11.36-4.16-15.65-4.16s-11.5,.97-15.62,4.16c-4.15,3.2-8.18,8.85-8.18,18.02s4.03,14.81,8.18,18.06c4.12,3.18,11.36,4.19,15.62,4.19s11.55-1.01,15.65-4.19c4.16-3.25,8.24-8.88,8.24-18.06s-4.08-14.81-8.24-18.02m-6.55,30.62c-2.15,2.82-5.56,4.3-9.11,4.3s-6.93-1.48-9.09-4.3c-2.13-2.81-3.13-8.3-3.13-12.6s1-9.77,3.13-12.57c2.16-2.84,5.59-4.31,9.09-4.31s6.95,1.46,9.11,4.31c2.14,2.81,3.13,8.31,3.13,12.57s-.99,9.79-3.13,12.6m54.46,8.05v-5h-5.8c-1.42,0-2.61-.67-2.61-2.35V7.03h3.15c5.66,0,8.28,4.35,8.28,9.93v.68h5.62V1.89h-44.5v15.75h5.63v-.68c0-5.58,2.62-9.93,8.33-9.93h3.12v28.46c0,1.68-1.2,2.35-2.62,2.35h-5.8v5h27.2ZM186.9,4.16c-4.12-3.19-11.37-4.16-15.67-4.16s-11.57,.97-15.72,4.16c-4.08,3.2-8.15,8.85-8.15,18.02s4.08,14.81,8.15,18.06c4.15,3.18,11.4,4.19,15.72,4.19s11.55-1.01,15.67-4.19c4.13-3.25,8.14-8.88,8.14-18.06s-4.01-14.81-8.14-18.02m-6.56,30.62c-2.15,2.82-5.57,4.3-9.11,4.3s-7.01-1.48-9.14-4.3c-2.14-2.81-3.12-8.3-3.12-12.6s.98-9.77,3.12-12.57c2.13-2.84,5.59-4.31,9.14-4.31s6.96,1.46,9.11,4.31c2.15,2.81,3.15,8.31,3.15,12.57s-1,9.79-3.15,12.6" fill="#070001"/>
    </g>
  </g>
</svg>