<?xml version="1.0" encoding="UTF-8"?>
<svg id="_圖層_2" data-name="圖層 2" xmlns="http://www.w3.org/2000/svg" viewBox="0 0 359.33 42.03">
  <defs>
    <style>
      .cls-1 {
        fill: #231815;
      }
    </style>
  </defs>
  <g id="_圖層_1-2" data-name="圖層 1">
    <g>
      <path class="cls-1" d="M0,4.86v-2.02l4.77,2.02h21.33v1.31H4.46v33.84c0,.18-.17.4-.52.67s-.79.51-1.35.72c-.56.21-1.16.32-1.82.32h-.77V4.86ZM2.16,20.21h23.54v1.31H2.16v-1.31ZM2.16,36.18h23.54v1.26H2.16v-1.26ZM23.58,4.86h-.45l2.3-2.56,4.59,3.69c-.15.21-.38.4-.67.56-.3.17-.68.29-1.12.38v32.94c-.03.12-.26.31-.68.56-.42.25-.92.48-1.51.68-.58.19-1.16.29-1.73.29h-.72V4.86Z"/>
      <path class="cls-1" d="M68.31,11.07c-1.77,5.1-4.43,9.75-7.99,13.95-3.56,4.2-7.94,7.71-13.16,10.53l-.5-.5c2.64-2.04,5.03-4.41,7.18-7.11,2.14-2.7,4-5.56,5.58-8.59,1.58-3.03,2.81-6.03,3.71-9h5.17v.72ZM82.58,6.66c.69.54,1.29,1.03,1.8,1.46.51.44,1.06.9,1.64,1.4s1.1.97,1.55,1.42c-.12.48-.53.72-1.21.72h-37.58l-.41-1.3h31.41l2.79-3.69ZM74.93,26.96c.6.54,1.13,1.02,1.6,1.44.46.42.95.86,1.46,1.33.51.47.97.91,1.39,1.33-.12.48-.52.72-1.21.72h-21.42l-.36-1.3h16.02l2.52-3.51ZM71.78.77c-.06.36-.21.65-.45.88s-.71.4-1.39.52v38.39c0,.18-.17.37-.52.58-.35.21-.79.4-1.33.56-.54.16-1.11.25-1.71.25h-.85V.14l6.25.63ZM70.2,10.35c.93,2.19,2.08,4.28,3.44,6.28,1.37,2,2.88,3.84,4.54,5.54,1.67,1.7,3.41,3.2,5.22,4.52,1.81,1.32,3.64,2.42,5.47,3.29l-.13.45c-.87.15-1.67.56-2.41,1.21-.74.66-1.28,1.52-1.64,2.56-2.28-1.62-4.38-3.58-6.3-5.9-1.92-2.31-3.62-4.95-5.11-7.92-1.49-2.97-2.71-6.22-3.67-9.77l.58-.27Z"/>
      <path class="cls-1" d="M137.79,32.85c.72.57,1.36,1.07,1.91,1.51.55.43,1.15.9,1.78,1.39s1.2.97,1.71,1.42c-.12.48-.54.72-1.26.72h-40.54l-.41-1.31h33.79l3.01-3.73ZM135.54,1.98c.69.54,1.31,1.03,1.87,1.46.55.44,1.13.89,1.73,1.37.6.48,1.15.95,1.67,1.4-.12.48-.54.72-1.26.72h-35.73l-.36-1.31h29.21l2.88-3.65ZM131.72,16.83c.69.54,1.3,1.02,1.84,1.44.54.42,1.1.86,1.69,1.33.58.47,1.12.91,1.6,1.33-.09.48-.51.72-1.26.72h-28.62l-.36-1.3h22.32l2.79-3.51Z"/>
      <path class="cls-1" d="M154.71,13.14h10.17l2.07-3.1c.87.81,1.6,1.5,2.21,2.07.6.57,1.12,1.11,1.58,1.62-.12.48-.51.72-1.17.72h-14.49l-.36-1.3ZM159.66.23l5.81.58c-.06.3-.2.56-.41.79-.21.23-.62.38-1.21.47v38.39c0,.15-.18.35-.54.61-.36.25-.8.48-1.31.68-.51.19-1.02.29-1.53.29h-.81V.23ZM170.46,18.4l5.08.45c-.03.27-.15.51-.36.72-.21.21-.57.36-1.08.45-.09,1.62-.23,3.35-.41,5.2s-.53,3.73-1.06,5.65c-.53,1.92-1.34,3.8-2.45,5.62-1.11,1.83-2.66,3.52-4.63,5.08l-.63-.63c1.38-1.71,2.44-3.52,3.19-5.42s1.28-3.84,1.6-5.81c.32-1.96.51-3.91.58-5.83.07-1.92.13-3.75.16-5.49ZM166.28,23.58h12.69v1.31h-12.29l-.41-1.31ZM179.01.23l5.85.76c-.06.33-.22.59-.5.77-.27.18-.66.3-1.17.36-.24,1.74-.66,3.43-1.26,5.06-.6,1.64-1.47,3.17-2.61,4.61-1.14,1.44-2.65,2.75-4.52,3.94-1.88,1.19-4.19,2.2-6.95,3.04l-.36-.54c2.25-1.05,4.12-2.25,5.6-3.6s2.65-2.8,3.49-4.36c.84-1.56,1.44-3.19,1.8-4.88.36-1.69.57-3.41.63-5.15ZM169.33,5.58h21.69v1.31h-21.29l-.41-1.31ZM176.76,23.58h-.45l1.89-1.94,3.65,2.97c-.33.36-.92.6-1.75.72-.06,2.46-.15,4.57-.27,6.32-.12,1.75-.29,3.21-.5,4.36-.21,1.16-.46,2.08-.76,2.77-.3.69-.66,1.22-1.08,1.57-.51.48-1.11.83-1.8,1.04-.69.21-1.43.32-2.21.32,0-.51-.03-.98-.09-1.4-.06-.42-.21-.75-.45-.99-.21-.24-.53-.44-.97-.61-.44-.17-.92-.29-1.46-.38l.05-.77c.48.03,1.06.08,1.75.13.69.06,1.23.09,1.62.09.54,0,.94-.14,1.21-.41.3-.3.55-.95.76-1.96.21-1,.39-2.48.54-4.41.15-1.94.25-4.42.32-7.45ZM185.27,18.36l5.31.41c-.03.3-.16.56-.38.76-.22.21-.59.35-1.1.41-.09,1.71-.23,3.51-.41,5.4-.18,1.89-.56,3.8-1.12,5.72-.57,1.92-1.46,3.79-2.68,5.62-1.21,1.83-2.9,3.51-5.06,5.04l-.58-.63c1.5-1.71,2.66-3.52,3.49-5.42.83-1.9,1.42-3.84,1.78-5.8.36-1.96.58-3.92.65-5.87.07-1.95.11-3.82.11-5.62ZM188.96,5.58h-.45l2.03-1.94,3.78,3.1c-.15.15-.36.29-.63.4-.27.12-.63.21-1.08.27-.24,2.49-.62,4.48-1.12,5.96-.51,1.48-1.21,2.51-2.12,3.08-.54.39-1.19.67-1.93.85-.75.18-1.59.27-2.52.27,0-.51-.04-.99-.13-1.44-.09-.45-.29-.81-.58-1.08-.3-.27-.75-.51-1.35-.72-.6-.21-1.26-.38-1.98-.5v-.67c.48.03,1.04.06,1.69.09.64.03,1.26.07,1.84.11.58.04,1.01.07,1.28.07.33,0,.6-.02.81-.07.21-.05.41-.13.58-.25.39-.3.76-1.09,1.1-2.38.34-1.29.61-3.02.79-5.18ZM180.86,23.58h13.14v1.31h-12.73l-.41-1.31ZM192.2,23.58h-.45l1.94-1.98,3.78,3.06c-.3.33-.87.57-1.71.72-.09,2.4-.2,4.45-.31,6.17-.12,1.71-.29,3.16-.52,4.34-.23,1.19-.5,2.13-.81,2.83-.31.7-.7,1.24-1.15,1.6-.54.48-1.17.83-1.89,1.06-.72.23-1.52.34-2.38.34,0-.51-.04-.99-.11-1.44-.08-.45-.25-.81-.52-1.08-.21-.24-.56-.45-1.06-.63-.5-.18-1.04-.35-1.64-.5v-.72c.6.06,1.29.12,2.07.18.78.06,1.36.09,1.75.09.6,0,1.04-.14,1.3-.4.3-.3.56-.97.79-2,.23-1.04.42-2.51.58-4.43.17-1.92.28-4.32.34-7.2Z"/>
      <path class="cls-1" d="M220.14,3.02c-.72,1.53-1.67,3.15-2.83,4.86s-2.49,3.35-3.96,4.9c-1.47,1.56-3.03,2.93-4.68,4.1l-.54-.4c.93-1.05,1.82-2.26,2.68-3.62.86-1.36,1.65-2.8,2.38-4.3s1.38-2.97,1.94-4.41c.55-1.44.97-2.75,1.24-3.92l5.58,1.89c-.06.24-.22.44-.5.61-.27.17-.71.26-1.3.29ZM208.89,36.99c1.11-.18,2.64-.46,4.59-.85,1.95-.39,4.16-.85,6.64-1.37,2.47-.52,5.02-1.07,7.63-1.64l.13.63c-1.65.84-3.72,1.84-6.21,2.99-2.49,1.16-5.47,2.47-8.95,3.94-.09.3-.23.55-.43.74-.2.2-.41.34-.65.43l-2.75-4.86ZM209.25,20.43h12.56l2.16-3.15c.54.48,1.03.91,1.46,1.28.43.38.88.78,1.33,1.22.45.44.86.83,1.22,1.19-.12.48-.51.72-1.17.72h-17.19l-.36-1.26ZM211.14,23.9c1.44,1.2,2.47,2.38,3.1,3.53.63,1.16.95,2.21.97,3.17.01.96-.16,1.73-.52,2.29-.36.57-.82.89-1.37.95-.56.06-1.1-.23-1.64-.86.09-.96.09-1.97,0-3.04-.09-1.06-.24-2.11-.45-3.13-.21-1.02-.44-1.93-.67-2.74l.58-.18ZM212.58,13.27h8.01l2.16-2.92c.9.78,1.66,1.44,2.27,1.98s1.16,1.05,1.64,1.53c-.09.48-.48.72-1.17.72h-12.55l-.36-1.31ZM216.5,13.27h3.78v22.73l-3.78.99V13.27ZM219.02,2.65c2.16.54,3.87,1.16,5.13,1.87,1.26.71,2.17,1.42,2.75,2.14.57.72.87,1.39.9,2,.03.62-.13,1.12-.5,1.53-.36.4-.81.64-1.35.7-.54.06-1.08-.1-1.62-.5-.45-1.02-1.2-2.23-2.25-3.65-1.05-1.41-2.27-2.73-3.64-3.96l.58-.14ZM222.84,23.49l4.9,1.49c-.09.27-.26.5-.52.67-.25.18-.62.27-1.1.27-.57,1.2-1.21,2.44-1.91,3.71-.71,1.28-1.43,2.39-2.18,3.35l-.72-.31c.27-1.17.54-2.59.81-4.28.27-1.68.51-3.31.72-4.91ZM228.06,23.94v-1.84l4.63,1.84h11.7l2.07-2.38,4.09,3.19c-.15.18-.36.34-.63.47-.27.14-.63.23-1.08.29v14.85c0,.09-.33.29-.99.59-.66.3-1.52.45-2.57.45h-.76v-16.15h-12.33v15.57c0,.15-.3.37-.9.65-.6.29-1.44.43-2.52.43h-.72v-17.96ZM229.05,3.78v-1.8l4.5,1.8h9.67l1.98-2.34,4.05,3.06c-.15.18-.34.35-.58.5-.24.15-.62.26-1.12.31v12.33c0,.12-.31.31-.94.58s-1.47.41-2.52.41h-.67V5.04h-10.35v13.23c0,.15-.29.36-.88.63-.58.27-1.39.41-2.41.41h-.72V3.78ZM230.13,37.31h16.92v1.3h-16.92v-1.3ZM231.12,15.48h14.67v1.26h-14.67v-1.26ZM236.03,15.48h4.82c-.3.84-.68,1.82-1.12,2.92-.45,1.11-.93,2.22-1.44,3.33-.51,1.11-1.01,2.07-1.49,2.88h-1.84c.15-.9.29-1.91.43-3.04s.26-2.23.38-3.33c.12-1.09.21-2.02.27-2.77Z"/>
      <path class="cls-1" d="M265.41,3.56V1.53l4.46,2.03h9.27v1.26h-9.5v35.55c0,.18-.16.4-.47.65-.32.25-.74.48-1.26.68-.53.19-1.12.29-1.78.29h-.72V3.56ZM267.44,9.99h11.38v1.31h-11.38v-1.31ZM267.44,16.65h11.38v1.31h-11.38v-1.31ZM277.2,3.56h-.41l1.98-2.16,4.14,3.15c-.12.18-.33.35-.63.52-.3.17-.65.28-1.04.34v13.91c0,.09-.2.23-.58.43s-.84.37-1.35.52c-.51.15-.99.23-1.44.23h-.67V3.56ZM285.93,3.56v-1.8l4.27,1.8h9.54v1.26h-9.72v14.17c0,.12-.17.29-.52.5-.34.21-.78.4-1.3.56-.53.17-1.09.25-1.69.25h-.58V3.56ZM288.18,9.99h11.61v1.31h-11.61v-1.31ZM288.18,16.65h11.61v1.31h-11.61v-1.31ZM297.9,3.56h-.45l2.07-2.48,4.59,3.56c-.15.18-.39.36-.72.54-.33.18-.72.31-1.17.4v30.87c0,1.02-.14,1.9-.43,2.65-.29.75-.89,1.36-1.82,1.85-.93.48-2.39.82-4.37,1.03-.09-.72-.23-1.33-.43-1.84-.2-.51-.5-.93-.92-1.26-.48-.36-1.09-.67-1.82-.92-.74-.25-1.78-.49-3.13-.7v-.63c1.26.06,2.33.12,3.22.18.88.06,1.73.11,2.52.16.79.05,1.34.07,1.64.07.48,0,.8-.09.97-.27.16-.18.25-.45.25-.81V3.56Z"/>
      <path class="cls-1" d="M322.29,3.15c.66,1.62.97,3.05.92,4.3-.04,1.25-.3,2.28-.76,3.1-.47.83-1.04,1.4-1.73,1.73-.66.33-1.36.42-2.09.27-.74-.15-1.22-.57-1.46-1.26-.18-.66-.09-1.25.27-1.76.36-.51.84-.9,1.44-1.17.78-.36,1.46-1.02,2.05-1.98.58-.96.82-2.03.7-3.2l.67-.04ZM334.8,9.9c-1.77,1.77-4,3.29-6.68,4.57-2.69,1.28-5.95,2.12-9.79,2.54l-.31-.54c3.57-1.17,6.57-2.69,9-4.57,2.43-1.88,4.2-3.82,5.31-5.83l4.59,3.15c-.12.24-.34.43-.65.56-.31.13-.8.17-1.46.11ZM354.33,5.54v1.31h-32.58v-1.31h32.58ZM321.89,16.74l4.59,1.85h22.77l2.07-2.43,4.09,3.24c-.15.18-.36.34-.63.47-.27.13-.65.25-1.12.34v20.21c0,.12-.33.34-.99.65s-1.5.47-2.52.47h-.77v-21.69h-23.44v21.1c0,.15-.3.37-.9.65-.6.28-1.41.43-2.43.43h-.72v-25.29ZM351.72,37.67v1.31h-28.12v-1.31h28.12ZM341.15,22.23c-.12.21-.3.37-.54.47-.24.11-.62.13-1.12.07-.75,1.02-1.7,2.06-2.83,3.13-1.14,1.07-2.42,2.07-3.83,3.02s-2.91,1.75-4.5,2.41l-.41-.58c1.26-.9,2.46-1.96,3.6-3.19,1.14-1.23,2.14-2.5,3.01-3.8.87-1.31,1.56-2.54,2.07-3.71l4.54,2.21ZM328.37,23c3.66.96,6.68,2,9.07,3.1,2.38,1.11,4.26,2.21,5.62,3.29s2.31,2.08,2.83,2.99c.52.92.75,1.69.67,2.32-.08.63-.35,1.05-.83,1.26-.48.21-1.07.14-1.75-.23-.69-1.11-1.79-2.35-3.31-3.73-1.52-1.38-3.33-2.8-5.45-4.27-2.11-1.47-4.49-2.82-7.13-4.05l.27-.68ZM348.21,24.84c-.12.21-.31.37-.56.47-.25.11-.64.11-1.15.02-1.05,1.59-2.44,3.12-4.16,4.59-1.73,1.47-3.7,2.79-5.92,3.96s-4.63,2.08-7.24,2.75l-.36-.63c2.25-.96,4.33-2.15,6.25-3.58,1.92-1.42,3.61-2.98,5.06-4.68,1.46-1.69,2.59-3.4,3.4-5.11l4.68,2.21ZM340.07,14.54c-.24.63-.84.94-1.8.94-.6.51-1.31,1.11-2.14,1.8-.83.69-1.55,1.31-2.18,1.85h-1.53c.15-.51.32-1.12.52-1.85.2-.72.4-1.46.61-2.23.21-.76.38-1.45.5-2.05l6.03,1.53ZM334.31,0c1.68.12,2.98.4,3.92.85.93.45,1.57.96,1.93,1.53.36.57.5,1.13.41,1.69-.09.56-.35,1.01-.77,1.37-.42.36-.93.56-1.53.61-.6.05-1.23-.19-1.89-.7,0-.93-.25-1.87-.74-2.81-.5-.94-1.07-1.7-1.73-2.27l.41-.27ZM345.2,6.17v5.04c0,.27.07.45.2.54.14.09.52.14,1.15.14h5.65c.62,0,1.07-.02,1.37-.05.15,0,.34,0,.56-.02.22-.01.38-.04.47-.07.15,0,.34-.02.56-.07.22-.04.41-.1.56-.16h.4l.23.09c.6.18,1,.38,1.21.58.21.21.32.5.32.86,0,.51-.21.92-.63,1.21-.42.3-1.21.51-2.36.63-1.16.12-2.86.18-5.11.18h-4.23c-1.26,0-2.21-.1-2.83-.29-.63-.19-1.05-.53-1.26-1.01-.21-.48-.31-1.12-.31-1.94v-5.67h4.05ZM352.62,5.54l2.43-2.43,4.27,4.05c-.18.18-.41.3-.67.36-.27.06-.63.11-1.08.13-.66.63-1.53,1.29-2.61,1.98-1.08.69-2.08,1.26-3.01,1.71l-.45-.32c.21-.51.42-1.1.63-1.78s.41-1.34.58-2c.18-.66.32-1.23.41-1.71h-.5Z"/>
    </g>
  </g>
</svg>