<?xml version="1.0" encoding="UTF-8"?>
<svg id="_圖層_2" data-name="圖層 2" xmlns="http://www.w3.org/2000/svg" viewBox="0 0 823.42 165.11">
  <defs>
    <style>
      .cls-1 {
        fill: #2d2d2d;
      }
    </style>
  </defs>
  <g id="_圖層_1-2" data-name="圖層 1">
    <g>
      <path class="cls-1" d="M7.05,10.3l-2.64,1.27v7.92c0,.53-.16.93-.48,1.2s-.95.4-1.89.4l-1.07-.02-.29-.94,1.73.06c.67,0,1.01-.25,1.01-.75v-7.44c-.96.45-1.91.85-2.84,1.21l-.32-.8c.95-.38,2-.82,3.15-1.32v-5.57H.3v-.91h3.13V.29h.98v4.31h2.66v.91h-2.66v5.13l2.43-1.15.21.8ZM21.26,19.15l-.6.77c-3.07-2.33-5.19-4.71-6.36-7.15v8.3h-.95v-8.3c-1.59,2.89-3.83,5.25-6.73,7.08l-.6-.68c3.02-1.99,5.27-4.28,6.76-6.86h-5.59v-.89h6.15v-2.47h.95v2.47h6.8v.89h-6.23c1.3,2.44,3.43,4.71,6.4,6.83ZM20.23.96c-3.72,1.09-7.89,1.78-12.53,2.06l-.41-.87c4.55-.21,8.69-.87,12.41-1.97l.53.77ZM10.77,8.74l-.81.45c-.73-1.95-1.42-3.44-2.06-4.45l.79-.46c.77,1.27,1.47,2.75,2.09,4.46ZM15,7.76l-.87.26c-.39-1.46-.85-2.8-1.37-4.03l.84-.34c.61,1.45,1.07,2.82,1.39,4.11ZM20.61,3.48c-.78,2.3-1.64,4.18-2.59,5.64l-.89-.38c.89-1.36,1.75-3.22,2.59-5.58l.89.32Z"/>
      <path class="cls-1" d="M47.45,19.03c0,1.38-.74,2.06-2.21,2.06h-2.57l-.29-.94c.5.04,1.04.06,1.62.06,1.09,0,1.78-.07,2.07-.22s.43-.45.43-.89v-5.73h-7.16v7.2h-.96v-7.2h-7.12c-.21,2.83-1.08,5.41-2.61,7.75l-.84-.62c1.71-2.43,2.57-5.38,2.57-8.84V.75h17.1v18.28ZM38.37,6.53V1.65h-7.05v4.88h7.05ZM38.37,12.46v-5.04h-7.05v5.04h7.05ZM46.49,6.53V1.65h-7.16v4.88h7.16ZM46.49,12.46v-5.04h-7.16v5.04h7.16Z"/>
      <path class="cls-1" d="M66.11,14.19c0,1.14-.23,2.18-.69,3.11s-1.11,1.66-1.94,2.18-1.77.79-2.81.79c-1.7,0-3.02-.72-3.95-2.15s-1.39-3.47-1.39-6.12c0-2.12.28-3.98.85-5.57s1.38-2.81,2.46-3.66,2.32-1.27,3.76-1.27c.99,0,1.88.15,2.66.45v1.28c-.87-.41-1.76-.62-2.68-.62-1.15,0-2.17.38-3.05,1.13s-1.57,1.82-2.04,3.19-.71,2.93-.71,4.68h.05c.89-2,2.4-3,4.54-3,1.45,0,2.63.53,3.56,1.59s1.39,2.4,1.39,4.01ZM64.83,14.43c0-1.41-.36-2.56-1.07-3.43s-1.68-1.31-2.89-1.31c-.73,0-1.42.2-2.05.59s-1.14.93-1.52,1.61-.57,1.39-.57,2.12c0,1.46.38,2.69,1.15,3.67s1.73,1.48,2.89,1.48,2.13-.45,2.91-1.34,1.16-2.03,1.16-3.39Z"/>
      <path class="cls-1" d="M89.09,19.95v-7.78c0-1.57-.25-2.7-.74-3.38s-1.3-1.02-2.43-1.02c-.66,0-1.29.2-1.86.6s-1.04.95-1.37,1.65-.5,1.46-.5,2.28v7.64h-1.21v-7.88c0-2.87-1.09-4.3-3.27-4.3-1.05,0-1.92.44-2.61,1.32s-1.04,2.01-1.04,3.39v7.46h-1.22V6.98h1.22v2.16h.05c.9-1.65,2.22-2.47,3.96-2.47.92,0,1.72.27,2.4.8s1.14,1.25,1.38,2.15c.4-.91.97-1.63,1.71-2.16s1.57-.79,2.5-.79c2.84,0,4.25,1.75,4.25,5.26v8.02h-1.22Z"/>
      <path class="cls-1" d="M114.04,19.95v-7.78c0-1.57-.25-2.7-.74-3.38s-1.3-1.02-2.43-1.02c-.66,0-1.29.2-1.86.6s-1.04.95-1.37,1.65-.5,1.46-.5,2.28v7.64h-1.21v-7.88c0-2.87-1.09-4.3-3.27-4.3-1.05,0-1.92.44-2.61,1.32s-1.04,2.01-1.04,3.39v7.46h-1.22V6.98h1.22v2.16h.05c.9-1.65,2.22-2.47,3.96-2.47.92,0,1.72.27,2.4.8s1.14,1.25,1.38,2.15c.4-.91.97-1.63,1.71-2.16s1.57-.79,2.5-.79c2.84,0,4.25,1.75,4.25,5.26v8.02h-1.22Z"/>
      <path class="cls-1" d="M129.68,12.94v5.21h-1.1v-5.21h-5.2v-1.09h5.2v-5.21h1.1v5.21h5.2v1.09h-5.2Z"/>
      <path class="cls-1" d="M153.5,14.19c0,1.14-.23,2.18-.69,3.11s-1.11,1.66-1.94,2.18-1.77.79-2.81.79c-1.7,0-3.02-.72-3.95-2.15s-1.39-3.47-1.39-6.12c0-2.12.28-3.98.85-5.57s1.38-2.81,2.46-3.66,2.32-1.27,3.76-1.27c.99,0,1.88.15,2.66.45v1.28c-.87-.41-1.76-.62-2.68-.62-1.15,0-2.17.38-3.05,1.13s-1.57,1.82-2.04,3.19-.71,2.93-.71,4.68h.05c.89-2,2.4-3,4.54-3,1.45,0,2.63.53,3.56,1.59s1.39,2.4,1.39,4.01ZM152.22,14.43c0-1.41-.36-2.56-1.07-3.43s-1.68-1.31-2.89-1.31c-.73,0-1.42.2-2.05.59s-1.14.93-1.52,1.61-.57,1.39-.57,2.12c0,1.46.38,2.69,1.15,3.67s1.73,1.48,2.89,1.48,2.13-.45,2.91-1.34,1.16-2.03,1.16-3.39Z"/>
      <path class="cls-1" d="M176.48,19.95v-7.78c0-1.57-.25-2.7-.74-3.38s-1.3-1.02-2.43-1.02c-.66,0-1.29.2-1.86.6s-1.04.95-1.37,1.65-.5,1.46-.5,2.28v7.64h-1.21v-7.88c0-2.87-1.09-4.3-3.27-4.3-1.05,0-1.92.44-2.61,1.32s-1.04,2.01-1.04,3.39v7.46h-1.22V6.98h1.22v2.16h.05c.9-1.65,2.22-2.47,3.96-2.47.92,0,1.72.27,2.4.8s1.14,1.25,1.38,2.15c.4-.91.97-1.63,1.71-2.16s1.57-.79,2.5-.79c2.84,0,4.25,1.75,4.25,5.26v8.02h-1.22Z"/>
      <path class="cls-1" d="M201.43,19.95v-7.78c0-1.57-.25-2.7-.74-3.38s-1.3-1.02-2.43-1.02c-.66,0-1.29.2-1.86.6s-1.04.95-1.37,1.65-.5,1.46-.5,2.28v7.64h-1.21v-7.88c0-2.87-1.09-4.3-3.27-4.3-1.05,0-1.92.44-2.61,1.32s-1.04,2.01-1.04,3.39v7.46h-1.22V6.98h1.22v2.16h.05c.9-1.65,2.22-2.47,3.96-2.47.92,0,1.72.27,2.4.8s1.14,1.25,1.38,2.15c.4-.91.97-1.63,1.71-2.16s1.57-.79,2.5-.79c2.84,0,4.25,1.75,4.25,5.26v8.02h-1.22Z"/>
      <path class="cls-1" d="M221.1,19.95V1.79h1.3v16.98h7.28v1.17h-8.58Z"/>
      <path class="cls-1" d="M241.54,20.26c-1.22,0-2.3-.28-3.23-.84s-1.66-1.35-2.16-2.37-.76-2.18-.76-3.5c0-1.39.26-2.61.77-3.65s1.25-1.84,2.2-2.4,2.07-.83,3.33-.83c1.85,0,3.31.61,4.38,1.82s1.61,2.88,1.61,5c0,1.33-.25,2.51-.76,3.54s-1.22,1.83-2.15,2.39-2.01.84-3.23.84ZM241.63,7.77c-1.55,0-2.76.53-3.65,1.58s-1.33,2.46-1.33,4.22.44,3.05,1.32,4.07,2.08,1.52,3.6,1.52,2.74-.5,3.59-1.5,1.27-2.4,1.27-4.2-.41-3.25-1.24-4.23-2.01-1.46-3.55-1.46Z"/>
      <path class="cls-1" d="M265.56,19.95h-1.14l-2.82-9.75c-.07-.27-.14-.63-.2-1.08h-.07c-.02.3-.11.65-.25,1.05l-3.15,9.77h-1.14l-3.91-12.96h1.34l3,10.31c.08.27.14.64.18,1.09h.11c.02-.23.1-.59.25-1.09l3.26-10.31h.87l2.92,10.31c.07.25.13.61.18,1.09h.11c0-.24.07-.61.21-1.09l3.06-10.31h1.23l-4.01,12.96Z"/>
      <path class="cls-1" d="M275.47,12.96v-1.17h6.91v1.17h-6.91Z"/>
      <path class="cls-1" d="M289.87,19.95V1.79h8.52v1.2h-7.22v7.21h6.69v1.18h-6.69v7.39h7.63v1.17h-8.93Z"/>
      <path class="cls-1" d="M316.07,3.46h-6.75c-1.12,1.4-2.07,2.41-2.85,3.02l-.82-.62c1.84-1.42,3.39-3.32,4.68-5.7l.94.34c-.27.59-.7,1.28-1.27,2.06h6.07v.89ZM316.25,20.04l-.81.46c-.23-.53-.61-1.2-1.11-2.02-3.03,1.08-5.23,1.78-6.6,2.11l-.5-.79c.2-.17.29-.43.29-.77V7.39h7.99v7.17h-7.03v4.85c1.3-.3,3.09-.86,5.37-1.68-.34-.54-.7-1.04-1.08-1.51l.8-.48c1.08,1.37,1.97,2.8,2.68,4.29ZM314.55,10.51v-2.2h-6.07v2.2h6.07ZM314.55,13.68v-2.27h-6.07v2.27h6.07ZM313.32,6.36l-.86.41c-.38-.68-.87-1.34-1.46-1.97l.83-.46c.59.62,1.08,1.29,1.49,2.02ZM326.36,3.46h-7.68c-.8,1.18-1.62,2.17-2.45,2.98l-.81-.55c1.64-1.59,3.02-3.52,4.12-5.77l.94.32c-.38.77-.79,1.48-1.21,2.13h7.08v.89ZM325.32,17.61c0,.68-.17,1.16-.5,1.45s-1.16.43-2.48.43l-1.07-.02-.38-.91,1.49.02c.84,0,1.38-.04,1.62-.13s.37-.36.37-.8v-9.33h-5.43v12.76h-.96V7.39h7.34v10.22ZM322.89,6.22l-.87.4c-.38-.68-.86-1.34-1.46-1.97l.84-.45c.58.61,1.07,1.28,1.49,2.02Z"/>
      <path class="cls-1" d="M344.53,6.46l-.84.57c-.16-.27-.48-.74-.96-1.42-2.34.39-5.34.7-8.98.91l-.32-.76c1.51-1.17,2.83-3.04,3.96-5.6l.91.34c-.99,2.09-2.06,3.77-3.21,5.04,2.98-.19,5.31-.43,6.98-.74-.43-.59-1.12-1.37-2.09-2.33l.74-.62c1.62,1.65,2.89,3.18,3.8,4.61ZM342.87,19.78c0,.91-.5,1.36-1.49,1.36h-2.13l-.41-.9,1.31.04c.87,0,1.38-.04,1.53-.13s.23-.24.23-.47v-4.2c-2.06.93-4.05,1.73-5.98,2.4l-.48-.6c-.15,1.24-.53,2.54-1.15,3.88l-.87-.5c.79-1.59,1.18-3.51,1.18-5.78v-6.29h8.25v11.19ZM341.91,14.5v-5.06h-6.33v2.04c1.84.34,3.62.81,5.34,1.42l-.55.79c-1.73-.61-3.33-1.05-4.79-1.34v2.54c0,.77-.03,1.48-.09,2.16,1.88-.59,4.02-1.44,6.42-2.54ZM354.18,17.09c-.09,1.29-.29,2.26-.62,2.9s-.94.97-1.83.97h-4.46c-1.09,0-1.63-.53-1.63-1.58v-9.07h.96v3.62h7.03v.89h-7.03v4.27c0,.42.13.69.4.8s1.03.17,2.29.17c1.71,0,2.71-.07,2.99-.22s.49-.49.63-1.04.23-1.21.27-2.01l1.01.3ZM354.01,9.22h-6.91c-.96,0-1.44-.46-1.44-1.39V.27h.96v3.12h6.98v.89h-6.98v3.28c0,.48.25.73.76.73h6.63v.94Z"/>
      <path class="cls-1" d="M369.27,4.78l-.75.67c-.74-1.05-1.8-2.17-3.16-3.36-.7,1.26-1.7,2.6-3.02,4.03h6.09v.91h-2.8v2.84h3.28v.89h-3.28v7.08c.81-.3,1.74-.7,2.78-1.18l.25.87c-2.12.97-4.61,1.88-7.46,2.74l-.25-.87c1.02-.28,2.26-.7,3.73-1.25v-7.38h-3.43v-.89h3.43v-2.84h-2.4v-.81l-1.05.93-.57-.76c2.16-1.94,3.7-4.07,4.63-6.39l.91.41-.39.84c1.35,1.15,2.51,2.32,3.48,3.53ZM363.59,16.76l-.91.26c-.23-1.35-.62-2.89-1.16-4.61l.89-.29c.55,1.7.95,3.25,1.18,4.64ZM368.63,12.16c-.16,1.16-.53,2.52-1.09,4.07l-.86-.32c.57-1.63.91-2.97,1.03-4.01l.91.26ZM381.73,7.46h-2.52v3.5h-5.81v-3.5h-2.4v5.02c0,2.32-.23,4.11-.7,5.36s-1.17,2.37-2.1,3.35l-.89-.6c1.12-1.16,1.86-2.31,2.21-3.45s.52-2.72.52-4.76V2.68h5.29c-.24-.79-.59-1.52-1.03-2.18l.98-.26c.3.47.66,1.28,1.08,2.44h5.24v.89h-10.59v3h2.4v-1.86h.96v1.86h3.89v-1.86h.96v1.86h2.52v.89ZM381.92,20.24l-.48.88c-1.87-.37-3.5-1.06-4.9-2.09-1.37.98-3.08,1.7-5.13,2.16l-.48-.79c1.98-.38,3.61-1.02,4.88-1.95-1.37-1.19-2.35-2.74-2.95-4.65h-.82v-.89h8.5v.89c-.5,1.68-1.57,3.22-3.21,4.63,1.47,1.06,3,1.66,4.61,1.8ZM379.49,13.8h-5.71c.51,1.53,1.44,2.88,2.79,4.05,1.4-1.18,2.37-2.53,2.92-4.05ZM378.25,10.05v-2.59h-3.89v2.59h3.89Z"/>
      <path class="cls-1" d="M395.02,19.3c0,1.18-.66,1.77-1.99,1.77h-.86l-.25-.91c1.02,0,1.63-.03,1.83-.08s.3-.25.3-.59v-7.88c-.8,1.06-1.74,2.22-2.82,3.48l-.53-.6c-.17,2.74-.57,4.95-1.18,6.62l-.86-.6c.38-1.09.67-2.3.88-3.64s.32-3.36.32-6.05V.89h5.16v18.41ZM394.06,10.23v-2.19l-.5.46c-.75-1.04-1.66-2.15-2.73-3.34v5.47c0,.86-.03,2.06-.09,3.61,1.22-1.34,2.33-2.68,3.33-4.01ZM394.06,7.68V1.78h-3.23v3.12l.48-.5c1.08,1.13,2,2.23,2.75,3.28ZM409.42,15.73h-6.46c-.32,1.44-.98,2.56-1.99,3.36s-2.64,1.46-4.9,1.96l-.55-.81c2.14-.39,3.68-.94,4.63-1.66s1.56-1.67,1.85-2.85h-5.8v-.89h5.98c.07-.48.11-1.04.11-1.68v-.54h-4.52v-6.98h10.12v6.98h-4.65c0,.95-.04,1.68-.13,2.21h6.32v.89ZM402.18,3.22h-1.64v1.72h-.96v-1.72h-3.48v-.89h3.48V.16h.96v2.17h1.64v.89ZM406.93,8.68v-2.16h-8.2v2.16h8.2ZM406.93,11.74v-2.17h-8.2v2.17h8.2ZM409.67,3.22h-3.68v1.72h-.96v-1.72h-1.65v-.89h1.65V.16h.96v2.17h3.68v.89ZM409.4,20.29l-.62.76c-1.49-1.16-3.16-2.2-5.02-3.09l.6-.77c1.82.95,3.5,1.99,5.04,3.11Z"/>
      <path class="cls-1" d="M426.28,12.75c-.55-.29-.82-.66-.82-1.1,0-.3.09-.54.28-.73s.45-.29.79-.29c.36,0,.63.12.81.37s.28.59.28,1.04c0,.78-.45,1.54-1.36,2.26l-.47-.4c.33-.45.49-.84.49-1.15Z"/>
      <path class="cls-1" d="M451.14,1.76c0,.12-.34.9-1.01,2.35s-1.25,2.61-1.72,3.47c.78.71,1.39,1.5,1.83,2.37s.66,2.05.66,3.56c0,1.83-1.04,2.74-3.13,2.74l-1.29-.02-.34-.98c.62.06,1.18.09,1.7.09.68,0,1.2-.16,1.55-.48s.53-.93.53-1.82c0-2.11-.87-3.85-2.61-5.21,1.22-2.32,2.17-4.34,2.86-6.07h-4.7v19.34h-.96V.87h6.62v.89ZM464.55,20.54h-14.77v-.89h2.86V.89h9.5v18.76h2.4v.89ZM461.19,6.96V1.78h-7.58v5.18h7.58ZM461.19,13.03v-5.18h-7.58v5.18h7.58ZM461.19,19.65v-5.73h-7.58v5.73h7.58Z"/>
      <path class="cls-1" d="M475.76,7.63c1.6,1.27,2.4,3.23,2.4,5.88,0,1.83-1.02,2.74-3.05,2.74l-1.03-.02-.34-.98c.56.06,1.02.09,1.37.09.68,0,1.2-.16,1.55-.48s.53-.89.53-1.72c0-2.27-.84-4.04-2.51-5.31.96-2.15,1.71-4.17,2.25-6.07h-3.76v19.34h-.96V.87h5.77v.89c-.75,2.44-1.49,4.39-2.21,5.87ZM491.84,1.83h-13.01v-.87h13.01v.87ZM491.31,19.32c0,1.16-.64,1.75-1.92,1.75h-1.72l-.32-.94c.44.04.91.06,1.41.06.68,0,1.12-.06,1.31-.18s.29-.35.29-.69v-7.95h-2.59l.69.36c-.49,1.49-.93,2.68-1.31,3.55h1.95v.86h-3.25v4.69h-.96v-4.69h-3.3v-.86h1.97c-.51-1.53-.95-2.7-1.32-3.5l.71-.41h-2.61v9.69h-.96v-10.56h11.95v8.81ZM490.23,8.45h-9.62v-4.37h9.62v4.37ZM489.27,7.58v-2.64h-7.7v2.64h7.7ZM487.57,11.38h-4.49c.6,1.43,1.07,2.73,1.42,3.91h1.65c.5-1.1.97-2.41,1.42-3.91Z"/>
      <path class="cls-1" d="M509.63,5.93h-2.47v1.54c0,.34.18.5.55.5h1.88v.87h-2.05c-.35,0-.66-.11-.93-.34s-.4-.56-.4-1.01v-1.56h-2.7c-.43,1.76-1.77,3.08-4.01,3.96l-.57-.77c2.02-.72,3.21-1.78,3.57-3.19h-3.28v-.87h4.9v-2.18h-4.32v-.84h4.32V.29h.96v1.75h4.05v.84h-4.05v2.18h4.56v.87ZM503.38,16.92c-1.18,1.72-2.38,3.14-3.6,4.27l-.77-.67c1.56-1.51,2.76-2.89,3.59-4.15l.79.55ZM509.43,14.02c-2.69.5-6.04.97-10.05,1.42l-.09-.91c1.51-.13,3.12-.32,4.83-.55v-2.52h-4.03v-.84h4.03v-2.37h.96v2.37h3.76v.84h-3.76v2.4c1.57-.23,3.01-.48,4.31-.73l.05.89ZM507.9,20.98l-1.01.21c-.2-1.38-.58-2.85-1.12-4.43l.94-.27c.51,1.44.91,2.93,1.2,4.49ZM519.85,10.8c-.23,2.88-.84,4.31-1.8,4.31-.52,0-.9-.32-1.14-.96s-.35-1.85-.35-3.63v-5.91h-2.57c-.02,2.3-.18,4.11-.48,5.45.87,1.19,1.57,2.25,2.1,3.18l-.8.6c-.52-.91-1.07-1.78-1.63-2.59-.48,1.46-1.3,2.89-2.45,4.29l-.89-.55c1.22-1.3,2.08-2.89,2.59-4.75-.78-1.07-1.52-2.02-2.23-2.84l.71-.57c.7.82,1.3,1.55,1.8,2.18.2-1.17.3-2.64.3-4.39h-2.57v-.9h2.57V.29h.96v3.43h3.53v6.64c0,2.42.19,3.63.56,3.63.08,0,.15-.04.21-.11s.17-.48.33-1.21.28-1.47.35-2.22l.89.34ZM513.85,20.93l-.94.36c-.55-1.69-1.23-3.2-2.04-4.54l.94-.32c.9,1.64,1.58,3.14,2.04,4.49ZM519.75,20.79l-.89.48c-.61-1.43-1.54-2.98-2.78-4.64l.88-.46c1.12,1.45,2.05,2.98,2.79,4.62Z"/>
      <path class="cls-1" d="M537.73,6.46l-.84.57c-.16-.27-.48-.74-.96-1.42-2.34.39-5.34.7-8.98.91l-.32-.76c1.51-1.17,2.83-3.04,3.96-5.6l.91.34c-.99,2.09-2.06,3.77-3.21,5.04,2.98-.19,5.31-.43,6.98-.74-.43-.59-1.12-1.37-2.09-2.33l.74-.62c1.62,1.65,2.89,3.18,3.8,4.61ZM536.07,19.78c0,.91-.5,1.36-1.49,1.36h-2.13l-.41-.9,1.31.04c.87,0,1.38-.04,1.53-.13s.23-.24.23-.47v-4.2c-2.06.93-4.05,1.73-5.98,2.4l-.48-.6c-.15,1.24-.53,2.54-1.15,3.88l-.87-.5c.79-1.59,1.18-3.51,1.18-5.78v-6.29h8.25v11.19ZM535.11,14.5v-5.06h-6.33v2.04c1.84.34,3.62.81,5.34,1.42l-.55.79c-1.73-.61-3.33-1.05-4.79-1.34v2.54c0,.77-.03,1.48-.09,2.16,1.88-.59,4.02-1.44,6.42-2.54ZM547.38,17.09c-.09,1.29-.29,2.26-.62,2.9s-.94.97-1.83.97h-4.46c-1.09,0-1.63-.53-1.63-1.58v-9.07h.96v3.62h7.03v.89h-7.03v4.27c0,.42.13.69.4.8s1.03.17,2.29.17c1.71,0,2.71-.07,2.99-.22s.49-.49.63-1.04.23-1.21.27-2.01l1.01.3ZM547.21,9.22h-6.91c-.96,0-1.44-.46-1.44-1.39V.27h.96v3.12h6.98v.89h-6.98v3.28c0,.48.25.73.76.73h6.63v.94Z"/>
      <path class="cls-1" d="M564.28,12.75c-.55-.29-.82-.66-.82-1.1,0-.3.09-.54.28-.73s.45-.29.79-.29c.36,0,.63.12.81.37s.28.59.28,1.04c0,.78-.45,1.54-1.36,2.26l-.47-.4c.33-.45.49-.84.49-1.15Z"/>
      <path class="cls-1" d="M602.62,12.53l-.48.89c-3.95-.95-7.26-2.2-9.94-3.77-2.62,1.54-5.89,2.81-9.81,3.82l-.61-.84c3.87-.91,7.05-2.08,9.55-3.5-1.78-1.12-3.33-2.41-4.65-3.86-1.23.97-2.52,1.8-3.89,2.5l-.53-.66c3.49-1.79,6.13-4.09,7.92-6.91l.84.32c-.47.84-1.08,1.65-1.83,2.45h9.73v.89c-1.66,2.09-3.61,3.85-5.84,5.27,2.7,1.53,5.88,2.67,9.53,3.41ZM598.76,20.31l-.48.83c-4.17-1.66-8.42-2.92-12.74-3.79l.41-.89c4.59.94,8.86,2.22,12.81,3.84ZM597.7,3.84h-9.39l-.96.87c1.27,1.4,2.89,2.7,4.85,3.9,2.12-1.3,3.96-2.89,5.5-4.77ZM598.23,15.53l-.46.84c-2.57-1.12-5.59-2.05-9.05-2.81l.41-.83c3.15.66,6.18,1.59,9.09,2.8Z"/>
      <path class="cls-1" d="M615.37,18.32h-.94v-1.3h-3.23v2.19h-.94V1.61h5.11v16.71ZM614.43,8.68V2.5h-3.23v6.19h3.23ZM614.43,16.12v-6.55h-3.23v6.55h3.23ZM630.32,11.52h-8.91c-.2.66-.44,1.34-.71,2.04h8.13v.89c-.92,1.48-2.09,2.76-3.5,3.82,1.59.96,3.24,1.63,4.97,2.02l-.43.88c-1.91-.52-3.67-1.3-5.3-2.34-1.57,1.02-3.52,1.79-5.84,2.32l-.43-.74c2.17-.51,4-1.21,5.5-2.11-1.54-1.15-2.71-2.39-3.53-3.73-1.15,2.48-2.68,4.54-4.58,6.18l-.62-.61c2.62-2.28,4.42-5.15,5.39-8.61h-4.01v-.89h4.25c.22-.88.38-1.68.48-2.39h-3.96v-.89h12.36v.89h-7.37c-.12.71-.31,1.51-.55,2.39h8.66v.89ZM629.63,1.12c-4.02.88-8.14,1.43-12.39,1.66l-.36-.87c4.76-.23,8.89-.77,12.39-1.61l.36.81ZM620.22,6.05l-.89.5c-.49-.98-1.06-1.86-1.7-2.66l.79-.53c.66.81,1.26,1.71,1.8,2.68ZM627.75,14.45h-6.53c.75,1.17,1.87,2.29,3.36,3.34,1.14-.8,2.2-1.92,3.16-3.34ZM624.5,6.14l-.87.29c-.34-1.09-.73-2.05-1.15-2.88l.88-.26c.5.86.88,1.81,1.14,2.85ZM629.49,3.32c-.62,1.23-1.27,2.28-1.95,3.14l-.87-.41c.81-1.07,1.46-2.11,1.95-3.12l.87.39Z"/>
      <path class="cls-1" d="M657.87,20.21l-.46.88c-3.52-.33-6.82-1.03-9.89-2.11-2.88,1.06-6.18,1.77-9.9,2.13l-.46-.81c3.38-.3,6.43-.9,9.14-1.78-1.8-.73-3.46-1.59-4.97-2.57-1.04.62-2.15,1.17-3.34,1.63l-.62-.67c1.38-.49,2.45-.98,3.22-1.46-.53-.36-1.04-.74-1.51-1.15l.71-.55c.44.37.97.77,1.61,1.22,1.23-.8,2.3-1.73,3.2-2.79h-4.42V3.67h6.33c.3-.75.52-1.43.66-2.04h-9.66v-.81h19.9v.81h-9.26c-.13.64-.34,1.32-.63,2.04h7.23v8.52h-9.02c-.5.62-1.08,1.23-1.73,1.83h10.78v.82c-1.61,1.45-3.62,2.67-6.02,3.67,2.81.91,5.85,1.48,9.12,1.71ZM653.79,6.19v-1.72h-12.64v1.72h12.64ZM653.79,8.77v-1.8h-12.64v1.8h12.64ZM653.79,11.4v-1.88h-12.64v1.88h12.64ZM653.48,14.81h-10.44l-.9.64c1.66,1.06,3.46,1.94,5.39,2.64,2.34-.87,4.33-1.96,5.95-3.28Z"/>
      <path class="cls-1" d="M669.46,9.64l-.64.84c-1.67-1.55-3.13-2.7-4.37-3.46l.62-.71c1.2.7,2.66,1.8,4.39,3.33ZM669.3,12.89c-.92,2.73-2.23,5.51-3.94,8.33l-.82-.66c1.75-2.8,3.05-5.53,3.89-8.2l.87.53ZM669.35,3.5l-.73.77c-1.09-1.2-2.38-2.29-3.86-3.27l.67-.67c1.56.99,2.87,2.05,3.91,3.16ZM674.34,14.36c-1.13,2.09-2.48,3.94-4.05,5.57l-.82-.55c1.59-1.59,2.92-3.4,4.01-5.43l.87.41ZM685.28,4.17h-15.27v-.9h7.39c-.38-.85-.91-1.79-1.58-2.81l.91-.39c.78,1.14,1.36,2.21,1.75,3.2h6.8v.9ZM683.32,12.39h-5.31v7.1c0,.45-.14.83-.42,1.15s-1,.48-2.16.48l-1.25-.05-.32-.91c.65.06,1.22.09,1.72.09.62,0,1.02-.05,1.2-.16s.27-.29.27-.55v-7.15h-5.3v-5.52h11.57v5.52ZM682.35,11.5v-3.71h-9.64v3.71h9.64ZM685.38,19.17l-.84.59c-1.12-1.91-2.45-3.67-3.98-5.26l.77-.55c1.62,1.72,2.97,3.46,4.05,5.23Z"/>
      <path class="cls-1" d="M702.28,12.75c-.55-.29-.82-.66-.82-1.1,0-.3.09-.54.28-.73s.45-.29.79-.29c.36,0,.63.12.81.37s.28.59.28,1.04c0,.78-.45,1.54-1.36,2.26l-.47-.4c.33-.45.49-.84.49-1.15Z"/>
      <path class="cls-1" d="M725.94,19.3c0,1.18-.66,1.77-1.99,1.77h-1.05l-.25-.91c1.14,0,1.81-.02,2.02-.07s.31-.25.31-.6v-7.85c-.84,1.27-1.72,2.43-2.62,3.46l-.55-.6c-.15,2.76-.54,4.96-1.17,6.62l-.87-.6c.38-1.09.67-2.3.88-3.64s.32-3.36.32-6.05V.87h4.97v18.43ZM724.98,10.23v-2.17l-.48.48c-.71-1.02-1.57-2.15-2.57-3.39v5.74c0,.8-.04,1.91-.11,3.34,1.07-1.23,2.12-2.57,3.15-4.01ZM724.98,7.68V1.76h-3.05v3.14l.48-.5c.68.82,1.54,1.91,2.57,3.28ZM740.87,12.02l-.52.8c-2.66-.82-4.86-2.01-6.6-3.57-1.75,1.45-3.98,2.66-6.69,3.64l-.48-.73c3.16-1.08,5.59-2.48,7.27-4.22l.75.46-.27.28c1.77,1.51,3.95,2.62,6.54,3.34ZM731.12,5.77c-1.23.88-2.54,1.67-3.91,2.37l-.46-.74c1.6-.81,2.92-1.59,3.96-2.33l.41.7ZM732.8,7.03c0,.48-.13.83-.39,1.03s-.76.3-1.5.3l-.75-.04-.32-.8c.36.03.72.05,1.09.05.41,0,.67-.03.76-.08s.14-.14.14-.28V1.8h-4.79v-.89h5.75v6.12ZM739.85,14.84c-2.16,3.15-6.2,5.26-12.12,6.33l-.43-.79c5.79-1.09,9.72-3.12,11.79-6.07l.76.53ZM730.25,3.94l-.46.71c-.62-.43-1.39-.84-2.32-1.22l.35-.69c.78.3,1.59.7,2.43,1.2ZM737.36,13.42c-2.09,2.2-5.18,3.81-9.28,4.83l-.48-.8c3.98-.97,6.99-2.49,9.05-4.56l.71.53ZM735.18,11.61c-1.88,1.71-4.2,2.93-6.98,3.66l-.43-.75c2.89-.8,5.12-1.97,6.68-3.5l.74.6ZM739.43,7.39c0,.3-.1.57-.3.83s-.73.38-1.57.38l-.75-.04-.3-.79,1.05.05c.41,0,.67-.03.77-.08s.15-.15.15-.29V1.8h-4.76v-.89h5.72v6.48ZM737.74,5.88c-1.48.68-2.7,1.16-3.64,1.44l-.34-.77c1.12-.33,2.35-.79,3.68-1.39l.3.73ZM737.1,3.77l-.36.71c-.84-.45-1.8-.82-2.88-1.1l.39-.7c.9.24,1.85.61,2.86,1.09Z"/>
      <path class="cls-1" d="M768.32,7.28l-.62.88c-4.05-1.72-7.36-3.93-9.94-6.64-2.42,2.46-5.7,4.7-9.84,6.73l-.62-.89c4.23-1.8,7.74-4.22,10.51-7.25l.98.39c-.05.08-.18.22-.39.43,2.64,2.64,5.95,4.76,9.91,6.36ZM765.18,21.07h-.96v-1.68h-12.91v1.68h-.96v-9.14h14.84v9.14ZM764.22,18.5v-5.66h-12.91v5.66h12.91ZM764.01,8.16h-12.48v-.88h12.48v.88Z"/>
      <path class="cls-1" d="M782.58,2.66h-3.22v6h2.93v.89h-2.93v6.12c1.12-.59,2.16-1.18,3.09-1.79v1.03c-1.52.95-3.89,2.27-7.12,3.96l-.32-.89c1.43-.73,2.56-1.32,3.39-1.77v-6.66h-2.91v-.89h2.91V2.66h-3.23v-.88h7.42v.88ZM796.01,20.31l-.57.91c-2.34-.97-4.18-2.07-5.54-3.32-1.37,1.2-3.21,2.27-5.52,3.23l-.62-.83c2.2-.84,4.02-1.88,5.45-3.09-1.66-1.76-2.94-4.28-3.84-7.57h-.43c-.09,4.5-1.36,8.32-3.81,11.45l-.73-.71c1.09-1.22,1.95-2.83,2.6-4.82s.97-4.05.97-6.17V2.98h4.83V.12h.96v2.86h5.54c-.29,1.27-.71,2.66-1.28,4.17l-.93-.26c.38-.92.68-1.93.93-3.02h-4.27v4.9h4.65c-.52,3.68-1.78,6.51-3.79,8.5,1.41,1.27,3.2,2.29,5.39,3.05ZM788.79,8.77V3.87h-3.87v4.9h3.87ZM793.21,9.64h-6.89c.77,2.93,1.96,5.23,3.57,6.91,1.75-1.74,2.86-4.05,3.32-6.91Z"/>
      <path class="cls-1" d="M809.41,15.91c-1.73,1.01-3.91,2.05-6.53,3.14l-.53-.79c1.41-.59,2.45-1.04,3.14-1.35v-7.44h-2.54v-.89h2.54V2.72h-2.75v-.89h6.21v.89h-2.5v5.87h2.38v.89h-2.38v6.98c.88-.42,1.8-.93,2.79-1.54l.16.98ZM822.3,19.49c0,1.05-.62,1.58-1.85,1.58h-1.58l-.32-.98c.47.05,1.09.07,1.88.07.61,0,.91-.24.91-.71v-5.66h-5.45c-.39,1.28-.78,2.4-1.17,3.35,1.26-.13,2.54-.3,3.86-.5l-.94-1.31.68-.43c.94,1.12,1.71,2.29,2.32,3.48l-.74.5c-.17-.41-.45-.91-.84-1.51l-6.64.91-.29-.87,1.54-.14c.3-.71.71-1.87,1.23-3.48h-3.64v7.29h-.96v-7.29h-1.37v-.89h1.37v-1.28h.96v1.28h3.9l.68-2.4h-4.85v-5.98h.96v5.09h8.79v-5.09h.96v5.98h-4.88c-.22.88-.44,1.68-.66,2.4h6.15v6.6ZM823.42,3.16h-13.44v-.9h6.22c-.28-.67-.6-1.3-.96-1.88l.86-.36c.52.83.9,1.57,1.14,2.24h6.19v.9ZM819.8,8.29l-.62.64c-.58-.49-1.38-1.12-2.4-1.9-1.28.93-2.43,1.58-3.46,1.95l-.5-.69c1.05-.44,2.12-1.03,3.23-1.78-1-.7-1.96-1.29-2.87-1.77l.55-.63c1.09.6,2.12,1.23,3.07,1.88.83-.64,1.5-1.24,2.02-1.8l.69.48c-.56.59-1.23,1.2-2.02,1.83.82.58,1.59,1.18,2.31,1.8Z"/>
      <path class="cls-1" d="M2.73,63.49c-.37,1.77-.96,3.65-1.77,5.66l-.89-.42c.78-1.85,1.36-3.68,1.72-5.5l.94.26ZM9.16,61.93l-.91.39c-.18-.58-.36-1.07-.53-1.46-2.6.65-4.93,1.14-6.98,1.46l-.33-.84c1.92-1.71,3.54-3.5,4.86-5.38-1.21.16-2.66.31-4.34.46l-.25-.94c1.8-2.3,3.26-4.79,4.39-7.46l.94.36c-1.23,2.66-2.61,5.02-4.15,7.05,1.73-.12,3.08-.25,4.03-.38.5-.79,1.01-1.66,1.54-2.62l.88.43c-1.8,3.23-3.92,5.97-6.38,8.24,1.79-.3,3.61-.7,5.45-1.18-.27-.56-.56-1.13-.89-1.7l.87-.39c.69,1.21,1.29,2.53,1.79,3.96ZM5.88,68.53l-.98.15c-.13-1.77-.37-3.5-.7-5.17l.94-.19c.36,1.73.61,3.46.75,5.2ZM9.12,67.02l-.91.32c-.43-1.56-.89-2.91-1.39-4.05l.89-.34c.51,1.18.98,2.54,1.42,4.08ZM21.07,52.54h-5.77v3.96h4.95v.89h-10.58v-.89h4.69v-3.96h-5.38v-.88h5.38v-3.52h.95v3.52h5.77v.88ZM19.46,69.05h-.96v-1.51h-7.15v1.51h-.96v-8.59h9.07v8.59ZM18.5,66.66v-5.31h-7.15v5.31h7.15Z"/>
      <path class="cls-1" d="M34.97,59.84l-.66.74c-.84-1.72-1.6-3.1-2.27-4.15v12.69h-.96v-13.15c-.48,2.23-1.35,4.36-2.61,6.41l-.7-.64c1.12-1.66,2.18-4.3,3.18-7.92h-2.88v-.89h3.02v-4.8h.96v4.8h2.34v.89h-2.34v1.24c1.18,1.56,2.16,3.16,2.93,4.78ZM48.74,64.72h-1.7v2.54c0,.51-.11.9-.32,1.19s-.46.48-.72.58-.74.15-1.43.15c-.41,0-.89-.02-1.42-.06l-.48-.88c.52.05,1.41.07,2.68.07.48,0,.73-.24.73-.73v-2.87h-9.46v4.41h-.96v-4.41h-1.78v-.8h1.78v-5.66h5.2v-1.92h-6.71v-.8h3.76v-1.97h-2.57v-.79h2.57v-1.92h-3.21v-.8h3.21v-1.84h.96v1.84h4.95v-1.84h.96v1.84h3.22v.8h-3.22v1.92h2.59v.79h-2.59v1.97h3.7v.8h-6.66v1.92h5.21v5.66h1.7v.8ZM40.87,61.09v-2.04h-4.24v2.04h4.24ZM40.87,63.92v-2.04h-4.24v2.04h4.24ZM43.82,52.79v-1.92h-4.95v1.92h4.95ZM43.82,55.54v-1.97h-4.95v1.97h4.95ZM46.08,61.09v-2.04h-4.25v2.04h4.25ZM46.08,63.92v-2.04h-4.25v2.04h4.25Z"/>
      <path class="cls-1" d="M76.27,51.97h-11.91c-.66,1.11-1.31,2.11-1.97,3h10.99v12.32c0,.48-.14.86-.43,1.15s-.75.46-1.38.52-1.39.08-2.26.08c-.59,0-1.13-.02-1.63-.05l-.36-.94c.85.06,1.72.09,2.61.09,1.12,0,1.82-.06,2.09-.17s.4-.33.4-.66v-3.43h-11.11c-.4,1.98-1.31,3.73-2.73,5.27l-.91-.53c1.22-1.2,2.02-2.48,2.41-3.85s.59-3.1.59-5.2v-2.5c-1.44,1.55-3.01,2.86-4.71,3.94l-.64-.69c3.2-2.1,5.85-4.89,7.97-8.36h-7.8v-.89h8.33c.45-.78.95-1.76,1.49-2.93l.94.27c-.43.89-.89,1.78-1.37,2.66h11.4v.89ZM72.43,62.98v-3.12h-10.79c0,1.27-.06,2.31-.18,3.12h10.97ZM72.43,58.98v-3.12h-10.7l-.09.12v3h10.79Z"/>
      <path class="cls-1" d="M87.52,53.62c-1.06,2.13-2.33,4.01-3.81,5.62l-.75-.68c1.44-1.43,2.69-3.22,3.75-5.37l.81.42ZM93.33,66.37l-.73.69c-.55-.65-1.59-1.73-3.09-3.23-1.45,2.33-3.44,4.16-5.98,5.5l-.55-.77c2.44-1.23,4.37-3.02,5.79-5.37-1.09-1.07-2.28-2.14-3.57-3.2l.62-.67c1.48,1.21,2.64,2.21,3.46,3,.71-1.38,1.25-2.82,1.63-4.32l.91.36c-.58,1.87-1.2,3.41-1.85,4.63l3.36,3.39ZM93.93,52.17h-10.61v-.89h5.33c-.28-.99-.66-1.91-1.14-2.77l.84-.48c.52.97.98,2.05,1.37,3.25h4.2v.89ZM93.57,57.3l-.76.62c-1.02-1.7-2.12-3.09-3.29-4.17l.75-.55c1.58,1.58,2.68,2.95,3.3,4.1ZM104.21,68.39l-.61.8c-2.24-1.28-3.88-2.64-4.91-4.07-1.46,1.54-3.57,2.91-6.34,4.11l-.5-.82c2.74-1.12,4.83-2.49,6.26-4.1-1.04-1.73-1.79-3.73-2.25-6l.91-.32c.38,2.01,1.04,3.85,1.97,5.52,1.8-2.62,2.71-6.14,2.71-10.56h-4.15c-.91,2.89-1.98,5.11-3.2,6.67l-.79-.64c1.99-2.44,3.38-6.11,4.15-11.02l.94.14c-.16,1.24-.45,2.56-.84,3.96h6.55v.89h-1.7c-.04,4.92-1.07,8.75-3.09,11.47.96,1.39,2.59,2.71,4.9,3.96Z"/>
      <path class="cls-1" d="M115.65,55.74c.75.92,1.27,1.75,1.56,2.49s.43,1.6.43,2.57c0,.88-.26,1.55-.77,2.03s-1.24.71-2.19.71l-1.05-.04-.33-.98c.57.06,1.03.09,1.38.09,1.34,0,2.02-.6,2.02-1.79,0-1.84-.7-3.5-2.11-4.99.55-1.48,1.2-3.49,1.92-6.05h-3.98v19.31h-.96v-20.2h5.98v.89c-.8,2.69-1.43,4.67-1.9,5.95ZM131.66,58.06l-.46.89c-2.93-1.11-4.99-2.06-6.19-2.86-1.85,1.16-3.99,2.08-6.41,2.74l-.5-.82c2.2-.51,4.24-1.33,6.12-2.47-1.12-.83-2.18-1.86-3.19-3.09-.75.82-1.57,1.49-2.47,2.02l-.57-.6c1.93-1.28,3.55-3.18,4.88-5.68l.89.3c-.37.73-.75,1.39-1.16,1.97h7.66v.89c-1.25,1.61-2.72,3.01-4.42,4.2,1.41.89,3.35,1.73,5.82,2.52ZM131.52,65.77h-5.91v3.26h-.96v-3.26h-5.57l.98-4.49h-1.44v-.89h6.02v-2.61h.96v2.61h5.14v.89h-5.14v3.6h5.91v.89ZM124.65,64.88v-3.6h-3.62l-.79,3.6h4.41ZM129.16,51.35h-7.2l-.34.43c1.02,1.25,2.15,2.33,3.41,3.23,1.52-1.02,2.9-2.25,4.12-3.67Z"/>
      <path class="cls-1" d="M144.48,48.35c-.23.77-.59,1.73-1.09,2.88l-.76,1.58v16.22h-.96v-14.54c-.88,1.43-1.91,2.75-3.09,3.96l-.57-.79c2.6-2.66,4.46-5.87,5.59-9.63l.89.32ZM159.23,62.62c-.38,3.23-1.1,4.85-2.14,4.85-.78,0-1.61-.97-2.48-2.92s-1.53-4.62-1.97-8h-5.73v7.56c1.59-.45,3.19-1.02,4.82-1.7l.09.89c-1.7.71-3.67,1.41-5.89,2.11l-.36-.71c.26-.18.39-.41.39-.7v-13.49c4.59-.48,8.41-1.3,11.45-2.47l.42.73c-1.52.54-3.1,1-4.72,1.38.03,1.55.17,3.39.41,5.53h5.59v.88h-5.5c.43,3.15,1.01,5.58,1.74,7.29s1.31,2.57,1.74,2.57c.11,0,.2-.04.28-.12s.23-.48.46-1.19.39-1.65.49-2.82l.94.35ZM154.72,68.34h-8.8v-.89h8.8v.89ZM152.52,55.67c-.19-1.61-.32-3.37-.41-5.29-1.48.33-3.22.61-5.2.84v4.44h5.61Z"/>
      <path class="cls-1" d="M171.65,67.06h-.94v-2.02h-3.05v2.77h-.94v-17.91h4.92v17.16ZM170.71,64.17v-13.37h-3.05v13.37h3.05ZM186.67,62.64h-6.57v6.39h-.96v-6.39h-6.57v-.86h6.57v-1.49h.96v1.49h6.57v.86ZM177.48,64.36c-.94,1.41-2.37,2.8-4.3,4.17l-.62-.62c1.77-1.27,3.15-2.62,4.12-4.03l.8.48ZM178.49,59.77h-5.04v-4.83h5.04v4.83ZM177.58,58.91v-3.09h-3.22v3.09h3.22ZM184.44,53.25h-9.66v-4.39h9.66v4.39ZM183.53,52.38v-2.66h-7.83v2.66h7.83ZM185.78,59.77h-5.04v-4.83h5.04v4.83ZM184.87,58.91v-3.09h-3.21v3.09h3.21ZM186.74,67.95l-.64.6c-1.44-1.68-2.89-3.07-4.35-4.17l.6-.64c1.73,1.26,3.19,2.66,4.39,4.22Z"/>
      <path class="cls-1" d="M214.27,56.29h-20.79v-.89h6.68c-.46-1.25-1.09-2.56-1.9-3.94h-3.69v-.89h9.07c-.33-.84-.68-1.59-1.05-2.25l.93-.34c.24.41.64,1.27,1.18,2.59h8.5v.89h-3.84c-.52,1.51-1.1,2.82-1.75,3.94h6.67v.89ZM210.88,69.03h-.96v-1.7h-12.09v1.7h-.96v-10.29h14.02v10.29ZM209.92,62.48v-2.86h-12.09v2.86h12.09ZM209.92,66.46v-3.09h-12.09v3.09h12.09ZM208.32,51.46h-8.88c.79,1.6,1.39,2.91,1.8,3.94h5.2c.7-1.08,1.32-2.39,1.88-3.94Z"/>
      <path class="cls-1" d="M231.15,60.71c-.55-.29-.82-.66-.82-1.1,0-.3.09-.54.28-.73s.45-.29.79-.29c.36,0,.63.12.81.37s.28.59.28,1.04c0,.78-.45,1.54-1.36,2.26l-.47-.4c.33-.45.49-.84.49-1.15Z"/>
      <path class="cls-1" d="M258.77,49.57c-1.11.8-2.48,1.47-4.11,2.02-.09.29-.21.55-.35.8,1.62.67,3.03,1.4,4.22,2.18l-.55.7c-1.48-.95-2.85-1.7-4.1-2.24-.73.91-2.09,1.65-4.1,2.24l-.56-.75c2.03-.59,3.35-1.27,3.96-2.06s.91-2.19.91-4.2h.96c0,.97-.05,1.78-.16,2.43,1.44-.55,2.55-1.15,3.33-1.8l.56.69ZM268.7,59.14h-.95v-2.32h-17.33v2.32h-.96v-3.14h19.24v3.14ZM252.38,51.66l-.89.4c-.3-.73-.88-1.61-1.72-2.66l.79-.48c.89,1.02,1.5,1.94,1.83,2.74ZM267.67,69.03h-.96v-1.01h-15.26v1.01h-.96v-5.09h7.03c.38-.74.65-1.38.82-1.92h-5.86v-3.43h13.2v3.43h-6.21c-.29.68-.58,1.32-.87,1.92h9.07v5.09ZM266.7,67.21v-2.45h-15.26v2.45h15.26ZM264.71,61.21v-1.8h-11.27v1.8h11.27ZM268.78,54.61l-.56.7c-1.66-1.06-3.18-1.82-4.56-2.29-.78.95-2.14,1.69-4.08,2.24l-.55-.75c2.02-.59,3.33-1.27,3.95-2.06s.93-2.19.93-4.2h.96c0,.96-.06,1.78-.18,2.45,1.39-.55,2.5-1.16,3.32-1.83l.57.69c-1.1.8-2.47,1.47-4.1,2.02l-.34.77c1.68.57,3.23,1.32,4.64,2.25ZM262.19,51.66l-.86.4c-.34-.82-.93-1.71-1.76-2.66l.77-.48c.79.91,1.4,1.83,1.84,2.74Z"/>
      <path class="cls-1" d="M297.28,67.59l-.35.94h-8.14c-2.16,0-3.92-.21-5.26-.63s-2.6-1.13-3.77-2.13c-.73,1.1-1.73,2.16-3,3.19l-.74-.67c2.61-1.89,4.2-4.48,4.77-7.76h-4.01v-.89c1.61-1.86,2.93-3.59,3.96-5.18h-4.54v-.89h5.67v.89c-1.12,1.65-2.44,3.38-3.94,5.18h3.83v.89c-.35,1.73-.87,3.22-1.56,4.46,2.07,1.78,4.8,2.67,8.19,2.67h5.45l3.42-.08ZM281.13,51.76l-.74.64c-.88-1.09-2-2.22-3.39-3.41l.6-.67c1.23,1.02,2.4,2.16,3.53,3.43ZM296.98,56.98h-13.78v-.89h6.34v-3.74h-4.15c-.46.79-.96,1.56-1.51,2.31l-.75-.46c1.34-1.86,2.37-3.77,3.07-5.74l.84.25c-.34.98-.73,1.9-1.17,2.75h3.67v-3.21h.96v3.21h5.3v.89h-5.3v3.74h6.48v.89ZM295.42,64.79h-10.69v-5.47h10.69v5.47ZM294.46,63.9v-3.69h-8.77v3.69h8.77Z"/>
      <path class="cls-1" d="M324.65,61.72h-20.79v-.89h2.36v-3.2h16.08v3.2h2.36v.89ZM324.14,64.45h-8.93v2.74c0,.67-.18,1.14-.55,1.4s-1.11.39-2.24.39h-1.98l-.41-.94c.87.03,1.78.05,2.74.05.73,0,1.16-.09,1.29-.28s.19-.39.19-.63v-2.74h-9.87v-.89h19.76v.89ZM323.76,53.46h-.96v-2.64h-17.13v2.64h-.96v-3.53h9c-.34-.7-.63-1.22-.87-1.56l.89-.36c.48.77.82,1.41,1.03,1.92h9v3.53ZM309.14,52.86c-.91,1.19-2.03,2.35-3.34,3.48l-.76-.6c1.32-1.07,2.43-2.22,3.33-3.46l.77.57ZM311.25,60.83v-2.31h-4.08v2.31h4.08ZM318.86,53.77c0,.65-.15,1.19-.46,1.61s-.77.67-1.39.74-1.5.11-2.64.11c-.95,0-1.74-.03-2.36-.08s-1.07-.23-1.35-.52-.42-.68-.42-1.17v-2.5h.96v2.61c0,.32.25.52.75.6s1.37.12,2.61.12c1.46,0,2.38-.06,2.76-.19s.57-.72.57-1.76l.96.43ZM316.29,60.83v-2.31h-4.08v2.31h4.08ZM315.79,53.39l-.81.53c-.6-.84-1.22-1.51-1.85-2.02l.79-.5c.75.62,1.38,1.28,1.88,1.99ZM321.33,60.83v-2.31h-4.08v2.31h4.08ZM322.97,55.4l-.68.69c-.77-1.14-1.72-2.23-2.85-3.26l.67-.64c.99.89,1.95,1.96,2.86,3.21Z"/>
      <path class="cls-1" d="M339.88,67.24c0,.61-.12,1.06-.37,1.35s-.74.44-1.47.44h-1.52l-.26-.83,1.78.05c.59,0,.88-.28.88-.84v-2.26h-5.23c-.2,1.54-.74,2.88-1.63,4.01l-.77-.57c1.04-1.21,1.56-2.98,1.56-5.32v-4.78h7.03v8.77ZM340.87,56.62h-9.39v-.81h4.25v-2.06h-3.43v-.82h3.43v-2.02h-3.98v-.82h3.98v-1.84h.96v1.84h3.98v.82h-3.98v2.02h3.36v.82h-3.36v2.06h4.17v.81ZM338.92,64.33v-2.11h-5.11c0,.97-.02,1.67-.05,2.11h5.16ZM338.92,61.4v-2.11h-5.11v2.11h5.11ZM352.32,60.3h-1.58v3.87h-3.91v2.94c0,.77-.16,1.29-.48,1.54s-.86.38-1.61.38h-1.73l-.33-1.01c.78.05,1.39.07,1.82.07.56,0,.93-.06,1.11-.18s.26-.33.26-.63v-3.12h-3.94v-.89h3.94v-2.98h-4.88v-.89h4.88v-2.88h-3.94v-.89h8.81v3.77h1.58v.89ZM351.4,48.97c-2.66.91-5.85,1.43-9.55,1.56l-.41-.86c3.44-.02,6.61-.5,9.5-1.44l.46.74ZM344.18,54.46l-.82.39c-.35-.88-.93-1.84-1.75-2.91l.71-.41c.75.86,1.37,1.84,1.85,2.93ZM347.57,54.28l-.87.3c-.41-1.2-.82-2.15-1.23-2.85l.82-.39c.57,1.14,1,2.12,1.28,2.93ZM349.77,59.41v-2.88h-2.95v2.88h2.95ZM349.77,63.28v-2.98h-2.95v2.98h2.95ZM351.77,51.1c-.41,1.09-1.05,2.27-1.9,3.56l-.76-.52c.83-1.12,1.46-2.28,1.89-3.47l.77.42Z"/>
      <path class="cls-1" d="M379.82,68.41h-20.84v-.89h9.98v-5.91h-7.75v-.88h16.46v.88h-7.76v5.91h9.89v.89ZM378.91,57.95h-6.14c-.41,0-.77-.15-1.05-.45s-.43-.69-.43-1.18v-4.69h-3.43c-.3,1.88-.99,3.4-2.05,4.58s-2.89,2.1-5.48,2.77l-.43-.94c2.41-.52,4.12-1.3,5.14-2.34s1.63-2.39,1.85-4.07h-5.86v3.46h-.96v-4.36h9.13c-.3-.76-.68-1.51-1.14-2.26l.94-.36c.58,1.12,1,1.99,1.25,2.62h8.68v4.38h-.96v-3.48h-5.71v4.46c0,.62.29.94.86.94h5.81v.91Z"/>
      <path class="cls-1" d="M395.93,56.29h-7.23v12.74h-.95v-20.2h8.18v7.46ZM394.97,52.09v-2.39h-6.27v2.39h6.27ZM394.97,55.43v-2.47h-6.27v2.47h6.27ZM401.74,66.73h-9.27v-8.19h9.27v8.19ZM400.78,62.12v-2.68h-7.35v2.68h7.35ZM400.78,65.84v-2.84h-7.35v2.84h7.35ZM406.44,67.24c0,1.21-.65,1.82-1.95,1.82h-2.16l-.32-.96c.77.04,1.45.06,2.03.06s.95-.07,1.14-.21.29-.35.29-.64v-11.02h-7.22v-7.46h8.18v18.41ZM405.48,52.09v-2.39h-6.27v2.39h6.27ZM405.48,55.43v-2.47h-6.27v2.47h6.27Z"/>
      <path class="cls-1" d="M424.35,60.71c-.55-.29-.82-.66-.82-1.1,0-.3.09-.54.28-.73s.45-.29.79-.29c.36,0,.63.12.81.37s.28.59.28,1.04c0,.78-.45,1.54-1.36,2.26l-.47-.4c.33-.45.49-.84.49-1.15Z"/>
      <path class="cls-1" d="M461.5,67.38c0,.68-.21,1.12-.62,1.31s-1.08.29-2.01.29h-2.61l-.39-.94c.87.04,1.85.06,2.95.06.75,0,1.22-.05,1.42-.16s.29-.31.29-.61v-17.59h-16.39v19.27h-.96v-20.16h18.32v18.53ZM458.37,53.94h-12.07v-.91h12.07v.91ZM456.88,63.99h-9.09v-6.74h9.09v6.74ZM455.92,63.1v-4.97h-7.17v4.97h7.17Z"/>
      <path class="cls-1" d="M475.89,67.54h-.96v-1.51h-3.64v2.19h-.96v-18.36h5.57v17.68ZM474.93,57.32v-6.57h-3.64v6.57h3.64ZM474.93,65.14v-6.93h-3.64v6.93h3.64ZM490.27,60.99h-2.84v6.68c0,.3-.09.56-.27.8s-.42.4-.73.47-.98.12-2.02.12l-1.62-.04-.39-.98c.86.05,1.62.08,2.27.08.7,0,1.18-.03,1.42-.08s.36-.29.36-.72v-6.34h-9.4v-.91h9.4v-2.47h.96v2.47h2.84v.91ZM490.02,52.17h-5.89v3.64h4.89v.87h-10.75v-.87h4.9v-3.64h-5.91v-.91h5.91v-3h.96v3h5.89v.91ZM482.83,65.91l-.84.57c-.79-1.44-1.74-2.76-2.85-3.96l.79-.57c1.08,1.11,2.05,2.43,2.91,3.96Z"/>
      <path class="cls-1" d="M504.89,66.08c-2.12,1.27-4.53,2.28-7.22,3.05l-.63-.74c3.13-.93,5.52-1.94,7.16-3.02l.69.71ZM517.92,64.04h-20.71v-.86h2.41v-14.19h15.75v14.16h2.54v.89ZM514.41,52.52v-2.66h-13.83v2.66h13.83ZM514.41,55.95v-2.57h-13.83v2.57h13.83ZM514.41,59.48v-2.66h-13.83v2.66h13.83ZM514.41,63.12v-2.78h-13.83v2.78h13.83ZM517.99,68.36l-.62.76c-2.2-1.2-4.64-2.2-7.3-3l.48-.74c2.97.91,5.45,1.9,7.44,2.98Z"/>
      <path class="cls-1" d="M529.75,48.42c-.2.75-.48,1.66-.84,2.73l-.55,1.52v16.36h-.96v-14.16c-.73,1.55-1.56,2.92-2.47,4.1l-.53-.84c1.91-2.56,3.39-5.91,4.46-10.05l.89.34ZM545.47,55.09h-10.54c-.41.74-.89,1.48-1.46,2.21h10.46v10.27c0,.62-.17,1.03-.52,1.21s-.96.28-1.85.28l-.88-.02-.35-.89,1.51.05c.48,0,.79-.04.93-.13s.2-.24.2-.47v-3.02h-4.15v4.3h-.96v-4.3h-4.58c-.42,1.52-1.3,3.05-2.65,4.58l-.74-.64c1.91-2.05,2.86-4.51,2.86-7.37v-2.92c-.87,1.05-1.9,2.09-3.11,3.14l-.64-.64c2.14-1.84,3.77-3.72,4.9-5.62h-4.32v-.88h4.58v-2.67h-3.9v-.89h3.9v-2.39h.96v2.39h4.8v-2.39h.96v2.39h3.94v.89h-3.94v2.67h4.58v.88ZM537.86,63.69v-2.33h-4.16c0,.84-.07,1.61-.21,2.33h4.37ZM537.86,60.46v-2.27h-4.16v2.27h4.16ZM539.93,54.21v-2.67h-4.8v2.67h4.8ZM542.97,60.46v-2.27h-4.15v2.27h4.15ZM542.97,63.69v-2.33h-4.15v2.33h4.15Z"/>
      <path class="cls-1" d="M557.25,55.54c.98.87,1.68,1.73,2.12,2.6s.65,1.98.65,3.33c0,1.83-1.06,2.74-3.19,2.74l-1.49-.02-.34-.98c.65.06,1.3.09,1.97.09s1.2-.16,1.55-.48.53-.91.53-1.77c0-.99-.21-1.89-.62-2.7s-1.16-1.66-2.26-2.56c1.2-2.36,2.09-4.38,2.67-6.07h-4.78v19.34h-.96v-20.23h6.71v.89c-.55,1.67-1.41,3.61-2.57,5.82ZM573.07,52.74h-7.92l.02,2.02c0,.77-.02,1.47-.05,2.09h6.69c-.05,2.45-.17,4.69-.36,6.71s-.38,3.32-.57,3.91-.48.99-.87,1.22-.86.35-1.39.35h-3.05l-.32-.89c.6.04,1.21.06,1.84.06,1.22,0,1.97-.06,2.24-.19s.5-.42.67-.87.35-1.68.54-3.7.28-3.92.28-5.7h-5.79c-.28,3.24-1,5.75-2.16,7.54s-2.85,3.09-5.07,3.91l-.67-.77c2.69-.91,4.53-2.56,5.54-4.95s1.51-5.61,1.51-9.69v-1.03h-3.9v-.89h6.15c-.57-1.38-1.15-2.55-1.73-3.5l.96-.36c.55.94,1.16,2.23,1.8,3.87h5.59v.89Z"/>
      <path class="cls-1" d="M586.8,66.46l-.79.53c-.73-1.6-1.54-3.05-2.45-4.35-.48,2.41-1.54,4.56-3.2,6.43l-.69-.62c1.37-1.54,2.27-3.16,2.71-4.86s.66-3.91.66-6.64v-8.71h.91v7.63c.81-1.2,1.5-2.6,2.06-4.2l.76.6c-.67,1.71-1.61,3.33-2.82,4.86,0,1.84-.07,3.31-.22,4.39,1.23,1.68,2.25,3.32,3.07,4.92ZM582.19,58.57l-.84.43c-.51-2.51-1.04-4.44-1.61-5.8l.75-.46c.6,1.51,1.17,3.45,1.7,5.82ZM600.83,63.05l-.5.87c-2.45-1.18-4.08-2.56-4.89-4.15h-4.11c-.83,1.69-2.51,3.09-5.04,4.22l-.53-.76c2.34-.99,3.87-2.14,4.61-3.46h-4.31v-.77h4.17v-1.99h-3.55v-.76h3.55v-1.99h-2.68v-5.52h11.71v5.52h-2.68v1.99h3.55v.76h-3.55v1.99h4.17v.77h-4.35c.63,1.16,2.11,2.26,4.44,3.28ZM591.88,65.91c-1.34,1-2.95,1.82-4.82,2.47l-.43-.75c2.08-.7,3.65-1.5,4.72-2.39l.53.67ZM598.29,51.1v-1.61h-9.79v1.61h9.79ZM598.29,53.48v-1.61h-9.79v1.61h9.79ZM592.15,64.13l-.62.61c-.55-.63-1.26-1.23-2.12-1.78l.56-.6c.8.52,1.53,1.11,2.18,1.77ZM593.87,67.67c0,.41-.13.75-.38,1s-.76.38-1.52.38h-1.12l-.26-.81,1.1.02c.54,0,.88-.04,1.01-.12s.21-.22.21-.43v-6.41h.96v6.36ZM595.61,56.25v-1.99h-4.42v1.99h4.42ZM595.61,59v-1.99h-4.42v1.99h4.42ZM597.35,63.03c-.7.65-1.44,1.22-2.23,1.71l-.5-.68c.9-.55,1.61-1.1,2.13-1.65l.6.62ZM600.19,67.84l-.53.76c-1.02-.83-2.58-1.74-4.68-2.73l.42-.73c1.95.91,3.54,1.81,4.78,2.7Z"/>
      <path class="cls-1" d="M628.32,63.49h-20.78v-.89h1.79l-.09-12.6c1.3-.29,2.86-.87,4.68-1.75l.46.79c-1.58.77-2.97,1.34-4.17,1.71l.02,3.05h3.76v.89h-3.74l.02,3.42h3.55v.91h-3.55l.02,3.57h15.05l.09-3.57h-3.38v-.91h3.4l.08-3.42h-3.46v-.89h3.48l.05-3.5h-3.43v-.89h4.39l-.25,13.2h1.99v.89ZM615.29,65.46c-2.16,1.57-4.43,2.8-6.82,3.69l-.55-.86c2.4-.82,4.63-2.01,6.7-3.57l.67.74ZM616.59,56.2c-.35,2.21-1.02,4.05-2.02,5.52l-.75-.61c.98-1.28,1.61-3,1.9-5.16l.87.25ZM620.97,50.82h-4.24l-.43,2.8h4.44c-.11,3.91-.31,6.23-.59,6.98s-.95,1.12-2,1.12l-1.01-.02-.32-.96,1.07.04c.78,0,1.26-.26,1.44-.79s.33-2.35.45-5.47h-4.61c.2-1.11.53-3.27.98-6.48l.96.07-.27,1.83h4.12v.89ZM627.74,68.25l-.6.74c-2.23-1.46-4.39-2.61-6.46-3.46l.5-.79c2.57,1.12,4.75,2.29,6.55,3.5Z"/>
      <path class="cls-1" d="M643.16,58.61c-.87.44-2.08.96-3.63,1.57v7.27c0,.41-.09.73-.27.98s-.39.42-.64.5-.77.12-1.56.12l-1.2-.02-.29-.94,1.95.06c.7,0,1.05-.25,1.05-.75v-6.91l-3.23,1.08-.39-.83c.36-.12.95-.3,1.76-.53s1.44-.44,1.86-.63v-5.34h-3.42v-.89h3.42v-5.11h.96v5.11h3.34v.89h-3.34v5.04c1.26-.49,2.43-1,3.5-1.54l.13.88ZM655.85,63.92c0,1.1-.06,2.06-.19,2.89s-.37,1.37-.72,1.63-1.02.4-1.99.4c-.89,0-1.46-.15-1.72-.46s-.38-.66-.38-1.05v-10.49h-5.02v3.02c0,2.05-.33,3.78-.98,5.16s-1.78,2.77-3.39,4.15l-.76-.66c1.51-1.12,2.58-2.32,3.22-3.6s.96-2.97.96-5.06v-3.91h6.94v11.45c0,.2.06.34.18.43s.46.14,1.03.14c.66,0,1.06-.05,1.21-.14s.27-.22.35-.39.16-.66.23-1.49.12-1.65.12-2.47l.91.43ZM655.1,52.31h-12.98v-.89h5.91c-.24-.9-.64-1.88-1.2-2.93l.87-.36c.62,1.29,1.08,2.39,1.36,3.29h6.05v.89Z"/>
      <path class="cls-1" d="M667.83,54.12c-.44,1-.98,1.99-1.62,2.98v11.93h-.95v-10.51c-.53.73-1.18,1.56-1.95,2.47l-.7-.69c1.88-2.03,3.32-4.22,4.32-6.57l.89.4ZM667.6,48.58c-1.15,1.94-2.58,3.71-4.29,5.31l-.63-.75c1.73-1.58,3.11-3.25,4.11-5.02l.81.46ZM678.11,53.07h-4.75v1.95h3.71v6.48h-3.71v1.95h3.71v.87h-3.71v2.5c1.65-.24,3.21-.52,4.68-.82v.84c-3.17.68-6.48,1.2-9.94,1.56l-.23-.87c1.14-.11,2.66-.31,4.56-.6v-2.61h-3.73v-.87h3.73v-1.95h-3.73v-6.48h3.73v-1.95h-4.76v-.86h4.76v-2.21c-1.07.15-2.28.28-3.62.39l-.32-.91c2.88-.09,5.62-.48,8.23-1.2l.43.76c-1.06.3-2.32.58-3.79.82v2.36h4.75v.86ZM672.43,57.83v-1.97h-2.79v1.97h2.79ZM672.43,60.66v-1.97h-2.79v1.97h2.79ZM676.15,57.83v-1.97h-2.78v1.97h2.78ZM676.15,60.66v-1.97h-2.78v1.97h2.78ZM683.47,56.22h-2.06v10.89c0,1.28-.65,1.92-1.95,1.92h-1.76l-.35-.91c.41.03.89.05,1.43.05.77,0,1.23-.05,1.41-.15s.26-.29.26-.57v-11.23h-2.4v-.89h5.43v.89ZM682.94,49.98h-4.63v-.89h4.63v.89Z"/>
      <path class="cls-1" d="M701.25,57.12h-4.97v1.92h3.13v-1.12h.9v1.85h-8.94v-1.85h.93v1.12h3.13v-1.92h-5.17v-.71h5.17v-1.17h-4.01v-4.3h4.01v-1.08h-4.95v-.73h4.95v-.88h.86v.88h4.8v.73h-4.8v1.08h4.03v4.3h-4.03v1.17h4.97v.71ZM711.12,66.35h-9.36v.94c0,.55-.14.98-.43,1.29s-1.02.47-2.18.47l-1.22-.05-.39-.87c.48.03.96.05,1.45.05.31,0,.61,0,.89-.01s.5-.11.67-.29.25-.41.25-.67v-.87h-10.54v-.73h10.54v-1.61h-9.05v-.71h9.05v-1.61c-1.25.06-2.55.09-3.91.09s-2.78-.03-4.29-.09l-.34-.73c1.03.05,2.18.07,3.43.07,4.59,0,8.81-.33,12.66-.98l.4.75c-2.23.39-4.56.66-6.98.81v1.69h8.19v.71h-8.19v1.61h9.36v.73ZM695.43,52.74v-1.08h-3.13v1.08h3.13ZM695.43,54.51v-1.08h-3.13v1.08h3.13ZM699.41,52.74v-1.08h-3.13v1.08h3.13ZM699.41,54.49v-1.05h-3.13v1.05h3.13ZM711.12,59.27l-.41.81c-2.01-.43-3.55-1-4.63-1.7-1.33.7-2.93,1.26-4.8,1.7l-.42-.71c1.79-.38,3.29-.88,4.51-1.49-1.01-.8-1.84-1.81-2.5-3.05h-.87v-.87h8.04v.94c-.82,1.2-1.88,2.21-3.16,3.02,1.03.6,2.45,1.05,4.24,1.35ZM711.05,52.84h-2.29c-.78,0-1.17-.39-1.17-1.17v-1.99h-3.36c0,.75-.16,1.43-.47,2.04s-1.01,1.14-2.1,1.58l-.62-.55c1.12-.41,1.81-.91,2.07-1.48s.38-1.3.38-2.19v-.25h4.9v2.59c0,.37.18.55.55.55h2.11v.87ZM709.08,54.83h-5.33c.73,1.12,1.52,2,2.38,2.61,1.3-.75,2.28-1.62,2.95-2.61Z"/>
      <path class="cls-1" d="M727.27,62.87c-3.16,1.54-6.22,2.75-9.16,3.64l-.22-.91c1.32-.38,2.62-.81,3.89-1.29v-12.46h-3.48v-.94h8.11v.94h-3.67v12.07c.79-.31,2.3-.97,4.54-1.97v.91ZM737.87,52.98l.05,4.24c0,2.38-.1,4.59-.29,6.63s-.39,3.29-.59,3.74-.51.8-.94,1.02-1.08.33-1.96.33l-2.05-.04-.34-1.05c.74.05,1.4.08,1.98.08.9,0,1.5-.08,1.82-.24s.56-.45.74-.86.34-1.58.48-3.5.21-4.01.21-6.26l-.04-3.19h-5.17c0,6.33-1.91,11.41-5.73,15.23l-.84-.69c3.74-3.71,5.61-8.55,5.61-14.51v-.04h-4.15v-.91h4.15v-4.72h.96v4.72h6.09Z"/>
      <path class="cls-1" d="M756.6,54.42l-.84.57c-.16-.27-.48-.74-.96-1.42-2.34.39-5.34.7-8.98.91l-.32-.76c1.51-1.17,2.83-3.04,3.96-5.6l.91.34c-.99,2.09-2.06,3.77-3.21,5.04,2.98-.19,5.31-.43,6.98-.74-.43-.59-1.12-1.37-2.09-2.33l.74-.62c1.62,1.65,2.89,3.18,3.8,4.61ZM754.94,67.74c0,.91-.5,1.36-1.49,1.36h-2.13l-.41-.9,1.31.04c.87,0,1.38-.04,1.53-.13s.23-.24.23-.47v-4.2c-2.06.93-4.05,1.73-5.98,2.4l-.48-.6c-.15,1.24-.53,2.54-1.15,3.88l-.87-.5c.79-1.59,1.18-3.51,1.18-5.78v-6.29h8.25v11.19ZM753.98,62.46v-5.06h-6.33v2.04c1.84.34,3.62.81,5.34,1.42l-.55.79c-1.73-.61-3.33-1.05-4.79-1.34v2.54c0,.77-.03,1.48-.09,2.16,1.88-.59,4.02-1.44,6.42-2.54ZM766.25,65.05c-.09,1.29-.29,2.26-.62,2.9s-.94.97-1.83.97h-4.46c-1.09,0-1.63-.53-1.63-1.58v-9.07h.96v3.62h7.03v.89h-7.03v4.27c0,.42.13.69.4.8s1.03.17,2.29.17c1.71,0,2.71-.07,2.99-.22s.49-.49.63-1.04.23-1.21.27-2.01l1.01.3ZM766.08,57.18h-6.91c-.96,0-1.44-.46-1.44-1.39v-7.56h.96v3.12h6.98v.89h-6.98v3.28c0,.48.25.73.76.73h6.63v.94Z"/>
      <path class="cls-1" d="M783.15,60.71c-.55-.29-.82-.66-.82-1.1,0-.3.09-.54.28-.73s.45-.29.79-.29c.36,0,.63.12.81.37s.28.59.28,1.04c0,.78-.45,1.54-1.36,2.26l-.47-.4c.33-.45.49-.84.49-1.15Z"/>
      <path class="cls-1" d="M807.89,57.28l-2.86,1.79v8.38c0,.34-.08.65-.25.92s-.38.45-.64.54-.76.14-1.51.14l-1.09-.02-.28-.94,1.77.06c.67,0,1.01-.25,1.01-.75v-7.72l-3.14,1.82-.32-.81c1.05-.57,2.21-1.23,3.46-1.97v-5.43h-3.36v-.89h3.36v-4.15h.98v4.15h2.74v.89h-2.74v4.82l2.68-1.7.18.87ZM821.45,68.07l-.39.96h-1.31c-2.44.01-4.14-.1-5.12-.31s-1.94-.65-2.89-1.3-1.75-1.46-2.4-2.42c-.75,1.49-1.71,2.86-2.88,4.1l-.75-.64c1.8-1.77,3.21-4.29,4.23-7.56l.89.29c-.3,1.01-.64,1.95-1.03,2.82,1.06,1.73,2.37,2.9,3.93,3.5v-7.92h-6.33v-.86h13.51v.86h-6.22v3.13h5.45v.86h-5.45v4.23c.98.2,2.04.3,3.15.3,1.76,0,2.96-.02,3.62-.05ZM819.31,56.5h-10.03v-7.72h10.03v7.72ZM818.35,52.17v-2.53h-8.11v2.53h8.11ZM818.35,55.64v-2.61h-8.11v2.61h8.11Z"/>
      <path class="cls-1" d="M20.82,99.29H.53v-.87h9.69c-.12-.62-.37-1.34-.74-2.13l.96-.29c.32.7.58,1.51.79,2.43h9.6v.87ZM19.58,115.1c0,1.27-.66,1.9-1.97,1.9h-1.99l-.32-.96c.56.05,1.12.08,1.66.08.62,0,1.05-.08,1.29-.23s.36-.42.36-.81v-6.98H2.73v8.91h-.96v-9.76h17.81v7.86ZM17.25,105.43H4.1v-4.35h13.15v4.35ZM16.29,104.54v-2.57H5.06v2.57h11.23ZM15.46,114.5H5.91v-4.42h9.55v4.42ZM14.5,113.64v-2.72h-7.63v2.72h7.63Z"/>
      <path class="cls-1" d="M48.69,106.39h-5.79c-.95,2.66-2.16,4.69-3.62,6.09,3.61,1.38,6.58,2.66,8.91,3.84l-.62.76c-2.21-1.12-5.23-2.43-9.07-3.9-2.54,2.09-5.87,3.37-9.98,3.83l-.5-.83c4.05-.58,7.19-1.71,9.43-3.41-2.62-.97-4.92-1.73-6.91-2.29,1.06-1.04,2.15-2.41,3.26-4.1h-5.88v-.89h6.43c1-1.63,1.86-3.18,2.57-4.65l.89.48c-.95,1.77-1.73,3.16-2.34,4.17h6.74c.27-.81.47-1.51.62-2.09l.94.27c-.16.58-.34,1.18-.55,1.82h5.5v.89ZM47.71,103.13h-.96v-3.41h-16.92v3.33h-.96v-4.22h8.91c-.13-.53-.48-1.36-1.03-2.5l.89-.32c.58,1.12.98,2.06,1.2,2.81h8.88v4.3ZM41.87,106.39h-6.98c-.9,1.42-1.79,2.61-2.66,3.57,1.95.64,3.95,1.35,6.02,2.13,1.52-1.33,2.72-3.23,3.62-5.71Z"/>
      <path class="cls-1" d="M76.29,103.34l-.5.94c-4.29-1.57-7.59-3.79-9.89-6.64-2.1,2.7-5.41,4.94-9.94,6.74l-.48-.91c3.82-1.39,6.93-3.35,9.32-5.88h-2.79v-.9h4.28c2.21,2.91,5.55,5.14,10.01,6.67ZM75.77,116.56h-19.83v-.9h9.46v-4.99h-6.76v-.89h6.76v-4.8h-6.74v-.91h14.4v.91h-6.7v4.8h6.67v.89h-6.67v4.99h9.41v.9Z"/>
      <path class="cls-1" d="M88.05,103.51c.98.87,1.68,1.73,2.12,2.6s.65,1.98.65,3.33c0,1.83-1.06,2.74-3.19,2.74l-1.49-.02-.34-.98c.65.06,1.3.09,1.97.09s1.2-.16,1.55-.48.53-.91.53-1.77c0-.99-.21-1.89-.62-2.7s-1.16-1.66-2.26-2.56c1.2-2.36,2.09-4.38,2.67-6.07h-4.78v19.34h-.96v-20.23h6.71v.89c-.55,1.67-1.41,3.61-2.57,5.82ZM103.87,100.71h-7.92l.02,2.02c0,.77-.02,1.47-.05,2.09h6.69c-.05,2.45-.17,4.69-.36,6.71s-.38,3.32-.57,3.91-.48.99-.87,1.22-.86.35-1.39.35h-3.05l-.32-.89c.6.04,1.21.06,1.84.06,1.22,0,1.97-.06,2.24-.19s.5-.42.67-.87.35-1.68.54-3.7.28-3.92.28-5.7h-5.79c-.28,3.24-1,5.75-2.16,7.54s-2.85,3.09-5.07,3.91l-.67-.77c2.69-.91,4.53-2.56,5.54-4.95s1.51-5.61,1.51-9.69v-1.03h-3.9v-.89h6.15c-.57-1.38-1.15-2.55-1.73-3.5l.96-.36c.55.94,1.16,2.23,1.8,3.87h5.59v.89Z"/>
      <path class="cls-1" d="M117.34,99.7h-6.63v-.89h3c-.26-1.01-.57-1.83-.95-2.47l.93-.39c.46.88.82,1.83,1.09,2.86h2.57v.89ZM116.83,103h-5.54v-.89h5.54v.89ZM116.83,106.55h-5.54v-.88h5.54v.88ZM116.56,116.54h-.96v-1.38h-3.09v1.84h-.96v-7.75h5.02v7.29ZM115.6,114.26v-4.12h-3.09v4.12h3.09ZM131.47,109.44h-12.25v-5.95c-.73.88-1.37,1.51-1.91,1.9l-.61-.67c1.89-1.55,3.24-3.22,4.04-5.02l.86.26c-.15.41-.42.9-.81,1.49h4.34c-.18-.55-.43-1.05-.76-1.51l.86-.28c.36.52.66,1.12.91,1.79h4.8v.82h-5.26v1.56h4.76v.82h-4.76v1.56h4.76v.81h-4.76v1.62h5.79v.81ZM131.66,116.23l-.48.81c-2.78-.41-4.89-.92-6.33-1.54-1.95.71-4.35,1.22-7.18,1.54l-.48-.81c2.67-.26,4.87-.67,6.59-1.23-1.58-.8-2.84-1.85-3.8-3.16h-1.44v-.82h11.91v.82c-1.26,1.38-2.73,2.44-4.42,3.19,1.39.47,3.27.87,5.64,1.21ZM123.31,99.96h-.96v-1.44h-4.18v-.81h4.18v-1.49h.96v3.74ZM124.72,103.82v-1.56h-4.54v1.56h4.54ZM124.72,106.2v-1.56h-4.54v1.56h4.54ZM124.72,108.63v-1.62h-4.54v1.62h4.54ZM129.16,111.84h-8.06c1.08,1.21,2.35,2.13,3.82,2.75,1.57-.64,2.98-1.56,4.24-2.75ZM131.45,98.51h-3.89v1.44h-.96v-3.74h.96v1.49h3.89v.81Z"/>
      <path class="cls-1" d="M148.58,104.37c.66,0,1.21.22,1.66.66s.67.99.67,1.65-.21,1.19-.64,1.62-.96.65-1.61.65c-.71,0-1.28-.21-1.71-.62s-.64-.96-.64-1.66.22-1.22.67-1.66.98-.65,1.59-.65ZM150.16,106.73c0-.49-.15-.88-.46-1.18s-.67-.44-1.08-.44c-.44,0-.81.16-1.11.48s-.46.7-.46,1.14.16.79.48,1.07.69.42,1.1.42.77-.15,1.08-.45.46-.64.46-1.04Z"/>
      <path class="cls-1" d="M186.79,116.08l-.36.91c-4.84-.28-8.89-1.1-12.16-2.45-1.93,1.54-4.6,2.37-8.02,2.5l-.46-.98c3.17,0,5.67-.64,7.49-1.91-1.7-.78-3.21-1.73-4.54-2.84l.77-.62c1.27,1.07,2.79,2,4.54,2.8,1.1-1.07,1.68-2.44,1.75-4.1h-7.46v-8.59h7.46v-3h-9.83v-.89h20.64v.89h-9.84v3h7.44v8.59h-7.44c-.07,1.8-.67,3.3-1.79,4.51,3.23,1.29,7.18,2.02,11.82,2.18ZM175.8,104.64v-2.95h-6.5v2.95h6.5ZM175.8,108.5v-2.98h-6.5v2.98h6.5ZM183.24,104.64v-2.95h-6.48v2.95h6.48ZM183.24,108.5v-2.98h-6.48v2.98h6.48Z"/>
      <path class="cls-1" d="M214.25,97.63h-2.81v17.57c0,1.2-.58,1.79-1.75,1.79l-4.39-.02-.34-.98c1.05.08,2.59.12,4.62.12.6,0,.9-.29.9-.86v-17.61h-16.97v-.89h20.74v.89ZM205.99,111.36h-9.83v-9.39h9.83v9.39ZM205.02,110.47v-7.61h-7.91v7.61h7.91Z"/>
      <path class="cls-1" d="M228.41,97.68c0,.12-.34.9-1.01,2.35s-1.25,2.61-1.72,3.47c.78.71,1.39,1.5,1.83,2.37s.66,2.05.66,3.56c0,1.83-1.04,2.74-3.13,2.74l-1.29-.02-.34-.98c.62.06,1.18.09,1.7.09.68,0,1.2-.16,1.55-.48s.53-.93.53-1.82c0-2.11-.87-3.85-2.61-5.21,1.22-2.32,2.17-4.34,2.86-6.07h-4.7v19.34h-.96v-20.23h6.62v.89ZM241.82,116.47h-14.77v-.89h2.86v-18.76h9.5v18.76h2.4v.89ZM238.46,102.88v-5.18h-7.58v5.18h7.58ZM238.46,108.96v-5.18h-7.58v5.18h7.58ZM238.46,115.58v-5.73h-7.58v5.73h7.58Z"/>
      <path class="cls-1" d="M255.67,106.68c-.71.35-1.64.75-2.8,1.2v7.54c0,.45-.12.8-.36,1.07s-.56.42-.97.45-.78.04-1.14.04l-1.03-.02-.29-.94,1.82.06c.68,0,1.02-.25,1.02-.75v-7.03c-1.48.6-2.56.98-3.22,1.12l-.3-.84c.98-.21,2.16-.61,3.53-1.2v-6h-3.22v-.89h3.22v-4.31h.96v4.31h2.13v.89h-2.13v5.59c1.23-.52,2.11-.91,2.61-1.17l.19.89ZM268.83,104.35h-.96v-3.05h-11.09v3.05h-.96v-3.89h6v-4.24h.96v4.24h6.05v3.89ZM268.27,116.99h-.96v-1.15h-9.75v1.15h-.96v-8.23h11.67v8.23ZM260.11,99.19l-.76.53c-.99-1.28-1.79-2.14-2.4-2.57l.69-.66c.63.46,1.46,1.36,2.47,2.7ZM261.96,111.88v-2.29h-4.39v2.29h4.39ZM261.96,115v-2.27h-4.39v2.27h4.39ZM266.59,107.01h-8.54v-3.96h8.54v3.96ZM265.63,106.18v-2.29h-6.62v2.29h6.62ZM267.31,111.88v-2.29h-4.39v2.29h4.39ZM267.31,115v-2.27h-4.39v2.27h4.39ZM267.89,97.13c-.7,1.01-1.56,1.93-2.57,2.78l-.73-.57c1.03-.8,1.86-1.68,2.47-2.66l.82.46Z"/>
      <path class="cls-1" d="M283.44,113.06c-2.23,1.38-4.47,2.43-6.73,3.15l-.6-.77c2.64-.85,4.84-1.88,6.6-3.07l.73.69ZM287.06,102.96c-3.42.77-6.96,1.38-10.63,1.85l-.18-.91,2.24-.26v-6.13h.96v5.98c.6-.08,1.47-.21,2.61-.41v-6.86h.96v2.5h3.89v.86h-3.89v3.34c1.38-.25,2.7-.52,3.94-.8l.09.84ZM297.02,111.93l-.77.62c-.42-.55-.97-1.17-1.65-1.84-2.43.22-4.84.38-7.24.48v4.1c0,1.13-.62,1.7-1.88,1.7h-1.71l-.3-.89,1.3.04c.71,0,1.16-.04,1.35-.13s.28-.3.28-.64v-4.08l-8.54.23-.18-.83c2.98-.3,6.32-1.31,10.01-3.05l-8.02.42-.09-.79c2.18-.4,4.66-1.51,7.44-3.34l.89.5c-1.92,1.27-3.8,2.2-5.65,2.79,1.46-.06,2.97-.15,4.54-.25s2.41-.17,2.55-.19,1.13-.61,2.97-1.78l.75.68-3.8,2.03c-2.45,1.28-5.02,2.26-7.7,2.94,5.86-.19,9.95-.42,12.26-.7-.46-.45-1.1-1.03-1.91-1.75l.76-.55c1.88,1.59,3.32,3.01,4.35,4.27ZM296.93,101.37c-.09,1.11-.3,1.81-.63,2.09s-.76.43-1.32.43h-5.11c-1.02,0-1.54-.46-1.54-1.39v-6.28h.95v2.52h6.87v.86h-6.87v2.91c0,.37.2.55.59.55h4.97c.42,0,.71-.17.87-.51s.25-.83.28-1.48l.94.32ZM297.14,115.44l-.62.73c-1.89-1.12-4.08-2.13-6.57-3.02l.57-.77c2.57.98,4.78,2,6.62,3.07Z"/>
      <path class="cls-1" d="M314.83,99.5c-.17,4.52-1.04,8.09-2.6,10.73s-4.02,4.92-7.38,6.84l-.6-.76c3.1-1.64,5.41-3.7,6.91-6.16-1.48-2.14-3.01-4.01-4.58-5.6-.47.8-1.12,1.73-1.97,2.79l-.7-.73c2.38-2.75,3.95-6.25,4.69-10.51l.96.22c-.2,1.16-.45,2.23-.75,3.19h6.02ZM313.8,100.41h-5.27c-.35,1.03-.84,2.12-1.46,3.27,1.69,1.71,3.24,3.54,4.65,5.5,1.2-2.3,1.9-5.22,2.09-8.77ZM324.74,108.86l-.67.74c-1.82-2.06-3.74-3.81-5.77-5.25v12.64h-.96v-20.78h.96v7.01c2.29,1.58,4.43,3.46,6.43,5.64Z"/>
      <path class="cls-1" d="M333.86,111.31c-.36,2.02-.87,3.94-1.54,5.75l-.91-.4c.63-1.56,1.13-3.42,1.49-5.58l.96.22ZM339.77,100.39c-1.56,2.84-3.81,5.77-6.75,8.79,1.48-.25,3.1-.62,4.85-1.11l-.76-1.84.9-.34c.8,1.88,1.31,3.21,1.51,3.98l-.95.34c-.03-.16-.17-.61-.41-1.32-1.91.52-3.99.98-6.22,1.37l-.33-.84c2.17-2.3,3.8-4.2,4.89-5.68-.93.15-2.27.33-4.03.55l-.23-.89c1.76-2.2,3.21-4.6,4.35-7.22l.93.35c-1.23,2.55-2.59,4.79-4.08,6.73l3.8-.53c.48-.7,1.04-1.62,1.65-2.74l.89.41ZM337.02,116.4l-.97.16c-.12-1.85-.34-3.61-.66-5.27l.91-.2c.36,1.66.6,3.43.71,5.31ZM339.88,113.54l-.96.29c-.18-.8-.47-1.73-.88-2.79l.88-.28c.41.94.73,1.86.96,2.78ZM344.21,107.97c-.31,3.56-1.96,6.38-4.95,8.45l-.62-.71c2.53-1.68,4.04-3.96,4.51-6.84h-3.05v-.89h4.1ZM352.48,115.29l-.64.76c-2.38-1.62-4.17-3.51-5.38-5.66v4.76c0,1.21-.66,1.82-1.97,1.82h-1.82l-.34-.91c.48.04.97.06,1.48.06.75,0,1.22-.05,1.41-.15s.28-.32.28-.67v-9.67h-4.68v-7.21h3.12c.45-.59.96-1.39,1.54-2.43l.89.46c-.33.57-.75,1.23-1.27,1.97h5.85v7.21h-4.49v2.68c.22.56.51,1.16.87,1.79,1.05-.86,2.06-1.87,3.02-3.02l.73.7c-.96,1.11-2.06,2.12-3.29,3.05,1.04,1.58,2.61,3.07,4.7,4.46ZM349.99,101.56v-2.25h-8.2v2.25h8.2ZM349.99,104.74v-2.29h-8.2v2.29h8.2Z"/>
      <path class="cls-1" d="M369.15,108.67c-.55-.29-.82-.66-.82-1.1,0-.3.09-.54.28-.73s.45-.29.79-.29c.36,0,.63.12.81.37s.28.59.28,1.04c0,.78-.45,1.54-1.36,2.26l-.47-.4c.33-.45.49-.84.49-1.15Z"/>
      <path class="cls-1" d="M396.93,99.38h-6.75c-1.12,1.4-2.07,2.41-2.85,3.02l-.82-.62c1.84-1.42,3.39-3.32,4.68-5.7l.94.34c-.27.59-.7,1.28-1.27,2.06h6.07v.89ZM397.12,115.96l-.81.46c-.23-.53-.61-1.2-1.11-2.02-3.03,1.08-5.23,1.78-6.6,2.11l-.5-.79c.2-.17.29-.43.29-.77v-11.64h7.99v7.17h-7.03v4.85c1.3-.3,3.09-.86,5.37-1.68-.34-.54-.7-1.04-1.08-1.51l.8-.48c1.08,1.37,1.97,2.8,2.68,4.29ZM395.42,106.44v-2.2h-6.07v2.2h6.07ZM395.42,109.6v-2.27h-6.07v2.27h6.07ZM394.19,102.29l-.86.41c-.38-.68-.87-1.34-1.46-1.97l.83-.46c.59.62,1.08,1.29,1.49,2.02ZM407.22,99.38h-7.68c-.8,1.18-1.62,2.17-2.45,2.98l-.81-.55c1.64-1.59,3.02-3.52,4.12-5.77l.94.32c-.38.77-.79,1.48-1.21,2.13h7.08v.89ZM406.19,113.54c0,.68-.17,1.16-.5,1.45s-1.16.43-2.48.43l-1.07-.02-.38-.91,1.49.02c.84,0,1.38-.04,1.62-.13s.37-.36.37-.8v-9.33h-5.43v12.76h-.96v-13.68h7.34v10.22ZM403.75,102.15l-.87.4c-.38-.68-.86-1.34-1.46-1.97l.84-.45c.58.61,1.07,1.28,1.49,2.02Z"/>
      <path class="cls-1" d="M425.4,102.38l-.84.57c-.16-.27-.48-.74-.96-1.42-2.34.39-5.34.7-8.98.91l-.32-.76c1.51-1.17,2.83-3.04,3.96-5.6l.91.34c-.99,2.09-2.06,3.77-3.21,5.04,2.98-.19,5.31-.43,6.98-.74-.43-.59-1.12-1.37-2.09-2.33l.74-.62c1.62,1.65,2.89,3.18,3.8,4.61ZM423.74,115.71c0,.91-.5,1.36-1.49,1.36h-2.13l-.41-.9,1.31.04c.87,0,1.38-.04,1.53-.13s.23-.24.23-.47v-4.2c-2.06.93-4.05,1.73-5.98,2.4l-.48-.6c-.15,1.24-.53,2.54-1.15,3.88l-.87-.5c.79-1.59,1.18-3.51,1.18-5.78v-6.29h8.25v11.19ZM422.78,110.42v-5.06h-6.33v2.04c1.84.34,3.62.81,5.34,1.42l-.55.79c-1.73-.61-3.33-1.05-4.79-1.34v2.54c0,.77-.03,1.48-.09,2.16,1.88-.59,4.02-1.44,6.42-2.54ZM435.05,113.01c-.09,1.29-.29,2.26-.62,2.9s-.94.97-1.83.97h-4.46c-1.09,0-1.63-.53-1.63-1.58v-9.07h.96v3.62h7.03v.89h-7.03v4.27c0,.42.13.69.4.8s1.03.17,2.29.17c1.71,0,2.71-.07,2.99-.22s.49-.49.63-1.04.23-1.21.27-2.01l1.01.3ZM434.88,105.15h-6.91c-.96,0-1.44-.46-1.44-1.39v-7.56h.96v3.12h6.98v.89h-6.98v3.28c0,.48.25.73.76.73h6.63v.94Z"/>
      <path class="cls-1" d="M454.56,108.22l-.75.71c-1.41-1.53-2.73-2.7-3.96-3.5l.68-.76c1.44,1.04,2.78,2.22,4.03,3.55Z"/>
      <path class="cls-1" d="M477.88,115.2c0,.61-.12,1.06-.37,1.35s-.74.44-1.47.44h-1.52l-.26-.83,1.78.05c.59,0,.88-.28.88-.84v-2.26h-5.23c-.2,1.54-.74,2.88-1.63,4.01l-.77-.57c1.04-1.21,1.56-2.98,1.56-5.32v-4.78h7.03v8.77ZM478.87,104.58h-9.39v-.81h4.25v-2.06h-3.43v-.82h3.43v-2.02h-3.98v-.82h3.98v-1.84h.96v1.84h3.98v.82h-3.98v2.02h3.36v.82h-3.36v2.06h4.17v.81ZM476.92,112.29v-2.11h-5.11c0,.97-.02,1.67-.05,2.11h5.16ZM476.92,109.37v-2.11h-5.11v2.11h5.11ZM490.32,108.26h-1.58v3.87h-3.91v2.94c0,.77-.16,1.29-.48,1.54s-.86.38-1.61.38h-1.73l-.33-1.01c.78.05,1.39.07,1.82.07.56,0,.93-.06,1.11-.18s.26-.33.26-.63v-3.12h-3.94v-.89h3.94v-2.98h-4.88v-.89h4.88v-2.88h-3.94v-.89h8.81v3.77h1.58v.89ZM489.4,96.93c-2.66.91-5.85,1.43-9.55,1.56l-.41-.86c3.44-.02,6.61-.5,9.5-1.44l.46.74ZM482.18,102.43l-.82.39c-.35-.88-.93-1.84-1.75-2.91l.71-.41c.75.86,1.37,1.84,1.85,2.93ZM485.57,102.24l-.87.3c-.41-1.2-.82-2.15-1.23-2.85l.82-.39c.57,1.14,1,2.12,1.28,2.93ZM487.77,107.37v-2.88h-2.95v2.88h2.95ZM487.77,111.24v-2.98h-2.95v2.98h2.95ZM489.77,99.06c-.41,1.09-1.05,2.27-1.9,3.56l-.76-.52c.83-1.12,1.46-2.28,1.89-3.47l.77.42Z"/>
      <path class="cls-1" d="M517.87,104.26h-20.79v-.89h6.68c-.46-1.25-1.09-2.56-1.9-3.94h-3.69v-.89h9.07c-.33-.84-.68-1.59-1.05-2.25l.93-.34c.24.41.64,1.27,1.18,2.59h8.5v.89h-3.84c-.52,1.51-1.1,2.82-1.75,3.94h6.67v.89ZM514.48,116.99h-.96v-1.7h-12.09v1.7h-.96v-10.29h14.02v10.29ZM513.52,110.44v-2.86h-12.09v2.86h12.09ZM513.52,114.43v-3.09h-12.09v3.09h12.09ZM511.92,99.43h-8.88c.79,1.6,1.39,2.91,1.8,3.94h5.2c.7-1.08,1.32-2.39,1.88-3.94Z"/>
      <path class="cls-1" d="M537.36,108.22l-.75.71c-1.41-1.53-2.73-2.7-3.96-3.5l.68-.76c1.44,1.04,2.78,2.22,4.03,3.55Z"/>
      <path class="cls-1" d="M573.09,106.39h-5.79c-.95,2.66-2.16,4.69-3.62,6.09,3.61,1.38,6.58,2.66,8.91,3.84l-.62.76c-2.21-1.12-5.23-2.43-9.07-3.9-2.54,2.09-5.87,3.37-9.98,3.83l-.5-.83c4.05-.58,7.19-1.71,9.43-3.41-2.62-.97-4.92-1.73-6.91-2.29,1.06-1.04,2.15-2.41,3.26-4.1h-5.88v-.89h6.43c1-1.63,1.86-3.18,2.57-4.65l.89.48c-.95,1.77-1.73,3.16-2.34,4.17h6.74c.27-.81.47-1.51.62-2.09l.94.27c-.16.58-.34,1.18-.55,1.82h5.5v.89ZM572.11,103.13h-.96v-3.41h-16.92v3.33h-.96v-4.22h8.91c-.13-.53-.48-1.36-1.03-2.5l.89-.32c.58,1.12.98,2.06,1.2,2.81h8.88v4.3ZM566.27,106.39h-6.98c-.9,1.42-1.79,2.61-2.66,3.57,1.95.64,3.95,1.35,6.02,2.13,1.52-1.33,2.72-3.23,3.62-5.71Z"/>
      <path class="cls-1" d="M600.69,103.34l-.5.94c-4.29-1.57-7.59-3.79-9.89-6.64-2.1,2.7-5.41,4.94-9.94,6.74l-.48-.91c3.82-1.39,6.93-3.35,9.32-5.88h-2.79v-.9h4.28c2.21,2.91,5.55,5.14,10.01,6.67ZM600.17,116.56h-19.83v-.9h9.46v-4.99h-6.76v-.89h6.76v-4.8h-6.74v-.91h14.4v.91h-6.7v4.8h6.67v.89h-6.67v4.99h9.41v.9Z"/>
      <path class="cls-1" d="M617.55,108.67c-.55-.29-.82-.66-.82-1.1,0-.3.09-.54.28-.73s.45-.29.79-.29c.36,0,.63.12.81.37s.28.59.28,1.04c0,.78-.45,1.54-1.36,2.26l-.47-.4c.33-.45.49-.84.49-1.15Z"/>
      <path class="cls-1" d="M655.89,103.34l-.5.94c-4.29-1.57-7.59-3.79-9.89-6.64-2.1,2.7-5.41,4.94-9.94,6.74l-.48-.91c3.82-1.39,6.93-3.35,9.32-5.88h-2.79v-.9h4.28c2.21,2.91,5.55,5.14,10.01,6.67ZM655.37,116.56h-19.83v-.9h9.46v-4.99h-6.76v-.89h6.76v-4.8h-6.74v-.91h14.4v.91h-6.7v4.8h6.67v.89h-6.67v4.99h9.41v.9Z"/>
      <path class="cls-1" d="M683.45,101.08h-13.23c-.02,1.89-.09,3.42-.19,4.59h10.35c-.02,2.23-.16,4.34-.42,6.33s-.51,3.25-.74,3.76-.57.87-1.01,1.08-1.39.32-2.84.32l-1.51-.02-.29-.98c.58.03,1.19.05,1.83.05,1.3,0,2.08-.07,2.34-.21s.48-.36.64-.67.36-1.38.6-3.19.38-3.67.43-5.56h-9.46c-.27,2.37-.92,4.36-1.95,5.99s-2.58,3.11-4.62,4.45l-.8-.76c2.33-1.33,4.03-3.01,5.09-5.03s1.6-5.08,1.6-9.17v-.97h-6.49v-.88h10.29c-.66-1.33-1.48-2.57-2.45-3.73l.91-.43c.9,1.15,1.78,2.54,2.64,4.16h9.29v.88Z"/>
      <path class="cls-1" d="M696.36,96.31c-.21.75-.59,1.75-1.14,2.99l-.81,1.71v15.98h-.96v-14.3c-.88,1.38-1.84,2.62-2.88,3.71l-.57-.79c2.62-2.84,4.44-6.05,5.47-9.63l.89.32ZM711.14,116.37h-15.43v-.89h5.11c-.91-5.92-1.88-10.43-2.92-13.51l.62-.46h-2.5v-.88h7.39c-.41-1.51-.98-2.95-1.69-4.32l.89-.39c.69,1.34,1.3,2.91,1.83,4.71h6.28v.88h-2.5l.68.34c-.5,5.02-1.45,9.56-2.86,13.63h5.09v.89ZM708,101.51h-9.25c1.31,4.45,2.3,9.11,2.98,13.97h3.36c1.39-3.94,2.36-8.59,2.91-13.97Z"/>
      <path class="cls-1" d="M725.09,105.24l-2.86,1.79v8.38c0,.34-.08.65-.25.92s-.38.45-.64.54-.76.14-1.51.14l-1.09-.02-.28-.94,1.77.06c.67,0,1.01-.25,1.01-.75v-7.72l-3.14,1.82-.32-.81c1.05-.57,2.21-1.23,3.46-1.97v-5.43h-3.36v-.89h3.36v-4.15h.98v4.15h2.74v.89h-2.74v4.82l2.68-1.7.18.87ZM738.65,116.03l-.39.96h-1.31c-2.44.01-4.14-.1-5.12-.31s-1.94-.65-2.89-1.3-1.75-1.46-2.4-2.42c-.75,1.49-1.71,2.86-2.88,4.1l-.75-.64c1.8-1.77,3.21-4.29,4.23-7.56l.89.29c-.3,1.01-.64,1.95-1.03,2.82,1.06,1.73,2.37,2.9,3.93,3.5v-7.92h-6.33v-.86h13.51v.86h-6.22v3.13h5.45v.86h-5.45v4.23c.98.2,2.04.3,3.15.3,1.76,0,2.96-.02,3.62-.05ZM736.51,104.47h-10.03v-7.72h10.03v7.72ZM735.55,100.13v-2.53h-8.11v2.53h8.11ZM735.55,103.6v-2.61h-8.11v2.61h8.11Z"/>
      <path class="cls-1" d="M766.25,106h-5.61v11.02h-.96v-11.02h-6.98c-.23,4.88-2.39,8.6-6.48,11.14l-.64-.75c3.91-2.37,5.97-5.83,6.16-10.39h-6.19v-.91h6.21v-5.92c-2.21.66-3.96,1.11-5.24,1.36l-.53-.9c3.7-.59,7.04-1.75,10.01-3.48l.61.76c-1.29.76-2.59,1.38-3.89,1.85v6.33h6.96v-8.87h.96v8.87h5.61v.91Z"/>
      <path class="cls-1" d="M6.48,144.29c-.52,1.19-1.26,2.49-2.21,3.91v9.14h-.96v-7.8c-.92,1.23-1.84,2.23-2.75,2.98l-.55-.74c2.4-2.23,4.26-4.84,5.59-7.83l.89.34ZM4.49,158.47c-.85,1.94-2.01,3.8-3.48,5.59l-.77-.55c1.38-1.7,2.5-3.5,3.36-5.41l.89.38ZM19.97,145.99c-.32,1.44-.75,2.78-1.3,4.03l-.87-.28c.48-1.02.85-1.98,1.09-2.86h-9.05c-1.03,1.58-2.14,2.89-3.34,3.94l-.64-.64c2.02-1.89,3.54-3.96,4.58-6.22l.83.36c-.14.32-.43.88-.88,1.68h9.57ZM10.79,150.78c-1.05,1.82-2.38,3.53-3.98,5.13l-.69-.64c1.58-1.55,2.88-3.21,3.89-4.99l.79.5ZM16.17,161.47c-.08,1.24-.25,2.08-.52,2.52s-.67.7-1.21.8-1.66.14-3.38.14c-2.15,0-3.44-.11-3.87-.33s-.64-.63-.64-1.23v-5.68h.96v5.61c0,.29.14.48.42.58s1.46.15,3.53.15c1.66,0,2.64-.05,2.95-.15s.53-.43.64-1.01.18-1.16.18-1.75l.94.35ZM13.27,160.64l-.76.57c-.86-1.48-1.88-2.92-3.07-4.3l.71-.53c1.21,1.38,2.25,2.79,3.12,4.25ZM13.88,157.14h-.96v-8.62h.96v8.62ZM20.5,155.12l-.68.57c-1.16-1.84-2.45-3.46-3.88-4.85l.64-.6c1.62,1.57,2.92,3.2,3.91,4.88ZM21.09,163.69l-.77.57c-1.15-2.09-2.39-3.9-3.71-5.45l.77-.48c1.26,1.51,2.5,3.29,3.71,5.36Z"/>
      <path class="cls-1" d="M36.03,164.5h-.96v-2.09h-5.5v2.54h-.96v-16.84h2.23c.85-1.67,1.43-3.08,1.73-4.23l.94.32c-.41,1.2-.95,2.5-1.62,3.91h4.14v16.38ZM35.07,154.54v-5.54h-5.5v5.54h5.5ZM35.07,161.52v-6.09h-5.5v6.09h5.5ZM47.96,148.21c-.06,3.48-.23,6.82-.5,10.01s-.5,4.96-.68,5.31-.44.68-.79.98-1.3.45-2.88.45l-1.54-.05-.32-.91,1.49.04c1.39,0,2.24-.09,2.56-.26s.55-.51.71-.99.35-2.07.57-4.76.35-5.65.39-8.89h-6.43c-.78,1.7-1.75,3.34-2.91,4.91l-.8-.71c1.95-2.39,3.44-5.44,4.46-9.14l.96.21c-.39,1.37-.84,2.64-1.35,3.82h7.04ZM43.66,158.86l-.87.6c-.8-1.78-1.94-3.64-3.41-5.57l.75-.57c1.19,1.34,2.36,3.19,3.53,5.54Z"/>
      <path class="cls-1" d="M75.19,150.11h-16.1v2.8c0,3.22-.25,5.73-.76,7.54s-1.23,3.36-2.17,4.66l-.75-.7c1.81-2.45,2.72-6.08,2.72-10.88v-8.78h17.06v5.36ZM74.23,149.22v-3.57h-15.14v3.57h15.14ZM76.25,154.51h-7.78v3.46h6.18v6.98h-.96v-1.34h-11.38v1.34h-.96v-6.98h6.16v-3.46h-7.54v-.9h7.54v-2.52h.96v2.52h7.78v.9ZM73.68,162.73v-3.84h-11.38v3.84h11.38Z"/>
      <path class="cls-1" d="M89.64,144.27c-.21.73-.61,1.7-1.2,2.93l-.88,1.72v16.03h-.96v-14.45c-.94,1.43-2.02,2.72-3.23,3.87l-.57-.79c2.77-2.65,4.76-5.86,5.95-9.63l.89.32ZM103.82,164.43h-14.81v-.91h6.98v-6.67h-5.85v-.91h5.85v-6.39h-6.57v-.9h6.53c-.34-1.26-.89-2.64-1.68-4.16l.87-.48c.77,1.56,1.39,3.11,1.86,4.64h6.53v.9h-6.57v6.39h5.86v.91h-5.86v6.67h6.87v.91Z"/>
      <path class="cls-1" d="M119.54,164.98h-.96v-1.68h-5.64v1.68h-.96v-10.29h7.56v10.29ZM118.56,162.39v-6.79h-5.61v6.79h5.61ZM128.35,151.6h-13.85v-6.94h13.85v6.94ZM127.39,150.68v-5.12h-11.93v5.12h11.93ZM130.19,164.98h-.95v-1.68h-5.62v1.68h-.96v-10.29h7.54v10.29ZM129.24,162.39v-6.79h-5.62v6.79h5.62Z"/>
      <path class="cls-1" d="M148.29,148.88h-2.82v2.5h-.96v-2.5h-3.55c-.33,1.55-1.02,2.8-2.09,3.73l-.68-.7c1.34-1.05,2-3.04,2-5.96v-.63c2.42-.16,4.7-.53,6.83-1.12l.5.76c-2.2.56-4.32.94-6.34,1.12,0,.61-.04,1.27-.12,1.97h7.22v.84ZM156.02,161.29h-9.94l.57.67c-2.59,1.38-5.24,2.41-7.95,3.07l-.5-.83c2.54-.54,5.09-1.51,7.64-2.91h-4.44v-9.07h14.61v9.07ZM155.06,154.92v-1.88h-12.69v1.88h12.69ZM155.06,157.67v-1.9h-12.69v1.9h12.69ZM155.06,160.44v-1.95h-12.69v1.95h12.69ZM158.93,148.88h-3.8v2.5h-.96v-2.5h-3.76c-.33,1.04-.98,1.95-1.97,2.74l-.66-.7c.63-.45,1.11-1.01,1.44-1.68s.49-1.69.49-3.08l-.02-.88c2.99-.23,5.52-.6,7.58-1.1l.48.79c-2.27.5-4.62.87-7.08,1.1,0,.63-.04,1.29-.12,1.97h8.38v.84ZM159.07,164.22l-.43.83c-2.73-1.02-5.22-1.77-7.46-2.23l.41-.84c2.43.52,4.93,1.26,7.49,2.24Z"/>
      <path class="cls-1" d="M176.18,152.33c.66,0,1.21.22,1.66.66s.67.99.67,1.65-.21,1.19-.64,1.62-.96.65-1.61.65c-.71,0-1.28-.21-1.71-.62s-.64-.96-.64-1.66.22-1.22.67-1.66.98-.65,1.59-.65ZM177.76,154.69c0-.49-.15-.88-.46-1.18s-.67-.44-1.08-.44c-.44,0-.81.16-1.11.48s-.46.7-.46,1.14.16.79.48,1.07.69.42,1.1.42.77-.15,1.08-.45.46-.64.46-1.04Z"/>
    </g>
  </g>
</svg>