<?xml version="1.0" encoding="UTF-8"?>
<svg id="_圖層_2" data-name="圖層 2" xmlns="http://www.w3.org/2000/svg" viewBox="0 0 728.19 42.08">
  <defs>
    <style>
      .cls-1 {
        fill: #231815;
      }
    </style>
  </defs>
  <g id="_圖層_1-2" data-name="圖層 1">
    <g>
      <path class="cls-1" d="M11.25,38.97c-3.51,0-6.26-1.18-8.26-3.53-2-2.35-2.99-5.59-2.99-9.7,0-2.52.48-4.92,1.44-7.2.96-2.28,2.32-4.33,4.09-6.14,1.77-1.81,3.9-3.31,6.39-4.48,2.49-1.17,5.28-1.92,8.37-2.25l.27,1.08c-3.36.72-6.19,1.97-8.48,3.76s-4.02,3.94-5.17,6.46c-1.16,2.52-1.73,5.28-1.73,8.28,0,2.82.25,5.13.76,6.93.51,1.8,1.23,3.14,2.16,4,.93.87,1.99,1.31,3.2,1.31,1.56,0,2.85-.71,3.87-2.14s1.53-3.64,1.53-6.64c0-2.55-.49-4.51-1.46-5.87-.98-1.36-2.35-2.05-4.12-2.05-1.14,0-2.24.24-3.31.72-1.06.48-2.11,1.32-3.13,2.52l-.86-.63h.32c2.25-3.18,5.19-4.77,8.82-4.77,2.82,0,5,.91,6.53,2.72,1.53,1.82,2.29,4.21,2.29,7.18,0,2.01-.45,3.79-1.35,5.35-.9,1.56-2.14,2.8-3.71,3.71-1.58.91-3.4,1.37-5.47,1.37Z"/>
      <path class="cls-1" d="M37.98,38.25c.03-.75.05-1.75.07-2.99.01-1.25.03-2.54.04-3.89.01-1.35.02-2.54.02-3.56v-3.15c0-1.5,0-2.8-.02-3.89-.02-1.09-.05-2.2-.11-3.31l-3.74-.27v-1.08l8.06-2.21.58.4.31,5.04v8.46c0,1.02,0,2.2.02,3.56.02,1.35.03,2.65.05,3.89.01,1.25.04,2.24.07,2.99h-5.36ZM34.56,38.25v-1.3l4.82-.5h2.25l4.72.5v1.3h-11.79ZM52.97,38.25c.03-.75.05-1.74.07-2.97.01-1.23.03-2.52.04-3.87.01-1.35.02-2.55.02-3.6v-5.49c0-2.07-.31-3.54-.92-4.41s-1.51-1.31-2.68-1.31-2.29.4-3.56,1.19c-1.26.79-2.56,1.97-3.92,3.53l-.31-1.84h.67c1.38-1.83,2.81-3.23,4.3-4.21,1.48-.97,3.1-1.46,4.84-1.46,2.1,0,3.71.68,4.84,2.02,1.12,1.35,1.69,3.53,1.69,6.53v5.44c0,1.05,0,2.25.02,3.6.01,1.35.03,2.64.04,3.87.01,1.23.04,2.22.07,2.97h-5.22ZM49.64,38.25v-1.3l4.68-.5h2.29l4.68.5v1.3h-11.66ZM67.82,38.25c.03-.75.05-1.74.07-2.97.01-1.23.03-2.52.04-3.87.01-1.35.02-2.55.02-3.6v-5.49c0-2.16-.31-3.65-.94-4.48s-1.56-1.24-2.79-1.24c-1.11,0-2.27.35-3.49,1.06-1.22.71-2.5,1.87-3.85,3.49l-.41-2.02h.72c1.41-1.86,2.85-3.21,4.32-4.05,1.47-.84,3.03-1.26,4.68-1.26,2.25,0,3.94.68,5.06,2.05,1.12,1.37,1.69,3.56,1.69,6.59v5.35c0,1.05,0,2.25.02,3.6.01,1.35.03,2.64.04,3.87.02,1.23.04,2.22.07,2.97h-5.27ZM64.58,38.25v-1.3l4.54-.5h2.34l4.72.5v1.3h-11.61Z"/>
      <path class="cls-1" d="M91.71,38.25c.03-.75.05-1.75.07-2.99.01-1.25.03-2.54.04-3.89.01-1.35.02-2.54.02-3.56v-3.15c0-1.5,0-2.8-.02-3.89-.02-1.09-.05-2.2-.11-3.31l-3.74-.27v-1.08l8.06-2.21.58.4.31,5.04v8.46c0,1.02,0,2.2.02,3.56.02,1.35.03,2.65.05,3.89.01,1.25.04,2.24.07,2.99h-5.36ZM88.29,38.25v-1.3l4.82-.5h2.25l4.72.5v1.3h-11.79ZM106.7,38.25c.03-.75.05-1.74.07-2.97.01-1.23.03-2.52.04-3.87.01-1.35.02-2.55.02-3.6v-5.49c0-2.07-.31-3.54-.92-4.41s-1.51-1.31-2.68-1.31-2.29.4-3.56,1.19c-1.26.79-2.56,1.97-3.92,3.53l-.31-1.84h.67c1.38-1.83,2.81-3.23,4.3-4.21,1.48-.97,3.1-1.46,4.84-1.46,2.1,0,3.71.68,4.84,2.02,1.12,1.35,1.69,3.53,1.69,6.53v5.44c0,1.05,0,2.25.02,3.6.01,1.35.03,2.64.04,3.87.01,1.23.04,2.22.07,2.97h-5.22ZM103.37,38.25v-1.3l4.68-.5h2.29l4.68.5v1.3h-11.66ZM121.54,38.25c.03-.75.05-1.74.07-2.97.01-1.23.03-2.52.04-3.87.01-1.35.02-2.55.02-3.6v-5.49c0-2.16-.31-3.65-.94-4.48s-1.56-1.24-2.79-1.24c-1.11,0-2.27.35-3.49,1.06-1.22.71-2.5,1.87-3.85,3.49l-.41-2.02h.72c1.41-1.86,2.85-3.21,4.32-4.05,1.47-.84,3.03-1.26,4.68-1.26,2.25,0,3.94.68,5.06,2.05,1.12,1.37,1.69,3.56,1.69,6.59v5.35c0,1.05,0,2.25.02,3.6.01,1.35.03,2.64.04,3.87.02,1.23.04,2.22.07,2.97h-5.27ZM118.3,38.25v-1.3l4.54-.5h2.34l4.72.5v1.3h-11.61Z"/>
      <path class="cls-1" d="M165.33,22.95h-23.35v-2.07h23.35v2.07ZM152.55,34.16V9.99h2.25v24.17h-2.25Z"/>
      <path class="cls-1" d="M189.18,38.97c-3.51,0-6.26-1.18-8.26-3.53-2-2.35-2.99-5.59-2.99-9.7,0-2.52.48-4.92,1.44-7.2.96-2.28,2.32-4.33,4.09-6.14,1.77-1.81,3.9-3.31,6.39-4.48,2.49-1.17,5.28-1.92,8.37-2.25l.27,1.08c-3.36.72-6.19,1.97-8.48,3.76s-4.02,3.94-5.17,6.46c-1.16,2.52-1.73,5.28-1.73,8.28,0,2.82.25,5.13.76,6.93.51,1.8,1.23,3.14,2.16,4,.93.87,1.99,1.31,3.2,1.31,1.56,0,2.85-.71,3.87-2.14s1.53-3.64,1.53-6.64c0-2.55-.49-4.51-1.46-5.87-.98-1.36-2.35-2.05-4.12-2.05-1.14,0-2.24.24-3.31.72-1.06.48-2.11,1.32-3.13,2.52l-.86-.63h.32c2.25-3.18,5.19-4.77,8.82-4.77,2.82,0,5,.91,6.53,2.72,1.53,1.82,2.29,4.21,2.29,7.18,0,2.01-.45,3.79-1.35,5.35-.9,1.56-2.14,2.8-3.71,3.71-1.58.91-3.4,1.37-5.47,1.37Z"/>
      <path class="cls-1" d="M215.91,38.25c.03-.75.05-1.75.07-2.99.01-1.25.03-2.54.04-3.89.01-1.35.02-2.54.02-3.56v-3.15c0-1.5,0-2.8-.02-3.89-.02-1.09-.05-2.2-.11-3.31l-3.74-.27v-1.08l8.06-2.21.58.4.31,5.04v8.46c0,1.02,0,2.2.02,3.56.02,1.35.03,2.65.05,3.89.01,1.25.04,2.24.07,2.99h-5.36ZM212.49,38.25v-1.3l4.82-.5h2.25l4.72.5v1.3h-11.79ZM230.89,38.25c.03-.75.05-1.74.07-2.97.01-1.23.03-2.52.04-3.87.01-1.35.02-2.55.02-3.6v-5.49c0-2.07-.31-3.54-.92-4.41s-1.51-1.31-2.68-1.31-2.29.4-3.56,1.19c-1.26.79-2.56,1.97-3.92,3.53l-.31-1.84h.67c1.38-1.83,2.81-3.23,4.3-4.21,1.48-.97,3.1-1.46,4.84-1.46,2.1,0,3.71.68,4.84,2.02,1.12,1.35,1.69,3.53,1.69,6.53v5.44c0,1.05,0,2.25.02,3.6.01,1.35.03,2.64.04,3.87.01,1.23.04,2.22.07,2.97h-5.22ZM227.56,38.25v-1.3l4.68-.5h2.29l4.68.5v1.3h-11.66ZM245.74,38.25c.03-.75.05-1.74.07-2.97.01-1.23.03-2.52.04-3.87.01-1.35.02-2.55.02-3.6v-5.49c0-2.16-.31-3.65-.94-4.48s-1.56-1.24-2.79-1.24c-1.11,0-2.27.35-3.49,1.06-1.22.71-2.5,1.87-3.85,3.49l-.41-2.02h.72c1.41-1.86,2.85-3.21,4.32-4.05,1.47-.84,3.03-1.26,4.68-1.26,2.25,0,3.94.68,5.06,2.05,1.12,1.37,1.69,3.56,1.69,6.59v5.35c0,1.05,0,2.25.02,3.6.01,1.35.03,2.64.04,3.87.02,1.23.04,2.22.07,2.97h-5.27ZM242.5,38.25v-1.3l4.54-.5h2.34l4.72.5v1.3h-11.61Z"/>
      <path class="cls-1" d="M269.64,38.25c.03-.75.05-1.75.07-2.99.01-1.25.03-2.54.04-3.89.01-1.35.02-2.54.02-3.56v-3.15c0-1.5,0-2.8-.02-3.89-.02-1.09-.05-2.2-.11-3.31l-3.74-.27v-1.08l8.06-2.21.58.4.31,5.04v8.46c0,1.02,0,2.2.02,3.56.02,1.35.03,2.65.05,3.89.01,1.25.04,2.24.07,2.99h-5.36ZM266.22,38.25v-1.3l4.82-.5h2.25l4.72.5v1.3h-11.79ZM284.62,38.25c.03-.75.05-1.74.07-2.97.01-1.23.03-2.52.04-3.87.01-1.35.02-2.55.02-3.6v-5.49c0-2.07-.31-3.54-.92-4.41s-1.51-1.31-2.68-1.31-2.29.4-3.56,1.19c-1.26.79-2.56,1.97-3.92,3.53l-.31-1.84h.67c1.38-1.83,2.81-3.23,4.3-4.21,1.48-.97,3.1-1.46,4.84-1.46,2.1,0,3.71.68,4.84,2.02,1.12,1.35,1.69,3.53,1.69,6.53v5.44c0,1.05,0,2.25.02,3.6.01,1.35.03,2.64.04,3.87.01,1.23.04,2.22.07,2.97h-5.22ZM281.29,38.25v-1.3l4.68-.5h2.29l4.68.5v1.3h-11.66ZM299.47,38.25c.03-.75.05-1.74.07-2.97.01-1.23.03-2.52.04-3.87.01-1.35.02-2.55.02-3.6v-5.49c0-2.16-.31-3.65-.94-4.48s-1.56-1.24-2.79-1.24c-1.11,0-2.27.35-3.49,1.06-1.22.71-2.5,1.87-3.85,3.49l-.41-2.02h.72c1.41-1.86,2.85-3.21,4.32-4.05,1.47-.84,3.03-1.26,4.68-1.26,2.25,0,3.94.68,5.06,2.05,1.12,1.37,1.69,3.56,1.69,6.59v5.35c0,1.05,0,2.25.02,3.6.01,1.35.03,2.64.04,3.87.02,1.23.04,2.22.07,2.97h-5.27ZM296.23,38.25v-1.3l4.54-.5h2.34l4.72.5v1.3h-11.61Z"/>
      <path class="cls-1" d="M320.04,6.57v-1.4h14.62v1.4l-6.71.58h-1.3l-6.62-.58ZM320.04,38.25l.04-1.44,6.57-.58h.63l-.04,2.02h-7.2ZM324.45,38.25c.06-2.55.09-5.08.09-7.58V12.83c0-2.58-.03-5.13-.09-7.65h5.58c-.03,2.52-.05,5.07-.07,7.65-.01,2.58-.02,5.21-.02,7.88v2.7c0,2.28,0,4.68.02,7.2.02,2.52.04,5.07.07,7.65h-5.58ZM327.24,38.25l.04-1.62h16.02l-2.61,1.31,2.02-8.96h2.12l-.13,9.27h-17.46Z"/>
      <path class="cls-1" d="M369.18,38.97c-2.19,0-4.18-.49-5.96-1.48-1.79-.99-3.2-2.43-4.25-4.32-1.05-1.89-1.58-4.17-1.58-6.84s.55-4.93,1.64-6.79,2.54-3.28,4.34-4.25c1.8-.97,3.74-1.46,5.8-1.46s4.05.48,5.85,1.44c1.8.96,3.25,2.37,4.34,4.23,1.09,1.86,1.64,4.14,1.64,6.84s-.52,4.99-1.57,6.86c-1.05,1.88-2.47,3.31-4.25,4.3-1.79.99-3.79,1.48-6.01,1.48ZM369.18,37.49c2.01,0,3.58-.94,4.7-2.81s1.69-4.63,1.69-8.26-.56-6.43-1.69-8.3c-1.12-1.87-2.69-2.81-4.7-2.81s-3.53.94-4.66,2.81c-1.12,1.88-1.69,4.64-1.69,8.3s.56,6.38,1.69,8.26,2.68,2.81,4.66,2.81Z"/>
      <path class="cls-1" d="M391.5,15.84v-1.3h11.79v1.3l-5.62.5h-1.62l-4.55-.5ZM402.03,38.43l-8.42-23.89h5.27l6.25,19.75h-.77l.23-.63,6.52-19.12h2.48l6.88,19.75h-.81l.18-.54,5.8-19.21h1.98l-8.1,23.89h-2.21l-6.97-20.43h1.21l-.31.81-7.02,19.62h-2.21ZM407.11,15.84v-1.3h10.71v1.3l-4.63.5h-1.35l-4.73-.5ZM421.15,15.84v-1.3h9.09v1.3l-3.69.5h-.67l-4.73-.5Z"/>
      <path class="cls-1" d="M440.19,27.18v-2.65h12.19v2.65h-12.19Z"/>
      <path class="cls-1" d="M465.52,6.57v-1.4h7.2v1.98h-.58l-6.62-.58ZM465.52,38.25v-1.44l6.62-.58h.58v2.02h-7.2ZM469.93,38.25c.06-2.55.09-5.11.09-7.67V12.85c0-2.57-.03-5.12-.09-7.67h5.58c-.03,2.52-.05,5.08-.07,7.7-.01,2.61-.02,5.31-.02,8.1v1.12c0,2.94,0,5.72.02,8.35.02,2.63.04,5.23.07,7.81h-5.58ZM488.11,13.59l-1.84-8.23,2.65,1.44h-16.2v-1.62h17.42l.18,8.42h-2.21ZM472.72,22.19v-1.53h10.98v1.53h-10.98ZM472.72,38.25v-1.62h17.05l-2.7,1.35,1.94-8.37h2.11l-.13,8.64h-18.27ZM483.3,26.77l-.67-4.99v-.95l.67-4.91h1.8v10.85h-1.8Z"/>
      <path class="cls-1" d="M526.18,2.56v-1.21l4.09,1.66h-.63v13.86c0,1.92-.03,3.97-.09,6.14-.06,2.18-.25,4.38-.56,6.62-.32,2.23-.83,4.42-1.55,6.55-.72,2.13-1.74,4.1-3.06,5.9l-.72-.36c.9-2.43,1.52-5.04,1.87-7.83s.54-5.63.59-8.53c.04-2.89.07-5.72.07-8.48V2.56ZM528.43,11.48c1.71-.18,3.07-.14,4.09.14,1.02.27,1.75.65,2.18,1.15.43.49.64.97.61,1.44-.03.47-.25.83-.65,1.1-.41.27-.92.3-1.55.09-.33-.39-.79-.8-1.37-1.24-.59-.43-1.2-.85-1.85-1.26-.65-.41-1.25-.71-1.82-.92l.36-.49ZM536.8,3.01v1.31h-8.42v-1.31h8.42ZM528.88,23.17c.6-.27,1.48-.7,2.63-1.28,1.15-.58,2.36-1.21,3.62-1.87l.27.5c-.42.54-.97,1.25-1.64,2.11-.67.87-1.45,1.85-2.32,2.93-.03.24-.11.48-.25.72-.14.24-.31.42-.52.54l-1.8-3.65ZM533.97,3.01l1.67-2.02,3.92,3.01c-.12.15-.33.31-.63.47-.3.17-.66.29-1.08.38v32.31c0,.9-.11,1.67-.31,2.32-.21.65-.65,1.16-1.33,1.55-.67.39-1.73.66-3.17.81-.03-.54-.11-1.03-.23-1.46-.12-.44-.31-.77-.58-1.01-.27-.27-.65-.51-1.15-.72-.5-.21-1.18-.38-2.05-.5v-.72c.75.06,1.39.11,1.91.16.52.04,1.02.08,1.49.09.46.02.8.02,1.01.02.36,0,.61-.07.74-.2.13-.14.2-.37.2-.7V3.01h-.41ZM553.14,18.23c-1.08,1.05-2.39,2.12-3.92,3.22-1.53,1.1-3.21,2.11-5.04,3.04-1.83.93-3.78,1.7-5.85,2.29l-.4-.54c1.71-.93,3.37-2.05,4.97-3.38s3.04-2.68,4.32-4.1c1.27-1.41,2.26-2.71,2.95-3.91l5.04,2.65c-.12.24-.34.43-.65.56-.31.13-.79.19-1.42.16ZM564.88,33.3c-.36.42-.99.51-1.89.27-3.63,2.43-7.46,4.27-11.47,5.51-4.02,1.24-8.28,2.17-12.78,2.77l-.27-.81c4.14-1.05,8.06-2.42,11.75-4.09,3.69-1.68,7.07-3.93,10.12-6.75l4.54,3.1ZM538.87,12.6c.6-.15,1.4-.39,2.41-.72,1-.33,2.14-.71,3.42-1.15,1.27-.43,2.57-.89,3.89-1.37l.23.58c-.81.6-1.82,1.33-3.01,2.18-1.2.85-2.58,1.84-4.14,2.95-.09.51-.36.88-.81,1.12l-1.98-3.6ZM539.73,5.85c1.59-.09,2.83.03,3.73.36.9.33,1.52.74,1.87,1.21.34.48.46.95.36,1.42s-.37.8-.79,1.01c-.42.21-.93.2-1.53-.04-.39-.63-.97-1.28-1.75-1.96s-1.54-1.19-2.29-1.55l.41-.45ZM549.13,3.15v1.31h-9.31l-.41-1.31h9.72ZM559.75,28.62c-.12.21-.31.35-.56.4-.25.06-.62.03-1.1-.09-2.49,1.8-5.22,3.31-8.19,4.52s-6.06,2.15-9.27,2.81l-.4-.77c2.88-1.05,5.63-2.35,8.26-3.92,2.62-1.56,4.99-3.43,7.09-5.62l4.18,2.66ZM556.11,24.21c-.15.21-.35.35-.58.41-.24.06-.6.04-1.08-.04-1.86,1.44-3.99,2.71-6.39,3.82-2.4,1.11-4.85,1.98-7.34,2.61l-.45-.76c2.19-.99,4.3-2.21,6.32-3.65,2.03-1.44,3.82-3.06,5.38-4.86l4.14,2.47ZM546.75,3.15l1.62-1.89,4,2.88c-.12.15-.33.31-.63.47-.3.17-.66.28-1.08.34v8.64c0,.72-.09,1.33-.27,1.82-.18.49-.56.88-1.12,1.15-.57.27-1.44.47-2.61.58-.03-.36-.08-.69-.13-.99-.06-.3-.18-.52-.36-.68-.12-.15-.32-.31-.61-.47s-.7-.28-1.24-.34v-.67c.6.03,1.07.06,1.42.09.34.03.61.04.79.04.27,0,.44-.06.52-.18.07-.12.11-.3.11-.54V3.15h-.41ZM552.33,17.55c.69.69,1.58,1.34,2.68,1.96,1.09.62,2.3,1.16,3.62,1.64,1.32.48,2.66.89,4,1.24,1.35.34,2.61.62,3.78.83l-.13.54c-.75.42-1.35.92-1.8,1.51s-.75,1.25-.9,2c-1.53-.6-3.04-1.38-4.54-2.34-1.5-.96-2.89-2.02-4.16-3.19-1.28-1.17-2.38-2.36-3.31-3.56l.76-.63ZM551.83,12.33c.87-.24,2.21-.65,4-1.24,1.8-.58,3.66-1.22,5.58-1.91l.23.58c-.78.57-1.74,1.26-2.88,2.07-1.14.81-2.48,1.74-4.01,2.79-.09.51-.34.87-.76,1.08l-2.16-3.38ZM552.64,5.85c1.53-.09,2.73.02,3.6.31.87.3,1.46.68,1.78,1.15.32.47.42.92.32,1.37-.11.45-.37.78-.79.99-.42.21-.93.2-1.53-.04-.33-.6-.86-1.21-1.6-1.84-.74-.63-1.45-1.12-2.14-1.49l.36-.45ZM561.82,3.1v1.31h-8.78l-.4-1.31h9.18ZM559.89,3.1l1.62-1.94,4.01,2.92c-.12.15-.33.31-.63.47-.3.17-.66.28-1.08.34v8.96c0,.78-.08,1.42-.25,1.93-.17.51-.54.92-1.12,1.21-.58.3-1.48.51-2.68.63,0-.39-.03-.75-.09-1.08-.06-.33-.18-.6-.36-.81-.15-.15-.36-.31-.63-.47-.27-.16-.69-.29-1.26-.38v-.68c.6.06,1.08.11,1.44.14.36.03.63.04.81.04.24,0,.41-.06.5-.18.09-.12.13-.3.13-.54V3.1h-.4Z"/>
      <path class="cls-1" d="M600.21,3.2c-1.05,1.68-2.37,3.36-3.96,5.04s-3.37,3.3-5.33,4.86c-1.97,1.56-4.04,2.99-6.21,4.3-2.18,1.3-4.37,2.42-6.59,3.35l-.27-.63c1.92-1.11,3.86-2.48,5.81-4.1,1.95-1.62,3.78-3.36,5.49-5.22,1.71-1.86,3.19-3.72,4.43-5.58,1.25-1.86,2.14-3.58,2.68-5.17l6.79,1.67c-.09.27-.29.47-.61.61-.31.13-.79.23-1.42.29.99,1.41,2.2,2.7,3.62,3.87s2.99,2.26,4.68,3.26c1.7,1.01,3.47,1.9,5.31,2.68,1.84.78,3.7,1.49,5.56,2.12l-.04.67c-.63.15-1.19.43-1.69.83s-.89.87-1.19,1.4c-.3.53-.51,1.04-.63,1.55-2.37-1.14-4.62-2.5-6.75-4.1-2.13-1.59-4.03-3.37-5.69-5.33-1.67-1.96-2.99-4.09-3.98-6.37ZM585.67,25.25v-1.98l4.77,1.98h20.47v1.3h-20.79v14.04c0,.12-.19.29-.56.52-.38.23-.85.43-1.42.61-.57.18-1.17.27-1.8.27h-.68v-16.74ZM587.29,37.12h23.62v1.3h-23.62v-1.3ZM588.42,17.1h14l2.66-3.33c.63.51,1.19.97,1.69,1.37s1.01.83,1.55,1.28c.54.45,1.03.87,1.48,1.26-.12.48-.53.72-1.21.72h-19.8l-.36-1.31ZM607.9,25.25h-.45l2.21-2.43,4.68,3.56c-.15.18-.39.36-.72.54-.33.18-.74.33-1.21.45v13.09c0,.09-.21.22-.63.41-.42.18-.92.34-1.51.49-.58.15-1.12.23-1.6.23h-.76v-16.33Z"/>
      <path class="cls-1" d="M631.62,33.17c.93-.21,2.26-.57,3.98-1.08,1.72-.51,3.7-1.12,5.92-1.82,2.22-.71,4.48-1.43,6.79-2.18l.18.54c-1.56.99-3.49,2.2-5.78,3.62-2.29,1.43-4.99,2.99-8.08,4.7-.15.6-.49,1-1.03,1.21l-1.98-5ZM632.11,5.22h10.04l2.43-3.24c.6.51,1.13.96,1.6,1.35.46.39.95.8,1.44,1.24.49.44.95.85,1.37,1.24-.09.48-.5.72-1.21.72h-15.3l-.36-1.31ZM632.34,17.59h10.31l2.07-3.1c.84.81,1.54,1.49,2.12,2.05.57.56,1.06,1.09,1.49,1.6-.09.48-.47.72-1.12.72h-14.49l-.36-1.26ZM637.42,5.22h4.23v26.37l-4.23,1.44V5.22ZM648.72,7.92v-1.84l4.77,1.84h-.67v11.29c0,1.92-.11,3.9-.32,5.94s-.67,4.07-1.37,6.1c-.71,2.02-1.75,3.95-3.15,5.78-1.39,1.83-3.29,3.48-5.69,4.95l-.54-.45c2.04-2.1,3.55-4.37,4.54-6.82s1.64-4.97,1.96-7.58c.31-2.61.47-5.23.47-7.88V7.92ZM665.91,18.41h-.5l2.48-2.43,4.14,3.73c-.15.24-.36.4-.63.47-.27.08-.67.14-1.21.2-1.08,3.27-2.59,6.3-4.52,9.09-1.94,2.79-4.4,5.26-7.38,7.4s-6.65,3.88-11,5.2l-.36-.63c3.54-1.59,6.58-3.55,9.11-5.87,2.54-2.32,4.62-4.94,6.26-7.85,1.63-2.91,2.84-6.01,3.62-9.31ZM650.52,7.92h19.62v1.31h-19.62v-1.31ZM650.52,18.41h18v1.3h-18v-1.3ZM655.02,18.41c.6,2.79,1.5,5.24,2.7,7.36,1.2,2.11,2.65,3.95,4.34,5.51,1.69,1.56,3.61,2.88,5.74,3.96,2.13,1.08,4.42,1.96,6.89,2.65l-.09.5c-1.89.36-3.18,1.58-3.87,3.65-2.31-1.02-4.37-2.21-6.17-3.58-1.8-1.36-3.38-2.97-4.75-4.81-1.37-1.85-2.5-3.99-3.42-6.44-.92-2.44-1.63-5.26-2.14-8.44l.77-.36ZM658.17.27l5.85.54c-.03.3-.17.56-.41.79-.24.22-.65.38-1.21.47v17.28h-4.23V.27ZM668.25,7.92h-.54l2.38-2.43,4.23,4.05c-.15.18-.36.3-.63.36-.27.06-.63.11-1.08.14-.42.54-.95,1.13-1.6,1.78s-1.3,1.27-1.98,1.87c-.68.6-1.33,1.12-1.96,1.58l-.54-.31c.24-.66.46-1.42.67-2.27s.41-1.71.61-2.56.34-1.58.43-2.18Z"/>
      <path class="cls-1" d="M685.66,33.66c.87-.21,2.1-.54,3.69-.99,1.59-.45,3.38-.98,5.38-1.6,2-.61,4.04-1.25,6.14-1.91l.18.54c-1.29.9-2.92,2-4.88,3.29-1.97,1.29-4.3,2.74-7,4.36-.18.63-.52,1.03-1.03,1.21l-2.48-4.9ZM697.27,1.71c.57.51,1.08.95,1.53,1.3.45.36.91.76,1.39,1.19.48.44.92.83,1.3,1.19-.12.48-.51.72-1.17.72h-14l-.36-1.31h8.96l2.34-3.1ZM697.32,15.08c.78.78,1.44,1.44,1.98,1.98s1.02,1.05,1.44,1.53c-.12.48-.51.72-1.17.72h-12.87l-.36-1.3h9.09l1.89-2.92ZM695.07,5.31v27.36l-4.05,1.21V5.31h4.05ZM724.36,24.25v1.31h-24.71l-.72-1.31h25.42ZM723.82,2.43c.6.45,1.12.86,1.58,1.24.45.38.93.77,1.44,1.19s.96.83,1.35,1.21c-.12.48-.53.72-1.21.72h-25.74l-.36-1.3h20.57l2.38-3.06ZM701.68,22.19l4.27,2.07h-.4v16.56c0,.15-.29.39-.86.72-.57.33-1.37.5-2.38.5h-.63v-19.85ZM706.09,9.5l.9.54v9.9h.32l-1.22,1.89-3.96-2.43c.24-.27.56-.55.95-.85.39-.3.74-.51,1.04-.63l-.86,1.48v-9.9h2.83ZM708.84,8.42c-.03.27-.17.5-.43.67-.26.18-.73.33-1.42.45v3.73h-3.74v-5.35l5.58.5ZM723.06,18.63v1.31h-18.23v-1.31h18.23ZM706,32.49c.78-.06,1.83-.15,3.15-.27,1.32-.12,2.8-.27,4.43-.45,1.63-.18,3.29-.36,4.97-.54l.09.63c-1.02.48-2.31,1.04-3.87,1.69-1.56.65-3.41,1.4-5.54,2.27-.09.3-.24.52-.45.67-.21.15-.42.25-.63.31l-2.16-4.32ZM720.4,9.04c-.12.21-.29.38-.52.5-.22.12-.59.15-1.1.09-.69,1.11-1.57,2.21-2.63,3.29s-2.29,2.07-3.69,2.97c-1.4.9-2.93,1.62-4.61,2.16l-.36-.63c1.35-.78,2.59-1.72,3.71-2.83,1.12-1.11,2.1-2.3,2.92-3.58.82-1.27,1.45-2.51,1.87-3.71l4.41,1.75ZM708.48,9.76c2.58.48,4.64,1.11,6.19,1.89,1.54.78,2.68,1.57,3.42,2.38.73.81,1.13,1.55,1.19,2.21.06.66-.11,1.15-.52,1.46s-.95.34-1.64.07c-.57-.81-1.38-1.68-2.43-2.61-1.05-.93-2.16-1.84-3.33-2.72-1.17-.88-2.27-1.63-3.29-2.23l.41-.45ZM716.35,19.44c-.36.96-.8,2.06-1.33,3.31-.52,1.25-1.09,2.54-1.69,3.87-.6,1.34-1.21,2.64-1.82,3.92-.62,1.28-1.21,2.41-1.78,3.4h-.58c.24-1.05.48-2.23.72-3.53s.48-2.62.72-3.96c.24-1.33.45-2.61.63-3.83.18-1.21.33-2.27.45-3.17h4.68ZM709.87,0c1.59.12,2.83.39,3.71.81.88.42,1.5.9,1.84,1.44s.49,1.07.43,1.6c-.06.53-.28.98-.65,1.35-.38.38-.84.58-1.4.61-.56.03-1.15-.18-1.78-.63-.09-.87-.39-1.75-.9-2.65s-1.06-1.63-1.67-2.21l.41-.31ZM715.59,27.23c1.71.84,2.99,1.73,3.85,2.68.86.95,1.4,1.83,1.62,2.66s.22,1.52-.02,2.07c-.24.56-.62.9-1.12,1.04-.51.14-1.05-.05-1.62-.56-.06-.84-.25-1.73-.58-2.65s-.74-1.82-1.21-2.68c-.48-.85-.96-1.61-1.44-2.27l.54-.27ZM721.57,24.25l1.89-2.21,4.46,3.33c-.12.18-.35.36-.7.54-.34.18-.74.3-1.19.36v10.71c0,.93-.12,1.73-.36,2.41s-.75,1.22-1.53,1.64c-.78.42-2,.7-3.65.85-.06-.6-.16-1.13-.29-1.6-.14-.47-.35-.85-.65-1.15-.33-.27-.76-.53-1.3-.79-.54-.25-1.33-.44-2.38-.56v-.67c.87.06,1.61.11,2.23.16.61.04,1.21.08,1.78.11.57.03.97.04,1.21.04.39,0,.64-.07.76-.23.12-.15.18-.36.18-.63v-12.33h-.45ZM725.8,8.77c-.03.3-.15.55-.36.74-.21.2-.58.32-1.12.38v10.94c0,.09-.15.22-.45.38s-.69.31-1.17.45c-.48.14-.96.2-1.44.2h-.72v-13.59l5.27.49Z"/>
    </g>
  </g>
</svg>