<?xml version="1.0" encoding="UTF-8"?>
<svg id="_圖層_2" data-name="圖層 2" xmlns="http://www.w3.org/2000/svg" xmlns:xlink="http://www.w3.org/1999/xlink" viewBox="0 0 64.93 64.93">
  <defs>
    <linearGradient id="_未命名漸層_75" data-name="未命名漸層 75" x1="0" y1="32.46" x2="64.93" y2="32.46" gradientUnits="userSpaceOnUse">
      <stop offset="0" stop-color="#c17582"/>
      <stop offset=".44" stop-color="#b56677"/>
      <stop offset="1" stop-color="#ab596d"/>
    </linearGradient>
  </defs>
  <g id="_圖層_2-2" data-name="圖層 2">
    <g>
      <rect width="64.93" height="64.93" fill="url(#_未命名漸層_75)"/>
      <path d="M33.19,49.55c-9.4,0-17.02-7.61-17.02-17.01,0-8.57,6.36-15.8,14.86-16.88l2.23-.28-1.46,1.71c-5.19,6.02-4.51,15.11,1.51,20.3,3.65,3.15,8.64,4.26,13.29,2.95l2.17-.6-1.21,1.9c-3.11,4.94-8.54,7.93-14.37,7.92Zm-4.09-31.74c-8.13,2.25-12.9,10.67-10.65,18.8,2.25,8.13,10.67,12.9,18.8,10.65,2.93-.81,5.55-2.48,7.53-4.79-.68,.09-1.36,.13-2.05,.14-8.92,0-16.15-7.21-16.16-16.13,0-3.07,.87-6.07,2.51-8.67Z" fill="#fff"/>
    </g>
  </g>
</svg>