<?xml version="1.0" encoding="UTF-8"?>
<svg id="_圖層_2" data-name="圖層 2" xmlns="http://www.w3.org/2000/svg" xmlns:xlink="http://www.w3.org/1999/xlink" viewBox="0 0 64.93 64.93">
  <defs>
    <linearGradient id="_未命名漸層_75" data-name="未命名漸層 75" x1="0" y1="32.46" x2="64.93" y2="32.46" gradientUnits="userSpaceOnUse">
      <stop offset="0" stop-color="#c17582"/>
      <stop offset=".44" stop-color="#b56677"/>
      <stop offset="1" stop-color="#ab596d"/>
    </linearGradient>
  </defs>
  <g id="_圖層_2-2" data-name="圖層 2">
    <g>
      <rect width="64.93" height="64.93" fill="url(#_未命名漸層_75)"/>
      <g>
        <path d="M32.46,22.71c-5.39,0-9.77,4.37-9.77,9.77s4.37,9.77,9.77,9.77,9.77-4.37,9.77-9.77-4.37-9.77-9.77-9.77h0Zm0,18.23c-4.67,0-8.46-3.8-8.46-8.46s3.8-8.47,8.46-8.47,8.46,3.8,8.46,8.47-3.8,8.46-8.46,8.46Z" fill="#fff"/>
        <path d="M31.82,12.93h1.3v7.82h-1.3v-7.82h0Z" fill="#fff"/>
        <path d="M31.82,44.19h1.3v7.8h-1.3v-7.8h0Z" fill="#fff"/>
        <path d="M12.93,31.81h7.81v1.3h-7.81v-1.3h0Z" fill="#fff"/>
        <path d="M44.18,31.81h7.81v1.3h-7.81v-1.3h0Z" fill="#fff"/>
        <path d="M45.82,18.15l.92,.92-5.44,5.44-.92-.92,5.44-5.44h0Z" fill="#fff"/>
        <path d="M19.12,46.69l-.92-.92,5.44-5.44,.92,.92-5.44,5.44h0Z" fill="#fff"/>
        <path d="M19.12,18.15l5.44,5.44-.92,.92-5.44-5.44,.92-.92h0Z" fill="#fff"/>
        <path d="M45.82,46.7l-5.44-5.44,.92-.92,5.44,5.44-.92,.92Z" fill="#fff"/>
      </g>
    </g>
  </g>
</svg>